<?xml version="1.0" encoding="utf-8"?>
<!-- Generator: Adobe Illustrator 25.2.3, SVG Export Plug-In . SVG Version: 6.00 Build 0)  -->
<svg version="1.1" id="圖層_1" xmlns="http://www.w3.org/2000/svg" xmlns:xlink="http://www.w3.org/1999/xlink" x="0px" y="0px"
	 viewBox="0 0 1024 1024" style="enable-background:new 0 0 1024 1024;" xml:space="preserve">
<g id="icomoon-ignore">
</g>
<g>
	<path d="M736.7,1011.2c-13.2,0-25.9-5.6-34.8-15.4L251.7,545.6c-8.9-8.9-13.8-20.7-13.8-33.2c0-12.5,4.9-24.3,13.8-33.2L705.9,25
		c8.9-8.8,20.6-13.7,33.1-13.7c0,0,0.2,0,0.2,0c25.8,0.1,46.7,21.1,46.7,46.9c0,12.5-4.9,24.3-13.8,33.2l-421,421l416.9,417
		c9.9,8.9,15.5,21.6,15.5,34.9C783.7,990.2,762.6,1011.2,736.7,1011.2z"/>
	<path d="M739.1,21.2L739.1,21.2C739.1,21.2,739.1,21.2,739.1,21.2c20.4,0,37,16.5,37,36.9c0,10.2-4.1,19.4-10.8,26.1L337.1,512.4
		l424.1,424.3c7.6,6.8,12.4,16.6,12.4,27.6c0,20.4-16.5,36.9-36.9,36.9c-10.9,0-20.7-4.7-27.5-12.3l0,0L258.8,538.5
		c-6.7-6.7-10.8-15.9-10.8-26.1c0-10.2,4.1-19.4,10.8-26.1L713,32C719.7,25.4,728.9,21.2,739.1,21.2L739.1,21.2 M739.1,1.2
		C739.1,1.2,739.1,1.2,739.1,1.2c-15.2,0-29.5,5.9-40.2,16.7L244.6,472.1c-10.8,10.7-16.7,25-16.7,40.3c0,15.2,5.9,29.5,16.7,40.3
		l450.1,450.1c10.8,11.8,26,18.5,42,18.5c31.4,0,56.9-25.5,56.9-56.9c0-16-6.8-31.3-18.6-42.1L365.4,512.4l414-414
		c10.8-10.7,16.7-25,16.7-40.3c0-31.3-25.4-56.8-56.6-56.9C739.3,1.2,739.2,1.2,739.1,1.2L739.1,1.2z"/>
</g>
</svg>
