<?xml version="1.0" encoding="utf-8"?>
<!-- Generator: Adobe Illustrator 25.2.3, SVG Export Plug-In . SVG Version: 6.00 Build 0)  -->
<svg version="1.1" id="圖層_1" xmlns="http://www.w3.org/2000/svg" xmlns:xlink="http://www.w3.org/1999/xlink" x="0px" y="0px"
	 viewBox="0 0 1024 1024" style="enable-background:new 0 0 1024 1024;" xml:space="preserve">
<style type="text/css">
	.st0{fill:#3C00B4;}
</style>
<g id="icomoon-ignore">
</g>
<path class="st0" d="M513,304.7C513,304.7,513.1,304.7,513,304.7c10.3,0,19.6,4.2,26.3,10.9l241.3,241.2c6.7,6.7,10.9,16,10.9,26.3
	c0,20.6-16.7,37.2-37.2,37.2c-10.3,0-19.6-4.2-26.3-10.9L513,394.6L296.1,611.5c-6.7,6.7-16.1,10.9-26.3,10.9
	c-20.6,0-37.3-16.7-37.3-37.3c0-10.3,4.2-19.6,10.9-26.3l243.3-243.2C493.4,308.9,502.7,304.7,513,304.7L513,304.7L513,304.7z
	 M512,0c282.8,0,512,229.2,512,512s-229.2,512-512,512S0,794.8,0,512l0,0C0.3,229.4,229.4,0.3,512,0L512,0L512,0z M512,949.5
	c241.6,0,437.5-195.9,437.5-437.5S753.6,74.5,512,74.5S74.5,270.4,74.5,512l0,0C74.8,753.5,270.5,949.2,512,949.5L512,949.5
	L512,949.5z"/>
</svg>
