<?xml version="1.0" encoding="utf-8"?>
<!-- Generator: Adobe Illustrator 25.2.3, SVG Export Plug-In . SVG Version: 6.00 Build 0)  -->
<svg version="1.1" id="圖層_1" xmlns="http://www.w3.org/2000/svg" xmlns:xlink="http://www.w3.org/1999/xlink" x="0px" y="0px"
	 viewBox="0 0 1024 1024" style="enable-background:new 0 0 1024 1024;" xml:space="preserve">
<style type="text/css">
	.st0{fill:#3C00B4;}
</style>
<g id="icomoon-ignore">
</g>
<path class="st0" d="M511,719.3C511,719.3,510.9,719.3,511,719.3c-10.3,0-19.6-4.2-26.3-10.9L243.4,467.2
	c-6.7-6.7-10.9-16-10.9-26.3c0-20.6,16.7-37.2,37.2-37.2c10.3,0,19.6,4.2,26.3,10.9L511,629.4l216.9-216.9
	c6.7-6.7,16.1-10.9,26.3-10.9c20.6,0,37.3,16.7,37.3,37.3c0,10.3-4.2,19.6-10.9,26.3L537.3,708.4C530.6,715.1,521.3,719.3,511,719.3
	L511,719.3L511,719.3z M512,1024C229.2,1024,0,794.8,0,512S229.2,0,512,0s512,229.2,512,512l0,0C1023.7,794.6,794.6,1023.7,512,1024
	L512,1024L512,1024z M512,74.5C270.4,74.5,74.5,270.4,74.5,512S270.4,949.5,512,949.5c241.6,0,437.5-195.9,437.5-437.5l0,0
	C949.2,270.5,753.5,74.8,512,74.5L512,74.5L512,74.5z"/>
</svg>
