<?xml version="1.0" encoding="utf-8"?>
<!-- Generator: Adobe Illustrator 25.2.3, SVG Export Plug-In . SVG Version: 6.00 Build 0)  -->
<svg version="1.1" id="圖層_1" xmlns="http://www.w3.org/2000/svg" xmlns:xlink="http://www.w3.org/1999/xlink" x="0px" y="0px"
	 viewBox="0 0 1024 1024" style="enable-background:new 0 0 1024 1024;" xml:space="preserve">
<style type="text/css">
	.st0{fill:#3C00B4;}
</style>
<g id="icomoon-ignore">
</g>
<path class="st0" d="M316.8,472.9c-18.5-5.2-39.8-8.2-61.8-8.2c-37.8,0-73.5,8.9-105.2,24.7l1.4-0.6c1.6-6.8,3.4-13.4,5.1-19.7
	c45.1-161.3,133.4-233.8,181.8-233.8h2.2c0.2,0,0.4,0,0.6,0c9.5,0,17.5-6.3,20.1-15l0-0.1l26.8-96c0.5-1.7,0.8-3.6,0.8-5.6
	c0-10.2-7.3-18.6-17-20.4l-0.1,0c-9.4-1.7-20.1-2.7-31.1-2.7h0c-130.3,0-264.6,141.2-319,335.7c-27.9,99.9-28.6,208.9-1.8,299
	c29.7,99.7,90.8,167.2,172.2,190c20,6.3,43.1,9.9,66.9,9.9c128.2,0,232.1-103.9,232.1-232.1c0-107.6-73.2-198.1-172.5-224.4
	L316.8,472.9L316.8,472.9z M854.4,472.9c-18.5-5.2-39.8-8.2-61.8-8.2c-37.8,0-73.5,8.9-105.1,24.7l1.4-0.6
	c1.6-6.8,3.3-13.3,5.1-19.7c45-161.1,133.4-233.6,181.9-233.6h2c0.2,0,0.5,0,0.8,0c9.5,0,17.5-6.3,20-15l0-0.1l26.9-96
	c0.5-1.7,0.8-3.6,0.8-5.6c0-10.2-7.3-18.6-17-20.4l-0.1,0c-9.3-1.7-20.1-2.7-31-2.7c0,0-0.1,0-0.1,0h0
	c-130.3,0-264.7,141.1-319,335.6c-27.9,99.9-28.6,208.9-1.8,299c29.7,99.7,90.8,167.2,172.2,190c18.7,5.5,40.3,8.6,62.6,8.6
	c128.2,0,232.1-103.9,232.1-232.1c0-105.9-71-195.3-167.9-223.1l-1.6-0.4L854.4,472.9z"/>
</svg>
