<svg xmlns="http://www.w3.org/2000/svg" viewBox="281 -14 158.022 65.812"><defs><style>.cls-1{fill:#3c00b4}</style></defs><g id="Group_212" data-name="Group 212" transform="translate(281 -14)"><g id="Group_212-2" data-name="Group 212"><path id="Path_252" data-name="Path 252" class="cls-1" d="M35.92 20.329H22.233a36.031 36.031 0 0 0 6.612 6.976 35.381 35.381 0 0 0 8 5.062 16.3 16.3 0 0 0-2.668 3.27 35.537 35.537 0 0 1-7.347-5.162 47.143 47.143 0 0 1-6.5-7.116V37.63h-3.858V23.56a43.2 43.2 0 0 1-6.419 6.9 40.03 40.03 0 0 1-7.385 5.14A18.014 18.014 0 0 0 0 32.367a35.811 35.811 0 0 0 8-5.082 35.127 35.127 0 0 0 6.535-6.956H1.16v-3.786h15.312v-6.179H3.982V6.617h12.489V.2h3.866v6.417h12.8v3.747h-12.8v6.179H35.92z"/><path id="Path_253" data-name="Path 253" class="cls-1" d="M76.427 21.047L73.8 23.678a75.32 75.32 0 0 0-5.723-5.3 20.126 20.126 0 0 1-3.055 4.186 14.275 14.275 0 0 0-2.977-1.913 33.234 33.234 0 0 0 6.8 7.016 33.555 33.555 0 0 0 8.545 4.9A11.84 11.84 0 0 0 74.609 36a36.627 36.627 0 0 1-13.765-11.36v12.99h-3.867V24.754a38.011 38.011 0 0 1-13.688 11.2 12.469 12.469 0 0 0-2.589-3.228 34.891 34.891 0 0 0 9.2-5.7 33.332 33.332 0 0 0 7.076-8.053V9.248H42.207V5.58h14.771V.2h3.867v5.38h15.234v3.668H60.844v9.526q.5.839 1.121 1.754 3.944-3.507 5.414-10.563l3.557.639a28.73 28.73 0 0 1-1.392 4.584 88.786 88.786 0 0 1 6.883 5.859zM48.858 9.965l3.557.678a36.825 36.825 0 0 1-1.469 4.624 52.032 52.032 0 0 1 4.214 4.026L52.647 22a31.465 31.465 0 0 0-3.247-3.465 21.515 21.515 0 0 1-4.794 6.02 13.817 13.817 0 0 0-2.823-2.472Q47 18.057 48.858 9.965z"/><path id="Path_254" data-name="Path 254" class="cls-1" d="M113.685 13.912l3.325.6a46.79 46.79 0 0 1-5.451 13.788q1.352 5.421 2.861 5.421 1 0 1.159-6.418a6.852 6.852 0 0 0 2.63 1.954q-.348 4.624-1.237 6.3a3.139 3.139 0 0 1-3.017 1.674q-2.9 0-4.871-5.381a30.245 30.245 0 0 1-6.148 5.779A14.911 14.911 0 0 0 100.384 35 26.1 26.1 0 0 0 108 27.744a114.294 114.294 0 0 1-1.856-18.138h-8.582v4.982h7.23c0 .639-.014 1.091-.039 1.355q-.078 7.255-.271 10.125a9.106 9.106 0 0 1-.7 3.628 2.965 2.965 0 0 1-2.126 1.195 17.318 17.318 0 0 1-3.441.08 8.159 8.159 0 0 0-.851-3.149 21.3 21.3 0 0 0 2.706.159 1.07 1.07 0 0 0 .967-.478q.5-.757.619-9.807h-4.1v1.4q0 12.915-4.949 18.695a8.063 8.063 0 0 0-1.276-1.256 14.123 14.123 0 0 0-1.47-1.1 16.931 16.931 0 0 0 3.48-7.493q-.62.279-10.711 4.5l-1.2-3.745q1.236-.4 4.408-1.555V13.513h-3.859V10h3.867V.678h3.4V10h3.479v3.508h-3.477V25.87l3.479-1.315.657 3.309a44.4 44.4 0 0 0 .773-8.81V6.179h11.871q-.117-2.99-.116-6.02h3.479q-.038 2.033.039 6.02h4.33a31.3 31.3 0 0 0-3.9-4.345l2.553-1.6A20.653 20.653 0 0 1 116.7 4.9l-1.934 1.275h2.668v3.431h-7.927q.27 6.975 1.121 13.394a42.581 42.581 0 0 0 3.057-9.088z"/><path id="Path_255" data-name="Path 255" class="cls-1" d="M158.021 9.248h-16.047v4.982h12.566v14.031q0 2.99-1.855 3.747-1.624.639-6.96.638a12.784 12.784 0 0 0-1.237-3.747q1.624.081 3.325.1t2.05-.02a1.175 1.175 0 0 0 .676-.2.8.8 0 0 0 .175-.6V17.938h-8.739V37.75h-3.789V17.938h-8.12v14.789h-3.673V14.23h11.793V9.248h-15.738V5.58h15.7V0h3.9v5.58h15.969v3.668z"/></g><g id="Group_214" data-name="Group 214"><g id="Group_213" data-name="Group 213"><path id="Path_256" data-name="Path 256" class="cls-1" d="M116.183 61.49a7.254 7.254 0 0 1-3.358-.764 5.853 5.853 0 0 1-2.415-2.382 7.654 7.654 0 0 1-.926-3.86 9.486 9.486 0 0 1 .644-3.52 8.082 8.082 0 0 1 1.731-2.731 7.933 7.933 0 0 1 2.536-1.727 7.653 7.653 0 0 1 3.044-.622A5.971 5.971 0 0 1 122 47.677a7.327 7.327 0 0 1 1.336 6.931 4.725 4.725 0 0 1-.918 1.627 4.137 4.137 0 0 1-1.239.955 3.04 3.04 0 0 1-1.354.332 2.273 2.273 0 0 1-1.336-.382 1.557 1.557 0 0 1-.66-1.079h-.032a3.6 3.6 0 0 1-1.047.946 2.352 2.352 0 0 1-1.208.365 2.083 2.083 0 0 1-1.667-.747 3.022 3.022 0 0 1-.636-2.025 5.114 5.114 0 0 1 1.039-3.1 3.108 3.108 0 0 1 2.584-1.411 1.5 1.5 0 0 1 1.466.93h.048l.21-.78h1.239l-.775 3.961q-.483 2.058.966 2.059a2.053 2.053 0 0 0 1.667-1.062 4.76 4.76 0 0 0 .732-2.756 5.505 5.505 0 0 0-1.32-3.826 4.844 4.844 0 0 0-3.8-1.47 5.8 5.8 0 0 0-2.4.522 6.7 6.7 0 0 0-2.061 1.453 6.9 6.9 0 0 0-1.449 2.324 8.153 8.153 0 0 0-.548 3.005 5.676 5.676 0 0 0 1.562 4.241 5.418 5.418 0 0 0 3.962 1.536 5.746 5.746 0 0 0 2.947-.83l.467 1.146a7.026 7.026 0 0 1-3.592.948zm-.258-5.428a2.193 2.193 0 0 0 1.562-1.029l.5-2.9a1.223 1.223 0 0 0-1.1-.714 1.818 1.818 0 0 0-1.57.988 3.883 3.883 0 0 0-.619 2.1q.002 1.554 1.227 1.555z"/><path id="Path_257" data-name="Path 257" class="cls-1" d="M140.268 53.9h-5.685a8.793 8.793 0 0 0 6.57 6.1 6.029 6.029 0 0 0-1.03 1.511 9.658 9.658 0 0 1-3.978-2.133 10.763 10.763 0 0 1-2.561-3.744q-1.386 4.05-6.748 5.894a3.891 3.891 0 0 0-.411-.739 5.175 5.175 0 0 0-.523-.672 14.252 14.252 0 0 0 2.811-1.245 7.72 7.72 0 0 0 1.916-1.544 7.8 7.8 0 0 0 1.119-1.652 7.3 7.3 0 0 0 .6-1.768h-5.572v-1.61h5.765q.017-.249.016-.747v-2.826h-6.264v-1.61h14.4v1.61h-6.522v2.839q0 .5-.016.73h6.119V53.9z"/><path id="Path_258" data-name="Path 258" class="cls-1" d="M157.686 48.724h-6.812V51.6l.273-.349q1.466.73 3.14 1.734a24.831 24.831 0 0 1 2.593 1.735l-1.11 1.444a32.142 32.142 0 0 0-4.9-3.254v8.55h-1.643V48.724h-6.12v-1.61h14.574v1.61z"/></g></g><g id="Group_216" data-name="Group 216"><g id="Group_215" data-name="Group 215"><path id="Path_259" data-name="Path 259" class="cls-1" d="M3.655 45.767h8v1.912H5.8v4.189h5.854v1.912H5.8v6.993H3.655z"/><path id="Path_260" data-name="Path 260" class="cls-1" d="M19.983 60.773V59.5a4.572 4.572 0 0 1-1.423 1.061 3.7 3.7 0 0 1-1.595.379 3.328 3.328 0 0 1-1.724-.467 3.033 3.033 0 0 1-1.192-1.268 6.345 6.345 0 0 1-.4-2.659V50.89H15.6v5.633a3.869 3.869 0 0 0 .446 2.172 1.8 1.8 0 0 0 1.563.617 2.861 2.861 0 0 0 2.374-1.364V50.89h1.955v9.883h-1.955z"/><path id="Path_261" data-name="Path 261" class="cls-1" d="M23.3 52.459l3.674-3.609v2.041H30.1v1.762h-3.123v4.837q0 1.7 1.407 1.694a4.361 4.361 0 0 0 2.224-.7v1.826a4.933 4.933 0 0 1-2.46.634 3.261 3.261 0 0 1-2.234-.784 2.211 2.211 0 0 1-.462-.532 2.787 2.787 0 0 1-.306-.773 8.616 8.616 0 0 1-.124-1.82v-4.381H23.3z"/><path id="Path_262" data-name="Path 262" class="cls-1" d="M38.31 60.773V59.5a4.572 4.572 0 0 1-1.423 1.061 3.7 3.7 0 0 1-1.6.379 3.328 3.328 0 0 1-1.724-.467 3.033 3.033 0 0 1-1.192-1.268 6.345 6.345 0 0 1-.4-2.659V50.89h1.955v5.633a3.869 3.869 0 0 0 .446 2.172 1.8 1.8 0 0 0 1.563.617 2.861 2.861 0 0 0 2.374-1.364V50.89h1.955v9.883H38.31z"/><path id="Path_263" data-name="Path 263" class="cls-1" d="M45.109 50.891v2.267l.107-.172q1.417-2.286 2.836-2.286a3.5 3.5 0 0 1 2.31 1.117l-1.031 1.719a2.9 2.9 0 0 0-1.891-.967 2.027 2.027 0 0 0-1.638.9 3.406 3.406 0 0 0-.693 2.138v5.167h-1.966v-9.883h1.966z"/><path id="Path_264" data-name="Path 264" class="cls-1" d="M59.708 56h-6.95a3.227 3.227 0 0 0 .951 2.256 3.132 3.132 0 0 0 2.261.838 5.882 5.882 0 0 0 3.566-1.2v1.912a6.508 6.508 0 0 1-1.789.859 7.514 7.514 0 0 1-2.079.258 4.667 4.667 0 0 1-2.643-.677 4.926 4.926 0 0 1-1.617-1.821 5.558 5.558 0 0 1-.607-2.647 5.26 5.26 0 0 1 1.278-3.669A4.269 4.269 0 0 1 55.4 50.7a3.91 3.91 0 0 1 3.137 1.375 5.5 5.5 0 0 1 1.171 3.685V56zM52.8 54.833h4.974a2.734 2.734 0 0 0-.7-1.805 2.243 2.243 0 0 0-1.676-.634 2.407 2.407 0 0 0-1.724.634 3.142 3.142 0 0 0-.874 1.805z"/><path id="Path_265" data-name="Path 265" class="cls-1" d="M81.139 57.293v2.363a11.223 11.223 0 0 1-5.458 1.289 8.41 8.41 0 0 1-4.265-1.01 7.437 7.437 0 0 1-2.771-2.782 7.551 7.551 0 0 1-1.021-3.835 7.325 7.325 0 0 1 2.336-5.511 8.016 8.016 0 0 1 5.763-2.234 13.533 13.533 0 0 1 5.253 1.235v2.31a10.338 10.338 0 0 0-5.146-1.5 5.945 5.945 0 0 0-4.281 1.628 5.744 5.744 0 0 0-.027 8.137 5.975 5.975 0 0 0 4.286 1.59 9.73 9.73 0 0 0 5.331-1.68z"/><path id="Path_266" data-name="Path 266" class="cls-1" d="M84.523 46.733a1.146 1.146 0 0 1 .827.333 1.093 1.093 0 0 1 .344.816 1.111 1.111 0 0 1-.344.816 1.13 1.13 0 0 1-.827.344 1.081 1.081 0 0 1-.795-.35 1.12 1.12 0 0 1-.344-.811 1.109 1.109 0 0 1 .344-.8 1.093 1.093 0 0 1 .795-.348zm-.967 4.158h1.955v9.883h-1.955z"/><path id="Path_267" data-name="Path 267" class="cls-1" d="M86.95 52.459l3.674-3.609v2.041h3.126v1.762h-3.126v4.837q0 1.7 1.407 1.694a4.361 4.361 0 0 0 2.224-.7v1.826a4.933 4.933 0 0 1-2.46.634 3.261 3.261 0 0 1-2.234-.784 2.211 2.211 0 0 1-.462-.532 2.817 2.817 0 0 1-.307-.773 8.708 8.708 0 0 1-.123-1.82v-4.381H86.95z"/><path id="Path_268" data-name="Path 268" class="cls-1" d="M101.729 50.891h2.193l-7 14.921h-2.185l3.354-7.16-3.816-7.761H96.5l2.669 5.582z"/></g></g></g></svg>