<svg id="圖層_1" data-name="圖層 1" xmlns="http://www.w3.org/2000/svg" viewBox="0 0 160 67"><defs><style>.cls-1{fill:#fff;}</style></defs><g id="Group_212" data-name="Group 212"><g id="Group_212-2" data-name="Group 212-2"><path id="Path_252" data-name="Path 252" class="cls-1" d="M36.37,20.77H22.51a36.75,36.75,0,0,0,6.7,7.06A35.42,35.42,0,0,0,37.31,33a16.56,16.56,0,0,0-2.7,3.32A35.87,35.87,0,0,1,27.17,31a47.93,47.93,0,0,1-6.59-7.21V38.28h-3.9V24a43.88,43.88,0,0,1-6.5,7A40.72,40.72,0,0,1,2.7,36.23,18.85,18.85,0,0,0,0,33a35.71,35.71,0,0,0,8.1-5.14,35.93,35.93,0,0,0,6.62-7H1.17V16.93H16.68V10.68H4V6.88H16.68V.38h3.91v6.5h13v3.8h-13v6.25H36.37Z"/><path id="Path_253" data-name="Path 253" class="cls-1" d="M77.38,21.49l-2.66,2.67a75.41,75.41,0,0,0-5.79-5.37A20.38,20.38,0,0,1,65.84,23a14.52,14.52,0,0,0-3-1.94,33.42,33.42,0,0,0,6.89,7.11,34,34,0,0,0,8.65,5,12.12,12.12,0,0,0-2.82,3.47,36.92,36.92,0,0,1-13.93-11.5V38.28H57.69v-13A38.53,38.53,0,0,1,43.83,36.59a12.38,12.38,0,0,0-2.62-3.27,35.37,35.37,0,0,0,9.31-5.77,33.64,33.64,0,0,0,7.17-8.16V9.55H42.74V5.83H57.69V.38h3.92V5.83H77V9.55H61.61v9.64c.33.57.71,1.16,1.13,1.78q4-3.55,5.48-10.7l3.6.65a29.18,29.18,0,0,1-1.41,4.64A89.74,89.74,0,0,1,77.38,21.49ZM49.47,10.27l3.6.69a36.87,36.87,0,0,1-1.49,4.68,51.44,51.44,0,0,1,4.27,4.08l-2.54,2.74A32.15,32.15,0,0,0,50,19,21.56,21.56,0,0,1,45.16,25a13.87,13.87,0,0,0-2.85-2.5Q47.59,18.46,49.47,10.27Z"/><path id="Path_254" data-name="Path 254" class="cls-1" d="M115.11,14.27l3.37.61a47.55,47.55,0,0,1-5.52,14q1.37,5.49,2.89,5.49,1,0,1.18-6.5a7,7,0,0,0,2.66,2c-.24,3.12-.65,5.24-1.25,6.37a3.19,3.19,0,0,1-3.06,1.7q-2.94,0-4.93-5.45a30.82,30.82,0,0,1-6.22,5.85,15.16,15.16,0,0,0-2.59-2.66,26.36,26.36,0,0,0,7.71-7.35,116.62,116.62,0,0,1-1.88-18.36H98.78v5h7.32c0,.65,0,1.11,0,1.37q-.07,7.35-.27,10.26a9.06,9.06,0,0,1-.71,3.67,3,3,0,0,1-2.15,1.21,17.61,17.61,0,0,1-3.48.08,8.3,8.3,0,0,0-.87-3.19,21,21,0,0,0,2.74.16,1.06,1.06,0,0,0,1-.48q.51-.77.63-9.93H98.78v1.42q0,13.07-5,18.93a8.74,8.74,0,0,0-1.3-1.28A14.64,14.64,0,0,0,91,36.06a17.19,17.19,0,0,0,3.52-7.59q-.63.29-10.85,4.56l-1.21-3.79q1.24-.4,4.46-1.58V13.86H83V10.31h3.91V.87h3.44v9.44h3.53v3.55H90.37V26.38L93.89,25l.66,3.35a45.19,45.19,0,0,0,.79-8.92v-13h12q-.12-3-.12-6.1h3.52q0,2.07,0,6.1h4.38A31,31,0,0,0,111.24,2L113.82.42a20.72,20.72,0,0,1,4.34,4.72l-2,1.29h2.7V9.91h-8Q111.15,17,112,23.47A42.78,42.78,0,0,0,115.11,14.27Z"/><path id="Path_255" data-name="Path 255" class="cls-1" d="M160,9.55H143.75v5h12.73V28.8c0,2-.63,3.28-1.88,3.79q-1.65.64-7,.65a13.05,13.05,0,0,0-1.25-3.8c1.09.06,2.22.09,3.36.1s1.84,0,2.08,0a1.11,1.11,0,0,0,.68-.2.79.79,0,0,0,.18-.61V18.34h-8.85V38.4h-3.83V18.34h-8.23v15H128V14.59h11.94v-5H124V5.83h15.9V.18h4V5.83H160V9.55Z"/></g><g id="Group_214" data-name="Group 214"><g id="Group_213" data-name="Group 213"><path id="Path_256" data-name="Path 256" class="cls-1" d="M117.64,62.44a7.27,7.27,0,0,1-3.4-.77,6,6,0,0,1-2.45-2.41,7.73,7.73,0,0,1-.93-3.91,9.49,9.49,0,0,1,.65-3.57A8.16,8.16,0,0,1,113.26,49a7.93,7.93,0,0,1,2.57-1.75,7.75,7.75,0,0,1,3.08-.63,6.06,6.06,0,0,1,4.62,1.82,7.41,7.41,0,0,1,1.35,7,4.73,4.73,0,0,1-.93,1.65,4.21,4.21,0,0,1-1.25,1,3.14,3.14,0,0,1-1.37.33A2.34,2.34,0,0,1,120,58a1.62,1.62,0,0,1-.67-1.1h0a3.36,3.36,0,0,1-1.06,1,2.3,2.3,0,0,1-1.22.37,2.14,2.14,0,0,1-1.69-.75,3.11,3.11,0,0,1-.64-2.05,5.08,5.08,0,0,1,1-3.14,3.13,3.13,0,0,1,2.62-1.43,1.5,1.5,0,0,1,1.48.94h0l.21-.79h1.26l-.79,4c-.33,1.39,0,2.08,1,2.09a2.1,2.1,0,0,0,1.69-1.08,4.9,4.9,0,0,0,.74-2.79,5.58,5.58,0,0,0-1.34-3.87,4.88,4.88,0,0,0-3.85-1.49,5.88,5.88,0,0,0-2.43.53,6.61,6.61,0,0,0-2.08,1.47,7.11,7.11,0,0,0-1.47,2.35,8.1,8.1,0,0,0-.55,3,5.75,5.75,0,0,0,1.58,4.3,5.49,5.49,0,0,0,4,1.55,5.71,5.71,0,0,0,3-.84l.48,1.16A7.18,7.18,0,0,1,117.64,62.44ZM117.38,57A2.26,2.26,0,0,0,119,55.9l.5-2.93a1.24,1.24,0,0,0-1.11-.73,1.86,1.86,0,0,0-1.59,1,4,4,0,0,0-.63,2.12C116.14,56.42,116.55,57,117.38,57Z"/><path id="Path_257" data-name="Path 257" class="cls-1" d="M142,54.76h-5.75a8.89,8.89,0,0,0,6.65,6.17,6.36,6.36,0,0,0-1,1.53,9.69,9.69,0,0,1-4-2.16,10.76,10.76,0,0,1-2.59-3.79q-1.41,4.11-6.84,6a4.56,4.56,0,0,0-.41-.75,5.89,5.89,0,0,0-.53-.68,14.13,14.13,0,0,0,2.84-1.26,7.52,7.52,0,0,0,1.94-1.56,8.22,8.22,0,0,0,1.14-1.67,7.57,7.57,0,0,0,.61-1.79h-5.65V53.13h5.84c0-.16,0-.42,0-.75V49.52h-6.35V47.89h14.59v1.63h-6.61v2.87c0,.34,0,.59,0,.74H142v1.63Z"/><path id="Path_258" data-name="Path 258" class="cls-1" d="M159.66,49.52h-6.9v2.91l.28-.36c1,.5,2.05,1.08,3.18,1.76a24.46,24.46,0,0,1,2.62,1.76l-1.12,1.46a32.88,32.88,0,0,0-5-3.3v8.66H151.1V49.52h-6.2V47.89h14.76v1.63Z"/></g></g><g id="Group_216" data-name="Group 216"><g id="Group_215" data-name="Group 215"><path id="Path_259" data-name="Path 259" class="cls-1" d="M3.7,46.52h8.1v1.94H5.87V52.7H11.8v1.94H5.87v7.08H3.7Z"/><path id="Path_260" data-name="Path 260" class="cls-1" d="M20.23,61.72V60.43a4.48,4.48,0,0,1-1.44,1.07,3.74,3.74,0,0,1-1.61.39,3.36,3.36,0,0,1-1.75-.48,3,3,0,0,1-1.21-1.28,6.51,6.51,0,0,1-.4-2.69V51.71h2v5.7a3.91,3.91,0,0,0,.45,2.2,1.82,1.82,0,0,0,1.58.63,2.93,2.93,0,0,0,2.4-1.38V51.71h2v10Z"/><path id="Path_261" data-name="Path 261" class="cls-1" d="M23.59,53.3l3.72-3.66v2.07h3.17v1.78H27.31v4.9c0,1.15.48,1.72,1.43,1.72A4.49,4.49,0,0,0,31,59.4v1.85a5,5,0,0,1-2.49.64,3.32,3.32,0,0,1-2.26-.79,2.4,2.4,0,0,1-.47-.54,2.83,2.83,0,0,1-.31-.79,8.06,8.06,0,0,1-.12-1.84V53.5H23.59Z"/><path id="Path_262" data-name="Path 262" class="cls-1" d="M38.79,61.72V60.43a4.71,4.71,0,0,1-1.44,1.07,3.82,3.82,0,0,1-1.62.39A3.36,3.36,0,0,1,34,61.41a3,3,0,0,1-1.2-1.28,6.35,6.35,0,0,1-.41-2.69V51.71h2v5.7a3.91,3.91,0,0,0,.45,2.2,1.84,1.84,0,0,0,1.59.63,2.94,2.94,0,0,0,2.4-1.38V51.71h2v10Z"/><path id="Path_263" data-name="Path 263" class="cls-1" d="M45.67,51.71V54l.11-.18c1-1.54,1.92-2.31,2.87-2.31A3.5,3.5,0,0,1,51,52.65l-1,1.74a2.92,2.92,0,0,0-1.92-1,2,2,0,0,0-1.65.91,3.47,3.47,0,0,0-.71,2.17v5.23h-2v-10Z"/><path id="Path_264" data-name="Path 264" class="cls-1" d="M60.46,56.88h-7a3.28,3.28,0,0,0,1,2.29,3.23,3.23,0,0,0,2.29.85,6,6,0,0,0,3.61-1.22v1.94a6.72,6.72,0,0,1-1.81.87,7.85,7.85,0,0,1-2.1.26,4.74,4.74,0,0,1-2.68-.69,5,5,0,0,1-1.64-1.84,5.67,5.67,0,0,1-.61-2.68,5.33,5.33,0,0,1,1.29-3.72,4.31,4.31,0,0,1,3.36-1.42,4,4,0,0,1,3.18,1.39,5.58,5.58,0,0,1,1.19,3.73Zm-7-1.18h5a2.83,2.83,0,0,0-.71-1.83,2.28,2.28,0,0,0-1.7-.64,2.47,2.47,0,0,0-1.74.64A3.2,3.2,0,0,0,53.46,55.7Z"/><path id="Path_265" data-name="Path 265" class="cls-1" d="M82.16,58.19v2.4a11.46,11.46,0,0,1-5.53,1.3,8.53,8.53,0,0,1-4.32-1,7.72,7.72,0,0,1-3.84-6.7,7.42,7.42,0,0,1,2.37-5.58,8.05,8.05,0,0,1,5.83-2.26A13.6,13.6,0,0,1,82,47.58v2.34a10.42,10.42,0,0,0-5.21-1.52A6,6,0,0,0,72.45,50a5.82,5.82,0,0,0,0,8.23h0a6,6,0,0,0,4.34,1.61A9.78,9.78,0,0,0,82.16,58.19Z"/><path id="Path_266" data-name="Path 266" class="cls-1" d="M85.58,47.5a1.15,1.15,0,0,1,.84.34,1.1,1.1,0,0,1,.35.82,1.16,1.16,0,0,1-.35.83,1.15,1.15,0,0,1-.84.35,1.07,1.07,0,0,1-.8-.36,1.17,1.17,0,0,1,.8-2Zm-1,4.21h2v10h-2Z"/><path id="Path_267" data-name="Path 267" class="cls-1" d="M88,53.3l3.72-3.66v2.07h3.16v1.78H91.76v4.9c0,1.15.47,1.72,1.42,1.72a4.56,4.56,0,0,0,2.26-.71v1.85a5.06,5.06,0,0,1-2.5.64,3.34,3.34,0,0,1-2.26-.79,2.68,2.68,0,0,1-.47-.54,3.17,3.17,0,0,1-.31-.79,9.39,9.39,0,0,1-.12-1.84V53.5H88Z"/><path id="Path_268" data-name="Path 268" class="cls-1" d="M103,51.71h2.22L98.14,66.82H95.92l3.4-7.25-3.86-7.86h2.25l2.7,5.65Z"/></g></g></g></svg>