<svg id="圖層_1" data-name="圖層 1" xmlns="http://www.w3.org/2000/svg" viewBox="0 0 1067 1024"><defs><style>.cls-1{fill:#fff;}</style></defs><title>line--white</title><path class="cls-1" d="M1066.67,409.6C1053.87,181.33,819.2,0,533.33,0,238.93,0,0,192,0,430.93,0,648.53,202.67,829.87,462.93,857.6c17.07,2.13,27.74,17.07,25.6,32h0L477.87,992c-2.14,14.93,8.53,29.87,25.6,32,6.4,0,10.66,0,17.06-2.13,219.74-108.8,352-219.74,430.94-315.74,14.93-17.06,61.86-83.2,70.4-102.4,21.33-36.26,34.13-76.8,40.53-119.46,2.13-10.67,4.27-21.34,4.27-32ZM324.27,573.87H213.33c-14.93,0-27.73-12.8-27.73-27.74V337.07c0-14.94,12.8-27.74,27.73-27.74s27.74,12.8,27.74,27.74V518.4h83.2c14.93,0,27.73,12.8,27.73,27.73s-12.8,27.74-27.73,27.74Zm106.66-243.2V552.53a21.38,21.38,0,0,1-21.33,21.34H396.8a21.38,21.38,0,0,1-21.33-21.34V330.67a21.38,21.38,0,0,1,21.33-21.34h12.8a21.38,21.38,0,0,1,21.33,21.34ZM684.8,544c0,14.93-12.8,27.73-27.73,29.87-6.4,0-12.8-2.14-19.2-8.54-2.14-2.13-113.07-147.2-113.07-147.2V544c0,14.93-12.8,27.73-27.73,27.73s-27.74-12.8-27.74-27.73V337.07a29.91,29.91,0,0,1,25.6-29.87c8.54,0,17.07,2.13,21.34,8.53,2.13,2.14,113.06,145.07,113.06,145.07v-128c0-14.93,12.8-27.73,27.74-27.73s27.73,12.8,27.73,27.73V544ZM859.73,413.87c14.94,0,27.74,12.8,27.74,27.73s-12.8,27.73-27.74,27.73h-83.2V518.4h83.2c14.94,0,27.74,12.8,27.74,27.73s-12.8,27.74-27.74,27.74H748.8c-14.93,0-27.73-12.8-27.73-27.74V337.07c0-14.94,12.8-27.74,27.73-27.74H859.73c14.94,0,27.74,12.8,27.74,27.74s-12.8,27.73-27.74,27.73h-83.2v49.07Z"/></svg>