<?xml version="1.0" encoding="utf-8"?>
<!-- Generator: Adobe Illustrator 22.1.0, SVG Export Plug-In . SVG Version: 6.00 Build 0)  -->
<svg version="1.1" id="圖層_1" xmlns="http://www.w3.org/2000/svg" xmlns:xlink="http://www.w3.org/1999/xlink" x="0px" y="0px"
	 viewBox="0 0 280 40" style="enable-background:new 0 0 280 40;" xml:space="preserve">
<style type="text/css">
	.st0{opacity:0.75;}
	.st1{fill:#F2F2F2;}
	.st2{opacity:0.75;fill:none;stroke:#F2F2F2;stroke-width:0.75;stroke-miterlimit:10;}
</style>
<g>
	<g class="st0">
		<path class="st1" d="M227.7,31.9c0-1,0-1.9,0-2.7c0-0.8,0-1.6,0-2.5s0-1.7,0-2.5c0-0.8,0-1.7,0-2.7h1.3v4.8c0,0.7,0.1,1.2,0.5,1.6
			c0.3,0.3,0.7,0.5,1.3,0.5c0.6,0,1.1-0.2,1.5-0.6c0.4-0.4,0.6-0.9,0.6-1.6v-4.7h1.3v5.9c0,0.4,0.1,0.6,0.2,0.7
			c0.1,0.1,0.3,0.2,0.6,0.2c0.1,0,0.1,0,0.2,0s0.1,0,0.2,0v1.1c-0.2,0-0.4,0.1-0.6,0.1c-0.5,0-0.9-0.1-1.2-0.3
			c-0.2-0.2-0.4-0.5-0.5-1l0-0.1h-0.1c-0.2,0.5-0.5,0.8-0.8,1c-0.3,0.2-0.8,0.3-1.3,0.3c-0.4,0-0.7-0.1-1-0.2
			c-0.3-0.2-0.5-0.4-0.6-0.7h-0.1v3.4H227.7z"/>
		<path class="st1" d="M237.8,31.7c-0.6-0.4-0.9-0.9-1-1.6h1.3c0.1,0.3,0.3,0.6,0.6,0.8c0.3,0.2,0.8,0.3,1.4,0.3
			c0.7,0,1.3-0.2,1.7-0.5c0.4-0.3,0.6-0.8,0.6-1.4v-1.6h-0.1c-0.2,0.4-0.6,0.8-1,1c-0.4,0.2-0.9,0.4-1.5,0.4c-1,0-1.8-0.4-2.4-1.1
			c-0.6-0.7-0.9-1.7-0.9-2.9s0.3-2.1,0.9-2.9c0.6-0.7,1.4-1.1,2.4-1.1c0.6,0,1.1,0.1,1.5,0.4c0.5,0.3,0.8,0.6,1,1h0.1v-1.3h1.2v8
			c0,0.9-0.3,1.6-0.9,2.1c-0.6,0.5-1.5,0.8-2.6,0.8C239.2,32.3,238.4,32.1,237.8,31.7z M241.8,27.3c0.4-0.5,0.6-1.2,0.6-2.1
			s-0.2-1.5-0.6-2.1c-0.4-0.5-1-0.8-1.7-0.8c-0.7,0-1.3,0.3-1.7,0.8c-0.4,0.5-0.6,1.2-0.6,2.1s0.2,1.5,0.6,2.1
			c0.4,0.5,1,0.8,1.7,0.8S241.4,27.8,241.8,27.3z"/>
		<path class="st1" d="M246,31.5c-0.2,0-0.4,0-0.6,0s-0.3,0-0.6,0l3.9-13.3h1.1L246,31.5z"/>
		<path class="st1" d="M251,29.3c0-1.1,0-2,0-2.8c0-0.8,0-1.6,0-2.4c0-0.8,0-1.7,0-2.8h1.2v1.2h0.1c0.2-0.4,0.5-0.8,0.8-1
			c0.4-0.2,0.8-0.4,1.4-0.4c0.5,0,1,0.1,1.4,0.4c0.4,0.3,0.6,0.6,0.8,1h0.1c0.2-0.4,0.5-0.8,1-1c0.4-0.3,0.9-0.4,1.5-0.4
			c0.8,0,1.4,0.2,1.9,0.7s0.7,1.1,0.7,1.9v5.5h-1.3v-5.2c0-0.6-0.1-1-0.4-1.3c-0.3-0.3-0.7-0.4-1.2-0.4c-0.5,0-1,0.2-1.3,0.5
			c-0.3,0.4-0.5,0.8-0.5,1.3v5.1h-1.3v-5.4c0-0.5-0.2-0.8-0.5-1.1c-0.3-0.3-0.7-0.4-1.2-0.4c-0.5,0-1,0.2-1.3,0.6s-0.5,0.9-0.5,1.4
			v4.9H251z"/>
		<path class="st1" d="M266.3,24.4c0-0.4,0-0.8,0-1.1h1.3c0.6,0,1.1-0.2,1.5-0.5c0.4-0.4,0.6-0.8,0.6-1.3c0-0.5-0.2-0.9-0.5-1.3
			c-0.4-0.4-0.9-0.5-1.5-0.5c-0.6,0-1.1,0.2-1.5,0.5c-0.4,0.3-0.6,0.8-0.7,1.4h-1.3c0.1-0.9,0.4-1.6,1-2.1c0.6-0.6,1.5-0.8,2.5-0.8
			c1,0,1.9,0.3,2.4,0.8c0.6,0.6,0.9,1.2,0.9,2c0,0.6-0.2,1.2-0.5,1.6c-0.4,0.4-0.8,0.7-1.3,0.9v0.1c0.7,0.1,1.2,0.4,1.7,0.8
			c0.4,0.5,0.6,1,0.6,1.8c0,0.9-0.4,1.6-1.1,2.2c-0.7,0.6-1.6,0.9-2.6,0.9c-1.1,0-2-0.3-2.6-0.8c-0.7-0.5-1-1.3-1.1-2.2h1.3
			c0.1,0.6,0.3,1,0.8,1.3c0.4,0.3,1,0.5,1.7,0.5c0.7,0,1.3-0.2,1.7-0.5s0.7-0.8,0.7-1.4c0-0.6-0.2-1.1-0.6-1.5s-1-0.5-1.8-0.5H266.3
			z"/>
	</g>
</g>
<g class="st0">
	<g>
		<g>
			<path class="st1" d="M17.2,7.7c0.8,0,1.5,0,2,0c0.5,0,1.2,0,2,0c1,0,1.8,0.3,2.4,1c0.6,0.6,0.9,1.5,0.9,2.5c0,1-0.3,1.8-1,2.4
				c-0.6,0.6-1.5,0.9-2.4,0.9h-2.7v3.8h-1.3V7.7z M18.5,8.9c0,0.6,0,1.1,0,1.6c0,0.4,0,0.9,0,1.3c0,0.4,0,1,0,1.6h2.3
				c0.8,0,1.3-0.2,1.8-0.6s0.6-0.9,0.6-1.6c0-0.7-0.2-1.3-0.6-1.7c-0.4-0.4-1-0.6-1.8-0.6H18.5z"/>
			<path class="st1" d="M37.1,18.3c-0.2,0-0.5,0-0.6,0c-0.2,0-0.4,0-0.6,0v-8.1h-0.1l-3.3,8h-1.1l-3.3-8h-0.1v8.1h-1.2V7.7h1.5
				l3.6,8.7H32l3.6-8.7h1.5V18.3z"/>
			<path class="st1" d="M40.5,8.4C41.2,7.8,42,7.5,43,7.5c0.9,0,1.7,0.3,2.3,0.8c0.6,0.6,0.9,1.3,0.9,2.1c0,0.6-0.2,1.2-0.5,1.7
				c-0.3,0.6-1,1.3-1.9,2.3L41.5,17v0.1h5v1.2h-6.8v-0.9l3.6-3.9c0.7-0.7,1.1-1.3,1.4-1.7c0.2-0.4,0.4-0.8,0.4-1.3
				c0-0.6-0.2-1-0.5-1.4c-0.4-0.4-0.8-0.6-1.5-0.6c-0.6,0-1.1,0.2-1.5,0.6s-0.6,0.9-0.6,1.5h-1.3C39.6,9.8,39.9,9,40.5,8.4z"/>
			<path class="st1" d="M49.1,18.1c-0.2-0.2-0.3-0.4-0.3-0.7c0-0.3,0.1-0.5,0.3-0.7c0.2-0.2,0.4-0.3,0.7-0.3c0.3,0,0.5,0.1,0.7,0.3
				s0.3,0.4,0.3,0.7c0,0.3-0.1,0.5-0.3,0.7c-0.2,0.2-0.4,0.3-0.7,0.3C49.5,18.4,49.3,18.3,49.1,18.1z"/>
			<path class="st1" d="M54.2,17.7c-0.7-0.6-1-1.3-1.1-2.2h1.3c0.1,0.6,0.3,1,0.7,1.4c0.4,0.3,0.9,0.5,1.6,0.5
				c0.7,0,1.2-0.2,1.7-0.7c0.4-0.5,0.6-1.1,0.6-1.8c0-0.7-0.2-1.3-0.6-1.7s-1-0.7-1.6-0.7c-0.5,0-0.9,0.1-1.3,0.3
				c-0.4,0.2-0.7,0.5-0.9,0.9h-1.2l0.6-6h5.9v1.2h-4.8l-0.3,3.4h0.1c0.3-0.3,0.6-0.6,1-0.7s0.8-0.2,1.4-0.2c0.9,0,1.7,0.3,2.3,1
				c0.6,0.6,1,1.5,1,2.5c0,1.1-0.3,2-1,2.7c-0.7,0.7-1.5,1-2.6,1C55.7,18.5,54.8,18.3,54.2,17.7z"/>
		</g>
	</g>
</g>
<line class="st2" x1="69" y1="13" x2="155.5" y2="13"/>
</svg>
