<svg id="圖層_1" xmlns="http://www.w3.org/2000/svg" viewBox="0 0 25.1 19.7"><style>.st0{fill:#fff}</style><path class="st0" d="M12.6 16.9c-3.5 0-7.1-1.4-9.9-4.2L.3 10.3c-.2-.2-.3-.4-.3-.6 0-.2.1-.4.2-.6l2.4-2.4c5.6-5.6 14.1-5.6 19.8 0l2.4 2.4c.2.2.2.4.2.6 0 .2-.1.4-.2.6l-2.4 2.4c-2.7 2.8-6.3 4.2-9.8 4.2zM2 9.7l1.8 1.8c5 5 12.5 5 17.5 0l1.8-1.8-1.8-1.8c-5-5-12.5-5-17.5 0L2 9.7z"/><path class="st0" d="M12.6 14.6c-2.7 0-4.9-2.2-4.9-4.9s2.2-4.9 4.9-4.9 4.9 2.2 4.9 4.9-2.2 4.9-4.9 4.9zm0-8.2c-1.8 0-3.3 1.5-3.3 3.3s1.5 3.3 3.3 3.3 3.3-1.5 3.3-3.3-1.5-3.3-3.3-3.3z"/><path class="st0" d="M12.6 11.9c-1.2 0-2.2-1-2.2-2.2H12c0 .3.3.6.6.6s.6-.3.6-.6-.3-.6-.6-.6V7.4c1.2 0 2.2 1 2.2 2.2s-1 2.3-2.2 2.3z"/></svg>