<?xml version="1.0" encoding="utf-8"?>
<!-- Generator: Adobe Illustrator 22.1.0, SVG Export Plug-In . SVG Version: 6.00 Build 0)  -->
<svg version="1.1" id="圖層_1" xmlns="http://www.w3.org/2000/svg" xmlns:xlink="http://www.w3.org/1999/xlink" x="0px" y="0px"
	 viewBox="0 0 50 75" style="enable-background:new 0 0 50 75;" xml:space="preserve">
<style type="text/css">
	.st0{fill:#AD4CFF;}
</style>
<path class="st0" d="M48,23.7C48,11.1,37.9,0.8,25.3,0.6C13,0.3,2.2,10.7,1.8,23.1C1.7,26.6,2.4,30,3.7,33H3.6l10.7,18.5l7,12.1
	c1.7,2.8,5.8,2.8,7.3,0l7-12.1L46.2,33h-0.2C47.3,30.2,48,27.1,48,23.7z M24.9,33c-5.1,0-9.3-4.2-9.3-9.3s4.2-9.3,9.3-9.3
	s9.3,4.2,9.3,9.3C34.1,28.8,29.9,33,24.9,33z"/>
</svg>
