<?xml version="1.0" encoding="utf-8"?>
<!-- Generator: Adobe Illustrator 22.1.0, SVG Export Plug-In . SVG Version: 6.00 Build 0)  -->
<svg version="1.1" id="圖層_1" xmlns="http://www.w3.org/2000/svg" xmlns:xlink="http://www.w3.org/1999/xlink" x="0px" y="0px"
	 viewBox="0 0 50 50" style="enable-background:new 0 0 50 50;" xml:space="preserve">
<path d="M2.5,25C2.5,12.6,12.6,2.5,25,2.5c12.4,0,22.5,10.1,22.5,22.5c0,12.5-10.2,22.5-22.5,22.5C12.6,47.5,2.5,37.4,2.5,25z
	 M46.1,25c0-11.7-9.4-21.1-21.1-21.1C13.2,3.9,3.9,13.4,3.9,25c0,11.7,9.4,21.1,21.1,21.1C36.7,46.1,46.1,36.7,46.1,25z"/>
<path d="M23.1,14.6c0-1,0.8-1.8,1.9-1.8c1.1,0,1.9,0.8,1.9,1.8s-0.8,1.8-1.9,1.8C23.9,16.4,23.1,15.6,23.1,14.6z"/>
<rect x="23.8" y="20" width="2.4" height="17.2"/>
</svg>
