<?xml version="1.0" encoding="utf-8"?>
<!-- Generator: Adobe Illustrator 22.1.0, SVG Export Plug-In . SVG Version: 6.00 Build 0)  -->
<svg version="1.1" id="圖層_1" xmlns="http://www.w3.org/2000/svg" xmlns:xlink="http://www.w3.org/1999/xlink" x="0px" y="0px"
	 viewBox="0 0 820 312" style="enable-background:new 0 0 820 312;" xml:space="preserve">
<style type="text/css">
	.st0{fill:url(#SVGID_1_);}
	.st1{fill:url(#SVGID_2_);}
	.st2{fill:url(#SVGID_3_);}
	.st3{fill:url(#SVGID_4_);}
	.st4{fill:url(#SVGID_5_);}
	.st5{fill:url(#SVGID_6_);}
	.st6{fill:url(#SVGID_7_);}
	.st7{fill:url(#SVGID_8_);}
	.st8{fill:url(#SVGID_9_);}
	.st9{fill:url(#SVGID_10_);}
	.st10{fill:url(#SVGID_11_);}
	.st11{fill:url(#SVGID_12_);}
	.st12{fill:url(#SVGID_13_);}
	.st13{fill:url(#SVGID_14_);}
	.st14{fill:url(#SVGID_15_);}
	.st15{fill:url(#SVGID_16_);}
	.st16{fill:url(#SVGID_17_);}
	.st17{fill:url(#SVGID_18_);}
	.st18{fill:url(#SVGID_19_);}
	.st19{fill:url(#SVGID_20_);}
	.st20{fill:url(#SVGID_21_);}
	.st21{fill:url(#SVGID_22_);}
	.st22{fill:url(#SVGID_23_);}
	.st23{fill:url(#SVGID_24_);}
	.st24{fill:url(#SVGID_25_);}
	.st25{fill:url(#SVGID_26_);}
	.st26{fill:url(#SVGID_27_);}
	.st27{fill:url(#SVGID_28_);}
	.st28{fill:url(#SVGID_29_);}
	.st29{fill:url(#SVGID_30_);}
	.st30{fill:url(#SVGID_31_);}
	.st31{fill:url(#SVGID_32_);}
	.st32{fill:url(#SVGID_33_);}
	.st33{fill:url(#SVGID_34_);}
	.st34{fill:url(#SVGID_35_);}
	.st35{fill:url(#SVGID_36_);}
	.st36{fill:url(#SVGID_37_);}
	.st37{fill:url(#SVGID_38_);}
	.st38{fill:url(#SVGID_39_);}
	.st39{fill:url(#SVGID_40_);}
	.st40{fill:url(#SVGID_41_);}
	.st41{fill:url(#SVGID_42_);}
	.st42{fill:url(#SVGID_43_);}
	.st43{fill:url(#SVGID_44_);}
	.st44{fill:url(#SVGID_45_);}
	.st45{fill:url(#SVGID_46_);}
	.st46{fill:url(#SVGID_47_);}
	.st47{fill:url(#SVGID_48_);}
	.st48{fill:url(#SVGID_49_);}
	.st49{fill:url(#SVGID_50_);}
	.st50{fill:url(#SVGID_51_);}
	.st51{fill:url(#SVGID_52_);}
	.st52{fill:url(#SVGID_53_);}
	.st53{fill:url(#SVGID_54_);}
	.st54{fill:url(#SVGID_55_);}
	.st55{fill:url(#SVGID_56_);}
	.st56{fill:url(#SVGID_57_);}
	.st57{fill:url(#SVGID_58_);}
	.st58{fill:url(#SVGID_59_);}
	.st59{fill:url(#SVGID_60_);}
	.st60{fill:url(#SVGID_61_);}
	.st61{fill:url(#SVGID_62_);}
	.st62{fill:url(#SVGID_63_);}
	.st63{fill:url(#SVGID_64_);}
	.st64{fill:url(#SVGID_65_);}
	.st65{fill:url(#SVGID_66_);}
</style>
<g>
	<linearGradient id="SVGID_1_" gradientUnits="userSpaceOnUse" x1="76.8844" y1="187.6745" x2="722.4757" y2="481.7661">
		<stop  offset="0" style="stop-color:#B8F7FF"/>
		<stop  offset="1" style="stop-color:#AD4CFF"/>
	</linearGradient>
	<path class="st0" d="M134.6,217.2c0.9,0,1.6-0.7,1.6-1.6v-3.2c0-0.9-0.7-1.6-1.6-1.6c-0.9,0-1.6,0.7-1.6,1.6v3.2
		C133,216.5,133.7,217.2,134.6,217.2z"/>
	<linearGradient id="SVGID_2_" gradientUnits="userSpaceOnUse" x1="72.3422" y1="197.6456" x2="717.9335" y2="491.7371">
		<stop  offset="0" style="stop-color:#B8F7FF"/>
		<stop  offset="1" style="stop-color:#AD4CFF"/>
	</linearGradient>
	<path class="st1" d="M134.6,228.4c0.9,0,1.6-0.7,1.6-1.6v-1.6c0-0.9-0.7-1.6-1.6-1.6c-0.9,0-1.6,0.7-1.6,1.6v1.6
		C133,227.7,133.7,228.4,134.6,228.4z"/>
	<linearGradient id="SVGID_3_" gradientUnits="userSpaceOnUse" x1="68.1028" y1="206.9519" x2="713.6942" y2="501.0435">
		<stop  offset="0" style="stop-color:#B8F7FF"/>
		<stop  offset="1" style="stop-color:#AD4CFF"/>
	</linearGradient>
	<path class="st2" d="M134.6,239.7c0.9,0,1.6-0.7,1.6-1.6v-1.6c0-0.9-0.7-1.6-1.6-1.6c-0.9,0-1.6,0.7-1.6,1.6v1.6
		C133,238.9,133.7,239.7,134.6,239.7z"/>
	<linearGradient id="SVGID_4_" gradientUnits="userSpaceOnUse" x1="58.3523" y1="228.3562" x2="703.9437" y2="522.4478">
		<stop  offset="0" style="stop-color:#B8F7FF"/>
		<stop  offset="1" style="stop-color:#AD4CFF"/>
	</linearGradient>
	<path class="st3" d="M120.2,258.9c0.9,0,1.6-0.7,1.6-1.6v-1.6c0-0.9-0.7-1.6-1.6-1.6c-0.9,0-1.6,0.7-1.6,1.6v1.6
		C118.6,258.2,119.3,258.9,120.2,258.9z"/>
	<linearGradient id="SVGID_5_" gradientUnits="userSpaceOnUse" x1="61.4981" y1="221.4506" x2="707.0894" y2="515.5422">
		<stop  offset="0" style="stop-color:#B8F7FF"/>
		<stop  offset="1" style="stop-color:#AD4CFF"/>
	</linearGradient>
	<path class="st4" d="M140.2,259.7c0.4,0,0.8-0.4,0.8-0.8v-3.2c0-0.4-0.4-0.8-0.8-0.8c-0.4,0-0.8,0.4-0.8,0.8v3.2
		C139.4,259.4,139.8,259.7,140.2,259.7z"/>
	<linearGradient id="SVGID_6_" gradientUnits="userSpaceOnUse" x1="60.5325" y1="223.5703" x2="706.1238" y2="517.6619">
		<stop  offset="0" style="stop-color:#B8F7FF"/>
		<stop  offset="1" style="stop-color:#AD4CFF"/>
	</linearGradient>
	<path class="st5" d="M134.6,260.5c0.9,0,1.6-0.7,1.6-1.6v-3.2c0-0.9-0.7-1.6-1.6-1.6c-0.9,0-1.6,0.7-1.6,1.6v3.2
		C133,259.8,133.7,260.5,134.6,260.5z"/>
	<linearGradient id="SVGID_7_" gradientUnits="userSpaceOnUse" x1="53.5106" y1="238.9848" x2="699.102" y2="533.0763">
		<stop  offset="0" style="stop-color:#B8F7FF"/>
		<stop  offset="1" style="stop-color:#AD4CFF"/>
	</linearGradient>
	<path class="st6" d="M129,275.8c0.4,0,0.8-0.4,0.8-0.8v-3.2c0-0.4-0.4-0.8-0.8-0.8c-0.4,0-0.8,0.4-0.8,0.8v3.2
		C128.2,275.4,128.6,275.8,129,275.8z"/>
	<linearGradient id="SVGID_8_" gradientUnits="userSpaceOnUse" x1="55.4418" y1="234.7454" x2="701.0331" y2="528.8369">
		<stop  offset="0" style="stop-color:#B8F7FF"/>
		<stop  offset="1" style="stop-color:#AD4CFF"/>
	</linearGradient>
	<path class="st7" d="M140.2,275.8c0.4,0,0.8-0.4,0.8-0.8v-1.2V273v-0.9v-0.4c0-0.4-0.4-0.8-0.8-0.8c-0.4,0-0.8,0.4-0.8,0.8v0.9v0.9
		v0.9v0.6C139.4,275.4,139.8,275.8,140.2,275.8z"/>
	<linearGradient id="SVGID_9_" gradientUnits="userSpaceOnUse" x1="55.3242" y1="235.0036" x2="700.9155" y2="529.0952">
		<stop  offset="0" style="stop-color:#B8F7FF"/>
		<stop  offset="1" style="stop-color:#AD4CFF"/>
	</linearGradient>
	<path class="st8" d="M120.2,267c0.9,0,1.6-0.7,1.6-1.6v-1.6c0-0.9-0.7-1.6-1.6-1.6c-0.9,0-1.6,0.7-1.6,1.6v1.6
		C118.6,266.2,119.3,267,120.2,267z"/>
	<linearGradient id="SVGID_10_" gradientUnits="userSpaceOnUse" x1="51.9929" y1="242.3164" x2="697.5843" y2="536.4079">
		<stop  offset="0" style="stop-color:#B8F7FF"/>
		<stop  offset="1" style="stop-color:#AD4CFF"/>
	</linearGradient>
	<path class="st9" d="M120.2,275c0.4,0,0.8-0.2,1.1-0.5c0.3-0.3,0.5-0.7,0.5-1.1c0-0.4-0.2-0.8-0.5-1.1c-0.6-0.6-1.7-0.6-2.3,0
		c-0.3,0.3-0.5,0.7-0.5,1.1c0,0.4,0.2,0.8,0.5,1.1C119.3,274.8,119.8,275,120.2,275z"/>
	<linearGradient id="SVGID_11_" gradientUnits="userSpaceOnUse" x1="56.9587" y1="231.4154" x2="702.5501" y2="525.507">
		<stop  offset="0" style="stop-color:#B8F7FF"/>
		<stop  offset="1" style="stop-color:#AD4CFF"/>
	</linearGradient>
	<path class="st10" d="M149.1,275c0.4,0,0.8-0.2,1.1-0.5c0.3-0.3,0.5-0.7,0.5-1.1c0-0.4-0.2-0.8-0.5-1.1c-0.6-0.6-1.7-0.6-2.3,0
		c-0.3,0.3-0.5,0.7-0.5,1.1c0,0.4,0.2,0.8,0.5,1.1C148.2,274.8,148.6,275,149.1,275z"/>
	<linearGradient id="SVGID_12_" gradientUnits="userSpaceOnUse" x1="60.2901" y1="224.1023" x2="705.8815" y2="518.1938">
		<stop  offset="0" style="stop-color:#B8F7FF"/>
		<stop  offset="1" style="stop-color:#AD4CFF"/>
	</linearGradient>
	<path class="st11" d="M149.1,267c0.9,0,1.6-0.7,1.6-1.6v-1.6c0-0.9-0.7-1.6-1.6-1.6c-0.9,0-1.6,0.7-1.6,1.6v1.6
		C147.5,266.2,148.2,267,149.1,267z"/>
	<linearGradient id="SVGID_13_" gradientUnits="userSpaceOnUse" x1="63.3183" y1="217.455" x2="708.9096" y2="511.5465">
		<stop  offset="0" style="stop-color:#B8F7FF"/>
		<stop  offset="1" style="stop-color:#AD4CFF"/>
	</linearGradient>
	<path class="st12" d="M149.1,258.9c0.9,0,1.6-0.7,1.6-1.6v-1.6c0-0.9-0.7-1.6-1.6-1.6c-0.9,0-1.6,0.7-1.6,1.6v1.6
		C147.5,258.2,148.2,258.9,149.1,258.9z"/>
	<linearGradient id="SVGID_14_" gradientUnits="userSpaceOnUse" x1="70.9354" y1="200.7339" x2="716.5267" y2="494.8254">
		<stop  offset="0" style="stop-color:#B8F7FF"/>
		<stop  offset="1" style="stop-color:#AD4CFF"/>
	</linearGradient>
	<path class="st13" d="M200.4,262.1c0.9,0,1.6-0.7,1.6-1.6v-1.6c0-0.9-0.7-1.6-1.6-1.6c-0.9,0-1.6,0.7-1.6,1.6v1.6
		C198.8,261.4,199.6,262.1,200.4,262.1z"/>
	<linearGradient id="SVGID_15_" gradientUnits="userSpaceOnUse" x1="75.9722" y1="189.677" x2="721.5635" y2="483.7686">
		<stop  offset="0" style="stop-color:#B8F7FF"/>
		<stop  offset="1" style="stop-color:#AD4CFF"/>
	</linearGradient>
	<path class="st14" d="M198,246.9c0.4,0,0.8-0.4,0.8-0.8v-1.6c0-0.4-0.4-0.8-0.8-0.8c-0.4,0-0.8,0.4-0.8,0.8v1.6
		C197.2,246.5,197.6,246.9,198,246.9z"/>
	<linearGradient id="SVGID_16_" gradientUnits="userSpaceOnUse" x1="53.3495" y1="239.3384" x2="698.9409" y2="533.4299">
		<stop  offset="0" style="stop-color:#B8F7FF"/>
		<stop  offset="1" style="stop-color:#AD4CFF"/>
	</linearGradient>
	<path class="st15" d="M66.4,246.9c0.4,0,0.8-0.4,0.8-0.8v-1.6c0-0.4-0.4-0.8-0.8-0.8s-0.8,0.4-0.8,0.8v1.6
		C65.6,246.5,65.9,246.9,66.4,246.9z"/>
	<linearGradient id="SVGID_17_" gradientUnits="userSpaceOnUse" x1="76.7998" y1="187.8602" x2="722.3912" y2="481.9517">
		<stop  offset="0" style="stop-color:#B8F7FF"/>
		<stop  offset="1" style="stop-color:#AD4CFF"/>
	</linearGradient>
	<path class="st16" d="M202.8,246.9c0.4,0,0.8-0.4,0.8-0.8v-1.6c0-0.4-0.4-0.8-0.8-0.8s-0.8,0.4-0.8,0.8v1.6
		C202,246.5,202.4,246.9,202.8,246.9z"/>
	<linearGradient id="SVGID_18_" gradientUnits="userSpaceOnUse" x1="54.1772" y1="237.5215" x2="699.7686" y2="531.613">
		<stop  offset="0" style="stop-color:#B8F7FF"/>
		<stop  offset="1" style="stop-color:#AD4CFF"/>
	</linearGradient>
	<path class="st17" d="M71.2,246.9c0.4,0,0.8-0.4,0.8-0.8v-1.6c0-0.4-0.4-0.8-0.8-0.8s-0.8,0.4-0.8,0.8v1.6
		C70.4,246.5,70.8,246.9,71.2,246.9z"/>
	<linearGradient id="SVGID_19_" gradientUnits="userSpaceOnUse" x1="48.3127" y1="250.3952" x2="693.9041" y2="544.4868">
		<stop  offset="0" style="stop-color:#B8F7FF"/>
		<stop  offset="1" style="stop-color:#AD4CFF"/>
	</linearGradient>
	<path class="st18" d="M68.8,262.1c0.9,0,1.6-0.7,1.6-1.6v-1.6c0-0.9-0.7-1.6-1.6-1.6c-0.9,0-1.6,0.7-1.6,1.6v1.6
		C67.2,261.4,67.9,262.1,68.8,262.1z"/>
	<linearGradient id="SVGID_20_" gradientUnits="userSpaceOnUse" x1="118.2986" y1="96.7616" x2="763.89" y2="390.8532">
		<stop  offset="0" style="stop-color:#B8F7FF"/>
		<stop  offset="1" style="stop-color:#AD4CFF"/>
	</linearGradient>
	<path class="st19" d="M784.8,276.6h-14.4v-4.8c0.4,0,0.8-0.4,0.8-0.8s-0.4-0.8-0.8-0.8v-14.4c0.4,0,0.8-0.4,0.8-0.8
		s-0.4-0.8-0.8-0.8v-1.6c0.4,0,0.8-0.4,0.8-0.8c0-0.4-0.4-0.8-0.8-0.8c0-0.9-0.7-1.6-1.6-1.6h-6.3c-2.9-0.6-7-2.1-8.2-3.7v-1.2
		c0-0.4-0.4-0.8-0.8-0.8c-0.4,0-0.8,0.4-0.8,0.8H743c0-0.4-0.4-0.8-0.8-0.8s-0.8,0.4-0.8,0.8v1.2c-1.2,1.6-5.3,3.1-8.2,3.7h-7.9
		v-1.6c0-0.4-0.4-0.8-0.8-0.8c-0.4,0-0.8,0.4-0.8,0.8v1.6h-1.6v-5.4c1.8-0.1,2.1-0.3,2.3-0.4l1.6-0.8c0.6-0.3,1-1,0.9-1.6
		c-0.1-0.7-0.6-1.2-1.3-1.4c-2-0.4-7.4-2.1-8.4-5.4c-0.2-0.7-0.8-1.1-1.5-1.1c-0.7,0-1.3,0.4-1.5,1.1c-1.1,3.2-6.4,5-8.4,5.4
		c-0.7,0.1-1.2,0.7-1.3,1.4c-0.1,0.7,0.3,1.3,0.9,1.6l1.6,0.8c0.2,0.1,0.5,0.3,2.3,0.4v5.4h-1.6v-1.6c0-0.4-0.4-0.8-0.8-0.8
		c-0.4,0-0.8,0.4-0.8,0.8v1.6H674v-6.5c2.2-0.1,6-0.4,7.1-0.9l1.6-0.8c0.6-0.3,1-1,0.9-1.7c-0.1-0.7-0.7-1.2-1.4-1.3
		c-3.9-0.6-10.3-2.4-11.5-5.1v-1.3c0-0.9-0.7-1.6-1.6-1.6c-0.9,0-1.6,0.7-1.6,1.6h-22.5c0-0.9-0.7-1.6-1.6-1.6s-1.6,0.7-1.6,1.6v1.3
		c-1.2,2.7-7.6,4.6-11.5,5.1c-0.7,0.1-1.2,0.6-1.4,1.3c-0.1,0.7,0.2,1.4,0.9,1.7l1.6,0.8c1.1,0.5,4.9,0.8,7.1,0.9v6.1L614,236.3
		l-31.4-9.9c1.4-0.2,2.7-0.4,3.5-0.7l6.6-2.2c0.7-0.2,1.2-0.9,1.1-1.7c-0.1-0.7-0.7-1.3-1.4-1.4l-12.8-1.6c-0.1,0-0.1,0-0.2,0h-3.2
		V217c1.9-0.2,4-0.5,5.2-0.9l6.6-2.2c0.8-0.3,1.2-1.1,1.1-1.9c-0.2-0.8-0.9-1.3-1.7-1.3c0,0-1,0.1-2.4,0.1c-3.6,0-11.8-0.6-13.4-6
		l1-1c0.6-0.6,0.6-1.6,0-2.3c-0.6-0.6-1.6-0.6-2.3,0l-1.1,1.1h-42.9l-20.8-11.9c-1.9-1.1-4.6-1.7-7.4-1.7c-1.9,0-3.7,0.3-5.2,0.9
		l-14,5.8c-1.5,0.6-3.4,1.2-5.5,1.7c-0.1-0.5-0.5-0.9-1-1.1c0,0-0.2-0.1-0.4-0.1l1.4-15.9c0.1-0.7-0.4-1.4-1.1-1.7
		c0,0-0.2-0.1-0.4-0.1l1.4-15.9c0.1-0.7-0.4-1.4-1.1-1.7c0,0-0.2-0.1-0.4-0.1l1.4-15.9c0.1-0.7-0.4-1.4-1.1-1.7c0,0-0.2-0.1-0.4-0.1
		l1.4-15.9c0.1-0.7-0.4-1.4-1.1-1.7c0,0-0.2-0.1-0.4-0.1l1.4-15.9c0.1-0.7-0.4-1.4-1.1-1.7c0,0-0.2-0.1-0.4-0.1l1.4-15.9
		c0.1-0.7-0.4-1.4-1.1-1.7c0,0-0.2-0.1-0.4-0.1l1.4-15.9c0.1-0.7-0.4-1.4-1.1-1.7c-0.1,0-1.9-0.6-4.1-1.1l1.1-3.3
		c0.2-0.5,0.1-1-0.2-1.4c-0.3-0.4-0.8-0.7-1.3-0.7h-4v-3.2v-3.2c0-0.4-0.4-0.8-0.8-0.8c-0.4,0-0.8,0.4-0.8,0.8v1.6h-1.5l0.9-11.2
		h0.5c0.4,0,0.8-0.4,0.8-0.8c0-0.4-0.4-0.8-0.8-0.8h-0.4l0.4-4.7c0-0.4-0.1-0.9-0.4-1.2c-0.3-0.3-0.7-0.5-1.2-0.5h-3.2
		c0.9,0,1.6-0.7,1.6-1.6c0-0.9-0.7-1.6-1.6-1.6V27.8c0-0.9-0.7-1.6-1.6-1.6s-1.6,0.7-1.6,1.6V39c-0.9,0-1.6,0.7-1.6,1.6
		c0,0.9,0.7,1.6,1.6,1.6h-3.2c-0.4,0-0.9,0.2-1.2,0.5c-0.3,0.3-0.5,0.8-0.4,1.2l0.4,4.7h-0.4c-0.4,0-0.8,0.4-0.8,0.8
		c0,0.4,0.4,0.8,0.8,0.8h0.5l0.9,11.2h-1.5v-1.6c0-0.4-0.4-0.8-0.8-0.8s-0.8,0.4-0.8,0.8v3.2v3.2h-4c-0.5,0-1,0.2-1.3,0.7
		c-0.3,0.4-0.4,1-0.2,1.4l1.1,3.3c-2.2,0.5-4,1.1-4.1,1.1c-0.7,0.2-1.2,0.9-1.1,1.7l1.4,15.9c-0.2,0.1-0.3,0.1-0.4,0.1
		c-0.7,0.2-1.2,0.9-1.1,1.7l1.4,15.9c-0.2,0.1-0.3,0.1-0.4,0.1c-0.7,0.2-1.2,0.9-1.1,1.7l1.4,15.9c-0.2,0.1-0.3,0.1-0.4,0.1
		c-0.7,0.2-1.2,0.9-1.1,1.7l1.4,15.9c-0.2,0.1-0.3,0.1-0.4,0.1c-0.7,0.2-1.2,0.9-1.1,1.7l1.4,15.9c-0.2,0.1-0.3,0.1-0.4,0.1
		c-0.7,0.2-1.2,0.9-1.1,1.7l1.4,15.9c-0.2,0.1-0.3,0.1-0.4,0.1c-0.7,0.2-1.2,0.9-1.1,1.7l1.4,15.9c-0.2,0.1-0.3,0.1-0.4,0.1
		c-0.7,0.2-1.2,0.9-1.1,1.7l0.2,1.9l-4.6,0.2c-3.7,0.2-9.5,1.6-12.9,3.1l-7.6,3.4c-1.7,0.8-4.1,1.2-6.6,1.2c-1.9,0-3.7-0.3-5-0.7
		l-5.6-2c-3.5-1.2-9.5-1.1-12.9,0.2l-70.8,25.7c-3.3,1.3-8.9,2.8-12.4,3.3l-13.1,1.1c-0.3-0.4-0.8-0.7-1.3-0.7v-0.5
		c0.1,0,0.3-0.1,0.4-0.1l3.3-1.1c0.7-0.2,1.1-0.8,1.1-1.5s-0.4-1.3-1.1-1.5l-2.8-0.9c0.4-0.3,0.6-0.7,0.6-1.2c0-0.7-0.3-1.3-0.9-1.5
		c-3.3-1.5-12.3-6.2-15-9.8V214c0-0.9-0.7-1.6-1.6-1.6s-1.6,0.7-1.6,1.6v2.7c-2.8,3.6-11.7,8.3-15,9.8c-0.6,0.3-1,0.9-0.9,1.5
		c0,0.5,0.3,0.9,0.6,1.2l-2.8,0.9c-0.7,0.2-1.1,0.8-1.1,1.5s0.4,1.3,1.1,1.5l3.3,1.1c0.1,0,0.3,0.1,0.4,0.1v0.5
		c-0.9,0-1.6,0.7-1.6,1.6h-1.6c-0.8,0-1.5,0.6-1.6,1.4l-0.1,1l-11.4,1c-3.6,0.5-9.4,1.9-12.9,3.1l-10,3.5c-0.3-0.2-0.6-0.3-0.9-0.3
		h-4.8v-4.8c0-0.5-0.2-1-0.6-1.3l-6.4-4.8c-0.6-0.4-1.4-0.4-1.9,0l-6.4,4.8c-0.4,0.3-0.6,0.8-0.6,1.3v1.6h-8c0-0.9-0.7-1.6-1.6-1.6
		c-0.9,0-1.6,0.7-1.6,1.6h-12.8c0-0.9-0.7-1.6-1.6-1.6c-0.9,0-1.6,0.7-1.6,1.6h-9.6v-1.6c0-0.9-0.7-1.6-1.6-1.6h-9.6
		c-0.9,0-1.6,0.7-1.6,1.6V222c0.4,0,0.8-0.4,0.8-0.8s-0.4-0.8-0.8-0.8v-9.6c0.4,0,0.8-0.4,0.8-0.8c0-0.4-0.4-0.8-0.8-0.8v-4.8v0
		c0-0.1,0-0.1,0-0.2c0,0,0,0,0-0.1c0,0,0-0.1,0-0.1c0,0,0-0.1,0-0.1c0,0,0,0,0-0.1c0,0,0-0.1,0-0.1c0,0,0,0,0-0.1c0,0,0-0.1,0-0.1
		c0,0,0,0,0-0.1c0,0,0-0.1-0.1-0.1c0,0,0,0,0,0c0,0-0.1-0.1-0.1-0.1c0,0,0,0,0,0c0,0-0.1-0.1-0.1-0.1l0,0l-5.9-5.9v-5.8
		c0-0.4-0.4-0.8-0.8-0.8s-0.8,0.4-0.8,0.8v4.8c-0.4,0-0.8,0.2-1.1,0.5l-6.4,6.4l0,0c0,0-0.1,0.1-0.1,0.1c0,0,0,0,0,0
		c0,0-0.1,0.1-0.1,0.1c0,0,0,0,0,0c0,0,0,0.1-0.1,0.1c0,0,0,0,0,0.1c0,0,0,0.1,0,0.1c0,0,0,0,0,0.1c0,0,0,0.1,0,0.1c0,0,0,0,0,0.1
		c0,0,0,0.1,0,0.1c0,0,0,0.1,0,0.1c0,0,0,0,0,0.1c0,0.1,0,0.1,0,0.2v0v4.8c-0.4,0-0.8,0.4-0.8,0.8c0,0.4,0.4,0.8,0.8,0.8v9.6
		c-0.4,0-0.8,0.4-0.8,0.8s0.4,0.8,0.8,0.8v19.3c0-0.9-0.7-1.6-1.6-1.6h-9.6c-0.9,0-1.6,0.7-1.6,1.6v1.6h-9.6c0-0.9-0.7-1.6-1.6-1.6
		c-0.9,0-1.6,0.7-1.6,1.6H88.1c0-0.9-0.7-1.6-1.6-1.6c-0.9,0-1.6,0.7-1.6,1.6h-8v-1.6c0-0.5-0.2-1-0.6-1.3l-6.4-4.8
		c-0.6-0.4-1.4-0.4-1.9,0l-6.4,4.8c-0.4,0.3-0.6,0.8-0.6,1.3v4.8H56c-0.9,0-1.6,0.7-1.6,1.6v28.9H35.1c-1.8,0-3.2,1.4-3.2,3.2
		c0,1.8,1.4,3.2,3.2,3.2h27.3h12.8h40.1h9.6h19.3h9.6h25.7H194h12.8h27.3H300h59.4h12.8h16.1h19.3h41.7h30.5h43.3h4.8h75.5h181.4
		c1.8,0,3.2-1.4,3.2-3.2C788,278,786.6,276.6,784.8,276.6z M57.6,255.7h3.2v12.8h-3.2V255.7z M68.8,238.5l3.7,2.8h-7.5L68.8,238.5z
		 M120.2,250.9h3.2v17.7H117v-17.7H120.2z M149.1,250.9h3.2v17.3v0.4h-1.1h-5.3v-17.7H149.1z M200.4,238.5l3.7,2.8h-7.5L200.4,238.5
		z M224.7,244.4c3.4-1.2,9-2.6,12.5-3l10.5-0.9c0,0,0,0,0,0c0,0.3,0.1,0.5,0.3,0.6l-2.5,16.2h-3.4v-1.6c0-0.4-0.4-0.8-0.8-0.8
		s-0.8,0.4-0.8,0.8v1.6h-3.2v-1.6c0-0.4-0.4-0.8-0.8-0.8s-0.8,0.4-0.8,0.8v1.6h-3.2v-1.6c0-0.4-0.4-0.8-0.8-0.8
		c-0.4,0-0.8,0.4-0.8,0.8v1.6c-0.7,0-1.4,0.5-1.6,1.2l-1.3,5.2h-3.6v-1.6c0-0.4-0.4-0.8-0.8-0.8s-0.8,0.4-0.8,0.8v1.6h-3.2v-1.6
		c0-0.4-0.4-0.8-0.8-0.8c-0.4,0-0.8,0.4-0.8,0.8v1.6c-0.7,0-1.4,0.5-1.6,1.2l-1.3,5.2h-0.4v-1.6v-20.7L224.7,244.4z M255,238.2
		c0-0.1,0-0.1,0-0.2h1.9h9.4h1.5v0.7v0.9c0,0.9,0.7,1.6,1.6,1.6s1.6-0.7,1.6-1.6v-1.2v-0.4h4.7h8.2c0,0.9,0.7,1.6,1.6,1.6h-8.8
		c-0.4,0-0.8,0.4-0.8,0.8v16.9h-1.6v-5.6c0-3.1-2.2-5.6-4.8-5.6c-1.2,0-2.4,0.5-3.2,1.4v-6.3c0-0.9-0.7-1.6-1.6-1.6h-2.4h-0.8H257
		h-3.6c0.5,0,1-0.2,1.3-0.6C254.9,238.8,255,238.5,255,238.2z M265.1,226.5l-3.3-0.8c-0.1,0-0.2-0.1-0.4-0.1c2.9-1.7,6-3.8,8.1-5.9
		c2,2.1,5.2,4.2,8.1,5.9c-0.1,0-0.2,0-0.4,0.1l-3.3,0.8c-0.7,0.2-2,0.3-2.8,0.3h-3.2C267.1,226.8,265.8,226.7,265.1,226.5z
		 M395.4,206.6l5.6,2c3.5,1.2,9.4,1,12.8-0.5l7.6-3.4c3.2-1.5,8.8-2.8,12.3-2.9l4.6-0.2l1.1,12.4h-0.3c-0.8,0-1.5,0.6-1.6,1.5
		l-3.1,32.2c-5.3-3.1-9.9-7.3-12.5-13.1v-3.7V230c0-0.9-0.7-1.6-1.6-1.6s-1.6,0.7-1.6,1.6H361c0-0.9-0.7-1.6-1.6-1.6
		c-0.9,0-1.6,0.7-1.6,1.6v0.8v3.7c-9.3,20.9-44.6,21.2-45,21.2c-0.7,0-1.3,0.5-1.5,1.1c-0.2,0.7,0.1,1.4,0.6,1.8
		c0.2,0.1,2.9,1.9,7.6,2.9c-0.2,0.1-0.3,0.4-0.3,0.6v1.6H316v-1.6c0-0.4-0.4-0.8-0.8-0.8s-0.8,0.4-0.8,0.8v1.6h-3.6l-1.3-5.2
		c-0.2-0.7-0.8-1.2-1.6-1.2v-1.6c0-0.4-0.4-0.8-0.8-0.8c-0.4,0-0.8,0.4-0.8,0.8v1.6h-3.2v-1.6c0-0.4-0.4-0.8-0.8-0.8
		s-0.8,0.4-0.8,0.8v1.6h-3.2v-1.6c0-0.4-0.4-0.8-0.8-0.8s-0.8,0.4-0.8,0.8v1.6h-3.4l-2.5-16.2c0.2-0.1,0.3-0.4,0.3-0.6
		c0-0.3-0.2-0.6-0.5-0.8l-0.3-1.9c-0.1-0.4-0.3-0.7-0.5-1l10.3-0.9c3.6-0.5,9.4-2,12.8-3.4l70.8-25.7
		C386.7,205.6,392.3,205.5,395.4,206.6z M441.4,75.5c1.6-0.5,4.3-1.2,6.3-1.2c2,0,4.9,0.7,6.4,1.2v0.4c0,0.9,0.7,1.6,1.6,1.6
		s1.6-0.7,1.6-1.6v-0.4c1.5-0.4,4.4-1.2,6.4-1.2c2,0,4.7,0.7,6.3,1.2l-1.3,14c-1.6-0.4-3.5-0.7-5-0.7c-2.8,0-6.7,1.1-8,1.5
		c-1.4-0.4-5.2-1.5-8-1.5c-1.6,0-3.4,0.3-5,0.7L441.4,75.5z M504.5,192.2l18.3,10.6h-39.2l-1.1-1.1c-0.6-0.6-1.6-0.6-2.3,0
		c-0.6,0.6-0.6,1.6,0,2.3l1,1c-1.1,3.7-5.3,5.2-9,5.7l1-11.4c2.3-0.5,4.5-1.2,6.1-1.9l14-5.8c1.2-0.5,2.9-0.8,4.6-0.8
		C500.4,190.7,502.9,191.2,504.5,192.2z M568.9,208.4c0.2,0,0.4-0.1,0.6-0.2c1.7,2.6,4.7,4.4,8.9,5.3c-1.8,0.3-4.3,0.5-5.5,0.5h-27
		h-1.8h-1.7h-62.6c-1.2,0-3.6-0.2-5.5-0.5c5.3-1.1,8.7-3.7,9.9-7.5h1.9v1.6c0,0.4,0.4,0.8,0.8,0.8c0.4,0,0.8-0.4,0.8-0.8v-1.6h3.2
		v1.6c0,0.4,0.4,0.8,0.8,0.8s0.8-0.4,0.8-0.8v-1.6h3.2v1.6c0,0.4,0.4,0.8,0.8,0.8s0.8-0.4,0.8-0.8v-1.6h3.2v1.6
		c0,0.4,0.4,0.8,0.8,0.8c0.4,0,0.8-0.4,0.8-0.8v-1.6h3.2v1.6c0,0.4,0.4,0.8,0.8,0.8s0.8-0.4,0.8-0.8v-1.6h3.2v1.6
		c0,0.4,0.4,0.8,0.8,0.8c0.4,0,0.8-0.4,0.8-0.8v-1.6h3.2v1.6c0,0.4,0.4,0.8,0.8,0.8s0.8-0.4,0.8-0.8v-1.6h3.2v1.6
		c0,0.4,0.4,0.8,0.8,0.8s0.8-0.4,0.8-0.8v-1.6h3.2v1.6c0,0.4,0.4,0.8,0.8,0.8s0.8-0.4,0.8-0.8v-1.6h2.1h1.1v0.6v1
		c0,0.4,0.4,0.8,0.8,0.8s0.8-0.4,0.8-0.8v0v-0.9v-0.6h0.5h2.7v1.6v0.1c0,0.4,0.4,0.8,0.8,0.8c0.2,0,0.3-0.1,0.4-0.1
		c0.2-0.1,0.4-0.4,0.4-0.7v-1.6h3.2v1.6c0,0.4,0.4,0.8,0.8,0.8s0.8-0.4,0.8-0.8v-1.6h3.2v1.6c0,0.4,0.4,0.8,0.8,0.8
		c0.4,0,0.8-0.4,0.8-0.8v-1.6h3.2v1.6c0,0.4,0.4,0.8,0.8,0.8s0.8-0.4,0.8-0.8v-1.6h3.2v1.6c0,0.4,0.4,0.8,0.8,0.8s0.8-0.4,0.8-0.8
		v-1.6h3.2v1.6c0,0.4,0.4,0.8,0.8,0.8c0.4,0,0.8-0.4,0.8-0.8v-1.6h3.2v1.6c0,0.4,0.4,0.8,0.8,0.8s0.8-0.4,0.8-0.8v-1.6h3.2v1.6
		C568.1,208,568.4,208.4,568.9,208.4z M650.2,255.7h1.8h23.7v12.1v0.9v0.9v0.6h-10.4c-0.4,0-0.8,0.4-0.8,0.8v0.8h-4.8v-6.4
		c0-1.9-2.1-2.4-3.2-2.4c-1.2,0-3.2,0.6-3.2,2.4v6.4h-3.2c0-0.9-0.7-1.6-1.6-1.6h-0.8h-0.8h-4.8v-14.4h6.5H650.2z M739.1,250.9
		c1.9-0.8,3.7-1.8,4.8-3.2h0.7c0,0.4,0.4,0.8,0.8,0.8c0.4,0,0.8-0.4,0.8-0.8h1.6c0,0.4,0.4,0.8,0.8,0.8s0.8-0.4,0.8-0.8h1.6
		c0,0.4,0.4,0.8,0.8,0.8c0.2,0,0.4-0.1,0.5-0.2c1.1,1.1,2.7,1.9,4.3,2.6c-0.3,0-0.5,0-0.8,0h-16.1
		C739.6,250.9,739.3,250.9,739.1,250.9z M111.3,274.2c-0.4,0-0.8,0.4-0.8,0.8v1.6h-6.4V275c0-0.4-0.4-0.8-0.8-0.8
		c-0.4,0-0.8,0.4-0.8,0.8v1.6h-6.4V275c0-0.4-0.4-0.8-0.8-0.8s-0.8,0.4-0.8,0.8v1.6h-6.4V275c0-0.4-0.4-0.8-0.8-0.8
		s-0.8,0.4-0.8,0.8v1.6H80V275v-1.6h3.2h8h8h8h6.4v3.2h-1.6V275C112.1,274.5,111.8,274.2,111.3,274.2z M87.3,252.5
		c1.3,0,2.4,1.1,2.4,2.4v2.4h-1.6v-1.6c0-0.4-0.4-0.8-0.8-0.8s-0.8,0.4-0.8,0.8v1.6h-1.6v-2.4C84.9,253.6,85.9,252.5,87.3,252.5z
		 M95.3,252.5c1.3,0,2.4,1.1,2.4,2.4v2.4h-1.6v-1.6c0-0.4-0.4-0.8-0.8-0.8s-0.8,0.4-0.8,0.8v1.6h-1.6v-2.4
		C92.9,253.6,94,252.5,95.3,252.5z M103.3,252.5c1.3,0,2.4,1.1,2.4,2.4v2.4h-1.6v-1.6c0-0.4-0.4-0.8-0.8-0.8c-0.4,0-0.8,0.4-0.8,0.8
		v1.6h-1.6v-2.4C100.9,253.6,102,252.5,103.3,252.5z M111.3,252.5c1.3,0,2.4,1.1,2.4,2.4v2.4h-1.6v-1.6c0-0.4-0.4-0.8-0.8-0.8
		s-0.8,0.4-0.8,0.8v1.6h-1.6v-2.4C108.9,253.6,110,252.5,111.3,252.5z M134.6,252.5h8V267H141v-3.2c0-0.4-0.4-0.8-0.8-0.8
		c-0.4,0-0.8,0.4-0.8,0.8v3.2h-3.2v-3.2c0-0.9-0.7-1.6-1.6-1.6c-0.9,0-1.6,0.7-1.6,1.6v3.2h-3.2v-3.2v-4.8v-3.2v-3.2H134.6z
		 M149,270.2h2.4h0.8v6.4h-6.4v-4.5v-0.9v-0.9v-0.3h0.8H149z M165.9,252.5c1.3,0,2.4,1.1,2.4,2.4v2.4h-1.6v-1.6
		c0-0.4-0.4-0.8-0.8-0.8s-0.8,0.4-0.8,0.8v1.6h-1.6v-2.4C163.5,253.6,164.6,252.5,165.9,252.5z M173.9,252.5c1.3,0,2.4,1.1,2.4,2.4
		v2.4h-1.6v-1.6c0-0.4-0.4-0.8-0.8-0.8c-0.4,0-0.8,0.4-0.8,0.8v1.6h-1.6v-2.4C171.5,253.6,172.6,252.5,173.9,252.5z M182,252.5
		c1.3,0,2.4,1.1,2.4,2.4v2v0.4h-1.2h-0.4v-1.6c0-0.4-0.4-0.8-0.8-0.8c-0.4,0-0.8,0.4-0.8,0.8v1.6h-1.6v-2.4
		C179.6,253.6,180.6,252.5,182,252.5z M190,252.5c1,0,1.9,0.7,2.3,1.6c0.1,0.3,0.1,0.5,0.1,0.8v0v0.9v1.6h-1.6v-1v-0.6
		c0-0.1,0-0.2,0-0.2c-0.1-0.3-0.4-0.6-0.8-0.6c0,0,0,0,0,0c-0.2,0-0.3,0.1-0.5,0.2c-0.2,0.1-0.3,0.4-0.3,0.6v0.3v0.9v0.4H188h-0.4
		v-0.7v-0.9v-0.8C187.6,253.6,188.7,252.5,190,252.5z M229.3,267h22.5v3.2h-3.2v-1.6c0-0.4-0.4-0.8-0.8-0.8s-0.8,0.4-0.8,0.8v1.6
		h-3.2v-1.6c0-0.4-0.4-0.8-0.8-0.8c-0.4,0-0.8,0.4-0.8,0.8v1.6H239v-1.6c0-0.4-0.4-0.8-0.8-0.8s-0.8,0.4-0.8,0.8v1.6h-3.2v-1.6
		c0-0.4-0.4-0.8-0.8-0.8s-0.8,0.4-0.8,0.8v1.6h-3.2v-1.6c0-0.4-0.4-0.8-0.8-0.8c-0.4,0-0.8,0.4-0.8,0.8v1.6h-3.2v-1.6
		c0-0.4-0.4-0.8-0.8-0.8s-0.8,0.4-0.8,0.8v1.6h-4.4l0.8-3.2H229.3z M247,260.5h4.8v3.2h-3.2v-1.6c0-0.4-0.4-0.8-0.8-0.8
		s-0.8,0.4-0.8,0.8v1.6h-3.2v-1.6c0-0.4-0.4-0.8-0.8-0.8c-0.4,0-0.8,0.4-0.8,0.8v1.6H239v-1.6c0-0.4-0.4-0.8-0.8-0.8
		s-0.8,0.4-0.8,0.8v1.6h-3.2v-1.6c0-0.4-0.4-0.8-0.8-0.8s-0.8,0.4-0.8,0.8v1.6h-1.2l0.8-3.2H247z M306.7,260.5l0.8,3.2h-1.2v-1.6
		c0-0.4-0.4-0.8-0.8-0.8s-0.8,0.4-0.8,0.8v1.6h-3.2v-1.6c0-0.4-0.4-0.8-0.8-0.8s-0.8,0.4-0.8,0.8v1.6h-3.2v-1.6
		c0-0.4-0.4-0.8-0.8-0.8c-0.4,0-0.8,0.4-0.8,0.8v1.6h-3.2v-1.6c0-0.4-0.4-0.8-0.8-0.8s-0.8,0.4-0.8,0.8v1.6h-1.6v-3.2h3.2h0H306.7z
		 M319.6,267l0.8,3.2H316v-1.6c0-0.4-0.4-0.8-0.8-0.8s-0.8,0.4-0.8,0.8v1.6h-3.2v-1.6c0-0.4-0.4-0.8-0.8-0.8s-0.8,0.4-0.8,0.8v1.6
		h-3.2v-1.6c0-0.4-0.4-0.8-0.8-0.8s-0.8,0.4-0.8,0.8v1.6h-3.2v-1.6c0-0.4-0.4-0.8-0.8-0.8s-0.8,0.4-0.8,0.8v1.6h-3.2v-1.6
		c0-0.4-0.4-0.8-0.8-0.8c-0.4,0-0.8,0.4-0.8,0.8v1.6h-3.2v-1.6c0-0.4-0.4-0.8-0.8-0.8s-0.8,0.4-0.8,0.8V267h19.3H319.6z
		 M320.7,261.7c0.5,0.1,1.1,0.2,1.7,0.2v3.2l0-0.2c-0.2-0.7-0.8-1.2-1.6-1.2v-1.6C320.8,262,320.8,261.9,320.7,261.7z M597,252.5
		h12.8v0c-0.2,0-0.4,0.1-0.6,0.2c-0.1,0.1-0.2,0.4-0.2,0.6c0,0.2,0.1,0.4,0.2,0.6c0.1,0.2,0.4,0.2,0.6,0.2h-27.3v-1.6H597z
		 M592.9,246.9c-0.4,0-0.8,0.4-0.8,0.8v-1.6h3.2v3.2h-1.6v-1.6C593.8,247.2,593.4,246.9,592.9,246.9z M593.3,240.8
		c1.3-0.7,2.6-1.6,3.6-2.8c1,1.2,2.3,2.1,3.6,2.8C598.5,240.8,595.4,240.8,593.3,240.8z M601,246.9c-0.4,0-0.8,0.4-0.8,0.8v1.6h-1.6
		v-3.2h3.2v1.6C601.8,247.2,601.4,246.9,601,246.9z M656.4,264.5c0,0,1.6,0,1.6,0.8v6.4h-3.2v-6.4
		C654.8,264.6,656.4,264.5,656.4,264.5z M664.4,273.4v3.2h-14.4v-3.2H664.4z M679.9,271.8h1.8h1.8h1.9v1v0.9v0.9v2.1h-9.6H666v-4.8
		h9.6H679.9z M409.1,276.6V275h3.2h8v1.6h-8H409.1z M373.8,276.6v-3.2h1.6h8h12.8h8h1.6v3.2h-17.7H373.8z M359.4,276.6h-18L341,275
		h29.6v1.6H359.4z M291.9,276.6v-3.2H316h6.4h3.2h4.8h1.6h5.2l0.4,1.6l0.4,1.6h-18.8H316H300H291.9z M253.4,273.4v-3.2V267v-3.2
		v-3.2h9.6v3.2v3.2v3.2v3.2v3.2h-1.6c0.4,0,0.8-0.4,0.8-0.8c0-0.4-0.4-0.8-0.8-0.8H255c-0.4,0-0.8,0.4-0.8,0.8
		c0,0.4,0.4,0.8,0.8,0.8h-1.6V273.4z M269.5,260.5h4.8v3.2v3.2v3.2v3.2v3.2h-9.6v-3.2v-3.2V267v-3.2v-3.2H269.5z M285.5,260.5v3.2
		v3.2v3.2v3.2v3.2h-1.6c0.4,0,0.8-0.4,0.8-0.8c0-0.4-0.4-0.8-0.8-0.8h-6.4c-0.4,0-0.8,0.4-0.8,0.8c0,0.4,0.4,0.8,0.8,0.8h-1.6v-3.2
		v-3.2V267v-3.2v-3.2H285.5z M437.4,251l0.2-1.7l2.8-28.8h9.1c0.7,2.8,3.2,4.8,6.2,4.8c1.7,0,3.2-0.6,4.3-1.7
		c0.4-0.4,0.8-0.8,1.1-1.3c0.1-0.1,0.1-0.2,0.2-0.3c0.3-0.5,0.5-1,0.6-1.5h9.1l0,0.3l0.2,1.6l0.1,1.1l0.2,1.6l0.2,1.6l0.1,0.9
		l3,31.4h-3h-4.4h-3.9h-7.8h-1.6h-3.2h-1.6h-1.6h-1.6h-1.6h-3.2h-1.6h-3l0.6-6.2L437.4,251z M440.6,217.2h0.6c0,0,0,0,0,0h8
		c0,0.3,0,0.5,0.1,0.8c0,0.3-0.1,0.5-0.1,0.8h-8.8L440.6,217.2z M635.5,270.2h-24.1v-14.4h12.8h11.2V270.2z M603.4,276.6h-16.1v-4.8
		h22.5v4.8H603.4z M539.2,276.6h-1.6H536h-1.6h-1.6h-4.8h-3.2h-1.6h-3.2h-1.6h-1.6h-1.6h-1.6h-3.2h-1.6h-1.6h-1.6h-1.6h-6.4h-1.6
		h-1.6h-1.6H491V275h1.6h1.6h1.6h1.6h1.6h1.6h3.2h1.6h1.6h1.6h1.6h3.2h1.6h1.6h1.6h1.6h4.8h3.2h4.8h1.6h1.6h1.6h1.6h3.2h1.6h1.6h1.6
		h1.6h1.6h1.6h1.6h1.6h1.6h1.6v1.6h-1.6h-1.6H552h-3.2h-1.6h-1.6H544h-1.6H539.2z M476.6,270.2H475h-3.2h-14.4h-3.2h-4.8h-1.6h-3.2
		h-1.6h-3.2h-4.8h-1.6H430h-4.8h-1.6v-4.8h3.2h3.2h3.2h3.2h3.2h3.2h3.2h1.6h1.6h4.8h3.2h14.4h3.2h1.6h1.6h3.2h1.6h1.6h1.6h1.6v1.6
		v1.6v1.6h-1.6h-1.6H483h-1.6h-3.2H476.6z M372.2,271.8h-1.6V267c0-0.9,0.8-1.6,1.5-2c1-0.5,1.7-1.6,1.7-2.8v9.6H372.2z M487.8,230
		h1.6h3.2v1.6h-6.4V230H487.8z M499,230h1.6h3.2v1.6h-6.4V230H499z M510.3,230h1.6h3.2v1.6h-6.4V230H510.3z M521.5,230h1.6h6.4h1.6
		h1.6v1.6h-12.8V230H521.5z M540.8,230h1.6h1.6v1.6h-6.4V230H540.8z M552,230h1.6h1.6v1.6h-6.4V230H552z M563.2,230h1.6h1.6v1.6H560
		V230H563.2z M571.3,270.2V267v-1.6h3.2v1.6h-1.6c-0.4,0-0.8,0.4-0.8,0.8c0,0.4,0.4,0.8,0.8,0.8h1.6v1.6H571.3z M571.3,262.1v-1.6
		h1.6c-0.4,0-0.8,0.4-0.8,0.8s0.4,0.8,0.8,0.8h1.6v1.6h-3.2V262.1z M571.3,255.7v-1.6h1.6c-0.4,0-0.8,0.4-0.8,0.8s0.4,0.8,0.8,0.8
		h1.6v1.6h-1.6h-1.6V255.7z M571.3,249.7v-2h1.6c-0.4,0-0.8,0.4-0.8,0.8s0.4,0.8,0.8,0.8h1.6v1.6h-1.6h-1.6V249.7z M571.3,241.3h1.6
		c-0.4,0-0.8,0.4-0.8,0.8c0,0.4,0.4,0.8,0.8,0.8h1.6v1.6h-3.2V241.3z M571.3,234.8h1.6c-0.4,0-0.8,0.4-0.8,0.8
		c0,0.4,0.4,0.8,0.8,0.8h1.6v1.6h-3.2V234.8z M576.1,263.7h1.6v6.4h-1.6V263.7z M572.9,230h1.6v1.6h-3.2V230H572.9z M566.5,238.1
		H560v-3.2h3.2c-0.4,0-0.8,0.4-0.8,0.8c0,0.4,0.4,0.8,0.8,0.8h1.6c0.4,0,0.8-0.4,0.8-0.8c0-0.4-0.4-0.8-0.8-0.8h1.6V238.1z
		 M566.5,244.5H560v-3.2h3.2c-0.4,0-0.8,0.4-0.8,0.8c0,0.4,0.4,0.8,0.8,0.8h1.6c0.4,0,0.8-0.4,0.8-0.8c0-0.4-0.4-0.8-0.8-0.8h1.6
		V244.5z M566.5,250.9H560v-2.3v-0.9h0.9h0.7h1.6c-0.4,0-0.8,0.4-0.8,0.8s0.4,0.8,0.8,0.8h1.6c0.4,0,0.8-0.4,0.8-0.8
		s-0.4-0.8-0.8-0.8h1.6V250.9z M566.5,255.7v1.6h-4.8H560v-0.8v-0.8v-1.6h3.2c-0.4,0-0.8,0.4-0.8,0.8s0.4,0.8,0.8,0.8h1.6
		c0.4,0,0.8-0.4,0.8-0.8s-0.4-0.8-0.8-0.8h1.6V255.7z M566.5,262.1v1.6h-1.6H560v-1.6v-0.8v-0.8h1.6h1.6c-0.4,0-0.8,0.4-0.8,0.8
		s0.4,0.8,0.8,0.8h1.6c0.4,0,0.8-0.4,0.8-0.8s-0.4-0.8-0.8-0.8h1.6V262.1z M566.5,267v3.2h-3.2H560V267v-1.6h3.2h3.2V267z
		 M566.5,276.6h-3.2v-2.4c0-0.4-0.4-0.8-0.8-0.8h4V276.6z M542.4,271.8c0-0.5-0.3-1-0.6-1.3c-0.3-0.2-0.6-0.3-1-0.3
		c-0.9,0-1.6,0.7-1.6,1.6v1.6h-1.6v-3.2h3.2h1.6h1.6v1.6v1.6h-1.6V271.8z M526.3,270.2c-0.9,0-1.6,0.7-1.6,1.6v1.6h-4.8v-3.2H526.3
		h6.4v3.2h-4.8v-1.6C527.9,270.9,527.2,270.2,526.3,270.2z M511.9,270.2c-0.9,0-1.6,0.7-1.6,1.6v1.6h-1.6v-3.2H511.9h3.2v3.2h-1.6
		v-1.6C513.5,270.9,512.8,270.2,511.9,270.2z M476.6,263.7H475h-3.2h-14.4h-3.2h-4.8h-1.6h-4.8h-3.2h-6.4H430h-6.4v-1.6h6.4h3.2h1.6
		h4.8h3.2h4.8h1.6h4.8h3.2h14.4h3.2h1.6h1.6h1.6h1.6h1.6h1.6h1.6h1.6v1.6h-1.6h-1.6H483h-1.6h-3.2H476.6z M404.3,252.5h-8h-12.8h-8
		h-1.7c0-0.5,0.1-1.1,0.1-1.6h32.2c0,0.5,0,1.1,0.1,1.6H404.3z M378.6,258.9c0-0.9,0.7-1.6,1.6-1.6h1.6v4.8h-3.2V258.9z
		 M386.7,258.9c0-0.9,0.7-1.6,1.6-1.6h6.4v4.8h-8V258.9z M399.5,258.9c0-0.9,0.7-1.6,1.6-1.6h1.6v4.8h-3.2V258.9z M478.2,249.3h1.6
		c0.4,0,0.8-0.4,0.8-0.8s-0.4-0.8-0.8-0.8h1.6v3.2h-3.2V249.3z M478.2,242.9h1.6c0.4,0,0.8-0.4,0.8-0.8c0-0.4-0.4-0.8-0.8-0.8h1.6
		v3.2h-3.2V242.9z M478.2,236.4h1.6c0.4,0,0.8-0.4,0.8-0.8c0-0.4-0.4-0.8-0.8-0.8h1.6v3.2h-3.2V236.4z M483,231.6h1.6v1.6v1.6v3.2
		v1.6v1.6v3.2v1.6v1.6v3.2v1.6v1.6v3.2v1.6H483v-1.6v-3.2v-1.6v-1.6v-3.2v-1.6v-1.6v-3.2v-1.6v-1.6v-3.2v-1.6V231.6z M492.6,238.1
		h-6.4v-3.2h1.6c-0.4,0-0.8,0.4-0.8,0.8c0,0.4,0.4,0.8,0.8,0.8h1.6c0.4,0,0.8-0.4,0.8-0.8c0-0.4-0.4-0.8-0.8-0.8h3.2V238.1z
		 M492.6,244.5h-6.4v-3.2h1.6c-0.4,0-0.8,0.4-0.8,0.8c0,0.4,0.4,0.8,0.8,0.8h1.6c0.4,0,0.8-0.4,0.8-0.8c0-0.4-0.4-0.8-0.8-0.8h3.2
		V244.5z M492.6,250.9h-6.4v-3.2h1.6c-0.4,0-0.8,0.4-0.8,0.8s0.4,0.8,0.8,0.8h1.6c0.4,0,0.8-0.4,0.8-0.8s-0.4-0.8-0.8-0.8h3.2V250.9
		z M492.6,257.3h-6.4v-3.2h1.6c-0.4,0-0.8,0.4-0.8,0.8s0.4,0.8,0.8,0.8h1.6c0.4,0,0.8-0.4,0.8-0.8s-0.4-0.8-0.8-0.8h3.2V257.3z
		 M492.6,263.7H491v-3.2h1.6V263.7z M492.6,270.2H491V267h1.6V270.2z M478.2,255.7h1.6c0.4,0,0.8-0.4,0.8-0.8s-0.4-0.8-0.8-0.8h1.6
		v3.2h-3.2V255.7z M494.2,271.8v-1.6V267v-1.6v-1.6v-3.2v-1.6v-1.6v-3.2v-1.6v-1.6v-3.2v-1.6v-1.6v-3.2v-1.6v-1.6v-3.2v-1.6v-1.6
		h1.6v1.6v1.6v3.2v1.6v1.6v3.2v1.6v1.6v3.2v1.6v1.6v3.2v1.6v1.6v3.2v1.6v1.6v3.2v1.6v1.6h-1.6V271.8z M505.5,231.6h1.6v1.6v1.6v3.2
		v1.6v1.6v3.2v1.6v1.6v3.2v1.6v1.6v3.2v1.6v1.6v0.4l-1.6,0.2v-0.6v-1.6v-1.6v-3.2v-1.6v-1.6v-3.2v-1.6v-1.6v-3.2v-1.6v-1.6v-3.2
		v-1.6V231.6z M516.7,231.6h1.6v1.6v1.6v3.2v1.6v1.6v3.2v1.6v1.6v3.2v1.6v1.6v3.2v1.6v1.6h-1.6v-1.6v-1.6v-3.2v-1.6v-1.6v-3.2v-1.6
		v-1.6v-3.2v-1.6v-1.6v-3.2v-1.6V231.6z M534.4,231.6h1.6v1.6v1.6v3.2v1.6v1.6v3.2v1.6v1.6v3.2v1.6v1.6v3.2v1.6v1.6h-1.6v-1.6v-1.6
		v-3.2v-1.6v-1.6v-3.2v-1.6v-1.6v-3.2v-1.6v-1.6v-3.2v-1.6V231.6z M545.6,231.6h1.6v1.6v1.6v3.2v1.6v1.6v3.2v1.6v1.6v1.6v1.6v1.6
		v1.6v1.6v1.6v1.6v1.6v0.6l-1.6-0.2v-0.4v-1.6v-1.6v-1.6v-1.6v-1.6v-1.6v-1.6v-1.6v-1.6v-1.6v-3.2v-1.6v-1.6v-3.2v-1.6V231.6z
		 M555.2,238.1h-6.4v-3.2h3.2c-0.4,0-0.8,0.4-0.8,0.8c0,0.4,0.4,0.8,0.8,0.8h1.6c0.4,0,0.8-0.4,0.8-0.8c0-0.4-0.4-0.8-0.8-0.8h1.6
		V238.1z M555.2,244.5h-6.4v-3.2h3.2c-0.4,0-0.8,0.4-0.8,0.8c0,0.4,0.4,0.8,0.8,0.8h1.6c0.4,0,0.8-0.4,0.8-0.8
		c0-0.4-0.4-0.8-0.8-0.8h1.6V244.5z M555.2,255.7v1.6h-1.6h-4.8v-1.6v-1.6h3.2c-0.4,0-0.8,0.4-0.8,0.8s0.4,0.8,0.8,0.8h1.6
		c0.4,0,0.8-0.4,0.8-0.8s-0.4-0.8-0.8-0.8h1.6V255.7z M555.2,270.2H552h-3.2v-2.6c0.1,0,0.2-0.1,0.3-0.1l1.5-0.5l1.3-0.4l3.2-1.1
		v1.5V270.2z M503.9,270.2h-6.4V267h1.6c-0.4,0-0.8,0.4-0.8,0.8c0,0.4,0.4,0.8,0.8,0.8h1.6c0.4,0,0.8-0.4,0.8-0.8
		c0-0.4-0.4-0.8-0.8-0.8h1.3l1.5,0.5c0.1,0,0.2,0.1,0.3,0.1V270.2z M497.4,254.1h1.6c-0.4,0-0.8,0.4-0.8,0.8s0.4,0.8,0.8,0.8h1.6
		c0.4,0,0.8-0.4,0.8-0.8s-0.4-0.8-0.8-0.8h3.2v3.2h-6.4V254.1z M497.4,247.7h1.6c-0.4,0-0.8,0.4-0.8,0.8s0.4,0.8,0.8,0.8h1.6
		c0.4,0,0.8-0.4,0.8-0.8s-0.4-0.8-0.8-0.8h3.2v3.2h-6.4V247.7z M497.4,241.3h1.6c-0.4,0-0.8,0.4-0.8,0.8c0,0.4,0.4,0.8,0.8,0.8h1.6
		c0.4,0,0.8-0.4,0.8-0.8c0-0.4-0.4-0.8-0.8-0.8h3.2v3.2h-6.4V241.3z M497.4,234.8h1.6c-0.4,0-0.8,0.4-0.8,0.8c0,0.4,0.4,0.8,0.8,0.8
		h1.6c0.4,0,0.8-0.4,0.8-0.8c0-0.4-0.4-0.8-0.8-0.8h3.2v3.2h-6.4V234.8z M508.7,260.5h1.6c-0.1,0-0.1,0-0.2,0l-1.4,0.2V260.5z
		 M508.7,254.1h1.6c-0.4,0-0.8,0.4-0.8,0.8s0.4,0.8,0.8,0.8h1.6c0.4,0,0.8-0.4,0.8-0.8s-0.4-0.8-0.8-0.8h3.2v3.2h-6.4V254.1z
		 M508.7,247.7h1.6c-0.4,0-0.8,0.4-0.8,0.8s0.4,0.8,0.8,0.8h1.6c0.4,0,0.8-0.4,0.8-0.8s-0.4-0.8-0.8-0.8h3.2v3.2h-6.4V247.7z
		 M508.7,241.3h1.6c-0.4,0-0.8,0.4-0.8,0.8c0,0.4,0.4,0.8,0.8,0.8h1.6c0.4,0,0.8-0.4,0.8-0.8c0-0.4-0.4-0.8-0.8-0.8h3.2v3.2h-6.4
		V241.3z M508.7,234.8h1.6c-0.4,0-0.8,0.4-0.8,0.8c0,0.4,0.4,0.8,0.8,0.8h1.6c0.4,0,0.8-0.4,0.8-0.8c0-0.4-0.4-0.8-0.8-0.8h3.2v3.2
		h-6.4V234.8z M519.9,254.1h1.6c-0.4,0-0.8,0.4-0.8,0.8s0.4,0.8,0.8,0.8h1.6c0.4,0,0.8-0.4,0.8-0.8s-0.4-0.8-0.8-0.8h6.4
		c-0.4,0-0.8,0.4-0.8,0.8s0.4,0.8,0.8,0.8h1.6c0.4,0,0.8-0.4,0.8-0.8s-0.4-0.8-0.8-0.8h1.6v3.2h-12.8V254.1z M519.9,247.7h1.6
		c-0.4,0-0.8,0.4-0.8,0.8s0.4,0.8,0.8,0.8h1.6c0.4,0,0.8-0.4,0.8-0.8s-0.4-0.8-0.8-0.8h6.4c-0.4,0-0.8,0.4-0.8,0.8s0.4,0.8,0.8,0.8
		h1.6c0.4,0,0.8-0.4,0.8-0.8s-0.4-0.8-0.8-0.8h1.6v3.2h-12.8V247.7z M519.9,241.3h1.6c-0.4,0-0.8,0.4-0.8,0.8c0,0.4,0.4,0.8,0.8,0.8
		h1.6c0.4,0,0.8-0.4,0.8-0.8c0-0.4-0.4-0.8-0.8-0.8h6.4c-0.4,0-0.8,0.4-0.8,0.8c0,0.4,0.4,0.8,0.8,0.8h1.6c0.4,0,0.8-0.4,0.8-0.8
		c0-0.4-0.4-0.8-0.8-0.8h1.6v3.2h-12.8V241.3z M519.9,234.8h1.6c-0.4,0-0.8,0.4-0.8,0.8c0,0.4,0.4,0.8,0.8,0.8h1.6
		c0.4,0,0.8-0.4,0.8-0.8c0-0.4-0.4-0.8-0.8-0.8h6.4c-0.4,0-0.8,0.4-0.8,0.8c0,0.4,0.4,0.8,0.8,0.8h1.6c0.4,0,0.8-0.4,0.8-0.8
		c0-0.4-0.4-0.8-0.8-0.8h1.6v3.2h-12.8V234.8z M537.6,254.1h3.2c-0.4,0-0.8,0.4-0.8,0.8s0.4,0.8,0.8,0.8h1.6c0.4,0,0.8-0.4,0.8-0.8
		s-0.4-0.8-0.8-0.8h1.6v1.6v1.6h-1.6h-4.8V254.1z M537.6,247.7h3.2c-0.4,0-0.8,0.4-0.8,0.8s0.4,0.8,0.8,0.8h1.6
		c0.4,0,0.8-0.4,0.8-0.8s-0.4-0.8-0.8-0.8h1.6v1.6v1.6h-1.6h-4.8V247.7z M537.6,241.3h3.2c-0.4,0-0.8,0.4-0.8,0.8
		c0,0.4,0.4,0.8,0.8,0.8h1.6c0.4,0,0.8-0.4,0.8-0.8c0-0.4-0.4-0.8-0.8-0.8h1.6v3.2h-6.4V241.3z M537.6,234.8h3.2
		c-0.4,0-0.8,0.4-0.8,0.8c0,0.4,0.4,0.8,0.8,0.8h1.6c0.4,0,0.8-0.4,0.8-0.8c0-0.4-0.4-0.8-0.8-0.8h1.6v3.2h-6.4V234.8z M550.4,260.5
		h1.6c-0.4,0-0.8,0.4-0.8,0.8c0,0.1,0,0.2,0.1,0.3l-2.3-0.3l-0.2,0v-0.8H550.4z M520.7,264.5c0.4,0,0.8-0.4,0.8-0.8h3.2
		c0,0.4,0.4,0.8,0.8,0.8s0.8-0.4,0.8-0.8h3.2c0,0.4,0.4,0.8,0.8,0.8s0.8-0.4,0.8-0.8h1.6h1.6c0,0.4,0.4,0.8,0.8,0.8
		c0.4,0,0.8-0.4,0.8-0.8h1.6h1.6c0,0.4,0.4,0.8,0.8,0.8s0.8-0.4,0.8-0.8h1.5l0.1,0l1.6,0.2l1.6,0.2l1.6,0.2l0.8,0.1
		c-0.2,0.1-0.5,0.1-0.8,0.2c-0.5,0.1-1,0.2-1.6,0.3c-0.5,0.1-1.1,0.1-1.6,0.2c-0.6,0.1-1.1,0.1-1.6,0.1c-0.6,0-1.2,0.1-1.6,0.1h-3.2
		H536h-1.6h-1.6h-12.8h-1.6h-1.6h-1.6h-3.2c-0.7,0-2-0.1-3.2-0.2c-0.5-0.1-1.1-0.1-1.6-0.2c-0.6-0.1-1.1-0.2-1.6-0.3
		c-0.3-0.1-0.6-0.1-0.8-0.2l0.8-0.1l1.6-0.2l1.6-0.2l1.6-0.2c0,0.4,0.4,0.8,0.8,0.8c0.4,0,0.8-0.4,0.8-0.8h3.2
		c0,0.4,0.4,0.8,0.8,0.8s0.8-0.4,0.8-0.8h1.6h1.6C519.9,264.2,520.3,264.5,520.7,264.5z M544,260.7l-1.4-0.2c-0.1,0-0.1,0-0.2,0h1.6
		V260.7z M503.9,261.3l-2.5,0.3c0-0.1,0.1-0.2,0.1-0.3c0-0.4-0.4-0.8-0.8-0.8h3.2V261.3z M499,260.5c-0.4,0-0.8,0.4-0.8,0.8
		c0,0.3,0.1,0.5,0.3,0.6l-1.1,0.1v-1.6H499z M555.2,262.1l-1.1-0.1c0.2-0.1,0.3-0.4,0.3-0.6c0-0.4-0.4-0.8-0.8-0.8h1.6V262.1z
		 M552,250.9h-3.2h0v-1.6v-1.6h3.2c-0.4,0-0.8,0.4-0.8,0.8c0,0.2,0.1,0.4,0.2,0.5c0.1,0.2,0.4,0.3,0.6,0.3h1.6
		c0.4,0,0.8-0.4,0.8-0.8c0-0.1,0-0.3-0.1-0.4c-0.1-0.2-0.4-0.4-0.7-0.4h1.6v0v3.2H552z M505.5,271.8v-1.6h1.6v1.6v1.6h-1.6V271.8z
		 M516.7,270.2h1.6v3.2h-1.6V270.2z M534.4,270.2h1.6v3.2h-1.6V270.2z M545.6,271.8v-1.6h1.6v1.6v1.6h-1.6V271.8z M556.8,271.8v-1.6
		V267v-1.6v-1.6v-1.6v-1.6v-1.6v-1.6v-1.6v-1.6v-1.6v-1.6v-0.4v-1.3v-1.6v-0.7v-0.9v-1.6v-3.2v-1.6v-1.6v-3.2v-1.6v-1.6h1.6v1.6v1.6
		v3.2v1.6v1.6v3.2v1.2v0.4v1.6v2v1.2v1.6v1.6v1.6v1.6v1.6v1.6v1.6v1.6v1.6v1.6v3.2v1.6v1.6h-1.6V271.8z M481.4,231.6h-3.2V230h1.6
		h1.6V231.6z M407.5,247.7h-4.8v-4.8c0-0.4-0.4-0.8-0.8-0.8s-0.8,0.4-0.8,0.8v4.8h-3.2v-4.8c0-0.4-0.4-0.8-0.8-0.8
		c-0.4,0-0.8,0.4-0.8,0.8v4.8h-3.2v-4.8c0-0.4-0.4-0.8-0.8-0.8s-0.8,0.4-0.8,0.8v4.8h-3.2v-4.8c0-0.4-0.4-0.8-0.8-0.8
		s-0.8,0.4-0.8,0.8v4.8h-3.2v-4.8c0-0.4-0.4-0.8-0.8-0.8c-0.4,0-0.8,0.4-0.8,0.8v4.8h-3.2v-4.8c0-0.4-0.4-0.8-0.8-0.8
		s-0.8,0.4-0.8,0.8v4.8h-4.8v-11.2h35.3V247.7z M332.1,265.3h4.8v4.8h-1.6v-1.6c0-0.4-0.4-0.8-0.8-0.8s-0.8,0.4-0.8,0.8v1.6h-1.6
		V265.3z M341.7,267c0-0.9,0.7-1.6,1.6-1.6h3.2v6.4h-4.8V267z M351.3,267c0-0.9,0.7-1.6,1.6-1.6h3.2v6.4h-4.8V267z M361,267
		c0-0.9,0.7-1.6,1.6-1.6h3.2v6.4H361V267z M378.6,263.7h3.2v8h-3.2V263.7z M386.7,263.7h8v8h-8V263.7z M399.5,263.7h3.2v8h-3.2
		V263.7z M407.5,271.8v-6.9c0.5,0.3,1,0.4,1.6,0.4h1.6v6.4H407.5z M415.6,267c0-0.9,0.7-1.6,1.6-1.6h3.2v6.4h-4.8V267z M568.1,276.6
		V275v-1.6v-1.6v-1.6V267v-1.6v-1.6v-1.6v-1.6v-1.6v-1.6v-1.6v-1.6v-1.6v-1.6v-3.2v-1.6v-1.6v-3.2v-1.6v-1.6v-3.2v-1.6v-1.6h1.6v1.6
		v1.6v3.2v1.6v1.6v3.2v1.6v1.6v0.9v2.3v1.6v1.6v1.6v0.8v0.8v1.6v1.6v0.8v0.8v1.6v1.6v1.6v3.2v1.6v1.6v1.6v1.6H568.1z M571.3,273.4
		h1.6c-0.4,0-0.8,0.4-0.8,0.8c0,0.4,0.4,0.8,0.8,0.8h1.6v1.6h-3.2V273.4z M576.1,275v-1.6v-1.6h1.6v4.8h-1.6V275z M625.9,276.6
		h-14.4v-4.8h14.4V276.6z M609.8,270.2h-22.5v-9.6c0-0.9-0.7-1.6-1.6-1.6h-3.2c-0.9,0-1.6-0.7-1.6-1.6v-1.6h28.9V270.2z
		 M577.7,248.9c-0.5-0.1-1.1-0.3-1.6-0.5v-21.5h1.6V248.9z M476.6,243.9l-1.6-16.6v-0.5h1.6V243.9z M470.1,217.2h0.6l0.2,1.6h-8.8
		c0-0.3,0-0.5-0.1-0.8c0-0.3,0.1-0.5,0.1-0.8H470.1z M458.5,215.6c0.3,0.5,0.4,1,0.4,1.6c0,0.6-0.2,1.1-0.4,1.6
		c-0.6,1-1.6,1.6-2.8,1.6c-1.2,0-2.2-0.6-2.8-1.6c-0.3-0.5-0.4-1-0.4-1.6c0-0.6,0.2-1.1,0.4-1.6c0.6-1,1.6-1.6,2.8-1.6
		C456.9,214,457.9,214.6,458.5,215.6z M433.4,258.9h-1.8v-6.4c0-0.4-0.4-0.8-0.8-0.8c-0.4,0-0.8,0.4-0.8,0.8v6.4h-3.2v-9.6
		c0-0.4-0.4-0.8-0.8-0.8s-0.8,0.4-0.8,0.8v9.6H422v-12.8c0-0.4-0.4-0.8-0.8-0.8s-0.8,0.4-0.8,0.8v12.8v0l-3.2,0v0v-16.1
		c0-0.4-0.4-0.8-0.8-0.8c-0.4,0-0.8,0.4-0.8,0.8v16.1v0l-2.3,0c0,0,0,0,0,0c-0.3-0.9-0.6-1.9-0.9-3v-13c0-0.4-0.4-0.8-0.8-0.8
		s-0.8,0.4-0.8,0.8v5.1c-0.7-4.6-1.2-9.2-1.5-11.5h10.1c3.2,6.7,8.7,11.4,14.8,14.7L433.4,258.9z M360.4,236.4h10.2v10.4
		c-0.2,0-0.4,0.1-0.6,0.2c-0.3,0.3-0.3,0.8,0,1.1l0.6,0.6v0.5c0,1.6-0.1,3.3-0.3,4.8c-0.3,2.5-0.8,4.5-1.3,4.8v-4.8v-11.2
		c0-0.4-0.4-0.8-0.8-0.8s-0.8,0.4-0.8,0.8v16.1h-3.2v-16.1c0-0.4-0.4-0.8-0.8-0.8s-0.8,0.4-0.8,0.8v16.1h-3.2v-12.8
		c0-0.4-0.4-0.8-0.8-0.8s-0.8,0.4-0.8,0.8v12.8h-3.2v-9.6c0-0.4-0.4-0.8-0.8-0.8s-0.8,0.4-0.8,0.8v9.6h-3.2v-6.4
		c0-0.4-0.4-0.8-0.8-0.8s-0.8,0.4-0.8,0.8v6.4h-3.2v-4.8c0-0.4-0.4-0.8-0.8-0.8s-0.8,0.4-0.8,0.8v4.8h-3.2v-3.2
		c0-0.4-0.4-0.8-0.8-0.8s-0.8,0.4-0.8,0.8v3.2h-3.2v-1.6c0-0.4-0.4-0.8-0.8-0.8s-0.8,0.4-0.8,0.8v1.6h-1.6h-1.6
		c0-0.4-0.4-0.8-0.8-0.8c-0.4,0-0.8,0.4-0.8,0.8h-3.2c-1.9,0-3.7-0.2-5.2-0.5C331.9,257.1,352.8,252.6,360.4,236.4z M330.5,262.1
		v6.4c0-0.4-0.4-0.8-0.8-0.8c-0.4,0-0.8,0.4-0.8,0.8v1.6h-3.2v-1.6v-6.4H330.5z M423.6,275v-3.2h1.6h4.8h3.2h1.6h4.8h3.2h1.6h3.2
		h1.6h4.8h1.6h1.6h4.8h9.6h3.2h1.6h1.6h3.2h1.6h1.6h1.6h1.6v1.6v3.2h-1.6h-1.6H483v-3.2c0-0.4-0.4-0.8-0.8-0.8s-0.8,0.4-0.8,0.8v3.2
		h-1.6h-1.6h-1.6v-3.2c0-0.4-0.4-0.8-0.8-0.8s-0.8,0.4-0.8,0.8v3.2h-3.2h-1.6v-3.2c0-0.4-0.4-0.8-0.8-0.8c-0.4,0-0.8,0.4-0.8,0.8
		v3.2h-4.8v-3.2c0,0,0-0.1,0-0.1c0-0.4-0.4-0.7-0.8-0.7c-0.4,0-0.8,0.4-0.8,0.8v3.2h-1.6h-3.2V275v-1.6c0-0.4-0.4-0.8-0.8-0.8
		s-0.8,0.4-0.8,0.8v1.6v1.6h-4.8V275v-1.6c0-0.4-0.4-0.8-0.8-0.8s-0.8,0.4-0.8,0.8v1.6v1.6h-4.8V275v-1.6c0-0.4-0.4-0.8-0.8-0.8
		s-0.8,0.4-0.8,0.8v1.6v1.6H438V275v-1.6c0-0.4-0.4-0.8-0.8-0.8c-0.4,0-0.8,0.4-0.8,0.8v1.6v1.6h-4.8V275v-1.6
		c0-0.4-0.4-0.8-0.8-0.8c-0.2,0-0.3,0.1-0.5,0.2c-0.2,0.1-0.3,0.4-0.3,0.6v1.6v1.6h-6.4V275z M646.7,273.4v3.2h-9.6h-9.6v-4.8h9.6
		h9.6V273.4z M635.5,254.1h-24.1v-1.6h24.1V254.1z M418.8,233.2H361v-1.6h57.8V233.2z M287.6,241.3l2.5,16.1h-2.9v-1.6
		c0-0.4-0.4-0.8-0.8-0.8s-0.8,0.4-0.8,0.8v1.6h-3.2v-1.6c0-0.4-0.4-0.8-0.8-0.8s-0.8,0.4-0.8,0.8v1.6h-3.2v-16.1H287.6z
		 M272.7,257.3h-1.6v-1.6c0-0.6-0.3-1.1-0.8-1.4c0-0.1,0-0.1,0-0.2c0-0.2-0.1-0.4-0.2-0.6c-0.1-0.2-0.4-0.2-0.6-0.2v-1.6
		c0-1.5,0.5-2.8,1.2-3.7c1.2,0.6,2,2,2,3.7V257.3z M261.4,257.3h-3.2v-1.6c0-0.4-0.4-0.8-0.8-0.8s-0.8,0.4-0.8,0.8v1.6h-3.2v-1.6
		c0-0.4-0.4-0.8-0.8-0.8c-0.4,0-0.8,0.4-0.8,0.8v1.6h-2.9l2.5-16.1h10.1V257.3z M216.5,273.4h35.3v3.2h-17.7h-19.3h-3.2h-1.6h-1.6
		h-3.2h-4.4l0.8-3.2h3.6h3.2h1.6h1.6h3.2H216.5z M126.6,268.6h8h8v3v0.9v0.9v3.3h-6.4v-1.1v-0.9v-0.9v-2.1c0-0.9-0.7-1.6-1.6-1.6
		c-0.9,0-1.6,0.7-1.6,1.6v3.2v0.9v0.8h-2.2h-2.4h-1.8V268.6z M195.6,252.5v-0.7l4.8-2.4l2.2,1.1l1,0.5l1,0.5l0.6,0.3v0.7v1.6H202
		v-1.6c0,0,0-0.1,0-0.1c0-0.3-0.1-0.5-0.3-0.8c-0.2-0.3-0.4-0.5-0.7-0.6c-0.2-0.1-0.4-0.1-0.6-0.1c-0.6,0-1.1,0.3-1.4,0.8
		c-0.1,0.2-0.2,0.5-0.2,0.8v0.2v0.9v0.6h-1.7h-1.5v-0.3v-0.9V252.5z M195.6,276.6v-6.4h3.2v1.4l-1.3,5H195.6z M190,274.2
		c-0.4,0-0.8,0.4-0.8,0.8v1.6h-6.4V275c0-0.4-0.4-0.8-0.8-0.8c-0.4,0-0.8,0.4-0.8,0.8v1.6h-1.6h-4.8V275c0-0.4-0.4-0.8-0.8-0.8
		c-0.4,0-0.8,0.4-0.8,0.8v1.6h-6.4V275c0-0.4-0.4-0.8-0.8-0.8s-0.8,0.4-0.8,0.8v1.6h-6.4V275v-1.6h3.2h8h8h8h6.4v3.2h-1.6V275
		C190.8,274.5,190.4,274.2,190,274.2z M165.9,262.9c0.4,0,0.8-0.4,0.8-0.8v-1.6h1.6v2v0.9v0.9v7.5h-3.2v-3.2c0,0.4,0.4,0.8,0.8,0.8
		s0.8-0.4,0.8-0.8V267c0-0.4-0.4-0.8-0.8-0.8s-0.8,0.4-0.8,0.8v-1.6v-0.9v-0.9v-1.5C165.1,262.6,165.5,262.9,165.9,262.9z
		 M190,266.1c-0.4,0-0.8,0.4-0.8,0.8v-4.8c0,0.4,0.4,0.8,0.8,0.8s0.8-0.4,0.8-0.8v-1.6h1.6v11.2h-3.2v-3.2c0,0.4,0.4,0.8,0.8,0.8
		s0.8-0.4,0.8-0.8V267C190.8,266.5,190.4,266.1,190,266.1z M195.6,255.7h4.8h4.8v12.8c0-0.4-0.4-0.8-0.8-0.8s-0.8,0.4-0.8,0.8H202
		V267c0-0.9-0.7-1.6-1.6-1.6c-0.9,0-1.6,0.7-1.6,1.6v1.6h-3.2V255.7z M173.1,268.6c0,0.4,0.4,0.8,0.8,0.8c0.4,0,0.8-0.4,0.8-0.8V267
		c0-0.4-0.4-0.8-0.8-0.8c-0.4,0-0.8,0.4-0.8,0.8v-4.4v-0.4c0,0.1,0,0.3,0.1,0.4c0.1,0.3,0.4,0.4,0.7,0.4c0.4,0,0.8-0.4,0.8-0.8V262
		v-0.9v-0.6h1.6v0v0.9v10.4h-3.2V268.6z M182,266.1c-0.4,0-0.8,0.4-0.8,0.8v-4.8c0,0.4,0.4,0.8,0.8,0.8c0.4,0,0.8-0.4,0.8-0.8v-1.6
		h1.6v11.2h-3.2v-3.2c0,0.4,0.4,0.8,0.8,0.8c0.4,0,0.8-0.4,0.8-0.8V267C182.8,266.5,182.4,266.1,182,266.1z M160.3,265.4v0.9v0.9
		v4.7h-1.6v-3.2v-0.9V267v-0.2v-0.9v-3.8v-1.6v-1.6h1.6V265.4z M211.7,268.6h-1.6v-12.8h1.6V268.6z M158.7,257.3v-1.6v-3.1
		c0.9,0.3,1.6,1.2,1.6,2.3v2.4H158.7z M123.4,276.6H117v-6.4h6.4V276.6z M80,268.6V267v-4.8v-1.6v-1.6h1.6v12.8H80V268.6z
		 M86.5,268.6c0,0.4,0.4,0.8,0.8,0.8s0.8-0.4,0.8-0.8V267c0-0.4-0.4-0.8-0.8-0.8s-0.8,0.4-0.8,0.8v-4.8c0,0.4,0.4,0.8,0.8,0.8
		s0.8-0.4,0.8-0.8v-1.6h1.6v11.2h-3.2V268.6z M94.5,268.6c0,0.4,0.4,0.8,0.8,0.8s0.8-0.4,0.8-0.8V267c0-0.4-0.4-0.8-0.8-0.8
		s-0.8,0.4-0.8,0.8v-4.8c0,0.4,0.4,0.8,0.8,0.8s0.8-0.4,0.8-0.8v-1.6h1.6v11.2h-3.2V268.6z M102.5,268.6c0,0.4,0.4,0.8,0.8,0.8
		c0.4,0,0.8-0.4,0.8-0.8V267c0-0.4-0.4-0.8-0.8-0.8c-0.4,0-0.8,0.4-0.8,0.8v-4.8c0,0.4,0.4,0.8,0.8,0.8c0.4,0,0.8-0.4,0.8-0.8v-1.6
		h1.6v11.2h-3.2V268.6z M110.5,268.6c0,0.4,0.4,0.8,0.8,0.8s0.8-0.4,0.8-0.8V267c0-0.4-0.4-0.8-0.8-0.8s-0.8,0.4-0.8,0.8v-4.8
		c0,0.4,0.4,0.8,0.8,0.8s0.8-0.4,0.8-0.8v-1.6h1.6v11.2h-3.2V268.6z M80,257.3v-1.6v-3.1c0.9,0.3,1.6,1.2,1.6,2.3v2.4H80z
		 M691.7,276.6V276v-4.2h9.6v4.8h-8.5H691.7z M731.8,271.8v4.8h-24.1v-4.8H731.8z M760.7,270.2h-11.2v-4.8c0-0.9-0.7-1.6-1.6-1.6
		c-0.9,0-1.6,0.7-1.6,1.6v4.8H735v-6.4h3.2h9.6h9.6h3.2V270.2z M760.7,276.6H735v-4.8h12.8h12.8V276.6z M755.9,255.7v3.2
		c0-0.4-0.4-0.8-0.8-0.8c-0.4,0-0.8,0.4-0.8,0.8v1.6h-1.6v-4c0-0.4-0.4-0.8-0.8-0.8H755.9z M744.7,257.3h6.4v1.6
		c0-0.4-0.4-0.8-0.8-0.8s-0.8,0.4-0.8,0.8v1.6h-1.6v-1.6c0-0.4-0.4-0.8-0.8-0.8c-0.4,0-0.8,0.4-0.8,0.8v1.6h-1.6V257.3z
		 M743.9,255.7c-0.4,0-0.8,0.4-0.8,0.8v4h-1.6v-1.6c0-0.4-0.4-0.8-0.8-0.8c-0.4,0-0.8,0.4-0.8,0.8v-3.2H743.9z M736.6,260.5h-3.2
		h-1.6c-0.4,0-0.8,0.4-0.8,0.8s0.4,0.8,0.8,0.8v8h-24.1v-14.4h28.9V260.5z M701.3,270.2h-21.1h-1.8h-1.2v-0.6v-0.9v-12.9h11.2h12.8
		V270.2z M606.6,249.3v-1.6c0-0.4-0.4-0.8-0.8-0.8c-0.4,0-0.8,0.4-0.8,0.8v1.6h-1.6v-5.4c1.8-0.1,2.1-0.3,2.3-0.4l1.6-0.8
		c0.6-0.3,1-1,0.9-1.6c-0.1-0.7-0.6-1.2-1.3-1.4c-2-0.4-7.4-2.1-8.4-5.4c-0.2-0.7-0.8-1.1-1.5-1.1c-0.7,0-1.3,0.4-1.5,1.1
		c-1.1,3.2-6.4,5-8.4,5.4c-0.7,0.1-1.2,0.7-1.3,1.4c-0.1,0.7,0.3,1.3,0.9,1.6l1.6,0.8c0.2,0.1,0.5,0.3,2.3,0.4v5.4h-1.6v-1.6
		c0-0.4-0.4-0.8-0.8-0.8s-0.8,0.4-0.8,0.8v1.6h-6.4v-21.7l32.5,10.2l22.5,11.5H606.6z M577.7,223.6h-4H571h-2.7H475
		c-0.1,0-0.2,0-0.4,0l-0.2-1.6h0.5c0,0.4,0.4,0.8,0.8,0.8s0.8-0.4,0.8-0.8h3.2c0,0.4,0.4,0.8,0.8,0.8s0.8-0.4,0.8-0.8h3.2
		c0,0.4,0.4,0.8,0.8,0.8c0.4,0,0.8-0.4,0.8-0.8h3.2c0,0.4,0.4,0.8,0.8,0.8c0.4,0,0.8-0.4,0.8-0.8h3.2c0,0.4,0.4,0.8,0.8,0.8
		c0.4,0,0.8-0.4,0.8-0.8h3.2c0,0.4,0.4,0.8,0.8,0.8s0.8-0.4,0.8-0.8h3.2c0,0.4,0.4,0.8,0.8,0.8s0.8-0.4,0.8-0.8h3.2
		c0,0.4,0.4,0.8,0.8,0.8c0.4,0,0.8-0.4,0.8-0.8h3.2c0,0.4,0.4,0.8,0.8,0.8c0.4,0,0.8-0.4,0.8-0.8h3.2c0,0.4,0.4,0.8,0.8,0.8
		s0.8-0.4,0.8-0.8h3.2c0,0.4,0.4,0.8,0.8,0.8s0.8-0.4,0.8-0.8h3.2c0,0.4,0.4,0.8,0.8,0.8s0.8-0.4,0.8-0.8h3.2c0,0.4,0.4,0.8,0.8,0.8
		s0.8-0.4,0.8-0.8h3.2c0,0.4,0.4,0.8,0.8,0.8s0.8-0.4,0.8-0.8h3.2c0,0.4,0.4,0.8,0.8,0.8c0.4,0,0.8-0.4,0.8-0.8h3.2
		c0,0.4,0.4,0.8,0.8,0.8s0.8-0.4,0.8-0.8h3.2c0,0.4,0.4,0.8,0.8,0.8s0.8-0.4,0.8-0.8h3.2c0,0.4,0.4,0.8,0.8,0.8s0.8-0.4,0.8-0.8h3.2
		c0,0.4,0.4,0.8,0.8,0.8c0.4,0,0.8-0.4,0.8-0.8c0,0,0,0,0,0h2.6h0.6c0,0.1,0,0.1,0,0.2c0.1,0.4,0.4,0.6,0.8,0.6
		c0.2,0,0.4-0.1,0.5-0.2c0.2-0.1,0.3-0.4,0.3-0.6h0.5h2.7c0,0.4,0.4,0.8,0.8,0.8s0.8-0.4,0.8-0.8h3.2c0,0.4,0.4,0.8,0.8,0.8
		s0.8-0.4,0.8-0.8h1.5l5.7,0.7C583.4,223.2,579.4,223.6,577.7,223.6z M476.6,218.8h-2.4l-0.2-2.1c0.8,0.1,1.8,0.2,2.6,0.3V218.8z
		 M441.4,93.6c0.5-0.1,1-0.4,1.2-0.8c1.5-0.4,3.5-0.8,5-0.8c2,0,4.9,0.7,6.4,1.2v0.4c0,0.9,0.7,1.6,1.6,1.6s1.6-0.7,1.6-1.6v-0.4
		c1.5-0.4,4.4-1.2,6.4-1.2c1.5,0,3.5,0.4,5,0.8c0.3,0.4,0.7,0.7,1.2,0.8l-1.2,13.6c-1.6-0.4-3.5-0.7-5-0.7c-2.8,0-6.7,1.1-8,1.5
		c-1.4-0.4-5.2-1.5-8-1.5c-1.6,0-3.4,0.3-5,0.7L441.4,93.6z M441.4,111.2c0.5-0.1,1-0.4,1.2-0.8c1.5-0.4,3.5-0.8,5-0.8
		c2,0,4.9,0.7,6.4,1.2v0.4c0,0.9,0.7,1.6,1.6,1.6s1.6-0.7,1.6-1.6v-0.4c1.5-0.4,4.4-1.2,6.4-1.2c1.5,0,3.5,0.4,5,0.8
		c0.3,0.4,0.7,0.7,1.2,0.8l-1.2,13.6c-1.6-0.4-3.5-0.7-5-0.7c-2.8,0-6.7,1.1-8,1.5c-1.4-0.4-5.2-1.5-8-1.5c-1.6,0-3.4,0.3-5,0.7
		L441.4,111.2z M441.4,128.9c0.5-0.1,1-0.4,1.2-0.8c1.5-0.4,3.5-0.8,5-0.8c2,0,4.9,0.7,6.4,1.2v0.4c0,0.9,0.7,1.6,1.6,1.6
		s1.6-0.7,1.6-1.6v-0.4c1.5-0.4,4.4-1.2,6.4-1.2c1.5,0,3.5,0.4,5,0.8c0.3,0.4,0.7,0.7,1.2,0.8l-1.2,13.6c-1.6-0.4-3.5-0.7-5-0.7
		c-2.8,0-6.7,1.1-8,1.5c-1.4-0.4-5.2-1.5-8-1.5c-1.6,0-3.4,0.3-5,0.7L441.4,128.9z M441.4,146.5c0.5-0.1,1-0.4,1.2-0.8
		c1.5-0.4,3.5-0.8,5-0.8c2,0,4.9,0.7,6.4,1.2v0.4c0,0.9,0.7,1.6,1.6,1.6s1.6-0.7,1.6-1.6v-0.4c1.5-0.4,4.4-1.2,6.4-1.2
		c1.5,0,3.5,0.4,5,0.8c0.3,0.4,0.7,0.7,1.2,0.8l-1.2,13.6c-1.6-0.4-3.5-0.7-5-0.7c-2.8,0-6.7,1.1-8,1.5c-1.4-0.4-5.2-1.5-8-1.5
		c-1.6,0-3.4,0.3-5,0.7L441.4,146.5z M441.4,164.2c0.5-0.1,1-0.4,1.2-0.8c1.5-0.4,3.5-0.8,5-0.8c2,0,4.9,0.7,6.4,1.2v0.4
		c0,0.9,0.7,1.6,1.6,1.6s1.6-0.7,1.6-1.6v-0.4c1.5-0.4,4.4-1.2,6.4-1.2c1.5,0,3.5,0.4,5,0.8c0.3,0.4,0.7,0.7,1.2,0.8l-1.2,13.6
		c-1.6-0.4-3.5-0.7-5-0.7c-2.8,0-6.7,1.1-8,1.5c-1.4-0.4-5.2-1.5-8-1.5c-1.6,0-3.4,0.3-5,0.7L441.4,164.2z M441.4,181.9
		c0.5-0.1,1-0.4,1.2-0.8c1.5-0.4,3.5-0.8,5-0.8c2,0,4.9,0.7,6.4,1.2v0.4c0,0.9,0.7,1.6,1.6,1.6s1.6-0.7,1.6-1.6v-0.4
		c1.5-0.4,4.4-1.2,6.4-1.2c1.5,0,3.5,0.4,5,0.8c0.3,0.4,0.7,0.7,1.2,0.8l-1.2,13.6c-1.6-0.4-3.5-0.7-5-0.7c-2.8,0-6.7,1.1-8,1.5
		c-1.4-0.4-5.2-1.5-8-1.5c-1.6,0-3.4,0.3-5,0.7L441.4,181.9z M441.4,199.5c0.5-0.1,1-0.4,1.2-0.8c1.5-0.4,3.5-0.8,5-0.8
		c2,0,4.9,0.7,6.4,1.2v0.1v0.3c0,0.2,0,0.3,0.1,0.5c0.1,0.3,0.3,0.6,0.5,0.8c0.3,0.2,0.6,0.4,1,0.4c0.4,0,0.9-0.2,1.1-0.5
		c0.2-0.2,0.4-0.5,0.4-0.8c0-0.1,0-0.2,0-0.3v-0.4c0.1,0,0.2-0.1,0.3-0.1c1.6-0.4,4.2-1.1,6.1-1.1c1.2,0,2.7,0.3,4,0.6
		c0.4,0.1,0.7,0.2,1,0.2c0.1,0.1,0.2,0.3,0.3,0.4c0.2,0.2,0.6,0.4,0.9,0.4l0,0.3l-1,11l-0.1,1.6l-0.1,1l0,0.5h-3.6h-3
		c-0.3,0-0.5,0.1-0.8,0.2c-1.1-2-3.2-3.4-5.7-3.4s-4.6,1.4-5.7,3.4c-0.2-0.1-0.5-0.2-0.8-0.2h-6.6l-1.1-12.6l-0.1-0.8l-0.1-0.8
		L441.4,199.5z M257.1,229.4l1.8-0.6c0.5-0.2,1.7-0.2,2.2-0.1l3.3,0.8c1,0.2,2.5,0.4,3.6,0.4h3.2c1,0,2.6-0.2,3.6-0.4l3.3-0.8
		c0.5-0.1,1.7-0.1,2.2,0.1l1.8,0.6c0.2,0.1,0.3,0.1,0.5,0.1c-0.2,0.6,0,1.2,0.4,1.6l-1.7-0.6c-1.1-0.4-2.8-0.4-4-0.2l-3.3,0.8
		c-0.7,0.2-2,0.3-2.8,0.3h-3.2c-0.8,0-2-0.2-2.8-0.3l-3.3-0.8c-1.2-0.3-2.8-0.2-4,0.2l-1.7,0.6c0.4-0.4,0.6-1,0.4-1.6
		C256.7,229.5,256.9,229.5,257.1,229.4z M211.7,249.3v4.8h-1.6v-4.6v-0.3h0.7H211.7z M205.3,242.9v6.7v0.5l-0.5-0.3l-3.9-2
		c-0.2-0.1-0.5-0.1-0.7,0l-4.5,2.2v-7.1H205.3z M192.4,251.7c-0.7-0.5-1.5-0.8-2.4-0.8c-2.2,0-4,1.8-4,4c0-2.2-1.8-4-4-4s-4,1.8-4,4
		c0-2.2-1.8-4-4-4c-2.2,0-4,1.8-4,4c0-2.2-1.8-4-4-4c-2.2,0-4,1.8-4,4c0-1.9-1.4-3.6-3.2-3.9v-0.1h7.2h8h8h8h2.4V251.7z M131.8,246
		l2.9-1.4l2.9,1.4c0.1,0.1,0.2,0.1,0.4,0.1h3.2h1.6v4.8H141v-1.6c0-0.4-0.4-0.8-0.8-0.8c-0.4,0-0.8,0.4-0.8,0.8v1.6h-3.2v-1.6
		c0-0.9-0.7-1.6-1.6-1.6c-0.9,0-1.6,0.7-1.6,1.6v1.6h-3.2v-1.6v-3.2h1.6C131.5,246.1,131.7,246.1,131.8,246z M113.7,251.7
		c-0.7-0.5-1.5-0.8-2.4-0.8c-2.2,0-4,1.8-4,4c0-2.2-1.8-4-4-4c-2.2,0-4,1.8-4,4c0-2.2-1.8-4-4-4c-2.2,0-4,1.8-4,4c0-2.2-1.8-4-4-4
		c-2.2,0-4,1.8-4,4c0-1.9-1.4-3.6-3.2-3.9v-0.1h7.2h8h8h8h2.4V251.7z M73.6,242.9v7.1l-4.5-2.2c-0.2-0.1-0.5-0.1-0.7,0L64,250v-7.1
		H73.6z M64,252.5v-0.7l4.8-2.4l4.8,2.4v0.7v1.6h-3.2v-1.6c0-0.9-0.7-1.6-1.6-1.6c-0.9,0-1.6,0.7-1.6,1.6v1.6H64V252.5z M68.8,255.7
		h4.8v12.8h-3.2V267c0-0.9-0.7-1.6-1.6-1.6c-0.9,0-1.6,0.7-1.6,1.6v1.6H64v-12.8H68.8z M64,270.2h4.8h4.8v6.4H64V270.2z
		 M767.1,260.5c0-0.9-0.7-1.6-1.6-1.6s-1.6-0.7-1.6-1.6v-1.6h3.2V260.5z M767.1,254.1h-1.6v-1.6h1.6V254.1z M711.7,246.9
		c-0.4,0-0.8,0.4-0.8,0.8v-1.6h3.2v3.2h-1.6v-1.6C712.5,247.2,712.2,246.9,711.7,246.9z M715.8,238c1,1.2,2.3,2.1,3.6,2.8
		c-2.1,0-5.2,0-7.3,0C713.4,240.1,714.7,239.1,715.8,238z M719.8,246.9c-0.4,0-0.8,0.4-0.8,0.8v1.6h-1.6v-3.2h3.2v1.6
		C720.6,247.2,720.2,246.9,719.8,246.9z M715.8,252.5H733l1.3,0.6c0.6,0.3,1.4,0.5,2.3,0.7v0.3h-27.3v-1.6H715.8z M701.3,254.1
		h-24.1v-1.6h24.1V254.1z M675.6,252.5L675.6,252.5c-0.2,0-0.4,0.1-0.6,0.2c-0.2,0.1-0.2,0.4-0.2,0.6c0,0.2,0.1,0.4,0.2,0.6
		c0.1,0.2,0.4,0.2,0.6,0.2h-26.8h-1.7h-1.8h-1.8v-0.9v-0.7h0.4h1.7h26.8H675.6z M637.7,239.6c2.7-1,5.5-2.5,6.9-4.7h0.6
		c0,0.4,0.4,0.8,0.8,0.8s0.8-0.4,0.8-0.8h1.6c0,0.4,0.4,0.8,0.8,0.8s0.8-0.4,0.8-0.8h1.6c0,0.4,0.4,0.8,0.8,0.8s0.8-0.4,0.8-0.8h1.6
		c0,0.4,0.4,0.8,0.8,0.8c0.4,0,0.8-0.4,0.8-0.8h1.6c0,0.4,0.4,0.8,0.8,0.8s0.8-0.4,0.8-0.8h1.6c0,0.4,0.4,0.8,0.8,0.8
		s0.8-0.4,0.8-0.8h1.6c0,0.4,0.4,0.8,0.8,0.8s0.8-0.4,0.8-0.8h1.6c0,0.4,0.4,0.8,0.8,0.8c0.1,0,0.2,0,0.3-0.1c1.5,1.8,3.9,3.1,6.3,4
		c-1,0.1-2,0.1-2.6,0.1h-32.1C639.6,239.7,638.7,239.6,637.7,239.6z M664.4,247.7c0-0.4-0.4-0.8-0.8-0.8c-0.4,0-0.8,0.4-0.8,0.8v1.6
		h-1.6v-1.6c0-0.4-0.4-0.8-0.8-0.8s-0.8,0.4-0.8,0.8v1.6H658v-1.6c0-0.4-0.4-0.8-0.8-0.8s-0.8,0.4-0.8,0.8v1.6h-1.6v-1.6
		c0-0.4-0.4-0.8-0.8-0.8s-0.8,0.4-0.8,0.8v1.6h-1.6v-1.6c0-0.4-0.4-0.8-0.8-0.8s-0.8,0.4-0.8,0.8v1.6h-1.6v-3.2h16.1V247.7z
		 M641.9,246.1h4.8v3.2h-1.6v-1.6c0-0.4-0.4-0.8-0.8-0.8s-0.8,0.4-0.8,0.8v1.6h-1.6V246.1z M669.2,249.3v-1.6c0-0.4-0.4-0.8-0.8-0.8
		s-0.8,0.4-0.8,0.8v1.6H666v-3.2h4.8v3.2H669.2z M572.9,218.8h-14.5h-2.7h-2.6h-73.4v-1.6h3.2c0,0.4,0.4,0.8,0.8,0.8
		s0.8-0.4,0.8-0.8h3.2c0,0.4,0.4,0.8,0.8,0.8s0.8-0.4,0.8-0.8h3.2c0,0.4,0.4,0.8,0.8,0.8c0.4,0,0.8-0.4,0.8-0.8h3.2
		c0,0.4,0.4,0.8,0.8,0.8s0.8-0.4,0.8-0.8h3.2c0,0.4,0.4,0.8,0.8,0.8c0.4,0,0.8-0.4,0.8-0.8h3.2c0,0.4,0.4,0.8,0.8,0.8
		s0.8-0.4,0.8-0.8h3.2c0,0.4,0.4,0.8,0.8,0.8s0.8-0.4,0.8-0.8h3.2c0,0.4,0.4,0.8,0.8,0.8s0.8-0.4,0.8-0.8h3.2c0,0.4,0.4,0.8,0.8,0.8
		s0.8-0.4,0.8-0.8h3.2c0,0.4,0.4,0.8,0.8,0.8s0.8-0.4,0.8-0.8h3.2c0,0.4,0.4,0.8,0.8,0.8s0.8-0.4,0.8-0.8h3.2c0,0.4,0.4,0.8,0.8,0.8
		s0.8-0.4,0.8-0.8h3.2c0,0.4,0.4,0.8,0.8,0.8s0.8-0.4,0.8-0.8h3.2c0,0.4,0.4,0.8,0.8,0.8s0.8-0.4,0.8-0.8h1.8h1.4
		c0,0.4,0.4,0.8,0.8,0.8c0.3,0,0.6-0.2,0.7-0.5c0-0.1,0.1-0.2,0.1-0.3h1.4h1.8c0,0.4,0.4,0.8,0.8,0.8s0.8-0.4,0.8-0.8h3.2
		c0,0.4,0.4,0.8,0.8,0.8s0.8-0.4,0.8-0.8h3.2c0,0.4,0.4,0.8,0.8,0.8c0.4,0,0.8-0.4,0.8-0.8h3.2c0,0.4,0.4,0.8,0.8,0.8
		s0.8-0.4,0.8-0.8h1.6V218.8z M452.6,45.4h3.1h3.1l-1.3,16.1H454L452.6,45.4z M450.9,64.7h1.6h6.4h1.6v1.6h-9.6V64.7z M446.4,71.1
		l-0.5-1.6h3.4h9.6v1.6h-11.2H446.4z M166.7,246.1h16.1h9.6v3.2h-33.7v-3.2H166.7z M145.9,242.9h6.4v6.4h-1.6v-1.6
		c0-0.9-0.7-1.6-1.6-1.6c-0.9,0-1.6,0.7-1.6,1.6v1.6h-1.6v-4.8V242.9z M137.8,209.2v-3.2h1.6v3.2H137.8z M134.6,200.2l2.5,2.5h-5.1
		L134.6,200.2z M129.8,205.9h1.6v3.2h-1.6V205.9z M129.8,210.8h2.4c0.4,0,0.8-0.4,0.8-0.8v-0.8v-3.2h3.2v3.2v0.8
		c0,0.4,0.4,0.8,0.8,0.8h0.8v9.6h-1.6c0-0.4-0.2-0.8-0.5-1.1c-0.6-0.6-1.7-0.6-2.3,0c-0.3,0.3-0.5,0.7-0.5,1.1h-3.2V210.8z
		 M134.6,222h3.2v22.4L135,243c-0.2-0.1-0.5-0.1-0.7,0l-3,1.5h-1.4V222H134.6z M117,242.9h6.4v1.6v4.8h-1.6v-1.6
		c0-0.9-0.7-1.6-1.6-1.6c-0.9,0-1.6,0.7-1.6,1.6v1.6H117V242.9z M86.5,246.1h16.1h11.2v3.2H80v-3.2H86.5z M57.6,249.3h3.2v4.8h-3.2
		V249.3z M57.6,270.2h3.2v6.4h-3.2V270.2z"/>
	<linearGradient id="SVGID_21_" gradientUnits="userSpaceOnUse" x1="143.5084" y1="41.4212" x2="789.0997" y2="335.5127">
		<stop  offset="0" style="stop-color:#B8F7FF"/>
		<stop  offset="1" style="stop-color:#AD4CFF"/>
	</linearGradient>
	<path class="st20" d="M622.6,257.3v4.8H621c-0.4,0-0.8,0.4-0.8,0.8s0.4,0.8,0.8,0.8h3.2h3.2c0.4,0,0.8-0.4,0.8-0.8
		s-0.4-0.8-0.8-0.8h-1.6v-4.8c0-0.9-0.7-1.6-1.6-1.6S622.6,256.4,622.6,257.3z"/>
	<linearGradient id="SVGID_22_" gradientUnits="userSpaceOnUse" x1="149.2869" y1="28.736" x2="794.8783" y2="322.8276">
		<stop  offset="0" style="stop-color:#B8F7FF"/>
		<stop  offset="1" style="stop-color:#AD4CFF"/>
	</linearGradient>
	<path class="st21" d="M653.1,260.5h4.7h1.7c0,0,0,0,0,0c0.3,0,0.6-0.2,0.7-0.5c0-0.1,0-0.2,0-0.3c0-0.4-0.4-0.8-0.8-0.8h-1.3h-1.8
		h-1.8h-1.6c-0.4,0-0.8,0.4-0.8,0.8C652.3,260.2,652.7,260.5,653.1,260.5z"/>
	<linearGradient id="SVGID_23_" gradientUnits="userSpaceOnUse" x1="154.5438" y1="17.1961" x2="800.1351" y2="311.2877">
		<stop  offset="0" style="stop-color:#B8F7FF"/>
		<stop  offset="1" style="stop-color:#AD4CFF"/>
	</linearGradient>
	<path class="st22" d="M686.9,257.3v4.8h-1.6c-0.4,0-0.8,0.4-0.8,0.8s0.4,0.8,0.8,0.8h3.2h3.2c0.4,0,0.8-0.4,0.8-0.8
		s-0.4-0.8-0.8-0.8h-1.6v-4.8c0-0.9-0.7-1.6-1.6-1.6C687.6,255.7,686.9,256.4,686.9,257.3z"/>
	<linearGradient id="SVGID_24_" gradientUnits="userSpaceOnUse" x1="139.5601" y1="50.0885" x2="785.1514" y2="344.1801">
		<stop  offset="0" style="stop-color:#B8F7FF"/>
		<stop  offset="1" style="stop-color:#AD4CFF"/>
	</linearGradient>
	<path class="st23" d="M631.5,272.6c-0.4,0-0.8,0.4-0.8,0.8v1.6c0,0.4,0.4,0.8,0.8,0.8s0.8-0.4,0.8-0.8v-1.6
		C632.3,272.9,631.9,272.6,631.5,272.6z"/>
	<linearGradient id="SVGID_25_" gradientUnits="userSpaceOnUse" x1="148.1124" y1="31.3144" x2="793.7037" y2="325.406">
		<stop  offset="0" style="stop-color:#B8F7FF"/>
		<stop  offset="1" style="stop-color:#AD4CFF"/>
	</linearGradient>
	<path class="st24" d="M681.2,275.8c0.4,0,0.8-0.4,0.8-0.8v-1.6c0-0.3-0.1-0.5-0.4-0.7c0,0-0.1-0.1-0.2-0.1c-0.1,0-0.2-0.1-0.3-0.1
		c-0.4,0-0.8,0.4-0.8,0.8v1.6C680.4,275.4,680.8,275.8,681.2,275.8z"/>
	<linearGradient id="SVGID_26_" gradientUnits="userSpaceOnUse" x1="141.7672" y1="45.2435" x2="787.3585" y2="339.335">
		<stop  offset="0" style="stop-color:#B8F7FF"/>
		<stop  offset="1" style="stop-color:#AD4CFF"/>
	</linearGradient>
	<path class="st25" d="M644.3,275.8c0.4,0,0.8-0.4,0.8-0.8v-1.6c0-0.4-0.4-0.8-0.8-0.8s-0.8,0.4-0.8,0.8v1.6
		C643.5,275.4,643.9,275.8,644.3,275.8z"/>
	<linearGradient id="SVGID_27_" gradientUnits="userSpaceOnUse" x1="145.9055" y1="36.1591" x2="791.4968" y2="330.2506">
		<stop  offset="0" style="stop-color:#B8F7FF"/>
		<stop  offset="1" style="stop-color:#AD4CFF"/>
	</linearGradient>
	<path class="st26" d="M668.4,272.6c-0.4,0-0.8,0.4-0.8,0.8v1.6c0,0.4,0.4,0.8,0.8,0.8s0.8-0.4,0.8-0.8v-1.6
		C669.2,272.9,668.8,272.6,668.4,272.6z"/>
	<linearGradient id="SVGID_28_" gradientUnits="userSpaceOnUse" x1="140.6636" y1="47.666" x2="786.255" y2="341.7575">
		<stop  offset="0" style="stop-color:#B8F7FF"/>
		<stop  offset="1" style="stop-color:#AD4CFF"/>
	</linearGradient>
	<path class="st27" d="M637.1,275c0,0.4,0.4,0.8,0.8,0.8s0.8-0.4,0.8-0.8v-1.6c0-0.4-0.4-0.8-0.8-0.8s-0.8,0.4-0.8,0.8V275z"/>
	<linearGradient id="SVGID_29_" gradientUnits="userSpaceOnUse" x1="147.009" y1="33.7366" x2="792.6003" y2="327.8281">
		<stop  offset="0" style="stop-color:#B8F7FF"/>
		<stop  offset="1" style="stop-color:#AD4CFF"/>
	</linearGradient>
	<path class="st28" d="M674.8,272.6c-0.4,0-0.8,0.4-0.8,0.8v1.6c0,0.4,0.4,0.8,0.8,0.8s0.8-0.4,0.8-0.8v-1.6
		C675.6,272.9,675.3,272.6,674.8,272.6z"/>
	<linearGradient id="SVGID_30_" gradientUnits="userSpaceOnUse" x1="158.8721" y1="7.6947" x2="804.4634" y2="301.7862">
		<stop  offset="0" style="stop-color:#B8F7FF"/>
		<stop  offset="1" style="stop-color:#AD4CFF"/>
	</linearGradient>
	<path class="st29" d="M743.9,272.6c-0.4,0-0.8,0.4-0.8,0.8v1.6c0,0.4,0.4,0.8,0.8,0.8c0.4,0,0.8-0.4,0.8-0.8v-1.6
		C744.7,272.9,744.3,272.6,743.9,272.6z"/>
	<linearGradient id="SVGID_31_" gradientUnits="userSpaceOnUse" x1="157.7685" y1="10.1172" x2="803.3599" y2="304.2087">
		<stop  offset="0" style="stop-color:#B8F7FF"/>
		<stop  offset="1" style="stop-color:#AD4CFF"/>
	</linearGradient>
	<path class="st30" d="M737.4,272.6c-0.4,0-0.8,0.4-0.8,0.8v1.6c0,0.4,0.4,0.8,0.8,0.8c0.4,0,0.8-0.4,0.8-0.8v-1.6
		C738.2,272.9,737.9,272.6,737.4,272.6z"/>
	<linearGradient id="SVGID_32_" gradientUnits="userSpaceOnUse" x1="160.2515" y1="4.6665" x2="805.8429" y2="298.7581">
		<stop  offset="0" style="stop-color:#B8F7FF"/>
		<stop  offset="1" style="stop-color:#AD4CFF"/>
	</linearGradient>
	<path class="st31" d="M751.9,275.8c0.4,0,0.8-0.4,0.8-0.8v-1.6c0-0.4-0.4-0.8-0.8-0.8c-0.4,0-0.8,0.4-0.8,0.8v1.6
		C751.1,275.4,751.4,275.8,751.9,275.8z"/>
	<linearGradient id="SVGID_33_" gradientUnits="userSpaceOnUse" x1="161.3551" y1="2.244" x2="806.9464" y2="296.3356">
		<stop  offset="0" style="stop-color:#B8F7FF"/>
		<stop  offset="1" style="stop-color:#AD4CFF"/>
	</linearGradient>
	<path class="st32" d="M758.3,275.8c0.4,0,0.8-0.4,0.8-0.8v-1.6c0-0.4-0.4-0.8-0.8-0.8s-0.8,0.4-0.8,0.8v1.6
		C757.5,275.4,757.9,275.8,758.3,275.8z"/>
	<linearGradient id="SVGID_34_" gradientUnits="userSpaceOnUse" x1="130.3954" y1="70.2069" x2="775.9868" y2="364.2985">
		<stop  offset="0" style="stop-color:#B8F7FF"/>
		<stop  offset="1" style="stop-color:#AD4CFF"/>
	</linearGradient>
	<path class="st33" d="M562.4,267.8c0,0.4,0.4,0.8,0.8,0.8h1.6c0.4,0,0.8-0.4,0.8-0.8c0-0.4-0.4-0.8-0.8-0.8h-1.6
		C562.8,267,562.4,267.3,562.4,267.8z"/>
	<linearGradient id="SVGID_35_" gradientUnits="userSpaceOnUse" x1="128.4642" y1="74.4463" x2="774.0555" y2="368.5378">
		<stop  offset="0" style="stop-color:#B8F7FF"/>
		<stop  offset="1" style="stop-color:#AD4CFF"/>
	</linearGradient>
	<path class="st34" d="M553.6,267H552c-0.4,0-0.8,0.4-0.8,0.8c0,0.4,0.4,0.8,0.8,0.8h1.6c0.4,0,0.8-0.4,0.8-0.8
		C554.4,267.3,554.1,267,553.6,267z"/>
	<linearGradient id="SVGID_36_" gradientUnits="userSpaceOnUse" x1="116.921" y1="99.7859" x2="762.5124" y2="393.8774">
		<stop  offset="0" style="stop-color:#B8F7FF"/>
		<stop  offset="1" style="stop-color:#AD4CFF"/>
	</linearGradient>
	<path class="st35" d="M450.9,255.7h1.6h8.1c0.4,0,0.7-0.1,1-0.3c0.4-0.3,0.6-0.8,0.6-1.3c0-0.9-0.7-1.6-1.6-1.6h-9.6
		c-0.6,0-1.2,0.4-1.4,0.9c-0.1,0.2-0.2,0.5-0.2,0.7c0,0.4,0.1,0.7,0.3,1C449.9,255.5,450.4,255.7,450.9,255.7z"/>
	<linearGradient id="SVGID_37_" gradientUnits="userSpaceOnUse" x1="124.794" y1="82.503" x2="770.3854" y2="376.5945">
		<stop  offset="0" style="stop-color:#B8F7FF"/>
		<stop  offset="1" style="stop-color:#AD4CFF"/>
	</linearGradient>
	<path class="st36" d="M450.9,234.8h9.6c0.9,0,1.6-0.7,1.6-1.6c0-0.9-0.7-1.6-1.6-1.6h-9.6c-0.9,0-1.6,0.7-1.6,1.6
		C449.3,234.1,450,234.8,450.9,234.8z"/>
	<linearGradient id="SVGID_38_" gradientUnits="userSpaceOnUse" x1="122.9739" y1="86.4987" x2="768.5652" y2="380.5902">
		<stop  offset="0" style="stop-color:#B8F7FF"/>
		<stop  offset="1" style="stop-color:#AD4CFF"/>
	</linearGradient>
	<path class="st37" d="M446.9,235.6c0.4,0,0.8-0.4,0.8-0.8v-1.6c0-0.4-0.4-0.8-0.8-0.8s-0.8,0.4-0.8,0.8v1.6
		C446.1,235.3,446.4,235.6,446.9,235.6z"/>
	<linearGradient id="SVGID_39_" gradientUnits="userSpaceOnUse" x1="126.9137" y1="77.8498" x2="772.5051" y2="371.9414">
		<stop  offset="0" style="stop-color:#B8F7FF"/>
		<stop  offset="1" style="stop-color:#AD4CFF"/>
	</linearGradient>
	<path class="st38" d="M452.5,228.4h6.4c0.4,0,0.8-0.4,0.8-0.8c0-0.4-0.4-0.8-0.8-0.8h-6.4c-0.4,0-0.8,0.4-0.8,0.8
		C451.7,228.1,452,228.4,452.5,228.4z"/>
	<linearGradient id="SVGID_40_" gradientUnits="userSpaceOnUse" x1="122.6743" y1="87.1562" x2="768.2657" y2="381.2477">
		<stop  offset="0" style="stop-color:#B8F7FF"/>
		<stop  offset="1" style="stop-color:#AD4CFF"/>
	</linearGradient>
	<path class="st39" d="M458.9,238.1h-6.4c-0.4,0-0.8,0.4-0.8,0.8s0.4,0.8,0.8,0.8h6.4c0.4,0,0.8-0.4,0.8-0.8
		S459.3,238.1,458.9,238.1z"/>
	<linearGradient id="SVGID_41_" gradientUnits="userSpaceOnUse" x1="120.8575" y1="91.1446" x2="766.4489" y2="385.2361">
		<stop  offset="0" style="stop-color:#B8F7FF"/>
		<stop  offset="1" style="stop-color:#AD4CFF"/>
	</linearGradient>
	<path class="st40" d="M458.9,242.9h-6.4c-0.4,0-0.8,0.4-0.8,0.8c0,0.4,0.4,0.8,0.8,0.8h6.4c0.4,0,0.8-0.4,0.8-0.8
		C459.7,243.2,459.3,242.9,458.9,242.9z"/>
	<linearGradient id="SVGID_42_" gradientUnits="userSpaceOnUse" x1="119.0406" y1="95.133" x2="764.632" y2="389.2245">
		<stop  offset="0" style="stop-color:#B8F7FF"/>
		<stop  offset="1" style="stop-color:#AD4CFF"/>
	</linearGradient>
	<path class="st41" d="M458.9,247.7h-6.4c-0.4,0-0.8,0.4-0.8,0.8s0.4,0.8,0.8,0.8h6.4c0.4,0,0.8-0.4,0.8-0.8
		S459.3,247.7,458.9,247.7z"/>
	<linearGradient id="SVGID_43_" gradientUnits="userSpaceOnUse" x1="126.0086" y1="79.8368" x2="771.6" y2="373.9283">
		<stop  offset="0" style="stop-color:#B8F7FF"/>
		<stop  offset="1" style="stop-color:#AD4CFF"/>
	</linearGradient>
	<path class="st42" d="M464.5,235.6c0.4,0,0.8-0.4,0.8-0.8v-1.6c0-0.4-0.4-0.8-0.8-0.8c-0.4,0-0.8,0.4-0.8,0.8v1.6
		C463.7,235.3,464.1,235.6,464.5,235.6z"/>
	<linearGradient id="SVGID_44_" gradientUnits="userSpaceOnUse" x1="115.7064" y1="102.4523" x2="761.2977" y2="396.5439">
		<stop  offset="0" style="stop-color:#B8F7FF"/>
		<stop  offset="1" style="stop-color:#AD4CFF"/>
	</linearGradient>
	<path class="st43" d="M446.9,254.9c0.3,0,0.5-0.1,0.7-0.3c0.1-0.1,0.2-0.3,0.2-0.5v-1.2v-0.4c0-0.4-0.4-0.8-0.8-0.8
		c-0.4,0-0.8,0.3-0.8,0.8c0,0,0,0,0,0v1.6c0,0,0,0,0,0.1C446.1,254.6,446.4,254.9,446.9,254.9z"/>
	<linearGradient id="SVGID_45_" gradientUnits="userSpaceOnUse" x1="118.7411" y1="95.7905" x2="764.3325" y2="389.882">
		<stop  offset="0" style="stop-color:#B8F7FF"/>
		<stop  offset="1" style="stop-color:#AD4CFF"/>
	</linearGradient>
	<path class="st44" d="M464.5,254.9c0.4,0,0.8-0.4,0.8-0.8v-1.6c0-0.4-0.4-0.8-0.8-0.8c-0.4,0-0.8,0.4-0.8,0.8v1.6
		C463.7,254.6,464.1,254.9,464.5,254.9z"/>
	<linearGradient id="SVGID_46_" gradientUnits="userSpaceOnUse" x1="79.656" y1="181.5903" x2="725.2474" y2="475.6818">
		<stop  offset="0" style="stop-color:#B8F7FF"/>
		<stop  offset="1" style="stop-color:#AD4CFF"/>
	</linearGradient>
	<path class="st45" d="M255,263.7h6.4c0.4,0,0.8-0.4,0.8-0.8s-0.4-0.8-0.8-0.8H255c-0.4,0-0.8,0.4-0.8,0.8S254.6,263.7,255,263.7z"
		/>
	<linearGradient id="SVGID_47_" gradientUnits="userSpaceOnUse" x1="81.3954" y1="177.7719" x2="726.9868" y2="471.8635">
		<stop  offset="0" style="stop-color:#B8F7FF"/>
		<stop  offset="1" style="stop-color:#AD4CFF"/>
	</linearGradient>
	<path class="st46" d="M271.1,265.3h1.6c0.4,0,0.8-0.4,0.8-0.8s-0.4-0.8-0.8-0.8h-1.6c-0.4,0-0.8,0.4-0.8,0.8
		S270.6,265.3,271.1,265.3z"/>
	<linearGradient id="SVGID_48_" gradientUnits="userSpaceOnUse" x1="78.9729" y1="183.0898" x2="724.5643" y2="477.1814">
		<stop  offset="0" style="stop-color:#B8F7FF"/>
		<stop  offset="1" style="stop-color:#AD4CFF"/>
	</linearGradient>
	<path class="st47" d="M271.1,271.8h1.6c0.4,0,0.8-0.4,0.8-0.8s-0.4-0.8-0.8-0.8h-1.6c-0.4,0-0.8,0.4-0.8,0.8
		S270.6,271.8,271.1,271.8z"/>
	<linearGradient id="SVGID_49_" gradientUnits="userSpaceOnUse" x1="79.3565" y1="182.2478" x2="724.9478" y2="476.3393">
		<stop  offset="0" style="stop-color:#B8F7FF"/>
		<stop  offset="1" style="stop-color:#AD4CFF"/>
	</linearGradient>
	<path class="st48" d="M266.3,268.6h1.6c0.4,0,0.8-0.4,0.8-0.8c0-0.4-0.4-0.8-0.8-0.8h-1.6c-0.4,0-0.8,0.4-0.8,0.8
		C265.5,268.2,265.8,268.6,266.3,268.6z"/>
	<linearGradient id="SVGID_50_" gradientUnits="userSpaceOnUse" x1="76.934" y1="187.5656" x2="722.5253" y2="481.6572">
		<stop  offset="0" style="stop-color:#B8F7FF"/>
		<stop  offset="1" style="stop-color:#AD4CFF"/>
	</linearGradient>
	<path class="st49" d="M266.3,275h1.6c0.4,0,0.8-0.4,0.8-0.8c0-0.4-0.4-0.8-0.8-0.8h-1.6c-0.4,0-0.8,0.4-0.8,0.8
		C265.5,274.6,265.8,275,266.3,275z"/>
	<linearGradient id="SVGID_51_" gradientUnits="userSpaceOnUse" x1="80.4288" y1="179.8939" x2="726.0201" y2="473.9854">
		<stop  offset="0" style="stop-color:#B8F7FF"/>
		<stop  offset="1" style="stop-color:#AD4CFF"/>
	</linearGradient>
	<path class="st50" d="M266.3,265.3c0.2,0,0.4-0.1,0.6-0.2c0.1-0.1,0.2-0.4,0.2-0.6c0-0.2-0.1-0.4-0.2-0.6c-0.3-0.3-0.8-0.3-1.1,0
		c-0.1,0.1-0.2,0.4-0.2,0.6c0,0.2,0.1,0.4,0.2,0.6C265.8,265.3,266,265.3,266.3,265.3z"/>
	<linearGradient id="SVGID_52_" gradientUnits="userSpaceOnUse" x1="80.3214" y1="180.1295" x2="725.9128" y2="474.2211">
		<stop  offset="0" style="stop-color:#B8F7FF"/>
		<stop  offset="1" style="stop-color:#AD4CFF"/>
	</linearGradient>
	<path class="st51" d="M272.1,267.2c-0.2,0.1-0.2,0.4-0.2,0.6c0,0.2,0.1,0.4,0.2,0.6c0.1,0.2,0.4,0.2,0.6,0.2c0.2,0,0.4-0.1,0.6-0.2
		c0.1-0.1,0.2-0.4,0.2-0.6c0-0.2-0.1-0.4-0.2-0.6C272.9,266.9,272.4,266.9,272.1,267.2z"/>
	<linearGradient id="SVGID_53_" gradientUnits="userSpaceOnUse" x1="77.8988" y1="185.4476" x2="723.4902" y2="479.5391">
		<stop  offset="0" style="stop-color:#B8F7FF"/>
		<stop  offset="1" style="stop-color:#AD4CFF"/>
	</linearGradient>
	<path class="st52" d="M272.1,273.6c-0.1,0.2-0.2,0.4-0.2,0.6s0.1,0.4,0.2,0.6c0.1,0.1,0.4,0.2,0.6,0.2c0.2,0,0.4-0.1,0.6-0.2
		c0.2-0.1,0.2-0.4,0.2-0.6s-0.1-0.4-0.2-0.6C272.9,273.3,272.4,273.3,272.1,273.6z"/>
	<linearGradient id="SVGID_54_" gradientUnits="userSpaceOnUse" x1="78.0067" y1="185.2108" x2="723.5981" y2="479.3023">
		<stop  offset="0" style="stop-color:#B8F7FF"/>
		<stop  offset="1" style="stop-color:#AD4CFF"/>
	</linearGradient>
	<path class="st53" d="M266.3,271.8c0.2,0,0.4-0.1,0.6-0.2c0.1-0.1,0.2-0.4,0.2-0.6c0-0.2-0.1-0.4-0.2-0.6c-0.3-0.3-0.8-0.3-1.1,0
		c-0.1,0.1-0.2,0.4-0.2,0.6c0,0.2,0.1,0.4,0.2,0.6C265.8,271.7,266,271.8,266.3,271.8z"/>
	<linearGradient id="SVGID_55_" gradientUnits="userSpaceOnUse" x1="83.5184" y1="173.1115" x2="729.1097" y2="467.203">
		<stop  offset="0" style="stop-color:#B8F7FF"/>
		<stop  offset="1" style="stop-color:#AD4CFF"/>
	</linearGradient>
	<path class="st54" d="M277.5,263.7h6.4c0.4,0,0.8-0.4,0.8-0.8s-0.4-0.8-0.8-0.8h-6.4c-0.4,0-0.8,0.4-0.8,0.8
		S277.1,263.7,277.5,263.7z"/>
	<linearGradient id="SVGID_56_" gradientUnits="userSpaceOnUse" x1="82.3071" y1="175.7705" x2="727.8985" y2="469.862">
		<stop  offset="0" style="stop-color:#B8F7FF"/>
		<stop  offset="1" style="stop-color:#AD4CFF"/>
	</linearGradient>
	<path class="st55" d="M277.5,267h6.4c0.4,0,0.8-0.4,0.8-0.8c0-0.4-0.4-0.8-0.8-0.8h-6.4c-0.4,0-0.8,0.4-0.8,0.8
		C276.7,266.6,277.1,267,277.5,267z"/>
	<linearGradient id="SVGID_57_" gradientUnits="userSpaceOnUse" x1="81.0959" y1="178.4294" x2="726.6873" y2="472.5209">
		<stop  offset="0" style="stop-color:#B8F7FF"/>
		<stop  offset="1" style="stop-color:#AD4CFF"/>
	</linearGradient>
	<path class="st56" d="M277.5,270.2h6.4c0.4,0,0.8-0.4,0.8-0.8s-0.4-0.8-0.8-0.8h-6.4c-0.4,0-0.8,0.4-0.8,0.8
		S277.1,270.2,277.5,270.2z"/>
	<linearGradient id="SVGID_58_" gradientUnits="userSpaceOnUse" x1="79.8846" y1="181.0883" x2="725.476" y2="475.1799">
		<stop  offset="0" style="stop-color:#B8F7FF"/>
		<stop  offset="1" style="stop-color:#AD4CFF"/>
	</linearGradient>
	<path class="st57" d="M277.5,273.4h6.4c0.4,0,0.8-0.4,0.8-0.8s-0.4-0.8-0.8-0.8h-6.4c-0.4,0-0.8,0.4-0.8,0.8
		S277.1,273.4,277.5,273.4z"/>
	<linearGradient id="SVGID_59_" gradientUnits="userSpaceOnUse" x1="78.4447" y1="184.2492" x2="724.0361" y2="478.3408">
		<stop  offset="0" style="stop-color:#B8F7FF"/>
		<stop  offset="1" style="stop-color:#AD4CFF"/>
	</linearGradient>
	<path class="st58" d="M255,267h6.4c0.4,0,0.8-0.4,0.8-0.8c0-0.4-0.4-0.8-0.8-0.8H255c-0.4,0-0.8,0.4-0.8,0.8
		C254.2,266.6,254.6,267,255,267z"/>
	<linearGradient id="SVGID_60_" gradientUnits="userSpaceOnUse" x1="77.2335" y1="186.9082" x2="722.8248" y2="480.9997">
		<stop  offset="0" style="stop-color:#B8F7FF"/>
		<stop  offset="1" style="stop-color:#AD4CFF"/>
	</linearGradient>
	<path class="st59" d="M255,270.2h6.4c0.4,0,0.8-0.4,0.8-0.8s-0.4-0.8-0.8-0.8H255c-0.4,0-0.8,0.4-0.8,0.8S254.6,270.2,255,270.2z"
		/>
	<linearGradient id="SVGID_61_" gradientUnits="userSpaceOnUse" x1="76.0222" y1="189.5671" x2="721.6136" y2="483.6587">
		<stop  offset="0" style="stop-color:#B8F7FF"/>
		<stop  offset="1" style="stop-color:#AD4CFF"/>
	</linearGradient>
	<path class="st60" d="M255,273.4h6.4c0.4,0,0.8-0.4,0.8-0.8s-0.4-0.8-0.8-0.8H255c-0.4,0-0.8,0.4-0.8,0.8S254.6,273.4,255,273.4z"
		/>
	<linearGradient id="SVGID_62_" gradientUnits="userSpaceOnUse" x1="117.3261" y1="98.8967" x2="762.9174" y2="392.9882">
		<stop  offset="0" style="stop-color:#B8F7FF"/>
		<stop  offset="1" style="stop-color:#AD4CFF"/>
	</linearGradient>
	<path class="st61" d="M297.2,187.6c0.1,0.4,0.4,0.7,0.8,0.7h7.2c0.4,0,0.7-0.3,0.8-0.7l0.9-7.3c0.1-0.9-0.2-1.7-0.7-2.3
		c-0.6-0.6-1.3-1-2.2-1h-4.8c-0.9,0-1.6,0.3-2.2,1c-0.6,0.6-0.8,1.4-0.7,2.3L297.2,187.6z"/>
	<linearGradient id="SVGID_63_" gradientUnits="userSpaceOnUse" x1="116.014" y1="101.7769" x2="761.6053" y2="395.8685">
		<stop  offset="0" style="stop-color:#B8F7FF"/>
		<stop  offset="1" style="stop-color:#AD4CFF"/>
	</linearGradient>
	<path class="st62" d="M269.5,176.3c0.1,0.4,0.4,0.7,0.8,0.7h4.8c0.4,0,0.7-0.3,0.8-0.7l0.6-4.8c0.1-0.7-0.1-1.3-0.5-1.8
		c-0.4-0.5-1-0.7-1.7-0.7h-3.2c-0.7,0-1.2,0.3-1.7,0.7c-0.4,0.5-0.6,1.1-0.5,1.8L269.5,176.3z"/>
	<linearGradient id="SVGID_64_" gradientUnits="userSpaceOnUse" x1="102.7712" y1="130.8476" x2="748.3625" y2="424.9391">
		<stop  offset="0" style="stop-color:#B8F7FF"/>
		<stop  offset="1" style="stop-color:#AD4CFF"/>
	</linearGradient>
	<path class="st63" d="M244.2,202c0.1,0.4,0.4,0.7,0.8,0.7h7.2c0.4,0,0.7-0.3,0.8-0.7l0.9-7.3c0.1-0.9-0.2-1.7-0.7-2.3
		c-0.6-0.6-1.3-1-2.2-1h-4.8c-0.9,0-1.6,0.3-2.2,1c-0.6,0.6-0.8,1.4-0.7,2.3L244.2,202z"/>
	<linearGradient id="SVGID_65_" gradientUnits="userSpaceOnUse" x1="128.5838" y1="74.1836" x2="774.1752" y2="368.2752">
		<stop  offset="0" style="stop-color:#B8F7FF"/>
		<stop  offset="1" style="stop-color:#AD4CFF"/>
	</linearGradient>
	<path class="st64" d="M314.4,163.5c0.1,0.4,0.4,0.7,0.8,0.7h4.8c0.4,0,0.7-0.3,0.8-0.7l0.6-4.8c0.1-0.7-0.1-1.3-0.5-1.8
		c-0.4-0.5-1-0.7-1.7-0.7H316c-0.7,0-1.2,0.3-1.7,0.7c-0.4,0.5-0.6,1.1-0.5,1.8L314.4,163.5z"/>
	<linearGradient id="SVGID_66_" gradientUnits="userSpaceOnUse" x1="119.3782" y1="94.3918" x2="764.9696" y2="388.4834">
		<stop  offset="0" style="stop-color:#B8F7FF"/>
		<stop  offset="1" style="stop-color:#AD4CFF"/>
	</linearGradient>
	<path class="st65" d="M337.3,200.4c0.1,0.4,0.4,0.7,0.8,0.7h7.2c0.4,0,0.7-0.3,0.8-0.7l0.9-7.3c0.1-0.9-0.2-1.7-0.7-2.3
		c-0.6-0.6-1.3-1-2.2-1h-4.8c-0.9,0-1.6,0.3-2.2,1c-0.6,0.6-0.8,1.4-0.7,2.3L337.3,200.4z"/>
</g>
</svg>
