<?xml version="1.0" encoding="utf-8"?>
<!-- Generator: Adobe Illustrator 22.1.0, SVG Export Plug-In . SVG Version: 6.00 Build 0)  -->
<svg version="1.1" id="圖層_1" xmlns="http://www.w3.org/2000/svg" xmlns:xlink="http://www.w3.org/1999/xlink" x="0px" y="0px"
	 viewBox="0 0 820 312" style="enable-background:new 0 0 820 312;" xml:space="preserve">
<style type="text/css">
	.st0{fill:url(#SVGID_1_);}
	.st1{fill:url(#SVGID_2_);}
	.st2{fill:url(#SVGID_3_);}
	.st3{fill:url(#SVGID_4_);}
	.st4{fill:url(#SVGID_5_);}
	.st5{fill:url(#SVGID_6_);}
	.st6{fill:url(#SVGID_7_);}
	.st7{fill:url(#SVGID_8_);}
	.st8{fill:url(#SVGID_9_);}
	.st9{fill:url(#SVGID_10_);}
	.st10{fill:url(#SVGID_11_);}
	.st11{fill:url(#SVGID_12_);}
	.st12{fill:url(#SVGID_13_);}
	.st13{fill:url(#SVGID_14_);}
	.st14{fill:url(#SVGID_15_);}
	.st15{fill:url(#SVGID_16_);}
	.st16{fill:url(#SVGID_17_);}
	.st17{fill:url(#SVGID_18_);}
	.st18{fill:url(#SVGID_19_);}
	.st19{fill:url(#SVGID_20_);}
	.st20{fill:url(#SVGID_21_);}
	.st21{fill:url(#SVGID_22_);}
	.st22{fill:url(#SVGID_23_);}
	.st23{fill:url(#SVGID_24_);}
	.st24{fill:url(#SVGID_25_);}
	.st25{fill:url(#SVGID_26_);}
	.st26{fill:url(#SVGID_27_);}
	.st27{fill:url(#SVGID_28_);}
	.st28{fill:url(#SVGID_29_);}
	.st29{fill:url(#SVGID_30_);}
	.st30{fill:url(#SVGID_31_);}
	.st31{fill:url(#SVGID_32_);}
	.st32{fill:url(#SVGID_33_);}
	.st33{fill:url(#SVGID_34_);}
	.st34{fill:url(#SVGID_35_);}
	.st35{fill:url(#SVGID_36_);}
	.st36{fill:url(#SVGID_37_);}
	.st37{fill:url(#SVGID_38_);}
	.st38{fill:url(#SVGID_39_);}
	.st39{fill:url(#SVGID_40_);}
	.st40{fill:url(#SVGID_41_);}
	.st41{fill:url(#SVGID_42_);}
	.st42{fill:url(#SVGID_43_);}
	.st43{fill:url(#SVGID_44_);}
	.st44{fill:url(#SVGID_45_);}
	.st45{fill:url(#SVGID_46_);}
	.st46{fill:url(#SVGID_47_);}
	.st47{fill:url(#SVGID_48_);}
	.st48{fill:url(#SVGID_49_);}
	.st49{fill:url(#SVGID_50_);}
	.st50{fill:url(#SVGID_51_);}
	.st51{fill:url(#SVGID_52_);}
	.st52{fill:url(#SVGID_53_);}
	.st53{fill:url(#SVGID_54_);}
	.st54{fill:url(#SVGID_55_);}
	.st55{fill:url(#SVGID_56_);}
	.st56{fill:url(#SVGID_57_);}
	.st57{fill:url(#SVGID_58_);}
	.st58{fill:url(#SVGID_59_);}
	.st59{fill:url(#SVGID_60_);}
	.st60{fill:url(#SVGID_61_);}
	.st61{fill:url(#SVGID_62_);}
	.st62{fill:url(#SVGID_63_);}
	.st63{fill:url(#SVGID_64_);}
	.st64{fill:url(#SVGID_65_);}
	.st65{fill:url(#SVGID_66_);}
</style>
<g>
	
		<linearGradient id="SVGID_1_" gradientUnits="userSpaceOnUse" x1="80.4386" y1="123.9753" x2="614.3817" y2="-187.5549" gradientTransform="matrix(1 0 0 -1 0 312)">
		<stop  offset="2.296286e-02" style="stop-color:#FFE4F7"/>
		<stop  offset="1" style="stop-color:#FFB917"/>
	</linearGradient>
	<path class="st0" d="M132.5,221.6c0.9,0,1.6-0.7,1.6-1.6v-3.2c0-0.9-0.7-1.6-1.6-1.6c-0.9,0-1.6,0.7-1.6,1.6v3.2
		C130.9,220.9,131.6,221.6,132.5,221.6z"/>
	
		<linearGradient id="SVGID_2_" gradientUnits="userSpaceOnUse" x1="75.1328" y1="114.8817" x2="609.0759" y2="-196.6486" gradientTransform="matrix(1 0 0 -1 0 312)">
		<stop  offset="2.296286e-02" style="stop-color:#FFE4F7"/>
		<stop  offset="1" style="stop-color:#FFB917"/>
	</linearGradient>
	<path class="st1" d="M132.5,233c0.9,0,1.6-0.7,1.6-1.6v-1.6c0-0.9-0.7-1.6-1.6-1.6c-0.9,0-1.6,0.7-1.6,1.6v1.6
		C130.9,232.2,131.6,233,132.5,233z"/>
	
		<linearGradient id="SVGID_3_" gradientUnits="userSpaceOnUse" x1="70.2096" y1="106.4435" x2="604.1526" y2="-205.0867" gradientTransform="matrix(1 0 0 -1 0 312)">
		<stop  offset="2.296286e-02" style="stop-color:#FFE4F7"/>
		<stop  offset="1" style="stop-color:#FFB917"/>
	</linearGradient>
	<path class="st2" d="M132.5,244.3c0.9,0,1.6-0.7,1.6-1.6v-1.6c0-0.9-0.7-1.6-1.6-1.6c-0.9,0-1.6,0.7-1.6,1.6v1.6
		C130.9,243.6,131.6,244.3,132.5,244.3z"/>
	
		<linearGradient id="SVGID_4_" gradientUnits="userSpaceOnUse" x1="58.0574" y1="85.6153" x2="592.0005" y2="-225.915" gradientTransform="matrix(1 0 0 -1 0 312)">
		<stop  offset="2.296286e-02" style="stop-color:#FFE4F7"/>
		<stop  offset="1" style="stop-color:#FFB917"/>
	</linearGradient>
	<path class="st3" d="M117.9,263.7c0.9,0,1.6-0.7,1.6-1.6v-1.6c0-0.9-0.7-1.6-1.6-1.6s-1.6,0.7-1.6,1.6v1.6
		C116.3,263,117,263.7,117.9,263.7z"/>
	
		<linearGradient id="SVGID_5_" gradientUnits="userSpaceOnUse" x1="62.8343" y1="93.8027" x2="596.7774" y2="-217.7276" gradientTransform="matrix(1 0 0 -1 0 312)">
		<stop  offset="2.296286e-02" style="stop-color:#FFE4F7"/>
		<stop  offset="1" style="stop-color:#FFB917"/>
	</linearGradient>
	<path class="st4" d="M138.1,264.5c0.4,0,0.8-0.4,0.8-0.8v-3.2c0-0.4-0.4-0.8-0.8-0.8c-0.4,0-0.8,0.4-0.8,0.8v3.2
		C137.3,264.2,137.7,264.5,138.1,264.5z"/>
	
		<linearGradient id="SVGID_6_" gradientUnits="userSpaceOnUse" x1="61.417" y1="91.3735" x2="595.3601" y2="-220.1567" gradientTransform="matrix(1 0 0 -1 0 312)">
		<stop  offset="2.296286e-02" style="stop-color:#FFE4F7"/>
		<stop  offset="1" style="stop-color:#FFB917"/>
	</linearGradient>
	<path class="st5" d="M132.5,265.3c0.9,0,1.6-0.7,1.6-1.6v-3.2c0-0.9-0.7-1.6-1.6-1.6c-0.9,0-1.6,0.7-1.6,1.6v3.2
		C130.9,264.6,131.6,265.3,132.5,265.3z"/>
	
		<linearGradient id="SVGID_7_" gradientUnits="userSpaceOnUse" x1="52.913" y1="76.7983" x2="586.8561" y2="-234.7321" gradientTransform="matrix(1 0 0 -1 0 312)">
		<stop  offset="2.296286e-02" style="stop-color:#FFE4F7"/>
		<stop  offset="1" style="stop-color:#FFB917"/>
	</linearGradient>
	<path class="st6" d="M126.8,280.7c0.4,0,0.8-0.4,0.8-0.8v-3.2c0-0.4-0.4-0.8-0.8-0.8s-0.8,0.4-0.8,0.8v3.2
		C126,280.4,126.4,280.7,126.8,280.7z"/>
	
		<linearGradient id="SVGID_8_" gradientUnits="userSpaceOnUse" x1="55.8046" y1="81.7542" x2="589.7477" y2="-229.7761" gradientTransform="matrix(1 0 0 -1 0 312)">
		<stop  offset="2.296286e-02" style="stop-color:#FFE4F7"/>
		<stop  offset="1" style="stop-color:#FFB917"/>
	</linearGradient>
	<path class="st7" d="M138.1,280.7c0.4,0,0.8-0.4,0.8-0.8v-1.2v-0.9V277v-0.4c0-0.4-0.4-0.8-0.8-0.8c-0.4,0-0.8,0.4-0.8,0.8v0.9v0.9
		v0.9v0.6C137.3,280.4,137.7,280.7,138.1,280.7z"/>
	
		<linearGradient id="SVGID_9_" gradientUnits="userSpaceOnUse" x1="54.5316" y1="79.5724" x2="588.4747" y2="-231.9577" gradientTransform="matrix(1 0 0 -1 0 312)">
		<stop  offset="2.296286e-02" style="stop-color:#FFE4F7"/>
		<stop  offset="1" style="stop-color:#FFB917"/>
	</linearGradient>
	<path class="st8" d="M117.9,271.8c0.9,0,1.6-0.7,1.6-1.6v-1.6c0-0.9-0.7-1.6-1.6-1.6s-1.6,0.7-1.6,1.6v1.6
		C116.3,271.1,117,271.8,117.9,271.8z"/>
	
		<linearGradient id="SVGID_10_" gradientUnits="userSpaceOnUse" x1="50.6502" y1="72.9199" x2="584.5933" y2="-238.6103" gradientTransform="matrix(1 0 0 -1 0 312)">
		<stop  offset="2.296286e-02" style="stop-color:#FFE4F7"/>
		<stop  offset="1" style="stop-color:#FFB917"/>
	</linearGradient>
	<path class="st9" d="M117.9,279.9c0.4,0,0.8-0.2,1.1-0.5c0.3-0.3,0.5-0.7,0.5-1.1s-0.2-0.8-0.5-1.1c-0.6-0.6-1.7-0.6-2.3,0
		c-0.3,0.3-0.5,0.7-0.5,1.1s0.2,0.8,0.5,1.1C117.1,279.7,117.5,279.9,117.9,279.9z"/>
	
		<linearGradient id="SVGID_11_" gradientUnits="userSpaceOnUse" x1="58.0405" y1="85.5865" x2="591.9836" y2="-225.9439" gradientTransform="matrix(1 0 0 -1 0 312)">
		<stop  offset="2.296286e-02" style="stop-color:#FFE4F7"/>
		<stop  offset="1" style="stop-color:#FFB917"/>
	</linearGradient>
	<path class="st10" d="M147,279.9c0.4,0,0.8-0.2,1.1-0.5s0.5-0.7,0.5-1.1s-0.2-0.8-0.5-1.1c-0.6-0.6-1.7-0.6-2.3,0
		c-0.3,0.3-0.5,0.7-0.5,1.1s0.2,0.8,0.5,1.1C146.2,279.7,146.6,279.9,147,279.9z"/>
	
		<linearGradient id="SVGID_12_" gradientUnits="userSpaceOnUse" x1="61.9267" y1="92.2492" x2="595.8698" y2="-219.2811" gradientTransform="matrix(1 0 0 -1 0 312)">
		<stop  offset="2.296286e-02" style="stop-color:#FFE4F7"/>
		<stop  offset="1" style="stop-color:#FFB917"/>
	</linearGradient>
	<path class="st11" d="M147,271.8c0.9,0,1.6-0.7,1.6-1.6v-1.6c0-0.9-0.7-1.6-1.6-1.6s-1.6,0.7-1.6,1.6v1.6
		C145.4,271.1,146.2,271.8,147,271.8z"/>
	
		<linearGradient id="SVGID_13_" gradientUnits="userSpaceOnUse" x1="65.4533" y1="98.2915" x2="599.3964" y2="-213.2386" gradientTransform="matrix(1 0 0 -1 0 312)">
		<stop  offset="2.296286e-02" style="stop-color:#FFE4F7"/>
		<stop  offset="1" style="stop-color:#FFB917"/>
	</linearGradient>
	<path class="st12" d="M147,263.7c0.9,0,1.6-0.7,1.6-1.6v-1.6c0-0.9-0.7-1.6-1.6-1.6s-1.6,0.7-1.6,1.6v1.6
		C145.4,263,146.2,263.7,147,263.7z"/>
	
		<linearGradient id="SVGID_14_" gradientUnits="userSpaceOnUse" x1="77.1768" y1="118.3849" x2="611.1199" y2="-193.1454" gradientTransform="matrix(1 0 0 -1 0 312)">
		<stop  offset="2.296286e-02" style="stop-color:#FFE4F7"/>
		<stop  offset="1" style="stop-color:#FFB917"/>
	</linearGradient>
	<path class="st13" d="M198.8,267c0.9,0,1.6-0.7,1.6-1.6v-1.6c0-0.9-0.7-1.6-1.6-1.6c-0.9,0-1.6,0.7-1.6,1.6v1.6
		C197.2,266.2,198,267,198.8,267z"/>
	
		<linearGradient id="SVGID_15_" gradientUnits="userSpaceOnUse" x1="82.9121" y1="128.2148" x2="616.8552" y2="-183.3155" gradientTransform="matrix(1 0 0 -1 0 312)">
		<stop  offset="2.296286e-02" style="stop-color:#FFE4F7"/>
		<stop  offset="1" style="stop-color:#FFB917"/>
	</linearGradient>
	<path class="st14" d="M196.4,251.6c0.4,0,0.8-0.4,0.8-0.8v-1.6c0-0.4-0.4-0.8-0.8-0.8c-0.4,0-0.8,0.4-0.8,0.8v1.6
		C195.6,251.2,196,251.6,196.4,251.6z"/>
	
		<linearGradient id="SVGID_16_" gradientUnits="userSpaceOnUse" x1="49.2055" y1="70.4439" x2="583.1487" y2="-241.0864" gradientTransform="matrix(1 0 0 -1 0 312)">
		<stop  offset="2.296286e-02" style="stop-color:#FFE4F7"/>
		<stop  offset="1" style="stop-color:#FFB917"/>
	</linearGradient>
	<path class="st15" d="M63.7,251.6c0.4,0,0.8-0.4,0.8-0.8v-1.6c0-0.4-0.4-0.8-0.8-0.8s-0.8,0.4-0.8,0.8v1.6
		C62.9,251.2,63.2,251.6,63.7,251.6z"/>
	
		<linearGradient id="SVGID_17_" gradientUnits="userSpaceOnUse" x1="84.1508" y1="130.338" x2="618.0941" y2="-181.1922" gradientTransform="matrix(1 0 0 -1 0 312)">
		<stop  offset="2.296286e-02" style="stop-color:#FFE4F7"/>
		<stop  offset="1" style="stop-color:#FFB917"/>
	</linearGradient>
	<path class="st16" d="M201.3,251.6c0.4,0,0.8-0.4,0.8-0.8v-1.6c0-0.4-0.4-0.8-0.8-0.8s-0.8,0.4-0.8,0.8v1.6
		C200.5,251.2,200.8,251.6,201.3,251.6z"/>
	
		<linearGradient id="SVGID_18_" gradientUnits="userSpaceOnUse" x1="50.4302" y1="72.5429" x2="584.3732" y2="-238.9873" gradientTransform="matrix(1 0 0 -1 0 312)">
		<stop  offset="2.296286e-02" style="stop-color:#FFE4F7"/>
		<stop  offset="1" style="stop-color:#FFB917"/>
	</linearGradient>
	<path class="st17" d="M68.5,251.6c0.4,0,0.8-0.4,0.8-0.8v-1.6c0-0.4-0.4-0.8-0.8-0.8s-0.8,0.4-0.8,0.8v1.6
		C67.7,251.2,68.1,251.6,68.5,251.6z"/>
	
		<linearGradient id="SVGID_19_" gradientUnits="userSpaceOnUse" x1="43.4703" y1="60.614" x2="577.4133" y2="-250.9162" gradientTransform="matrix(1 0 0 -1 0 312)">
		<stop  offset="2.296286e-02" style="stop-color:#FFE4F7"/>
		<stop  offset="1" style="stop-color:#FFB917"/>
	</linearGradient>
	<path class="st18" d="M66.1,267c0.9,0,1.6-0.7,1.6-1.6v-1.6c0-0.9-0.7-1.6-1.6-1.6s-1.6,0.7-1.6,1.6v1.6
		C64.5,266.2,65.2,267,66.1,267z"/>
	
		<linearGradient id="SVGID_20_" gradientUnits="userSpaceOnUse" x1="134.8353" y1="217.2079" x2="668.7784" y2="-94.3223" gradientTransform="matrix(1 0 0 -1 0 312)">
		<stop  offset="2.296286e-02" style="stop-color:#FFE4F7"/>
		<stop  offset="1" style="stop-color:#FFB917"/>
	</linearGradient>
	<path class="st19" d="M788.1,281.5h-14.6v-4.9c0.4,0,0.8-0.4,0.8-0.8s-0.4-0.8-0.8-0.8v-14.6c0.4,0,0.8-0.4,0.8-0.8
		s-0.4-0.8-0.8-0.8v-1.6c0.4,0,0.8-0.4,0.8-0.8s-0.4-0.8-0.8-0.8c0-0.9-0.7-1.6-1.6-1.6h-6.3c-2.9-0.6-7.1-2.1-8.3-3.7v-1.2
		c0-0.4-0.4-0.8-0.8-0.8s-0.8,0.4-0.8,0.8H746c0-0.4-0.4-0.8-0.8-0.8s-0.8,0.4-0.8,0.8v1.2c-1.2,1.6-5.4,3.1-8.3,3.7h-7.9v-1.6
		c0-0.4-0.4-0.8-0.8-0.8c-0.4,0-0.8,0.4-0.8,0.8v1.6H725v-5.5c1.8-0.1,2.1-0.3,2.3-0.4l1.6-0.8c0.6-0.3,1-1,0.9-1.7
		s-0.6-1.2-1.3-1.4c-2-0.4-7.4-2.2-8.5-5.4c-0.2-0.7-0.8-1.1-1.5-1.1s-1.3,0.4-1.5,1.1c-1.1,3.2-6.5,5-8.5,5.4
		c-0.7,0.1-1.2,0.7-1.3,1.4s0.3,1.4,0.9,1.7l1.6,0.8c0.2,0.1,0.5,0.3,2.3,0.4v5.5h-1.6v-1.6c0-0.4-0.4-0.8-0.8-0.8
		c-0.4,0-0.8,0.4-0.8,0.8v1.6h-32.4v-6.5c2.2-0.1,6.1-0.4,7.2-0.9l1.6-0.8c0.6-0.3,1-1,0.9-1.7s-0.7-1.2-1.4-1.3
		c-3.9-0.6-10.4-2.4-11.6-5.2v-1.3c0-0.9-0.7-1.6-1.6-1.6c-0.9,0-1.6,0.7-1.6,1.6h-22.7c0-0.9-0.7-1.6-1.6-1.6
		c-0.9,0-1.6,0.7-1.6,1.6v1.3c-1.2,2.7-7.7,4.6-11.6,5.2c-0.7,0.1-1.3,0.6-1.4,1.3c-0.1,0.7,0.2,1.4,0.9,1.7l1.6,0.8
		c1.1,0.6,4.9,0.8,7.2,0.9v6.2L615.8,241l-31.7-10c1.4-0.2,2.7-0.4,3.5-0.7l6.6-2.2c0.7-0.2,1.2-0.9,1.1-1.7
		c-0.1-0.8-0.7-1.4-1.4-1.4l-13-1.6c-0.1,0-0.1,0-0.2,0h-3.2v-1.8c1.9-0.2,4.1-0.5,5.2-0.9l6.6-2.2c0.8-0.3,1.2-1.1,1.1-1.9
		c-0.2-0.8-0.9-1.3-1.7-1.3c0,0-1,0.1-2.4,0.1c-3.6,0-11.9-0.6-13.5-6.1l1-1c0.6-0.6,0.6-1.7,0-2.3s-1.7-0.6-2.3,0l-1.1,1.1h-43.3
		l-20.9-12c-1.9-1.1-4.6-1.8-7.4-1.8c-2,0-3.8,0.3-5.2,0.9l-14.1,5.9c-1.5,0.6-3.5,1.2-5.5,1.7c-0.1-0.5-0.5-0.9-1-1.1
		c0,0-0.2-0.1-0.4-0.1l1.5-16c0.1-0.7-0.4-1.4-1.1-1.7c0,0-0.2-0.1-0.4-0.1l1.5-16c0.1-0.7-0.4-1.4-1.1-1.7c0,0-0.2-0.1-0.4-0.1
		l1.5-16c0.1-0.7-0.4-1.4-1.1-1.7c0,0-0.2-0.1-0.4-0.1l1.5-16c0.1-0.7-0.4-1.4-1.1-1.7c0,0-0.2-0.1-0.4-0.1l1.5-16
		c0.1-0.7-0.4-1.4-1.1-1.7c0,0-0.2-0.1-0.4-0.1l1.5-16c0.1-0.7-0.4-1.4-1.1-1.7c0,0-0.2-0.1-0.4-0.1l1.5-16c0.1-0.7-0.4-1.4-1.1-1.7
		c-0.1,0-1.9-0.6-4.1-1.1l1.1-3.3c0.2-0.5,0.1-1-0.2-1.5c-0.3-0.4-0.8-0.7-1.3-0.7h-4v-3.2V63c0-0.4-0.4-0.8-0.8-0.8
		s-0.8,0.4-0.8,0.8v1.6h-1.5l0.9-11.3h0.5c0.4,0,0.8-0.4,0.8-0.8c0-0.4-0.4-0.8-0.8-0.8h-0.4l0.4-4.7c0-0.5-0.1-0.9-0.4-1.2
		s-0.7-0.5-1.2-0.5H458c0.9,0,1.6-0.7,1.6-1.6c0-0.9-0.7-1.6-1.6-1.6V30.6c0-0.9-0.7-1.6-1.6-1.6s-1.6,0.7-1.6,1.6V42
		c-0.9,0-1.6,0.7-1.6,1.6c0,0.9,0.7,1.6,1.6,1.6h-3.2c-0.5,0-0.9,0.2-1.2,0.5c-0.3,0.3-0.5,0.8-0.4,1.2l0.4,4.7H450
		c-0.4,0-0.8,0.4-0.8,0.8c0,0.4,0.4,0.8,0.8,0.8h0.5l0.9,11.3h-1.5V63c0-0.4-0.4-0.8-0.8-0.8s-0.8,0.4-0.8,0.8v3.2v3.2h-4
		c-0.5,0-1,0.2-1.3,0.7c-0.3,0.4-0.4,1-0.2,1.5l1.1,3.3c-2.2,0.5-4,1.1-4.1,1.1c-0.7,0.2-1.2,0.9-1.1,1.7l1.5,16
		c-0.2,0.1-0.3,0.1-0.4,0.1c-0.7,0.2-1.2,0.9-1.1,1.7l1.5,16c-0.2,0.1-0.3,0.1-0.4,0.1c-0.7,0.2-1.2,0.9-1.1,1.7l1.5,16
		c-0.2,0.1-0.3,0.1-0.4,0.1c-0.7,0.2-1.2,0.9-1.1,1.7l1.5,16c-0.2,0.1-0.3,0.1-0.4,0.1c-0.7,0.2-1.2,0.9-1.1,1.7l1.5,16
		c-0.2,0.1-0.3,0.1-0.4,0.1c-0.7,0.2-1.2,0.9-1.1,1.7l1.5,16c-0.2,0.1-0.3,0.1-0.4,0.1c-0.7,0.2-1.2,0.9-1.1,1.7l1.5,16
		c-0.2,0.1-0.3,0.1-0.4,0.1c-0.7,0.2-1.2,0.9-1.1,1.7l0.2,1.9l-4.6,0.2c-3.7,0.2-9.5,1.6-13,3.1l-7.6,3.4c-1.7,0.8-4.2,1.2-6.7,1.2
		c-1.9,0-3.7-0.3-5.1-0.7l-5.6-2c-3.5-1.2-9.6-1.1-13,0.2l-71.4,25.9c-3.4,1.3-9,2.8-12.5,3.3l-13.2,1.1c-0.3-0.4-0.8-0.7-1.3-0.7
		V239c0.1,0,0.3-0.1,0.4-0.1l3.3-1.1c0.7-0.2,1.1-0.8,1.1-1.5s-0.4-1.3-1.1-1.5l-2.8-0.9c0.4-0.3,0.6-0.7,0.6-1.2
		c0-0.7-0.3-1.3-0.9-1.6c-3.3-1.6-12.4-6.2-15.2-9.9v-2.7c0-0.9-0.7-1.6-1.6-1.6s-1.6,0.7-1.6,1.6v2.7c-2.8,3.6-11.8,8.3-15.2,9.9
		c-0.6,0.3-1,0.9-0.9,1.6c0,0.5,0.3,0.9,0.6,1.2l-2.8,0.9c-0.7,0.2-1.1,0.8-1.1,1.5s0.4,1.3,1.1,1.5l3.3,1.1c0.1,0,0.3,0.1,0.4,0.1
		v0.5c-0.9,0-1.6,0.7-1.6,1.6H249c-0.8,0-1.5,0.6-1.6,1.4l-0.2,1l-11.5,1c-3.7,0.5-9.5,1.9-13,3.1l-10.1,3.5c-0.3-0.2-0.6-0.3-1-0.3
		h-4.9v-4.9c0-0.5-0.2-1-0.6-1.3l-6.5-4.9c-0.6-0.4-1.4-0.4-1.9,0l-6.5,4.9c-0.4,0.3-0.6,0.8-0.6,1.3v1.6h-8.1
		c0-0.9-0.7-1.6-1.6-1.6s-1.6,0.7-1.6,1.6h-13c0-0.9-0.7-1.6-1.6-1.6s-1.6,0.7-1.6,1.6h-9.7v-1.6c0-0.9-0.7-1.6-1.6-1.6h-9.7
		c-0.9,0-1.6,0.7-1.6,1.6v-19.4c0.4,0,0.8-0.4,0.8-0.8s-0.4-0.8-0.8-0.8v-9.7c0.4,0,0.8-0.4,0.8-0.8c0-0.4-0.4-0.8-0.8-0.8v-4.9l0,0
		c0-0.1,0-0.1,0-0.2c0,0,0,0,0-0.1v-0.1v-0.1c0,0,0,0,0-0.1V208c0,0,0,0,0-0.1v-0.1c0,0,0,0,0-0.1c0,0,0-0.1-0.1-0.1l0,0l-0.1-0.1
		l0,0l-0.1-0.1l0,0l-6-6v-5.8c0-0.4-0.4-0.8-0.8-0.8s-0.8,0.4-0.8,0.8v4.9c-0.4,0-0.8,0.2-1.1,0.5l-6.5,6.5l0,0l-0.1,0.1l0,0
		l-0.1,0.1l0,0c0,0,0,0.1-0.1,0.1c0,0,0,0,0,0.1v0.1c0,0,0,0,0,0.1v0.1c0,0,0,0,0,0.1v0.1v0.1c0,0,0,0,0,0.1s0,0.1,0,0.2l0,0v4.9
		c-0.4,0-0.8,0.4-0.8,0.8c0,0.4,0.4,0.8,0.8,0.8v9.7c-0.4,0-0.8,0.4-0.8,0.8s0.4,0.8,0.8,0.8V246c0-0.9-0.7-1.6-1.6-1.6h-9.7
		c-0.9,0-1.6,0.7-1.6,1.6v1.6h-9.7c0-0.9-0.7-1.6-1.6-1.6s-1.6,0.7-1.6,1.6h-13c0-0.9-0.7-1.6-1.6-1.6s-1.6,0.7-1.6,1.6h-8.1V246
		c0-0.5-0.2-1-0.6-1.3l-6.5-4.9c-0.6-0.4-1.4-0.4-1.9,0l-6.5,4.9c-0.4,0.3-0.6,0.8-0.6,1.3v4.9h-4.9c-0.9,0-1.6,0.7-1.6,1.6v29.1
		H32.1c-1.8,0-3.2,1.4-3.2,3.2s1.4,3.2,3.2,3.2h27.5h13h40.5h9.7h19.4h9.7h25.9h14.6h13h27.5h66.4h59.9h13h16.2h19.4h42.1h30.8h43.7
		h4.9h76.1h182.9c1.8,0,3.2-1.4,3.2-3.2S789.9,281.5,788.1,281.5z M54.8,260.5H58v13h-3.2V260.5z M66.1,243.1l3.8,2.8h-7.6
		L66.1,243.1z M117.9,255.6h3.2v17.8h-6.5v-17.8L117.9,255.6L117.9,255.6z M147,255.6h3.2V273v0.4h-1.1h-5.4v-17.8L147,255.6
		L147,255.6z M198.8,243.1l3.8,2.8H195L198.8,243.1z M223.4,249.1c3.4-1.2,9.1-2.6,12.6-3.1l10.6-0.9l0,0c0,0.3,0.1,0.5,0.3,0.6
		l-2.5,16.4h-3.5v-1.6c0-0.4-0.4-0.8-0.8-0.8s-0.8,0.4-0.8,0.8v1.6h-3.2v-1.6c0-0.4-0.4-0.8-0.8-0.8c-0.4,0-0.8,0.4-0.8,0.8v1.6
		h-3.2v-1.6c0-0.4-0.4-0.8-0.8-0.8s-0.8,0.4-0.8,0.8v1.6c-0.7,0-1.4,0.5-1.6,1.2l-1.3,5.2h-3.6V267c0-0.4-0.4-0.8-0.8-0.8
		s-0.8,0.4-0.8,0.8v1.6h-3.2V267c0-0.4-0.4-0.8-0.8-0.8s-0.8,0.4-0.8,0.8v1.6c-0.7,0-1.4,0.5-1.6,1.2l-1.3,5.2h-0.4v-1.6v-20.9
		L223.4,249.1z M253.9,242.8c0-0.1,0-0.1,0-0.2h1.9h9.5h1.5v0.7v0.9c0,0.9,0.7,1.6,1.6,1.6s1.6-0.7,1.6-1.6V243v-0.4h4.7h8.3
		c0,0.9,0.7,1.6,1.6,1.6h-8.9c-0.4,0-0.8,0.4-0.8,0.8v17h-1.6v-5.7c0-3.1-2.2-5.7-4.9-5.7c-1.2,0-2.4,0.5-3.2,1.4v-6.3
		c0-0.9-0.7-1.6-1.6-1.6h-2.4h-0.8h-4.5h-3.6c0.5,0,1-0.2,1.3-0.6C253.7,243.5,253.8,243.2,253.9,242.8z M264,231l-3.3-0.8
		c-0.1,0-0.3-0.1-0.4-0.1c2.9-1.7,6.1-3.8,8.1-5.9c2,2.1,5.2,4.2,8.1,5.9c-0.1,0-0.3,0-0.4,0.1l-3.3,0.8c-0.7,0.2-2,0.3-2.8,0.3
		h-3.2C266.1,231.3,264.8,231.2,264,231z M395.5,211l5.6,2c3.5,1.3,9.5,1,12.9-0.5l7.6-3.4c3.3-1.5,8.8-2.8,12.4-3l4.7-0.2l1.1,12.5
		h-0.3c-0.8,0-1.5,0.6-1.6,1.5l-3.1,32.5c-5.3-3.1-10-7.4-12.6-13.2v-3.7v-0.8c0-0.9-0.7-1.6-1.6-1.6s-1.6,0.7-1.6,1.6h-58.3
		c0-0.9-0.7-1.6-1.6-1.6s-1.6,0.7-1.6,1.6v0.8v3.7c-9.4,21.1-45,21.4-45.3,21.4c-0.7,0-1.3,0.5-1.5,1.2s0.1,1.4,0.7,1.8
		c0.2,0.1,2.9,1.9,7.7,2.9c-0.2,0.1-0.3,0.4-0.3,0.6v1.6h-3.2V267c0-0.4-0.4-0.8-0.8-0.8s-0.8,0.4-0.8,0.8v1.6h-3.6l-1.3-5.2
		c-0.2-0.7-0.8-1.2-1.6-1.2v-1.6c0-0.4-0.4-0.8-0.8-0.8s-0.8,0.4-0.8,0.8v1.6h-3.2v-1.6c0-0.4-0.4-0.8-0.8-0.8s-0.8,0.4-0.8,0.8v1.6
		h-3.2v-1.6c0-0.4-0.4-0.8-0.8-0.8s-0.8,0.4-0.8,0.8v1.6h-3.5l-2.5-16.4c0.2-0.1,0.3-0.4,0.3-0.6c0-0.4-0.2-0.6-0.5-0.8l-0.3-1.9
		c-0.1-0.4-0.3-0.7-0.5-1l10.4-0.9c3.7-0.5,9.4-2,12.9-3.4l71.4-25.9C386.7,210,392.3,209.9,395.5,211z M441.8,78.7
		c1.6-0.5,4.4-1.2,6.4-1.2c2.1,0,4.9,0.7,6.5,1.2v0.4c0,0.9,0.7,1.6,1.6,1.6s1.6-0.7,1.6-1.6v-0.4c1.6-0.5,4.4-1.2,6.5-1.2
		c2,0,4.8,0.7,6.4,1.2l-1.3,14.1c-1.6-0.4-3.5-0.7-5.1-0.7c-2.9,0-6.7,1.1-8.1,1.5c-1.4-0.4-5.2-1.5-8.1-1.5c-1.6,0-3.5,0.3-5.1,0.7
		L441.8,78.7z M505.5,196.4L524,207h-39.5l-1.1-1.1c-0.6-0.6-1.7-0.6-2.3,0c-0.6,0.6-0.6,1.7,0,2.3l1,1c-1.1,3.8-5.4,5.2-9.1,5.8
		l1-11.5c2.3-0.5,4.5-1.2,6.2-1.9l14.1-5.9c1.2-0.5,2.9-0.8,4.6-0.8C501.3,194.9,503.8,195.5,505.5,196.4z M570.4,212.7
		c0.2,0,0.4-0.1,0.6-0.2c1.7,2.6,4.8,4.5,9,5.4c-1.9,0.3-4.3,0.5-5.5,0.5h-27.3h-1.8h-1.7h-63.1c-1.2,0-3.7-0.2-5.5-0.5
		c5.3-1.1,8.8-3.7,10-7.6h2v1.6c0,0.4,0.4,0.8,0.8,0.8s0.8-0.4,0.8-0.8v-1.6h3.2v1.6c0,0.4,0.4,0.8,0.8,0.8s0.8-0.4,0.8-0.8v-1.6
		h3.2v1.6c0,0.4,0.4,0.8,0.8,0.8s0.8-0.4,0.8-0.8v-1.6h3.2v1.6c0,0.4,0.4,0.8,0.8,0.8s0.8-0.4,0.8-0.8v-1.6h3.2v1.6
		c0,0.4,0.4,0.8,0.8,0.8s0.8-0.4,0.8-0.8v-1.6h3.2v1.6c0,0.4,0.4,0.8,0.8,0.8s0.8-0.4,0.8-0.8v-1.6h3.2v1.6c0,0.4,0.4,0.8,0.8,0.8
		c0.4,0,0.8-0.4,0.8-0.8v-1.6h3.2v1.6c0,0.4,0.4,0.8,0.8,0.8c0.4,0,0.8-0.4,0.8-0.8v-1.6h3.2v1.6c0,0.4,0.4,0.8,0.8,0.8
		c0.4,0,0.8-0.4,0.8-0.8v-1.6h2.1h1.1v0.6v1c0,0.4,0.4,0.8,0.8,0.8c0.4,0,0.8-0.4,0.8-0.8l0,0V211v-0.6h0.5h2.7v1.6v0.1
		c0,0.4,0.4,0.8,0.8,0.8c0.2,0,0.3-0.1,0.5-0.1c0.2-0.1,0.4-0.4,0.4-0.7v-1.6h3.2v1.6c0,0.4,0.4,0.8,0.8,0.8c0.4,0,0.8-0.4,0.8-0.8
		v-1.6h3.2v1.6c0,0.4,0.4,0.8,0.8,0.8c0.4,0,0.8-0.4,0.8-0.8v-1.6h3.2v1.6c0,0.4,0.4,0.8,0.8,0.8s0.8-0.4,0.8-0.8v-1.6h3.2v1.6
		c0,0.4,0.4,0.8,0.8,0.8c0.4,0,0.8-0.4,0.8-0.8v-1.6h3.2v1.6c0,0.4,0.4,0.8,0.8,0.8c0.4,0,0.8-0.4,0.8-0.8v-1.6h3.2v1.6
		c0,0.4,0.4,0.8,0.8,0.8s0.8-0.4,0.8-0.8v-1.6h3.2v1.6C569.5,212.4,569.9,212.7,570.4,212.7z M652.4,260.5h1.8H678v12.2v0.9v0.9v0.6
		h-10.5c-0.4,0-0.8,0.4-0.8,0.8v0.8h-4.9v-6.5c0-1.9-2.1-2.4-3.3-2.4s-3.2,0.6-3.2,2.4v6.5h-3.2c0-0.9-0.7-1.6-1.6-1.6h-0.8h-0.8
		H644v-14.6h6.6L652.4,260.5L652.4,260.5z M742,255.6c1.9-0.8,3.8-1.8,4.9-3.2h0.7c0,0.4,0.4,0.8,0.8,0.8c0.4,0,0.8-0.4,0.8-0.8h1.6
		c0,0.4,0.4,0.8,0.8,0.8c0.4,0,0.8-0.4,0.8-0.8h1.6c0,0.4,0.4,0.8,0.8,0.8c0.2,0,0.4-0.1,0.5-0.2c1.1,1.1,2.7,1.9,4.3,2.6
		c-0.3,0-0.5,0-0.8,0h-16.2C742.5,255.6,742.2,255.6,742,255.6z M109,279.1c-0.4,0-0.8,0.4-0.8,0.8v1.6h-6.5v-1.6
		c0-0.4-0.4-0.8-0.8-0.8s-0.8,0.4-0.8,0.8v1.6h-6.5v-1.6c0-0.4-0.4-0.8-0.8-0.8s-0.8,0.4-0.8,0.8v1.6h-6.5v-1.6
		c0-0.4-0.4-0.8-0.8-0.8s-0.8,0.4-0.8,0.8v1.6h-6.5v-1.6v-1.6h3.2h8.1h8.1h8.1h6.5v3.2h-1.6v-1.6C109.8,279.5,109.5,279.1,109,279.1
		z M84.7,257.2c1.3,0,2.4,1.1,2.4,2.4v2.4h-1.6v-1.6c0-0.4-0.4-0.8-0.8-0.8s-0.8,0.4-0.8,0.8v1.6h-1.6v-2.4
		C82.3,258.3,83.4,257.2,84.7,257.2z M92.8,257.2c1.3,0,2.4,1.1,2.4,2.4v2.4h-1.6v-1.6c0-0.4-0.4-0.8-0.8-0.8S92,260,92,260.5v1.6
		h-1.6v-2.4C90.4,258.3,91.5,257.2,92.8,257.2z M100.9,257.2c1.3,0,2.4,1.1,2.4,2.4v2.4h-1.6v-1.6c0-0.4-0.4-0.8-0.8-0.8
		s-0.8,0.4-0.8,0.8v1.6h-1.6v-2.4C98.5,258.3,99.6,257.2,100.9,257.2z M109,257.2c1.3,0,2.4,1.1,2.4,2.4v2.4h-1.6v-1.6
		c0-0.4-0.4-0.8-0.8-0.8s-0.8,0.4-0.8,0.8v1.6h-1.6v-2.4C106.6,258.3,107.7,257.2,109,257.2z M132.5,257.2h8.1v14.6H139v-3.2
		c0-0.4-0.4-0.8-0.8-0.8c-0.4,0-0.8,0.4-0.8,0.8v3.2h-3.2v-3.2c0-0.9-0.7-1.6-1.6-1.6c-0.9,0-1.6,0.7-1.6,1.6v3.2h-3.2v-3.2v-4.9
		v-3.2v-3.2L132.5,257.2L132.5,257.2z M147,275.1h2.4h0.8v6.5h-6.5V277v-0.9v-0.9v-0.3h0.8h2.5V275.1z M164,257.2
		c1.3,0,2.4,1.1,2.4,2.4v2.4h-1.6v-1.6c0-0.4-0.4-0.8-0.8-0.8c-0.4,0-0.8,0.4-0.8,0.8v1.6h-1.6v-2.4
		C161.6,258.3,162.7,257.2,164,257.2z M172.1,257.2c1.3,0,2.4,1.1,2.4,2.4v2.4h-1.6v-1.6c0-0.4-0.4-0.8-0.8-0.8s-0.8,0.4-0.8,0.8
		v1.6h-1.6v-2.4C169.7,258.3,170.8,257.2,172.1,257.2z M180.2,257.2c1.3,0,2.4,1.1,2.4,2.4v2v0.4h-1.2H181v-1.6
		c0-0.4-0.4-0.8-0.8-0.8c-0.4,0-0.8,0.4-0.8,0.8v1.6h-1.6v-2.4C177.8,258.3,178.9,257.2,180.2,257.2z M188.3,257.2
		c1.1,0,2,0.7,2.3,1.6c0.1,0.3,0.1,0.5,0.1,0.8l0,0v0.9v1.6h-1.6v-1v-0.6c0-0.1,0-0.2,0-0.2c-0.1-0.3-0.4-0.6-0.8-0.6l0,0
		c-0.2,0-0.4,0.1-0.5,0.2c-0.2,0.1-0.3,0.4-0.3,0.6v0.3v0.9v0.4h-1.2h-0.4v-0.7v-0.9v-0.9C185.9,258.3,187,257.2,188.3,257.2z
		 M228,271.8h22.7v3.2h-3.2v-1.6c0-0.4-0.4-0.8-0.8-0.8s-0.8,0.4-0.8,0.8v1.6h-3.2v-1.6c0-0.4-0.4-0.8-0.8-0.8s-0.8,0.4-0.8,0.8v1.6
		h-3.2v-1.6c0-0.4-0.4-0.8-0.8-0.8s-0.8,0.4-0.8,0.8v1.6h-3.2v-1.6c0-0.4-0.4-0.8-0.8-0.8s-0.8,0.4-0.8,0.8v1.6H228v-1.6
		c0-0.4-0.4-0.8-0.8-0.8s-0.8,0.4-0.8,0.8v1.6h-3.2v-1.6c0-0.4-0.4-0.8-0.8-0.8s-0.8,0.4-0.8,0.8v1.6h-4.4l0.8-3.2H228z
		 M245.8,265.3h4.9v3.2h-3.2V267c0-0.4-0.4-0.8-0.8-0.8s-0.8,0.4-0.8,0.8v1.6h-3.2V267c0-0.4-0.4-0.8-0.8-0.8s-0.8,0.4-0.8,0.8v1.6
		h-3.2V267c0-0.4-0.4-0.8-0.8-0.8s-0.8,0.4-0.8,0.8v1.6h-3.2V267c0-0.4-0.4-0.8-0.8-0.8s-0.8,0.4-0.8,0.8v1.6h-1.2l0.8-3.2h14.7
		V265.3z M306,265.3l0.8,3.2h-1.2V267c0-0.4-0.4-0.8-0.8-0.8s-0.8,0.4-0.8,0.8v1.6h-3.2V267c0-0.4-0.4-0.8-0.8-0.8s-0.8,0.4-0.8,0.8
		v1.6H296V267c0-0.4-0.4-0.8-0.8-0.8s-0.8,0.4-0.8,0.8v1.6h-3.2V267c0-0.4-0.4-0.8-0.8-0.8s-0.8,0.4-0.8,0.8v1.6H288v-3.2h3.2l0,0
		H306V265.3z M319,271.8l0.8,3.2h-4.4v-1.6c0-0.4-0.4-0.8-0.8-0.8s-0.8,0.4-0.8,0.8v1.6h-3.2v-1.6c0-0.4-0.4-0.8-0.8-0.8
		s-0.8,0.4-0.8,0.8v1.6h-3.2v-1.6c0-0.4-0.4-0.8-0.8-0.8s-0.8,0.4-0.8,0.8v1.6H301v-1.6c0-0.4-0.4-0.8-0.8-0.8s-0.8,0.4-0.8,0.8v1.6
		H296v-1.6c0-0.4-0.4-0.8-0.8-0.8s-0.8,0.4-0.8,0.8v1.6h-3.2v-1.6c0-0.4-0.4-0.8-0.8-0.8s-0.8,0.4-0.8,0.8v-1.6H309H319z
		 M320.2,266.6c0.6,0.1,1.1,0.2,1.7,0.2v3.2v-0.2c-0.2-0.7-0.8-1.2-1.6-1.2V267C320.3,266.8,320.2,266.7,320.2,266.6z M598.7,257.2
		h13l0,0c-0.2,0-0.4,0.1-0.6,0.2c-0.1,0.1-0.2,0.4-0.2,0.6s0.1,0.4,0.2,0.6c0.1,0.2,0.4,0.2,0.6,0.2h-27.5v-1.6L598.7,257.2
		L598.7,257.2z M594.6,251.6c-0.4,0-0.8,0.4-0.8,0.8v-1.6h3.2v3.2h-1.6v-1.6C595.4,251.9,595.1,251.6,594.6,251.6z M595,245.4
		c1.3-0.7,2.6-1.6,3.7-2.8c1,1.2,2.3,2.1,3.7,2.8C600.2,245.5,597.1,245.5,595,245.4z M602.7,251.6c-0.4,0-0.8,0.4-0.8,0.8v1.6h-1.6
		v-3.2h3.2v1.6C603.5,251.9,603.2,251.6,602.7,251.6z M658.6,269.4c0,0,1.6,0,1.6,0.8v6.5H657v-6.5
		C657,269.5,658.6,269.4,658.6,269.4z M666.7,278.3v3.2h-14.6v-3.2H666.7z M682.3,276.7h1.8h1.8h1.9v1v0.9v0.9v2.1H678h-9.7v-4.9
		h9.7H682.3z M409.3,281.5v-1.6h3.2h8.1v1.6h-8.1H409.3z M373.7,281.5v-3.2h1.6h8.1h13h8.1h1.6v3.2h-17.8H373.7z M359.1,281.5h-18.2
		l-0.4-1.6h29.9v1.6H359.1z M291.1,281.5v-3.2h24.3h6.5h3.2h4.9h1.6h5.2l0.4,1.6l0.4,1.6h-19h-3.2h-16.2H291.1z M252.3,278.3v-3.2
		v-3.2v-3.2v-3.2h9.7v3.2v3.2v3.2v3.2v3.2h-1.6c0.4,0,0.8-0.4,0.8-0.8s-0.4-0.8-0.8-0.8h-6.5c-0.4,0-0.8,0.4-0.8,0.8
		s0.4,0.8,0.8,0.8h-1.6V278.3z M268.5,265.3h4.9v3.2v3.2v3.2v3.2v3.2h-9.7v-3.2v-3.2v-3.2v-3.2v-3.2H268.5z M284.6,265.3v3.2v3.2
		v3.2v3.2v3.2H283c0.4,0,0.8-0.4,0.8-0.8s-0.4-0.8-0.8-0.8h-6.5c-0.4,0-0.8,0.4-0.8,0.8s0.4,0.8,0.8,0.8h-1.6v-3.2v-3.2v-3.2v-3.2
		v-3.2H284.6z M437.8,255.7l0.2-1.7l2.8-29.1h9.2c0.7,2.8,3.3,4.9,6.3,4.9c1.7,0,3.2-0.6,4.4-1.7c0.4-0.4,0.8-0.8,1.1-1.3
		c0.1-0.1,0.1-0.2,0.2-0.3c0.3-0.5,0.5-1,0.6-1.5h9.2v0.3l0.2,1.6l0.1,1.1l0.2,1.6l0.2,1.6l0.1,0.9l3.1,31.7h-3.1H468h-3.9h-7.9
		h-1.6h-3.2h-1.6h-1.6h-1.6H445h-3.2H440h-3l0.6-6.3L437.8,255.7z M441.1,221.6h0.6l0,0h8.1c0,0.3,0,0.5,0.1,0.8
		c0,0.3-0.1,0.5-0.1,0.8h-8.9L441.1,221.6z M637.5,275.1h-24.3v-14.6h13h11.3V275.1z M605.2,281.5H589v-4.9h22.7v4.9H605.2z
		 M540.4,281.5h-1.6h-1.6h-1.6H534h-4.9h-3.2h-1.6H521h-1.6h-1.6h-1.6h-1.6h-3.2h-1.6H508h-1.6h-1.6h-6.5h-1.6h-1.6h-1.6h-1.6v-1.6
		h1.6h1.6h1.6h1.6h1.6h1.6h3.2h1.6h1.6h1.6h1.6h3.2h1.6h1.6h1.6h1.6h4.9h3.2h4.9h1.6h1.6h1.6h1.6h3.2h1.6h1.6h1.6h1.6h1.6h1.6h1.6
		h1.6h1.6h1.6v1.6h-1.6h-1.6h-3.2h-3.2h-1.6h-1.6h-1.6h-1.6H540.4z M477.3,275.1h-1.6h-3.2h-14.6h-3.2h-4.9h-1.6H445h-1.6H440h-4.9
		h-1.6h-3.2h-4.9h-1.6v-4.9h3.2h3.2h3.2h3.2h3.2h3.2h3.2h1.6h1.6h4.9h3.2h14.6h3.2h1.6h1.6h3.2h1.6h1.6h1.6h1.6v1.6v1.6v1.6H487
		h-1.6h-1.6h-1.6H479L477.3,275.1L477.3,275.1z M372.1,276.7h-1.6v-4.9c0-0.9,0.8-1.6,1.6-2c1-0.6,1.7-1.6,1.7-2.8v9.7L372.1,276.7
		L372.1,276.7z M488.6,234.6h1.6h3.2v1.6H487v-1.6H488.6z M499.9,234.6h1.6h3.2v1.6h-6.5v-1.6H499.9z M511.3,234.6h1.6h3.2v1.6h-6.5
		v-1.6H511.3z M522.6,234.6h1.6h6.5h1.6h1.6v1.6h-13v-1.6H522.6z M542,234.6h1.6h1.6v1.6h-6.5v-1.6H542z M553.4,234.6h1.6h1.6v1.6
		h-6.5v-1.6H553.4z M564.7,234.6h1.6h1.6v1.6h-6.5v-1.6H564.7z M572.8,275.1v-3.2v-1.6h3.2v1.6h-1.6c-0.4,0-0.8,0.4-0.8,0.8
		s0.4,0.8,0.8,0.8h1.6v1.6L572.8,275.1L572.8,275.1z M572.8,267v-1.6h1.6c-0.4,0-0.8,0.4-0.8,0.8s0.4,0.8,0.8,0.8h1.6v1.6h-3.2
		L572.8,267L572.8,267z M572.8,260.5v-1.6h1.6c-0.4,0-0.8,0.4-0.8,0.8s0.4,0.8,0.8,0.8h1.6v1.6h-1.6h-1.6V260.5z M572.8,254.4v-2
		h1.6c-0.4,0-0.8,0.4-0.8,0.8s0.4,0.8,0.8,0.8h1.6v1.6h-1.6h-1.6V254.4z M572.8,245.9h1.6c-0.4,0-0.8,0.4-0.8,0.8
		c0,0.4,0.4,0.8,0.8,0.8h1.6v1.6h-3.2L572.8,245.9L572.8,245.9z M572.8,239.4h1.6c-0.4,0-0.8,0.4-0.8,0.8c0,0.4,0.4,0.8,0.8,0.8h1.6
		v1.6h-3.2L572.8,239.4L572.8,239.4z M577.6,268.6h1.6v6.5h-1.6V268.6z M574.4,234.6h1.6v1.6h-3.2v-1.6H574.4z M567.9,242.7h-6.5
		v-3.2h3.2c-0.4,0-0.8,0.4-0.8,0.8c0,0.4,0.4,0.8,0.8,0.8h1.6c0.4,0,0.8-0.4,0.8-0.8c0-0.4-0.4-0.8-0.8-0.8h1.6v3.2H567.9z
		 M567.9,249.2h-6.5V246h3.2c-0.4,0-0.8,0.4-0.8,0.8c0,0.4,0.4,0.8,0.8,0.8h1.6c0.4,0,0.8-0.4,0.8-0.8c0-0.4-0.4-0.8-0.8-0.8h1.6
		v3.2H567.9z M567.9,255.6h-6.5v-2.3v-0.9h0.9h0.7h1.6c-0.4,0-0.8,0.4-0.8,0.8s0.4,0.8,0.8,0.8h1.6c0.4,0,0.8-0.4,0.8-0.8
		s-0.4-0.8-0.8-0.8h1.6v3.2H567.9z M567.9,260.5v1.6H563h-1.6v-0.8v-0.8v-1.6h3.2c-0.4,0-0.8,0.4-0.8,0.8s0.4,0.8,0.8,0.8h1.6
		c0.4,0,0.8-0.4,0.8-0.8s-0.4-0.8-0.8-0.8h1.6v1.6H567.9z M567.9,267v1.6h-1.6h-4.9V267v-0.8v-0.8h1.6h1.6c-0.4,0-0.8,0.4-0.8,0.8
		s0.4,0.8,0.8,0.8h1.6c0.4,0,0.8-0.4,0.8-0.8s-0.4-0.8-0.8-0.8h1.6v1.6H567.9z M567.9,271.8v3.2h-3.2h-3.2v-3.2v-1.6h3.2h3.2V271.8z
		 M567.9,281.5h-3.2v-2.4c0-0.4-0.4-0.8-0.8-0.8h4V281.5z M543.6,276.7c0-0.5-0.3-1-0.6-1.3c-0.3-0.2-0.6-0.3-1-0.3
		c-0.9,0-1.6,0.7-1.6,1.6v1.6h-1.6v-3.2h3.2h1.6h1.6v1.6v1.6h-1.6L543.6,276.7L543.6,276.7z M527.5,275.1c-0.9,0-1.6,0.7-1.6,1.6
		v1.6H521v-3.2H527.5h6.5v3.2h-4.9v-1.6C529.1,275.8,528.4,275.1,527.5,275.1z M512.9,275.1c-0.9,0-1.6,0.7-1.6,1.6v1.6h-1.6v-3.2
		H512.9h3.2v3.2h-1.6v-1.6C514.5,275.8,513.8,275.1,512.9,275.1z M477.3,268.6h-1.6h-3.2h-14.6h-3.2h-4.9h-1.6h-4.9H440h-6.5h-3.2
		h-6.5V267h6.5h3.2h1.6h4.9h3.2h4.9h1.6h4.9h3.2h14.6h3.2h1.6h1.6h1.6h1.6h1.6h1.6h1.6h1.6v1.6H487h-1.6h-1.6h-1.6H479H477.3z
		 M404.4,257.2h-8.1h-13h-8.1h-1.7c0-0.6,0.1-1.1,0.1-1.6H406c0,0.5,0,1.1,0.1,1.6H404.4z M378.5,263.7c0-0.9,0.7-1.6,1.6-1.6h1.6
		v4.9h-3.2V263.7z M386.6,263.7c0-0.9,0.7-1.6,1.6-1.6h6.5v4.9h-8.1V263.7z M399.6,263.7c0-0.9,0.7-1.6,1.6-1.6h1.6v4.9h-3.2V263.7z
		 M478.9,254h1.6c0.4,0,0.8-0.4,0.8-0.8s-0.4-0.8-0.8-0.8h1.6v3.2h-3.2V254z M478.9,247.5h1.6c0.4,0,0.8-0.4,0.8-0.8
		c0-0.4-0.4-0.8-0.8-0.8h1.6v3.2h-3.2V247.5z M478.9,241.1h1.6c0.4,0,0.8-0.4,0.8-0.8c0-0.4-0.4-0.8-0.8-0.8h1.6v3.2h-3.2V241.1z
		 M483.8,236.2h1.6v1.6v1.6v3.2v1.6v1.6v3.2v1.6v1.6v3.2v1.6v1.6v3.2v1.6h-1.6v-1.6v-3.2V257v-1.6v-3.2v-1.6V249v-3.2v-1.6v-1.6
		v-3.2v-1.6V236.2z M493.5,242.7H487v-3.2h1.6c-0.4,0-0.8,0.4-0.8,0.8c0,0.4,0.4,0.8,0.8,0.8h1.6c0.4,0,0.8-0.4,0.8-0.8
		c0-0.4-0.4-0.8-0.8-0.8h3.2L493.5,242.7L493.5,242.7z M493.5,249.2H487V246h1.6c-0.4,0-0.8,0.4-0.8,0.8c0,0.4,0.4,0.8,0.8,0.8h1.6
		c0.4,0,0.8-0.4,0.8-0.8c0-0.4-0.4-0.8-0.8-0.8h3.2L493.5,249.2L493.5,249.2z M493.5,255.6H487v-3.2h1.6c-0.4,0-0.8,0.4-0.8,0.8
		s0.4,0.8,0.8,0.8h1.6c0.4,0,0.8-0.4,0.8-0.8s-0.4-0.8-0.8-0.8h3.2L493.5,255.6L493.5,255.6z M493.5,262.1H487v-3.2h1.6
		c-0.4,0-0.8,0.4-0.8,0.8s0.4,0.8,0.8,0.8h1.6c0.4,0,0.8-0.4,0.8-0.8s-0.4-0.8-0.8-0.8h3.2L493.5,262.1L493.5,262.1z M493.5,268.6
		h-1.6v-3.2h1.6V268.6z M493.5,275.1h-1.6v-3.2h1.6V275.1z M478.9,260.5h1.6c0.4,0,0.8-0.4,0.8-0.8s-0.4-0.8-0.8-0.8h1.6v3.2h-3.2
		V260.5z M495.1,276.7v-1.6v-3.2v-1.6v-1.6v-3.2v-1.6v-1.6v-3.2v-1.6v-1.6v-3.2v-1.6v-1.6v-3.2v-1.6v-1.6v-3.2v-1.6v-1.6h1.6v1.6
		v1.6v3.2v1.6v1.6v3.2v1.6v1.6v3.2v1.6v1.6v3.2v1.6v1.6v3.2v1.6v1.6v3.2v1.6v1.6h-1.6V276.7z M506.4,236.2h1.6v1.6v1.6v3.2v1.6v1.6
		v3.2v1.6v1.6v3.2v1.6v1.6v3.2v1.6v1.6v0.4l-1.6,0.2V265v-1.6v-1.6v-3.2V257v-1.6v-3.2v-1.6V249v-3.2v-1.6v-1.6v-3.2v-1.6V236.2z
		 M517.7,236.2h1.6v1.6v1.6v3.2v1.6v1.6v3.2v1.6v1.6v3.2v1.6v1.6v3.2v1.6v1.6h-1.6v-1.6v-1.6v-3.2V257v-1.6v-3.2v-1.6V249v-3.2v-1.6
		v-1.6v-3.2v-1.6V236.2z M535.6,236.2h1.6v1.6v1.6v3.2v1.6v1.6v3.2v1.6v1.6v3.2v1.6v1.6v3.2v1.6v1.6h-1.6v-1.6v-1.6v-3.2V257v-1.6
		v-3.2v-1.6V249v-3.2v-1.6v-1.6v-3.2v-1.6V236.2z M546.9,236.2h1.6v1.6v1.6v3.2v1.6v1.6v3.2v1.6v1.6v1.6v1.6v1.6v1.6v1.6v1.6v1.6
		v1.6v0.6l-1.6-0.2V265v-1.6v-1.6v-1.6v-1.6V257v-1.6V254v-1.6v-1.6v-1.6V246v-1.6v-1.6v-3.2V238V236.2z M556.6,242.7h-6.5v-3.2h3.2
		c-0.4,0-0.8,0.4-0.8,0.8c0,0.4,0.4,0.8,0.8,0.8h1.6c0.4,0,0.8-0.4,0.8-0.8c0-0.4-0.4-0.8-0.8-0.8h1.6v3.2H556.6z M556.6,249.2h-6.5
		V246h3.2c-0.4,0-0.8,0.4-0.8,0.8c0,0.4,0.4,0.8,0.8,0.8h1.6c0.4,0,0.8-0.4,0.8-0.8c0-0.4-0.4-0.8-0.8-0.8h1.6v3.2H556.6z
		 M556.6,260.5v1.6H555h-4.9v-1.6v-1.6h3.2c-0.4,0-0.8,0.4-0.8,0.8s0.4,0.8,0.8,0.8h1.6c0.4,0,0.8-0.4,0.8-0.8s-0.4-0.8-0.8-0.8h1.6
		v1.6H556.6z M556.6,275.1h-3.2h-3.2v-2.6c0.1,0,0.2-0.1,0.4-0.1l1.5-0.5l1.3-0.4l3.2-1.1v1.5V275.1z M504.8,275.1h-6.5v-3.2h1.6
		c-0.4,0-0.8,0.4-0.8,0.8s0.4,0.8,0.8,0.8h1.6c0.4,0,0.8-0.4,0.8-0.8s-0.4-0.8-0.8-0.8h1.3l1.5,0.5c0.1,0,0.2,0.1,0.4,0.1v2.6H504.8
		z M498.3,258.9h1.6c-0.4,0-0.8,0.4-0.8,0.8s0.4,0.8,0.8,0.8h1.6c0.4,0,0.8-0.4,0.8-0.8s-0.4-0.8-0.8-0.8h3.2v3.2h-6.5L498.3,258.9
		L498.3,258.9z M498.3,252.4h1.6c-0.4,0-0.8,0.4-0.8,0.8s0.4,0.8,0.8,0.8h1.6c0.4,0,0.8-0.4,0.8-0.8s-0.4-0.8-0.8-0.8h3.2v3.2h-6.5
		L498.3,252.4L498.3,252.4z M498.3,245.9h1.6c-0.4,0-0.8,0.4-0.8,0.8c0,0.4,0.4,0.8,0.8,0.8h1.6c0.4,0,0.8-0.4,0.8-0.8
		c0-0.4-0.4-0.8-0.8-0.8h3.2v3.2h-6.5L498.3,245.9L498.3,245.9z M498.3,239.4h1.6c-0.4,0-0.8,0.4-0.8,0.8c0,0.4,0.4,0.8,0.8,0.8h1.6
		c0.4,0,0.8-0.4,0.8-0.8c0-0.4-0.4-0.8-0.8-0.8h3.2v3.2h-6.5L498.3,239.4L498.3,239.4z M509.7,265.3h1.6c-0.1,0-0.1,0-0.2,0
		l-1.4,0.2L509.7,265.3L509.7,265.3z M509.7,258.9h1.6c-0.4,0-0.8,0.4-0.8,0.8s0.4,0.8,0.8,0.8h1.6c0.4,0,0.8-0.4,0.8-0.8
		s-0.4-0.8-0.8-0.8h3.2v3.2h-6.5v-3.2H509.7z M509.7,252.4h1.6c-0.4,0-0.8,0.4-0.8,0.8s0.4,0.8,0.8,0.8h1.6c0.4,0,0.8-0.4,0.8-0.8
		s-0.4-0.8-0.8-0.8h3.2v3.2h-6.5v-3.2H509.7z M509.7,245.9h1.6c-0.4,0-0.8,0.4-0.8,0.8c0,0.4,0.4,0.8,0.8,0.8h1.6
		c0.4,0,0.8-0.4,0.8-0.8c0-0.4-0.4-0.8-0.8-0.8h3.2v3.2h-6.5v-3.2H509.7z M509.7,239.4h1.6c-0.4,0-0.8,0.4-0.8,0.8
		c0,0.4,0.4,0.8,0.8,0.8h1.6c0.4,0,0.8-0.4,0.8-0.8c0-0.4-0.4-0.8-0.8-0.8h3.2v3.2h-6.5v-3.2H509.7z M521,258.9h1.6
		c-0.4,0-0.8,0.4-0.8,0.8s0.4,0.8,0.8,0.8h1.6c0.4,0,0.8-0.4,0.8-0.8s-0.4-0.8-0.8-0.8h6.5c-0.4,0-0.8,0.4-0.8,0.8s0.4,0.8,0.8,0.8
		h1.6c0.4,0,0.8-0.4,0.8-0.8s-0.4-0.8-0.8-0.8h1.6v3.2h-13v-3.2H521z M521,252.4h1.6c-0.4,0-0.8,0.4-0.8,0.8s0.4,0.8,0.8,0.8h1.6
		c0.4,0,0.8-0.4,0.8-0.8s-0.4-0.8-0.8-0.8h6.5c-0.4,0-0.8,0.4-0.8,0.8s0.4,0.8,0.8,0.8h1.6c0.4,0,0.8-0.4,0.8-0.8s-0.4-0.8-0.8-0.8
		h1.6v3.2h-13v-3.2H521z M521,245.9h1.6c-0.4,0-0.8,0.4-0.8,0.8c0,0.4,0.4,0.8,0.8,0.8h1.6c0.4,0,0.8-0.4,0.8-0.8
		c0-0.4-0.4-0.8-0.8-0.8h6.5c-0.4,0-0.8,0.4-0.8,0.8c0,0.4,0.4,0.8,0.8,0.8h1.6c0.4,0,0.8-0.4,0.8-0.8c0-0.4-0.4-0.8-0.8-0.8h1.6
		v3.2h-13v-3.2H521z M521,239.4h1.6c-0.4,0-0.8,0.4-0.8,0.8c0,0.4,0.4,0.8,0.8,0.8h1.6c0.4,0,0.8-0.4,0.8-0.8c0-0.4-0.4-0.8-0.8-0.8
		h6.5c-0.4,0-0.8,0.4-0.8,0.8c0,0.4,0.4,0.8,0.8,0.8h1.6c0.4,0,0.8-0.4,0.8-0.8c0-0.4-0.4-0.8-0.8-0.8h1.6v3.2h-13v-3.2H521z
		 M538.8,258.9h3.2c-0.4,0-0.8,0.4-0.8,0.8s0.4,0.8,0.8,0.8h1.6c0.4,0,0.8-0.4,0.8-0.8s-0.4-0.8-0.8-0.8h1.6v1.6v1.6h-1.6h-4.9v-3.2
		H538.8z M538.8,252.4h3.2c-0.4,0-0.8,0.4-0.8,0.8s0.4,0.8,0.8,0.8h1.6c0.4,0,0.8-0.4,0.8-0.8s-0.4-0.8-0.8-0.8h1.6v1.6v1.6h-1.6
		h-4.9v-3.2H538.8z M538.8,245.9h3.2c-0.4,0-0.8,0.4-0.8,0.8c0,0.4,0.4,0.8,0.8,0.8h1.6c0.4,0,0.8-0.4,0.8-0.8
		c0-0.4-0.4-0.8-0.8-0.8h1.6v3.2h-6.5v-3.2H538.8z M538.8,239.4h3.2c-0.4,0-0.8,0.4-0.8,0.8c0,0.4,0.4,0.8,0.8,0.8h1.6
		c0.4,0,0.8-0.4,0.8-0.8c0-0.4-0.4-0.8-0.8-0.8h1.6v3.2h-6.5v-3.2H538.8z M551.7,265.3h1.6c-0.4,0-0.8,0.4-0.8,0.8
		c0,0.1,0,0.2,0.1,0.3l-2.3-0.3h-0.2v-0.8H551.7z M521.8,269.4c0.4,0,0.8-0.4,0.8-0.8h3.2c0,0.4,0.4,0.8,0.8,0.8
		c0.4,0,0.8-0.4,0.8-0.8h3.2c0,0.4,0.4,0.8,0.8,0.8c0.4,0,0.8-0.4,0.8-0.8h1.6h1.6c0,0.4,0.4,0.8,0.8,0.8c0.4,0,0.8-0.4,0.8-0.8h1.6
		h1.6c0,0.4,0.4,0.8,0.8,0.8c0.4,0,0.8-0.4,0.8-0.8h1.5h0.1l1.6,0.2l1.6,0.2l1.6,0.2l0.8,0.1c-0.2,0.1-0.5,0.1-0.8,0.2
		c-0.5,0.1-1,0.2-1.6,0.3c-0.5,0.1-1.1,0.1-1.6,0.2c-0.6,0.1-1.1,0.1-1.6,0.1c-0.6,0-1.2,0.1-1.6,0.1h-3.2H537h-1.6h-1.6h-13h-1.6
		h-1.6H516h-3.2c-0.8,0-2-0.1-3.2-0.2c-0.5-0.1-1.1-0.1-1.6-0.2c-0.6-0.1-1.1-0.2-1.6-0.3c-0.3-0.1-0.6-0.1-0.8-0.2l0.8-0.1l1.6-0.2
		l1.6-0.2l1.6-0.2c0,0.4,0.4,0.8,0.8,0.8c0.4,0,0.8-0.4,0.8-0.8h3.2c0,0.4,0.4,0.8,0.8,0.8c0.4,0,0.8-0.4,0.8-0.8h1.6h1.6
		C521,269,521.3,269.4,521.8,269.4z M545.3,265.5l-1.4-0.2c-0.1,0-0.1,0-0.2,0h1.6L545.3,265.5L545.3,265.5z M504.8,266.1l-2.5,0.3
		c0-0.1,0.1-0.2,0.1-0.3c0-0.4-0.4-0.8-0.8-0.8h3.2L504.8,266.1L504.8,266.1z M499.9,265.3c-0.4,0-0.8,0.4-0.8,0.8
		c0,0.3,0.1,0.5,0.3,0.7l-1.1,0.1v-1.6H499.9z M556.6,266.9l-1.1-0.1c0.2-0.1,0.3-0.4,0.3-0.7c0-0.4-0.4-0.8-0.8-0.8h1.6V266.9z
		 M553.4,255.6h-3.2l0,0V254v-1.6h3.2c-0.4,0-0.8,0.4-0.8,0.8c0,0.2,0.1,0.4,0.2,0.5c0.1,0.2,0.4,0.3,0.6,0.3h1.6
		c0.4,0,0.8-0.4,0.8-0.8c0-0.1,0-0.3-0.1-0.4c-0.1-0.2-0.4-0.4-0.7-0.4h1.6l0,0v3.2H553.4z M506.4,276.7v-1.6h1.6v1.6v1.6h-1.6
		V276.7z M517.7,275.1h1.6v3.2h-1.6V275.1z M535.6,275.1h1.6v3.2h-1.6V275.1z M546.9,276.7v-1.6h1.6v1.6v1.6h-1.6V276.7z
		 M558.2,276.7v-1.6v-3.2v-1.6v-1.6V267v-1.6v-1.6v-1.6v-1.6V259v-1.6v-1.6v-0.4V254v-1.6v-0.8v-0.9v-1.6v-3.2v-1.6v-1.6v-3.2v-1.6
		v-1.6h1.6v1.6v1.6v3.2v1.6v1.6v3.2v1.2v0.4v1.6v2v1.2v1.6v1.6v1.6v1.6v1.6v1.6v1.6v1.6v1.6v1.6v3.2v1.6v1.6h-1.6V276.7z
		 M482.1,236.2h-3.2v-1.6h1.6h1.6V236.2z M407.7,252.4h-4.9v-4.9c0-0.4-0.4-0.8-0.8-0.8s-0.8,0.4-0.8,0.8v4.9H398v-4.9
		c0-0.4-0.4-0.8-0.8-0.8s-0.8,0.4-0.8,0.8v4.9h-3.2v-4.9c0-0.4-0.4-0.8-0.8-0.8s-0.8,0.4-0.8,0.8v4.9h-3.2v-4.9
		c0-0.4-0.4-0.8-0.8-0.8s-0.8,0.4-0.8,0.8v4.9h-3.2v-4.9c0-0.4-0.4-0.8-0.8-0.8s-0.8,0.4-0.8,0.8v4.9h-3.2v-4.9
		c0-0.4-0.4-0.8-0.8-0.8s-0.8,0.4-0.8,0.8v4.9h-4.9v-11.3h35.6v11.3H407.7z M331.6,270.2h4.9v4.9h-1.6v-1.6c0-0.4-0.4-0.8-0.8-0.8
		s-0.8,0.4-0.8,0.8v1.6h-1.6v-4.9H331.6z M341.3,271.8c0-0.9,0.7-1.6,1.6-1.6h3.2v6.5h-4.9L341.3,271.8L341.3,271.8z M351,271.8
		c0-0.9,0.7-1.6,1.6-1.6h3.2v6.5H351V271.8z M360.7,271.8c0-0.9,0.7-1.6,1.6-1.6h3.2v6.5h-4.9L360.7,271.8L360.7,271.8z
		 M378.5,268.6h3.2v8.1h-3.2V268.6z M386.6,268.6h8.1v8.1h-8.1V268.6z M399.6,268.6h3.2v8.1h-3.2V268.6z M407.7,276.7v-6.9
		c0.5,0.3,1,0.4,1.6,0.4h1.6v6.5H407.7z M415.8,271.8c0-0.9,0.7-1.6,1.6-1.6h3.2v6.5h-4.9L415.8,271.8L415.8,271.8z M569.5,281.5
		v-1.6v-1.6v-1.6v-1.6v-3.2v-1.6v-1.6V267v-1.6v-1.6v-1.6v-1.6V259v-1.6v-1.6v-3.2V251v-1.6v-3.2v-1.6V243v-3.2v-1.6v-1.6h1.6v1.6
		v1.6v3.2v1.6v1.6v3.2v1.6v1.6v0.9v2.3v1.6v1.6v1.6v0.8v0.8v1.6v1.6v0.8v0.8v1.6v1.6v1.6v3.2v1.6v1.6v1.6v1.6h-1.6V281.5z
		 M572.8,278.3h1.6c-0.4,0-0.8,0.4-0.8,0.8s0.4,0.8,0.8,0.8h1.6v1.6h-3.2L572.8,278.3L572.8,278.3z M577.6,279.9v-1.6v-1.6h1.6v4.9
		h-1.6V279.9z M627.8,281.5h-14.6v-4.9h14.6V281.5z M611.6,275.1H589v-9.7c0-0.9-0.7-1.6-1.6-1.6h-3.2c-0.9,0-1.6-0.7-1.6-1.6v-1.6
		h29.1v14.5H611.6z M579.3,253.6c-0.5-0.2-1.1-0.3-1.6-0.5v-21.7h1.6V253.6z M477.3,248.6l-1.6-16.7v-0.5h1.6V248.6z M470.8,221.6
		h0.6l0.2,1.6h-8.9c0-0.3,0-0.5-0.1-0.8c0-0.3,0.1-0.5,0.1-0.8H470.8z M459,220c0.3,0.5,0.4,1,0.4,1.6s-0.2,1.1-0.4,1.6
		c-0.6,1-1.6,1.6-2.8,1.6c-1.2,0-2.2-0.7-2.8-1.6c-0.3-0.5-0.4-1-0.4-1.6s0.2-1.1,0.4-1.6c0.6-1,1.6-1.6,2.8-1.6S458.5,219,459,220z
		 M433.7,263.7H432v-6.5c0-0.4-0.4-0.8-0.8-0.8s-0.8,0.4-0.8,0.8v6.5h-3.2V254c0-0.4-0.4-0.8-0.8-0.8s-0.8,0.4-0.8,0.8v9.7h-3.2v-13
		c0-0.4-0.4-0.8-0.8-0.8s-0.8,0.4-0.8,0.8v13l0,0h-3.2l0,0v-16.2c0-0.4-0.4-0.8-0.8-0.8s-0.8,0.4-0.8,0.8v16.2l0,0h-2.3l0,0
		c-0.3-0.9-0.6-1.9-0.9-3.1v-13.1c0-0.4-0.4-0.8-0.8-0.8s-0.8,0.4-0.8,0.8v5.1c-0.8-4.7-1.2-9.2-1.5-11.6h10.1
		c3.2,6.8,8.7,11.5,14.9,14.9L433.7,263.7z M360.2,241.1h10.3v10.5c-0.2,0-0.4,0.1-0.6,0.2c-0.3,0.3-0.3,0.8,0,1.1l0.6,0.6v0.5
		c0,1.7-0.1,3.4-0.3,4.9c-0.3,2.5-0.8,4.5-1.3,4.9v-4.9v-11.3c0-0.4-0.4-0.8-0.8-0.8s-0.8,0.4-0.8,0.8v16.2H364v-16.2
		c0-0.4-0.4-0.8-0.8-0.8s-0.8,0.4-0.8,0.8v16.2h-3.2v-13c0-0.4-0.4-0.8-0.8-0.8s-0.8,0.4-0.8,0.8v13h-3.2V254c0-0.4-0.4-0.8-0.8-0.8
		s-0.8,0.4-0.8,0.8v9.7h-3.2v-6.5c0-0.4-0.4-0.8-0.8-0.8s-0.8,0.4-0.8,0.8v6.5h-3.2v-4.9c0-0.4-0.4-0.8-0.8-0.8s-0.8,0.4-0.8,0.8
		v4.9H340v-3.2c0-0.4-0.4-0.8-0.8-0.8s-0.8,0.4-0.8,0.8v3.2h-3.2v-1.6c0-0.4-0.4-0.8-0.8-0.8s-0.8,0.4-0.8,0.8v1.6H332h-2
		c0-0.4-0.4-0.8-0.8-0.8s-0.8,0.4-0.8,0.8h-3.2c-2,0-3.7-0.2-5.2-0.5C331.4,261.9,352.4,257.4,360.2,241.1z M330,267v6.5
		c0-0.4-0.4-0.8-0.8-0.8s-0.8,0.4-0.8,0.8v1.6h-3.2v-1.6V267H330z M423.9,279.9v-3.2h1.6h4.9h3.2h1.6h4.9h3.2h1.6h3.2h1.6h4.9h1.6
		h1.6h4.9h9.7h3.2h1.6h1.6h3.2h1.6h1.6h1.6h1.6v1.6v3.2H487h-1.6h-1.6v-3.2c0-0.4-0.4-0.8-0.8-0.8s-0.8,0.4-0.8,0.8v3.2h-1.6H479
		h-1.6v-3.2c0-0.4-0.4-0.8-0.8-0.8s-0.8,0.4-0.8,0.8v3.2h-3.2H471v-3.2c0-0.4-0.4-0.8-0.8-0.8s-0.8,0.4-0.8,0.8v3.2h-4.9v-3.2v-0.1
		c0-0.4-0.4-0.7-0.8-0.7s-0.8,0.4-0.8,0.8v3.2h-1.6h-3.2v-1.6v-1.6c0-0.4-0.4-0.8-0.8-0.8s-0.8,0.4-0.8,0.8v1.6v1.6h-4.9v-1.6v-1.6
		c0-0.4-0.4-0.8-0.8-0.8s-0.8,0.4-0.8,0.8v1.6v1.6h-4.9v-1.6v-1.6c0-0.4-0.4-0.8-0.8-0.8s-0.8,0.4-0.8,0.8v1.6v1.6h-4.9v-1.6v-1.6
		c0-0.4-0.4-0.8-0.8-0.8s-0.8,0.4-0.8,0.8v1.6v1.6h-5v-1.6v-1.6c0-0.4-0.4-0.8-0.8-0.8c-0.2,0-0.3,0.1-0.5,0.2s-0.3,0.4-0.3,0.6v1.6
		v1.6h-6.5L423.9,279.9L423.9,279.9z M648.9,278.3v3.2h-9.7h-9.7v-4.9h9.7h9.7V278.3z M637.5,258.9h-24.3v-1.6h24.3V258.9z
		 M419,237.8h-58.3v-1.6H419V237.8z M286.7,245.9l2.5,16.2h-3v-1.6c0-0.4-0.4-0.8-0.8-0.8s-0.8,0.4-0.8,0.8v1.6h-3.2v-1.6
		c0-0.4-0.4-0.8-0.8-0.8s-0.8,0.4-0.8,0.8v1.6h-3.2v-16.2L286.7,245.9L286.7,245.9z M271.7,262.1h-1.6v-1.6c0-0.6-0.3-1.1-0.8-1.4
		c0-0.1,0-0.1,0-0.2c0-0.2-0.1-0.4-0.2-0.6s-0.4-0.2-0.6-0.2v-1.6c0-1.5,0.5-2.9,1.2-3.8c1.2,0.6,2,2.1,2,3.8V262.1z M260.4,262.1
		h-3.2v-1.6c0-0.4-0.4-0.8-0.8-0.8s-0.8,0.4-0.8,0.8v1.6h-3.2v-1.6c0-0.4-0.4-0.8-0.8-0.8s-0.8,0.4-0.8,0.8v1.6h-3l2.5-16.2h10.2
		v16.2H260.4z M215,278.3h35.6v3.2h-17.8h-19.4h-3.2h-1.6H207h-3.2h-4.4l0.8-3.2h3.6h3.2h1.6h1.6h3.2H215z M124.4,273.4h8.1h8.1v3
		v0.9v0.9v3.3h-6.5v-1.1v-0.9v-0.9v-2.1c0-0.9-0.7-1.6-1.6-1.6c-0.9,0-1.6,0.7-1.6,1.6v3.2v0.9v0.8h-2.3h-2.4h-1.8V273.4z
		 M194,257.2v-0.7l4.9-2.4l2.2,1.1l1,0.5l1,0.5l0.6,0.3v0.7v1.6h-3.2v-1.6v-0.1c0-0.3-0.1-0.5-0.3-0.8s-0.4-0.5-0.7-0.6
		c-0.2-0.1-0.4-0.1-0.6-0.1c-0.6,0-1.1,0.3-1.4,0.8c-0.1,0.2-0.2,0.5-0.2,0.8v0.2v0.9v0.6h-1.7H194v-0.3v-0.9V257.2z M194,281.5V275
		h3.2v1.4l-1.3,5.1H194z M188.3,279.1c-0.4,0-0.8,0.4-0.8,0.8v1.6H181v-1.6c0-0.4-0.4-0.8-0.8-0.8c-0.4,0-0.8,0.4-0.8,0.8v1.6h-1.6
		h-4.9v-1.6c0-0.4-0.4-0.8-0.8-0.8s-0.8,0.4-0.8,0.8v1.6h-6.5v-1.6c0-0.4-0.4-0.8-0.8-0.8c-0.4,0-0.8,0.4-0.8,0.8v1.6h-6.5v-1.6
		v-1.6h3.2h8.1h8.1h8.1h6.5v3.2h-1.6v-1.6C189.1,279.5,188.8,279.1,188.3,279.1z M164,267.8c0.4,0,0.8-0.4,0.8-0.8v-1.6h1.6v2v0.9
		v0.9v7.6h-3.2v-3.2c0,0.4,0.4,0.8,0.8,0.8c0.4,0,0.8-0.4,0.8-0.8V272c0-0.4-0.4-0.8-0.8-0.8c-0.4,0-0.8,0.4-0.8,0.8v-1.6v-0.9v-0.9
		V267C163.2,267.4,163.6,267.8,164,267.8z M188.3,271c-0.4,0-0.8,0.4-0.8,0.8V267c0,0.4,0.4,0.8,0.8,0.8s0.8-0.4,0.8-0.8v-1.6h1.6
		v11.3h-3.2v-3.2c0,0.4,0.4,0.8,0.8,0.8s0.8-0.4,0.8-0.8v-1.6C189.1,271.4,188.8,271,188.3,271z M194,260.5h4.9h4.9v13
		c0-0.4-0.4-0.8-0.8-0.8c-0.4,0-0.8,0.4-0.8,0.8h-1.6v-1.6c0-0.9-0.7-1.6-1.6-1.6c-0.9,0-1.6,0.7-1.6,1.6v1.6H194V260.5z
		 M171.3,273.4c0,0.4,0.4,0.8,0.8,0.8s0.8-0.4,0.8-0.8v-1.6c0-0.4-0.4-0.8-0.8-0.8s-0.8,0.4-0.8,0.8v-4.5V267c0,0.1,0,0.3,0.1,0.4
		c0.1,0.3,0.4,0.4,0.7,0.4c0.4,0,0.8-0.4,0.8-0.8v-0.2v-0.9v-0.6h1.6l0,0v0.9v10.4h-3.2L171.3,273.4L171.3,273.4z M180.2,271
		c-0.4,0-0.8,0.4-0.8,0.8V267c0,0.4,0.4,0.8,0.8,0.8c0.4,0,0.8-0.4,0.8-0.8v-1.6h1.6v11.3h-3.2v-3.2c0,0.4,0.4,0.8,0.8,0.8
		c0.4,0,0.8-0.4,0.8-0.8v-1.6C181,271.4,180.7,271,180.2,271z M158.4,270.2v0.9v0.9v4.8h-1.6v-3.2v-0.9V272v-0.2v-0.9V267v-1.6v-1.6
		h1.6V270.2z M210.2,273.4h-1.6v-13h1.6V273.4z M156.8,262.1v-1.6v-3.1c0.9,0.3,1.6,1.2,1.6,2.3v2.4L156.8,262.1L156.8,262.1z
		 M121.1,281.5h-6.5V275h6.5V281.5z M77.4,273.4v-1.6V267v-1.6v-1.6H79v13h-1.6V273.4z M83.9,273.4c0,0.4,0.4,0.8,0.8,0.8
		s0.8-0.4,0.8-0.8v-1.6c0-0.4-0.4-0.8-0.8-0.8s-0.8,0.4-0.8,0.8V267c0,0.4,0.4,0.8,0.8,0.8s0.8-0.4,0.8-0.8v-1.6h1.6v11.3h-3.2
		C83.9,276.7,83.9,273.4,83.9,273.4z M92,273.4c0,0.4,0.4,0.8,0.8,0.8s0.8-0.4,0.8-0.8v-1.6c0-0.4-0.4-0.8-0.8-0.8s-0.8,0.4-0.8,0.8
		V267c0,0.4,0.4,0.8,0.8,0.8s0.8-0.4,0.8-0.8v-1.6h1.6v11.3H92V273.4z M100.1,273.4c0,0.4,0.4,0.8,0.8,0.8s0.8-0.4,0.8-0.8v-1.6
		c0-0.4-0.4-0.8-0.8-0.8s-0.8,0.4-0.8,0.8V267c0,0.4,0.4,0.8,0.8,0.8s0.8-0.4,0.8-0.8v-1.6h1.6v11.3h-3.2
		C100.1,276.7,100.1,273.4,100.1,273.4z M108.2,273.4c0,0.4,0.4,0.8,0.8,0.8s0.8-0.4,0.8-0.8v-1.6c0-0.4-0.4-0.8-0.8-0.8
		s-0.8,0.4-0.8,0.8V267c0,0.4,0.4,0.8,0.8,0.8s0.8-0.4,0.8-0.8v-1.6h1.6v11.3h-3.2C108.2,276.7,108.2,273.4,108.2,273.4z
		 M77.4,262.1v-1.6v-3.1c0.9,0.3,1.6,1.2,1.6,2.3v2.4L77.4,262.1L77.4,262.1z M694.2,281.5v-0.6v-4.3h9.7v4.9h-8.6H694.2z
		 M734.7,276.7v4.9h-24.3v-4.9H734.7z M763.8,275.1h-11.3v-4.9c0-0.9-0.7-1.6-1.6-1.6s-1.6,0.7-1.6,1.6v4.9H738v-6.5h3.2h9.7h9.7
		h3.2L763.8,275.1L763.8,275.1z M763.8,281.5h-25.9v-4.9h13h13L763.8,281.5L763.8,281.5z M758.9,260.5v3.2c0-0.4-0.4-0.8-0.8-0.8
		s-0.8,0.4-0.8,0.8v1.6h-1.6v-4c0-0.4-0.4-0.8-0.8-0.8L758.9,260.5L758.9,260.5z M747.6,262.1h6.5v1.6c0-0.4-0.4-0.8-0.8-0.8
		c-0.4,0-0.8,0.4-0.8,0.8v1.6h-1.6v-1.6c0-0.4-0.4-0.8-0.8-0.8c-0.4,0-0.8,0.4-0.8,0.8v1.6h-1.6v-3.2H747.6z M746.8,260.5
		c-0.4,0-0.8,0.4-0.8,0.8v4h-1.6v-1.6c0-0.4-0.4-0.8-0.8-0.8s-0.8,0.4-0.8,0.8v-3.2L746.8,260.5L746.8,260.5z M739.5,265.3h-3.2
		h-1.6c-0.4,0-0.8,0.4-0.8,0.8s0.4,0.8,0.8,0.8v8.1h-24.3v-14.6h29.1V265.3z M703.9,275.1h-21.3h-1.8h-1.3v-0.6v-0.9v-13H691h13
		L703.9,275.1L703.9,275.1z M608.4,254v-1.6c0-0.4-0.4-0.8-0.8-0.8c-0.4,0-0.8,0.4-0.8,0.8v1.6h-1.6v-5.5c1.8-0.1,2.1-0.3,2.3-0.4
		l1.6-0.8c0.6-0.3,1-1,0.9-1.7s-0.6-1.2-1.3-1.4c-2-0.4-7.4-2.2-8.5-5.4c-0.2-0.7-0.8-1.1-1.5-1.1s-1.3,0.4-1.5,1.1
		c-1.1,3.2-6.5,5-8.5,5.4c-0.7,0.1-1.2,0.7-1.3,1.4s0.3,1.4,0.9,1.7l1.6,0.8c0.2,0.1,0.5,0.3,2.3,0.4v5.5h-1.6v-1.6
		c0-0.4-0.4-0.8-0.8-0.8s-0.8,0.4-0.8,0.8v1.6h-6.5v-21.9l32.8,10.3l22.6,11.6L608.4,254L608.4,254z M579.3,228.1h-4.1h-2.7h-2.7
		h-94.2c-0.1,0-0.2,0-0.4,0l-0.2-1.6h0.5c0,0.4,0.4,0.8,0.8,0.8s0.8-0.4,0.8-0.8h3.2c0,0.4,0.4,0.8,0.8,0.8s0.8-0.4,0.8-0.8h3.2
		c0,0.4,0.4,0.8,0.8,0.8s0.8-0.4,0.8-0.8h3.2c0,0.4,0.4,0.8,0.8,0.8s0.8-0.4,0.8-0.8h3.2c0,0.4,0.4,0.8,0.8,0.8s0.8-0.4,0.8-0.8h3.2
		c0,0.4,0.4,0.8,0.8,0.8s0.8-0.4,0.8-0.8h3.2c0,0.4,0.4,0.8,0.8,0.8s0.8-0.4,0.8-0.8h3.2c0,0.4,0.4,0.8,0.8,0.8
		c0.4,0,0.8-0.4,0.8-0.8h3.2c0,0.4,0.4,0.8,0.8,0.8s0.8-0.4,0.8-0.8h3.2c0,0.4,0.4,0.8,0.8,0.8c0.4,0,0.8-0.4,0.8-0.8h3.2
		c0,0.4,0.4,0.8,0.8,0.8s0.8-0.4,0.8-0.8h3.2c0,0.4,0.4,0.8,0.8,0.8c0.4,0,0.8-0.4,0.8-0.8h3.2c0,0.4,0.4,0.8,0.8,0.8
		c0.4,0,0.8-0.4,0.8-0.8h3.2c0,0.4,0.4,0.8,0.8,0.8s0.8-0.4,0.8-0.8h3.2c0,0.4,0.4,0.8,0.8,0.8c0.4,0,0.8-0.4,0.8-0.8h3.2
		c0,0.4,0.4,0.8,0.8,0.8s0.8-0.4,0.8-0.8h3.2c0,0.4,0.4,0.8,0.8,0.8s0.8-0.4,0.8-0.8h3.2c0,0.4,0.4,0.8,0.8,0.8
		c0.4,0,0.8-0.4,0.8-0.8h3.2c0,0.4,0.4,0.8,0.8,0.8c0.4,0,0.8-0.4,0.8-0.8l0,0h2.7h0.6c0,0.1,0,0.1,0,0.2c0.1,0.4,0.4,0.6,0.8,0.6
		c0.2,0,0.4-0.1,0.5-0.2c0.2-0.1,0.3-0.4,0.3-0.6h0.5h2.7c0,0.4,0.4,0.8,0.8,0.8s0.8-0.4,0.8-0.8h3.2c0,0.4,0.4,0.8,0.8,0.8
		s0.8-0.4,0.8-0.8h1.5l5.8,0.7C585,227.7,580.9,228.1,579.3,228.1z M477.3,223.3h-2.5l-0.2-2.2c0.9,0.1,1.8,0.3,2.7,0.3V223.3z
		 M441.8,97c0.5-0.1,1-0.4,1.2-0.8c1.6-0.4,3.5-0.8,5.1-0.8c2.1,0,4.9,0.7,6.5,1.2V97c0,0.9,0.7,1.6,1.6,1.6s1.6-0.7,1.6-1.6v-0.4
		c1.6-0.5,4.4-1.2,6.5-1.2c1.5,0,3.5,0.4,5.1,0.8c0.3,0.4,0.7,0.7,1.2,0.8l-1.2,13.7c-1.6-0.4-3.5-0.7-5.1-0.7
		c-2.9,0-6.7,1.1-8.1,1.5c-1.4-0.4-5.2-1.5-8.1-1.5c-1.6,0-3.5,0.3-5.1,0.7L441.8,97z M441.8,114.8c0.5-0.1,1-0.4,1.2-0.8
		c1.6-0.4,3.5-0.8,5.1-0.8c2.1,0,4.9,0.7,6.5,1.2v0.4c0,0.9,0.7,1.6,1.6,1.6s1.6-0.7,1.6-1.6v-0.4c1.6-0.5,4.4-1.2,6.5-1.2
		c1.5,0,3.5,0.4,5.1,0.8c0.3,0.4,0.7,0.7,1.2,0.8l-1.2,13.7c-1.6-0.4-3.5-0.7-5.1-0.7c-2.9,0-6.7,1.1-8.1,1.5
		c-1.4-0.4-5.2-1.5-8.1-1.5c-1.6,0-3.5,0.3-5.1,0.7L441.8,114.8z M441.8,132.6c0.5-0.1,1-0.4,1.2-0.8c1.6-0.4,3.5-0.8,5.1-0.8
		c2.1,0,4.9,0.7,6.5,1.2v0.4c0,0.9,0.7,1.6,1.6,1.6s1.6-0.7,1.6-1.6v-0.4c1.6-0.5,4.4-1.2,6.5-1.2c1.5,0,3.5,0.4,5.1,0.8
		c0.3,0.4,0.7,0.7,1.2,0.8l-1.2,13.7c-1.6-0.4-3.5-0.7-5.1-0.7c-2.9,0-6.7,1.1-8.1,1.5c-1.4-0.4-5.2-1.5-8.1-1.5
		c-1.6,0-3.5,0.3-5.1,0.7L441.8,132.6z M441.8,150.4c0.5-0.1,1-0.4,1.2-0.8c1.6-0.4,3.5-0.8,5.1-0.8c2.1,0,4.9,0.7,6.5,1.2v0.4
		c0,0.9,0.7,1.6,1.6,1.6s1.6-0.7,1.6-1.6V150c1.6-0.5,4.4-1.2,6.5-1.2c1.5,0,3.5,0.4,5.1,0.8c0.3,0.4,0.7,0.7,1.2,0.8l-1.2,13.7
		c-1.6-0.4-3.5-0.7-5.1-0.7c-2.9,0-6.7,1.1-8.1,1.5c-1.4-0.4-5.2-1.5-8.1-1.5c-1.6,0-3.5,0.3-5.1,0.7L441.8,150.4z M441.8,168.2
		c0.5-0.1,1-0.4,1.2-0.8c1.6-0.4,3.5-0.8,5.1-0.8c2.1,0,4.9,0.7,6.5,1.2v0.4c0,0.9,0.7,1.6,1.6,1.6s1.6-0.7,1.6-1.6v-0.4
		c1.6-0.5,4.4-1.2,6.5-1.2c1.5,0,3.5,0.4,5.1,0.8c0.3,0.4,0.7,0.7,1.2,0.8l-1.2,13.7c-1.6-0.4-3.5-0.7-5.1-0.7
		c-2.9,0-6.7,1.1-8.1,1.5c-1.4-0.4-5.2-1.5-8.1-1.5c-1.6,0-3.5,0.3-5.1,0.7L441.8,168.2z M441.8,186c0.5-0.1,1-0.4,1.2-0.8
		c1.6-0.4,3.5-0.8,5.1-0.8c2.1,0,4.9,0.7,6.5,1.2v0.4c0,0.9,0.7,1.6,1.6,1.6s1.6-0.7,1.6-1.6v-0.4c1.6-0.5,4.4-1.2,6.5-1.2
		c1.5,0,3.5,0.4,5.1,0.8c0.3,0.4,0.7,0.7,1.2,0.8l-1.2,13.7c-1.6-0.4-3.5-0.7-5.1-0.7c-2.9,0-6.7,1.1-8.1,1.5
		c-1.4-0.4-5.2-1.5-8.1-1.5c-1.6,0-3.5,0.3-5.1,0.7L441.8,186z M441.8,203.8c0.5-0.1,1-0.4,1.2-0.8c1.6-0.4,3.5-0.8,5.1-0.8
		c2.1,0,4.9,0.7,6.5,1.2v0.1v0.3c0,0.2,0,0.3,0.1,0.5c0.1,0.3,0.3,0.6,0.5,0.8c0.3,0.2,0.6,0.4,1,0.4c0.5,0,0.9-0.2,1.2-0.5
		c0.2-0.2,0.4-0.5,0.4-0.8c0-0.1,0-0.2,0-0.3v-0.4c0.1,0,0.2-0.1,0.3-0.1c1.6-0.5,4.2-1.1,6.1-1.1c1.2,0,2.7,0.3,4.1,0.6
		c0.4,0.1,0.7,0.2,1,0.2c0.1,0.1,0.2,0.3,0.3,0.4c0.2,0.2,0.6,0.4,0.9,0.4v0.3l-1,11.1l-0.1,1.6l-0.1,1.1v0.5h-3.6h-3
		c-0.3,0-0.5,0.1-0.8,0.2c-1.1-2-3.2-3.4-5.7-3.4s-4.6,1.4-5.7,3.4c-0.2-0.1-0.5-0.2-0.8-0.2h-6.6l-1.2-12.7l-0.1-0.8l-0.1-0.8
		L441.8,203.8z M255.9,234l1.8-0.6c0.5-0.2,1.7-0.2,2.2-0.1l3.3,0.8c1,0.2,2.6,0.4,3.6,0.4h3.2c1,0,2.6-0.2,3.6-0.4l3.3-0.8
		c0.5-0.1,1.7-0.1,2.2,0.1l1.8,0.6c0.2,0.1,0.3,0.1,0.5,0.1c-0.2,0.6,0,1.2,0.4,1.6l-1.7-0.6c-1.1-0.4-2.8-0.4-4-0.2l-3.3,0.8
		c-0.7,0.2-2,0.3-2.8,0.3h-3.2c-0.8,0-2.1-0.2-2.8-0.3l-3.3-0.8c-1.2-0.3-2.9-0.2-4,0.2l-1.7,0.6c0.4-0.4,0.6-1,0.4-1.6
		C255.6,234.1,255.8,234,255.9,234z M210.2,254v4.9h-1.6v-4.6V254h0.7H210.2z M203.7,247.5v6.7v0.5l-0.5-0.3l-4-2
		c-0.2-0.1-0.5-0.1-0.7,0l-4.5,2.2v-7.2h9.7V247.5z M190.8,256.4c-0.7-0.5-1.5-0.8-2.4-0.8c-2.2,0-4,1.8-4,4c0-2.2-1.8-4-4-4
		s-4,1.8-4,4c0-2.2-1.8-4-4-4s-4,1.8-4,4c0-2.2-1.8-4-4-4s-4,1.8-4,4c0-2-1.4-3.6-3.2-4v-0.1h7.3h8.1h8.1h8.1h2.4v0.9H190.8z
		 M129.6,250.7l2.9-1.4l2.9,1.4c0.1,0.1,0.2,0.1,0.4,0.1h3.2h1.6v4.9H139V254c0-0.4-0.4-0.8-0.8-0.8c-0.4,0-0.8,0.4-0.8,0.8v1.6
		h-3.2V254c0-0.9-0.7-1.6-1.6-1.6c-0.9,0-1.6,0.7-1.6,1.6v1.6h-3.2V254v-3.2h1.6C129.4,250.8,129.5,250.7,129.6,250.7z M111.4,256.4
		c-0.7-0.5-1.5-0.8-2.4-0.8c-2.2,0-4,1.8-4,4c0-2.2-1.8-4-4-4s-4,1.8-4,4c0-2.2-1.8-4-4-4s-4,1.8-4,4c0-2.2-1.8-4-4-4s-4,1.8-4,4
		c0-2-1.4-3.6-3.2-4v-0.1h7.3h8.1h8.1h8.1h2.4v0.9H111.4z M71,247.5v7.2l-4.5-2.2c-0.2-0.1-0.5-0.1-0.7,0l-4.5,2.2v-7.2H71z
		 M61.3,257.2v-0.7l4.9-2.4l4.9,2.4v0.7v1.6h-3.2v-1.6c0-0.9-0.7-1.6-1.6-1.6s-1.6,0.7-1.6,1.6v1.6h-3.2v-1.6H61.3z M66.1,260.5H71
		v13h-3.2v-1.6c0-0.9-0.7-1.6-1.6-1.6s-1.6,0.7-1.6,1.6v1.6h-3.2v-13H66.1z M61.3,275.1h4.9H71v6.5h-9.7V275.1z M770.3,265.3
		c0-0.9-0.7-1.6-1.6-1.6c-0.9,0-1.6-0.7-1.6-1.6v-1.6h3.2L770.3,265.3L770.3,265.3z M770.3,258.9h-1.6v-1.6h1.6V258.9z M714.4,251.6
		c-0.4,0-0.8,0.4-0.8,0.8v-1.6h3.2v3.2h-1.6v-1.6C715.2,251.9,714.9,251.6,714.4,251.6z M718.5,242.6c1,1.2,2.3,2.1,3.7,2.8
		c-2.1,0-5.2,0-7.3,0C716.1,244.7,717.5,243.8,718.5,242.6z M722.5,251.6c-0.4,0-0.8,0.4-0.8,0.8v1.6h-1.6v-3.2h3.2v1.6
		C723.3,251.9,723,251.6,722.5,251.6z M718.5,257.2h17.4l1.3,0.6c0.6,0.3,1.4,0.5,2.3,0.7v0.3H712v-1.6H718.5z M703.9,258.9h-24.3
		v-1.6h24.3V258.9z M678,257.2L678,257.2c-0.2,0-0.4,0.1-0.6,0.2c-0.2,0.1-0.2,0.4-0.2,0.6s0.1,0.4,0.2,0.6c0.1,0.2,0.4,0.2,0.6,0.2
		h-27h-1.8h-1.8h-1.8V258v-0.7h0.4h1.8h27L678,257.2L678,257.2z M639.7,244.2c2.8-1,5.6-2.5,6.9-4.7h0.6c0,0.4,0.4,0.8,0.8,0.8
		c0.4,0,0.8-0.4,0.8-0.8h1.6c0,0.4,0.4,0.8,0.8,0.8s0.8-0.4,0.8-0.8h1.6c0,0.4,0.4,0.8,0.8,0.8s0.8-0.4,0.8-0.8h1.6
		c0,0.4,0.4,0.8,0.8,0.8c0.4,0,0.8-0.4,0.8-0.8h1.6c0,0.4,0.4,0.8,0.8,0.8c0.4,0,0.8-0.4,0.8-0.8h1.6c0,0.4,0.4,0.8,0.8,0.8
		c0.4,0,0.8-0.4,0.8-0.8h1.6c0,0.4,0.4,0.8,0.8,0.8s0.8-0.4,0.8-0.8h1.6c0,0.4,0.4,0.8,0.8,0.8c0.1,0,0.2,0,0.3-0.1
		c1.5,1.8,4,3.1,6.4,4c-1,0.1-2,0.1-2.6,0.1h-32.4C641.7,244.3,640.8,244.3,639.7,244.2z M666.7,252.4c0-0.4-0.4-0.8-0.8-0.8
		s-0.8,0.4-0.8,0.8v1.6h-1.6v-1.6c0-0.4-0.4-0.8-0.8-0.8c-0.4,0-0.8,0.4-0.8,0.8v1.6h-1.6v-1.6c0-0.4-0.4-0.8-0.8-0.8
		c-0.4,0-0.8,0.4-0.8,0.8v1.6H657v-1.6c0-0.4-0.4-0.8-0.8-0.8c-0.4,0-0.8,0.4-0.8,0.8v1.6h-1.6v-1.6c0-0.4-0.4-0.8-0.8-0.8
		s-0.8,0.4-0.8,0.8v1.6h-1.6v-3.2h16.2v1.6H666.7z M644,250.8h4.9v3.2h-1.6v-1.6c0-0.4-0.4-0.8-0.8-0.8c-0.4,0-0.8,0.4-0.8,0.8v1.6
		H644V250.8z M671.5,254v-1.6c0-0.4-0.4-0.8-0.8-0.8c-0.4,0-0.8,0.4-0.8,0.8v1.6h-1.6v-3.2h4.9v3.2H671.5z M574.4,223.3h-14.6h-2.7
		h-2.6h-74v-1.6h3.2c0,0.4,0.4,0.8,0.8,0.8s0.8-0.4,0.8-0.8h3.2c0,0.4,0.4,0.8,0.8,0.8s0.8-0.4,0.8-0.8h3.2c0,0.4,0.4,0.8,0.8,0.8
		s0.8-0.4,0.8-0.8h3.2c0,0.4,0.4,0.8,0.8,0.8s0.8-0.4,0.8-0.8h3.2c0,0.4,0.4,0.8,0.8,0.8s0.8-0.4,0.8-0.8h3.2c0,0.4,0.4,0.8,0.8,0.8
		s0.8-0.4,0.8-0.8h3.2c0,0.4,0.4,0.8,0.8,0.8s0.8-0.4,0.8-0.8h3.2c0,0.4,0.4,0.8,0.8,0.8c0.4,0,0.8-0.4,0.8-0.8h3.2
		c0,0.4,0.4,0.8,0.8,0.8s0.8-0.4,0.8-0.8h3.2c0,0.4,0.4,0.8,0.8,0.8c0.4,0,0.8-0.4,0.8-0.8h3.2c0,0.4,0.4,0.8,0.8,0.8
		c0.4,0,0.8-0.4,0.8-0.8h3.2c0,0.4,0.4,0.8,0.8,0.8s0.8-0.4,0.8-0.8h3.2c0,0.4,0.4,0.8,0.8,0.8c0.4,0,0.8-0.4,0.8-0.8h3.2
		c0,0.4,0.4,0.8,0.8,0.8s0.8-0.4,0.8-0.8h1.8h1.4c0,0.4,0.4,0.8,0.8,0.8c0.3,0,0.6-0.2,0.7-0.5c0-0.1,0.1-0.2,0.1-0.3h1.4h1.8
		c0,0.4,0.4,0.8,0.8,0.8c0.4,0,0.8-0.4,0.8-0.8h3.2c0,0.4,0.4,0.8,0.8,0.8s0.8-0.4,0.8-0.8h3.2c0,0.4,0.4,0.8,0.8,0.8
		c0.4,0,0.8-0.4,0.8-0.8h3.2c0,0.4,0.4,0.8,0.8,0.8c0.4,0,0.8-0.4,0.8-0.8h1.6v1.6H574.4z M453.1,48.4h3.1h3.1L458,64.6h-3.5
		L453.1,48.4z M451.4,67.9h1.6h6.5h1.6v1.6h-9.7V67.9z M446.9,74.3l-0.5-1.6h3.4h9.7v1.6h-11.3H446.9z M164.9,250.8H181h9.7v3.2h-34
		v-3.2H164.9z M143.8,247.5h6.5v6.5h-1.6v-1.6c0-0.9-0.7-1.6-1.6-1.6s-1.6,0.7-1.6,1.6v1.6h-1.6v-4.9L143.8,247.5L143.8,247.5z
		 M135.7,213.5v-3.2h1.6v3.2H135.7z M132.5,204.5l2.6,2.6H130L132.5,204.5z M127.6,210.3h1.6v3.2h-1.6V210.3z M127.6,215.2h2.4
		c0.4,0,0.8-0.4,0.8-0.8v-0.8v-3.2h3.2v3.2v0.8c0,0.4,0.4,0.8,0.8,0.8h0.8v9.7H134c0-0.4-0.2-0.8-0.5-1.1c-0.6-0.6-1.7-0.6-2.3,0
		c-0.3,0.3-0.5,0.7-0.5,1.1h-3.2v-9.7H127.6z M132.5,226.5h3.2v22.6l-2.9-1.4c-0.2-0.1-0.5-0.1-0.7,0l-3.1,1.5h-1.4v-22.7
		L132.5,226.5L132.5,226.5z M114.7,247.5h6.5v1.6v4.9h-1.6v-1.6c0-0.9-0.7-1.6-1.6-1.6s-1.6,0.7-1.6,1.6v1.6h-1.6v-6.5H114.7z
		 M83.9,250.8h16.2h11.3v3.2h-34v-3.2H83.9z M54.8,254H58v4.9h-3.2V254z M54.8,275.1H58v6.5h-3.2V275.1z"/>
	
		<linearGradient id="SVGID_21_" gradientUnits="userSpaceOnUse" x1="185.3594" y1="303.8029" x2="719.3024" y2="-7.7274" gradientTransform="matrix(1 0 0 -1 0 312)">
		<stop  offset="2.296286e-02" style="stop-color:#FFE4F7"/>
		<stop  offset="1" style="stop-color:#FFB917"/>
	</linearGradient>
	<path class="st20" d="M624.6,262.1v4.9H623c-0.4,0-0.8,0.4-0.8,0.8s0.4,0.8,0.8,0.8h3.2h3.2c0.4,0,0.8-0.4,0.8-0.8
		s-0.4-0.8-0.8-0.8h-1.6v-4.9c0-0.9-0.7-1.6-1.6-1.6S624.6,261.2,624.6,262.1z"/>
	
		<linearGradient id="SVGID_22_" gradientUnits="userSpaceOnUse" x1="193.9381" y1="318.5063" x2="727.8812" y2="6.976" gradientTransform="matrix(1 0 0 -1 0 312)">
		<stop  offset="2.296286e-02" style="stop-color:#FFE4F7"/>
		<stop  offset="1" style="stop-color:#FFB917"/>
	</linearGradient>
	<path class="st21" d="M655.3,265.3h4.7h1.7l0,0c0.3,0,0.6-0.2,0.7-0.5c0-0.1,0-0.2,0-0.3c0-0.4-0.4-0.8-0.8-0.8h-1.3h-1.8h-1.8
		h-1.6c-0.4,0-0.8,0.4-0.8,0.8C654.5,265,654.9,265.3,655.3,265.3z"/>
	
		<linearGradient id="SVGID_23_" gradientUnits="userSpaceOnUse" x1="201.7908" y1="331.9654" x2="735.7338" y2="20.4351" gradientTransform="matrix(1 0 0 -1 0 312)">
		<stop  offset="2.296286e-02" style="stop-color:#FFE4F7"/>
		<stop  offset="1" style="stop-color:#FFB917"/>
	</linearGradient>
	<path class="st22" d="M689.3,262.1v4.9h-1.6c-0.4,0-0.8,0.4-0.8,0.8s0.4,0.8,0.8,0.8h3.2h3.2c0.4,0,0.8-0.4,0.8-0.8
		s-0.4-0.8-0.8-0.8h-1.6v-4.9c0-0.9-0.7-1.6-1.6-1.6S689.3,261.2,689.3,262.1z"/>
	
		<linearGradient id="SVGID_24_" gradientUnits="userSpaceOnUse" x1="181.2578" y1="296.773" x2="715.2008" y2="-14.7573" gradientTransform="matrix(1 0 0 -1 0 312)">
		<stop  offset="2.296286e-02" style="stop-color:#FFE4F7"/>
		<stop  offset="1" style="stop-color:#FFB917"/>
	</linearGradient>
	<path class="st23" d="M633.5,277.5c-0.4,0-0.8,0.4-0.8,0.8v1.6c0,0.4,0.4,0.8,0.8,0.8c0.4,0,0.8-0.4,0.8-0.8v-1.6
		C634.3,277.8,633.9,277.5,633.5,277.5z"/>
	
		<linearGradient id="SVGID_25_" gradientUnits="userSpaceOnUse" x1="194.0007" y1="318.6135" x2="727.9437" y2="7.0832" gradientTransform="matrix(1 0 0 -1 0 312)">
		<stop  offset="2.296286e-02" style="stop-color:#FFE4F7"/>
		<stop  offset="1" style="stop-color:#FFB917"/>
	</linearGradient>
	<path class="st24" d="M683.7,280.7c0.4,0,0.8-0.4,0.8-0.8v-1.6c0-0.3-0.1-0.5-0.4-0.7c0,0-0.1-0.1-0.2-0.1c-0.1,0-0.2-0.1-0.3-0.1
		c-0.4,0-0.8,0.4-0.8,0.8v1.6C682.9,280.4,683.2,280.7,683.7,280.7z"/>
	
		<linearGradient id="SVGID_26_" gradientUnits="userSpaceOnUse" x1="184.5241" y1="302.3713" x2="718.4672" y2="-9.159" gradientTransform="matrix(1 0 0 -1 0 312)">
		<stop  offset="2.296286e-02" style="stop-color:#FFE4F7"/>
		<stop  offset="1" style="stop-color:#FFB917"/>
	</linearGradient>
	<path class="st25" d="M646.4,280.7c0.4,0,0.8-0.4,0.8-0.8v-1.6c0-0.4-0.4-0.8-0.8-0.8c-0.4,0-0.8,0.4-0.8,0.8v1.6
		C645.6,280.4,646,280.7,646.4,280.7z"/>
	
		<linearGradient id="SVGID_27_" gradientUnits="userSpaceOnUse" x1="190.7108" y1="312.975" x2="724.6539" y2="1.4447" gradientTransform="matrix(1 0 0 -1 0 312)">
		<stop  offset="2.296286e-02" style="stop-color:#FFE4F7"/>
		<stop  offset="1" style="stop-color:#FFB917"/>
	</linearGradient>
	<path class="st26" d="M670.7,277.5c-0.4,0-0.8,0.4-0.8,0.8v1.6c0,0.4,0.4,0.8,0.8,0.8c0.4,0,0.8-0.4,0.8-0.8v-1.6
		C671.5,277.8,671.2,277.5,670.7,277.5z"/>
	
		<linearGradient id="SVGID_28_" gradientUnits="userSpaceOnUse" x1="182.9036" y1="299.5938" x2="716.8467" y2="-11.9363" gradientTransform="matrix(1 0 0 -1 0 312)">
		<stop  offset="2.296286e-02" style="stop-color:#FFE4F7"/>
		<stop  offset="1" style="stop-color:#FFB917"/>
	</linearGradient>
	<path class="st27" d="M639.2,279.9c0,0.4,0.4,0.8,0.8,0.8c0.4,0,0.8-0.4,0.8-0.8v-1.6c0-0.4-0.4-0.8-0.8-0.8
		c-0.4,0-0.8,0.4-0.8,0.8V279.9z"/>
	
		<linearGradient id="SVGID_29_" gradientUnits="userSpaceOnUse" x1="192.356" y1="315.7945" x2="726.299" y2="4.2643" gradientTransform="matrix(1 0 0 -1 0 312)">
		<stop  offset="2.296286e-02" style="stop-color:#FFE4F7"/>
		<stop  offset="1" style="stop-color:#FFB917"/>
	</linearGradient>
	<path class="st28" d="M677.2,277.5c-0.4,0-0.8,0.4-0.8,0.8v1.6c0,0.4,0.4,0.8,0.8,0.8s0.8-0.4,0.8-0.8v-1.6
		C678,277.8,677.6,277.5,677.2,277.5z"/>
	
		<linearGradient id="SVGID_30_" gradientUnits="userSpaceOnUse" x1="210.0374" y1="346.0995" x2="743.9805" y2="34.5692" gradientTransform="matrix(1 0 0 -1 0 312)">
		<stop  offset="2.296286e-02" style="stop-color:#FFE4F7"/>
		<stop  offset="1" style="stop-color:#FFB917"/>
	</linearGradient>
	<path class="st29" d="M746.8,277.5c-0.4,0-0.8,0.4-0.8,0.8v1.6c0,0.4,0.4,0.8,0.8,0.8c0.4,0,0.8-0.4,0.8-0.8v-1.6
		C747.6,277.8,747.3,277.5,746.8,277.5z"/>
	
		<linearGradient id="SVGID_31_" gradientUnits="userSpaceOnUse" x1="208.3866" y1="343.2702" x2="742.3297" y2="31.7399" gradientTransform="matrix(1 0 0 -1 0 312)">
		<stop  offset="2.296286e-02" style="stop-color:#FFE4F7"/>
		<stop  offset="1" style="stop-color:#FFB917"/>
	</linearGradient>
	<path class="st30" d="M740.3,277.5c-0.4,0-0.8,0.4-0.8,0.8v1.6c0,0.4,0.4,0.8,0.8,0.8c0.4,0,0.8-0.4,0.8-0.8v-1.6
		C741.1,277.8,740.8,277.5,740.3,277.5z"/>
	
		<linearGradient id="SVGID_32_" gradientUnits="userSpaceOnUse" x1="212.0791" y1="349.5988" x2="746.0222" y2="38.0685" gradientTransform="matrix(1 0 0 -1 0 312)">
		<stop  offset="2.296286e-02" style="stop-color:#FFE4F7"/>
		<stop  offset="1" style="stop-color:#FFB917"/>
	</linearGradient>
	<path class="st31" d="M754.9,280.7c0.4,0,0.8-0.4,0.8-0.8v-1.6c0-0.4-0.4-0.8-0.8-0.8s-0.8,0.4-0.8,0.8v1.6
		C754.1,280.4,754.5,280.7,754.9,280.7z"/>
	
		<linearGradient id="SVGID_33_" gradientUnits="userSpaceOnUse" x1="213.7242" y1="352.4185" x2="747.6672" y2="40.8882" gradientTransform="matrix(1 0 0 -1 0 312)">
		<stop  offset="2.296286e-02" style="stop-color:#FFE4F7"/>
		<stop  offset="1" style="stop-color:#FFB917"/>
	</linearGradient>
	<path class="st32" d="M761.4,280.7c0.4,0,0.8-0.4,0.8-0.8v-1.6c0-0.4-0.4-0.8-0.8-0.8c-0.4,0-0.8,0.4-0.8,0.8v1.6
		C760.6,280.4,760.9,280.7,761.4,280.7z"/>
	
		<linearGradient id="SVGID_34_" gradientUnits="userSpaceOnUse" x1="166.8127" y1="272.015" x2="700.7557" y2="-39.5153" gradientTransform="matrix(1 0 0 -1 0 312)">
		<stop  offset="2.296286e-02" style="stop-color:#FFE4F7"/>
		<stop  offset="1" style="stop-color:#FFB917"/>
	</linearGradient>
	<path class="st33" d="M563.9,272.6c0,0.4,0.4,0.8,0.8,0.8h1.6c0.4,0,0.8-0.4,0.8-0.8s-0.4-0.8-0.8-0.8h-1.6
		C564.2,271.8,563.9,272.2,563.9,272.6z"/>
	
		<linearGradient id="SVGID_35_" gradientUnits="userSpaceOnUse" x1="163.9429" y1="267.0964" x2="697.886" y2="-44.4338" gradientTransform="matrix(1 0 0 -1 0 312)">
		<stop  offset="2.296286e-02" style="stop-color:#FFE4F7"/>
		<stop  offset="1" style="stop-color:#FFB917"/>
	</linearGradient>
	<path class="st34" d="M555,271.8h-1.6c-0.4,0-0.8,0.4-0.8,0.8s0.4,0.8,0.8,0.8h1.6c0.4,0,0.8-0.4,0.8-0.8S555.4,271.8,555,271.8z"
		/>
	
		<linearGradient id="SVGID_36_" gradientUnits="userSpaceOnUse" x1="145.0347" y1="234.6892" x2="678.9778" y2="-76.8411" gradientTransform="matrix(1 0 0 -1 0 312)">
		<stop  offset="2.296286e-02" style="stop-color:#FFE4F7"/>
		<stop  offset="1" style="stop-color:#FFB917"/>
	</linearGradient>
	<path class="st35" d="M451.4,260.5h1.6h8.1c0.4,0,0.7-0.1,1-0.3c0.4-0.3,0.6-0.8,0.6-1.3c0-0.9-0.7-1.6-1.6-1.6h-9.7
		c-0.6,0-1.2,0.4-1.4,0.9c-0.1,0.2-0.2,0.5-0.2,0.7c0,0.4,0.1,0.7,0.3,1C450.4,260.2,450.9,260.5,451.4,260.5z"/>
	
		<linearGradient id="SVGID_37_" gradientUnits="userSpaceOnUse" x1="154.2148" y1="250.4231" x2="688.1579" y2="-61.1072" gradientTransform="matrix(1 0 0 -1 0 312)">
		<stop  offset="2.296286e-02" style="stop-color:#FFE4F7"/>
		<stop  offset="1" style="stop-color:#FFB917"/>
	</linearGradient>
	<path class="st36" d="M451.4,239.4h9.7c0.9,0,1.6-0.7,1.6-1.6c0-0.9-0.7-1.6-1.6-1.6h-9.7c-0.9,0-1.6,0.7-1.6,1.6
		S450.5,239.4,451.4,239.4z"/>
	
		<linearGradient id="SVGID_38_" gradientUnits="userSpaceOnUse" x1="151.5501" y1="245.8559" x2="685.4932" y2="-65.6743" gradientTransform="matrix(1 0 0 -1 0 312)">
		<stop  offset="2.296286e-02" style="stop-color:#FFE4F7"/>
		<stop  offset="1" style="stop-color:#FFB917"/>
	</linearGradient>
	<path class="st37" d="M447.3,240.3c0.4,0,0.8-0.4,0.8-0.8v-1.6c0-0.4-0.4-0.8-0.8-0.8s-0.8,0.4-0.8,0.8v1.6
		C446.5,239.9,446.9,240.3,447.3,240.3z"/>
	
		<linearGradient id="SVGID_39_" gradientUnits="userSpaceOnUse" x1="156.6467" y1="254.5913" x2="690.5898" y2="-56.939" gradientTransform="matrix(1 0 0 -1 0 312)">
		<stop  offset="2.296286e-02" style="stop-color:#FFE4F7"/>
		<stop  offset="1" style="stop-color:#FFB917"/>
	</linearGradient>
	<path class="st38" d="M453,233h6.5c0.4,0,0.8-0.4,0.8-0.8c0-0.4-0.4-0.8-0.8-0.8H453c-0.4,0-0.8,0.4-0.8,0.8S452.5,233,453,233z"/>
	
		<linearGradient id="SVGID_40_" gradientUnits="userSpaceOnUse" x1="151.7337" y1="246.1707" x2="685.6768" y2="-65.3596" gradientTransform="matrix(1 0 0 -1 0 312)">
		<stop  offset="2.296286e-02" style="stop-color:#FFE4F7"/>
		<stop  offset="1" style="stop-color:#FFB917"/>
	</linearGradient>
	<path class="st39" d="M459.5,242.7H453c-0.4,0-0.8,0.4-0.8,0.8s0.4,0.8,0.8,0.8h6.5c0.4,0,0.8-0.4,0.8-0.8S459.9,242.7,459.5,242.7
		z"/>
	
		<linearGradient id="SVGID_41_" gradientUnits="userSpaceOnUse" x1="149.6443" y1="242.5898" x2="683.5875" y2="-68.9405" gradientTransform="matrix(1 0 0 -1 0 312)">
		<stop  offset="2.296286e-02" style="stop-color:#FFE4F7"/>
		<stop  offset="1" style="stop-color:#FFB917"/>
	</linearGradient>
	<path class="st40" d="M459.5,247.5H453c-0.4,0-0.8,0.4-0.8,0.8c0,0.4,0.4,0.8,0.8,0.8h6.5c0.4,0,0.8-0.4,0.8-0.8
		S459.9,247.5,459.5,247.5z"/>
	
		<linearGradient id="SVGID_42_" gradientUnits="userSpaceOnUse" x1="147.5115" y1="238.9342" x2="681.4547" y2="-72.5961" gradientTransform="matrix(1 0 0 -1 0 312)">
		<stop  offset="2.296286e-02" style="stop-color:#FFE4F7"/>
		<stop  offset="1" style="stop-color:#FFB917"/>
	</linearGradient>
	<path class="st41" d="M459.5,252.4H453c-0.4,0-0.8,0.4-0.8,0.8s0.4,0.8,0.8,0.8h6.5c0.4,0,0.8-0.4,0.8-0.8S459.9,252.4,459.5,252.4
		z"/>
	
		<linearGradient id="SVGID_43_" gradientUnits="userSpaceOnUse" x1="156.0706" y1="253.6038" x2="690.0137" y2="-57.9264" gradientTransform="matrix(1 0 0 -1 0 312)">
		<stop  offset="2.296286e-02" style="stop-color:#FFE4F7"/>
		<stop  offset="1" style="stop-color:#FFB917"/>
	</linearGradient>
	<path class="st42" d="M465.1,240.3c0.4,0,0.8-0.4,0.8-0.8v-1.6c0-0.4-0.4-0.8-0.8-0.8s-0.8,0.4-0.8,0.8v1.6
		C464.3,239.9,464.7,240.3,465.1,240.3z"/>
	
		<linearGradient id="SVGID_44_" gradientUnits="userSpaceOnUse" x1="143.1162" y1="231.4007" x2="677.0593" y2="-80.1295" gradientTransform="matrix(1 0 0 -1 0 312)">
		<stop  offset="2.296286e-02" style="stop-color:#FFE4F7"/>
		<stop  offset="1" style="stop-color:#FFB917"/>
	</linearGradient>
	<path class="st43" d="M447.3,259.7c0.3,0,0.5-0.1,0.7-0.3c0.1-0.1,0.2-0.3,0.2-0.5v-1.2v-0.4c0-0.4-0.4-0.8-0.8-0.8
		s-0.8,0.3-0.8,0.8l0,0v1.6c0,0,0,0,0,0.1C446.6,259.4,446.9,259.7,447.3,259.7z"/>
	
		<linearGradient id="SVGID_45_" gradientUnits="userSpaceOnUse" x1="147.6263" y1="239.1308" x2="681.5693" y2="-72.3996" gradientTransform="matrix(1 0 0 -1 0 312)">
		<stop  offset="2.296286e-02" style="stop-color:#FFE4F7"/>
		<stop  offset="1" style="stop-color:#FFB917"/>
	</linearGradient>
	<path class="st44" d="M465.1,259.7c0.4,0,0.8-0.4,0.8-0.8v-1.6c0-0.4-0.4-0.8-0.8-0.8s-0.8,0.4-0.8,0.8v1.6
		C464.3,259.3,464.7,259.7,465.1,259.7z"/>
	
		<linearGradient id="SVGID_46_" gradientUnits="userSpaceOnUse" x1="90.5868" y1="141.3687" x2="624.5298" y2="-170.1616" gradientTransform="matrix(1 0 0 -1 0 312)">
		<stop  offset="2.296286e-02" style="stop-color:#FFE4F7"/>
		<stop  offset="1" style="stop-color:#FFB917"/>
	</linearGradient>
	<path class="st45" d="M253.9,268.6h6.5c0.4,0,0.8-0.4,0.8-0.8s-0.4-0.8-0.8-0.8h-6.5c-0.4,0-0.8,0.4-0.8,0.8
		S253.4,268.6,253.9,268.6z"/>
	
		<linearGradient id="SVGID_47_" gradientUnits="userSpaceOnUse" x1="93.3823" y1="146.1601" x2="627.3254" y2="-165.3701" gradientTransform="matrix(1 0 0 -1 0 312)">
		<stop  offset="2.296286e-02" style="stop-color:#FFE4F7"/>
		<stop  offset="1" style="stop-color:#FFB917"/>
	</linearGradient>
	<path class="st46" d="M270.1,270.2h1.6c0.4,0,0.8-0.4,0.8-0.8s-0.4-0.8-0.8-0.8h-1.6c-0.4,0-0.8,0.4-0.8,0.8
		C269.3,269.8,269.6,270.2,270.1,270.2z"/>
	
		<linearGradient id="SVGID_48_" gradientUnits="userSpaceOnUse" x1="90.553" y1="141.3109" x2="624.4961" y2="-170.2194" gradientTransform="matrix(1 0 0 -1 0 312)">
		<stop  offset="2.296286e-02" style="stop-color:#FFE4F7"/>
		<stop  offset="1" style="stop-color:#FFB917"/>
	</linearGradient>
	<path class="st47" d="M270.1,276.7h1.6c0.4,0,0.8-0.4,0.8-0.8s-0.4-0.8-0.8-0.8h-1.6c-0.4,0-0.8,0.4-0.8,0.8
		C269.3,276.3,269.6,276.7,270.1,276.7z"/>
	
		<linearGradient id="SVGID_49_" gradientUnits="userSpaceOnUse" x1="90.7506" y1="141.6496" x2="624.6937" y2="-169.8806" gradientTransform="matrix(1 0 0 -1 0 312)">
		<stop  offset="2.296286e-02" style="stop-color:#FFE4F7"/>
		<stop  offset="1" style="stop-color:#FFB917"/>
	</linearGradient>
	<path class="st48" d="M265.2,273.4h1.6c0.4,0,0.8-0.4,0.8-0.8s-0.4-0.8-0.8-0.8h-1.6c-0.4,0-0.8,0.4-0.8,0.8
		S264.8,273.4,265.2,273.4z"/>
	
		<linearGradient id="SVGID_50_" gradientUnits="userSpaceOnUse" x1="87.9214" y1="136.8004" x2="621.8644" y2="-174.7299" gradientTransform="matrix(1 0 0 -1 0 312)">
		<stop  offset="2.296286e-02" style="stop-color:#FFE4F7"/>
		<stop  offset="1" style="stop-color:#FFB917"/>
	</linearGradient>
	<path class="st49" d="M265.2,279.9h1.6c0.4,0,0.8-0.4,0.8-0.8s-0.4-0.8-0.8-0.8h-1.6c-0.4,0-0.8,0.4-0.8,0.8
		S264.8,279.9,265.2,279.9z"/>
	
		<linearGradient id="SVGID_51_" gradientUnits="userSpaceOnUse" x1="91.9549" y1="143.7135" x2="625.898" y2="-167.8167" gradientTransform="matrix(1 0 0 -1 0 312)">
		<stop  offset="2.296286e-02" style="stop-color:#FFE4F7"/>
		<stop  offset="1" style="stop-color:#FFB917"/>
	</linearGradient>
	<path class="st50" d="M265.2,270.2c0.2,0,0.4-0.1,0.6-0.2c0.1-0.1,0.2-0.4,0.2-0.6s-0.1-0.4-0.2-0.6c-0.3-0.3-0.8-0.3-1.1,0
		c-0.1,0.1-0.2,0.4-0.2,0.6s0.1,0.4,0.2,0.6C264.8,270.1,265,270.2,265.2,270.2z"/>
	
		<linearGradient id="SVGID_52_" gradientUnits="userSpaceOnUse" x1="92.1487" y1="144.0459" x2="626.0919" y2="-167.4844" gradientTransform="matrix(1 0 0 -1 0 312)">
		<stop  offset="2.296286e-02" style="stop-color:#FFE4F7"/>
		<stop  offset="1" style="stop-color:#FFB917"/>
	</linearGradient>
	<path class="st51" d="M271.1,272.1c-0.2,0.1-0.2,0.4-0.2,0.6s0.1,0.4,0.2,0.6s0.4,0.2,0.6,0.2s0.4-0.1,0.6-0.2
		c0.1-0.1,0.2-0.4,0.2-0.6s-0.1-0.4-0.2-0.6C272,271.8,271.4,271.8,271.1,272.1z"/>
	
		<linearGradient id="SVGID_53_" gradientUnits="userSpaceOnUse" x1="89.372" y1="139.2866" x2="623.3151" y2="-172.2437" gradientTransform="matrix(1 0 0 -1 0 312)">
		<stop  offset="2.296286e-02" style="stop-color:#FFE4F7"/>
		<stop  offset="1" style="stop-color:#FFB917"/>
	</linearGradient>
	<path class="st52" d="M271.1,278.5c-0.1,0.2-0.2,0.4-0.2,0.6s0.1,0.4,0.2,0.6c0.1,0.1,0.4,0.2,0.6,0.2s0.4-0.1,0.6-0.2
		s0.2-0.4,0.2-0.6s-0.1-0.4-0.2-0.6C272,278.2,271.4,278.2,271.1,278.5z"/>
	
		<linearGradient id="SVGID_54_" gradientUnits="userSpaceOnUse" x1="89.1256" y1="138.8643" x2="623.0687" y2="-172.6659" gradientTransform="matrix(1 0 0 -1 0 312)">
		<stop  offset="2.296286e-02" style="stop-color:#FFE4F7"/>
		<stop  offset="1" style="stop-color:#FFB917"/>
	</linearGradient>
	<path class="st53" d="M265.2,276.7c0.2,0,0.4-0.1,0.6-0.2c0.1-0.1,0.2-0.4,0.2-0.6s-0.1-0.4-0.2-0.6c-0.3-0.3-0.8-0.3-1.1,0
		c-0.1,0.1-0.2,0.4-0.2,0.6s0.1,0.4,0.2,0.6C264.8,276.6,265,276.7,265.2,276.7z"/>
	
		<linearGradient id="SVGID_55_" gradientUnits="userSpaceOnUse" x1="96.332" y1="151.2156" x2="630.2751" y2="-160.3146" gradientTransform="matrix(1 0 0 -1 0 312)">
		<stop  offset="2.296286e-02" style="stop-color:#FFE4F7"/>
		<stop  offset="1" style="stop-color:#FFB917"/>
	</linearGradient>
	<path class="st54" d="M276.5,268.6h6.5c0.4,0,0.8-0.4,0.8-0.8s-0.4-0.8-0.8-0.8h-6.5c-0.4,0-0.8,0.4-0.8,0.8
		S276.1,268.6,276.5,268.6z"/>
	
		<linearGradient id="SVGID_56_" gradientUnits="userSpaceOnUse" x1="94.9391" y1="148.8283" x2="628.8822" y2="-162.702" gradientTransform="matrix(1 0 0 -1 0 312)">
		<stop  offset="2.296286e-02" style="stop-color:#FFE4F7"/>
		<stop  offset="1" style="stop-color:#FFB917"/>
	</linearGradient>
	<path class="st55" d="M276.5,271.8h6.5c0.4,0,0.8-0.4,0.8-0.8s-0.4-0.8-0.8-0.8h-6.5c-0.4,0-0.8,0.4-0.8,0.8
		S276.1,271.8,276.5,271.8z"/>
	
		<linearGradient id="SVGID_57_" gradientUnits="userSpaceOnUse" x1="93.5027" y1="146.3664" x2="627.4457" y2="-165.1638" gradientTransform="matrix(1 0 0 -1 0 312)">
		<stop  offset="2.296286e-02" style="stop-color:#FFE4F7"/>
		<stop  offset="1" style="stop-color:#FFB917"/>
	</linearGradient>
	<path class="st56" d="M276.5,275.1h6.5c0.4,0,0.8-0.4,0.8-0.8s-0.4-0.8-0.8-0.8h-6.5c-0.4,0-0.8,0.4-0.8,0.8
		S276.1,275.1,276.5,275.1z"/>
	
		<linearGradient id="SVGID_58_" gradientUnits="userSpaceOnUse" x1="92.1098" y1="143.9791" x2="626.0529" y2="-167.5512" gradientTransform="matrix(1 0 0 -1 0 312)">
		<stop  offset="2.296286e-02" style="stop-color:#FFE4F7"/>
		<stop  offset="1" style="stop-color:#FFB917"/>
	</linearGradient>
	<path class="st57" d="M276.5,278.3h6.5c0.4,0,0.8-0.4,0.8-0.8s-0.4-0.8-0.8-0.8h-6.5c-0.4,0-0.8,0.4-0.8,0.8
		S276.1,278.3,276.5,278.3z"/>
	
		<linearGradient id="SVGID_59_" gradientUnits="userSpaceOnUse" x1="89.1939" y1="138.9814" x2="623.137" y2="-172.5488" gradientTransform="matrix(1 0 0 -1 0 312)">
		<stop  offset="2.296286e-02" style="stop-color:#FFE4F7"/>
		<stop  offset="1" style="stop-color:#FFB917"/>
	</linearGradient>
	<path class="st58" d="M253.9,271.8h6.5c0.4,0,0.8-0.4,0.8-0.8s-0.4-0.8-0.8-0.8h-6.5c-0.4,0-0.8,0.4-0.8,0.8
		S253.4,271.8,253.9,271.8z"/>
	
		<linearGradient id="SVGID_60_" gradientUnits="userSpaceOnUse" x1="87.7575" y1="136.5195" x2="621.7006" y2="-175.0108" gradientTransform="matrix(1 0 0 -1 0 312)">
		<stop  offset="2.296286e-02" style="stop-color:#FFE4F7"/>
		<stop  offset="1" style="stop-color:#FFB917"/>
	</linearGradient>
	<path class="st59" d="M253.9,275.1h6.5c0.4,0,0.8-0.4,0.8-0.8s-0.4-0.8-0.8-0.8h-6.5c-0.4,0-0.8,0.4-0.8,0.8
		S253.4,275.1,253.9,275.1z"/>
	
		<linearGradient id="SVGID_61_" gradientUnits="userSpaceOnUse" x1="86.3646" y1="134.1322" x2="620.3076" y2="-177.3981" gradientTransform="matrix(1 0 0 -1 0 312)">
		<stop  offset="2.296286e-02" style="stop-color:#FFE4F7"/>
		<stop  offset="1" style="stop-color:#FFB917"/>
	</linearGradient>
	<path class="st60" d="M253.9,278.3h6.5c0.4,0,0.8-0.4,0.8-0.8s-0.4-0.8-0.8-0.8h-6.5c-0.4,0-0.8,0.4-0.8,0.8
		S253.4,278.3,253.9,278.3z"/>
	
		<linearGradient id="SVGID_62_" gradientUnits="userSpaceOnUse" x1="136.8443" y1="220.6511" x2="670.7874" y2="-90.8791" gradientTransform="matrix(1 0 0 -1 0 312)">
		<stop  offset="2.296286e-02" style="stop-color:#FFE4F7"/>
		<stop  offset="1" style="stop-color:#FFB917"/>
	</linearGradient>
	<path class="st61" d="M296.4,191.8c0.1,0.4,0.4,0.7,0.8,0.7h7.3c0.4,0,0.8-0.3,0.8-0.7l0.9-7.3c0.1-0.9-0.2-1.7-0.7-2.3
		c-0.6-0.6-1.3-1-2.2-1h-4.9c-0.9,0-1.7,0.3-2.2,1c-0.6,0.6-0.8,1.5-0.7,2.4L296.4,191.8z"/>
	
		<linearGradient id="SVGID_63_" gradientUnits="userSpaceOnUse" x1="133.7231" y1="215.3018" x2="667.6662" y2="-96.2285" gradientTransform="matrix(1 0 0 -1 0 312)">
		<stop  offset="2.296286e-02" style="stop-color:#FFE4F7"/>
		<stop  offset="1" style="stop-color:#FFB917"/>
	</linearGradient>
	<path class="st62" d="M268.5,180.5c0.1,0.4,0.4,0.7,0.8,0.7h4.9c0.4,0,0.8-0.3,0.8-0.7l0.6-4.9c0.1-0.7-0.1-1.3-0.5-1.8
		s-1-0.7-1.7-0.7h-3.2c-0.7,0-1.3,0.3-1.7,0.7c-0.4,0.5-0.6,1.1-0.5,1.8L268.5,180.5z"/>
	
		<linearGradient id="SVGID_64_" gradientUnits="userSpaceOnUse" x1="116.9276" y1="186.5153" x2="650.8707" y2="-125.015" gradientTransform="matrix(1 0 0 -1 0 312)">
		<stop  offset="2.296286e-02" style="stop-color:#FFE4F7"/>
		<stop  offset="1" style="stop-color:#FFB917"/>
	</linearGradient>
	<path class="st63" d="M243,206.4c0.1,0.4,0.4,0.7,0.8,0.7h7.3c0.4,0,0.8-0.3,0.8-0.7l0.9-7.3c0.1-0.9-0.2-1.7-0.7-2.3
		c-0.6-0.6-1.3-1-2.2-1H245c-0.9,0-1.7,0.3-2.2,1c-0.6,0.6-0.8,1.5-0.7,2.4L243,206.4z"/>
	
		<linearGradient id="SVGID_65_" gradientUnits="userSpaceOnUse" x1="150.8863" y1="244.7183" x2="684.8293" y2="-66.812" gradientTransform="matrix(1 0 0 -1 0 312)">
		<stop  offset="2.296286e-02" style="stop-color:#FFE4F7"/>
		<stop  offset="1" style="stop-color:#FFB917"/>
	</linearGradient>
	<path class="st64" d="M313.8,167.5c0.1,0.4,0.4,0.7,0.8,0.7h4.9c0.4,0,0.8-0.3,0.8-0.7l0.6-4.9c0.1-0.7-0.1-1.3-0.5-1.8
		s-1-0.7-1.7-0.7h-3.2c-0.7,0-1.3,0.3-1.7,0.7c-0.4,0.5-0.6,1.1-0.5,1.8L313.8,167.5z"/>
	
		<linearGradient id="SVGID_66_" gradientUnits="userSpaceOnUse" x1="141.5148" y1="228.656" x2="675.4579" y2="-82.8743" gradientTransform="matrix(1 0 0 -1 0 312)">
		<stop  offset="2.296286e-02" style="stop-color:#FFE4F7"/>
		<stop  offset="1" style="stop-color:#FFB917"/>
	</linearGradient>
	<path class="st65" d="M336.9,204.7c0.1,0.4,0.4,0.7,0.8,0.7h7.3c0.4,0,0.8-0.3,0.8-0.7l0.9-7.3c0.1-0.9-0.2-1.7-0.7-2.3
		c-0.6-0.6-1.3-1-2.2-1h-4.9c-0.9,0-1.7,0.3-2.2,1c-0.6,0.6-0.8,1.5-0.7,2.4L336.9,204.7z"/>
</g>
</svg>
