<?xml version="1.0" encoding="utf-8"?>
<!-- Generator: Adobe Illustrator 22.1.0, SVG Export Plug-In . SVG Version: 6.00 Build 0)  -->
<svg version="1.1" id="圖層_1" xmlns="http://www.w3.org/2000/svg" xmlns:xlink="http://www.w3.org/1999/xlink" x="0px" y="0px"
	 viewBox="0 0 820 312" style="enable-background:new 0 0 820 312;" xml:space="preserve">
<style type="text/css">
	.st0{fill:url(#SVGID_1_);}
	.st1{fill:url(#SVGID_2_);}
	.st2{fill:url(#SVGID_3_);}
	.st3{fill:url(#SVGID_4_);}
	.st4{fill:url(#SVGID_5_);}
	.st5{fill:url(#SVGID_6_);}
	.st6{fill:url(#SVGID_7_);}
	.st7{fill:url(#SVGID_8_);}
	.st8{fill:url(#SVGID_9_);}
	.st9{fill:url(#SVGID_10_);}
	.st10{fill:url(#SVGID_11_);}
	.st11{fill:url(#SVGID_12_);}
	.st12{fill:url(#SVGID_13_);}
	.st13{fill:url(#SVGID_14_);}
	.st14{fill:url(#SVGID_15_);}
	.st15{fill:url(#SVGID_16_);}
	.st16{fill:url(#SVGID_17_);}
	.st17{fill:url(#SVGID_18_);}
	.st18{fill:url(#SVGID_19_);}
	.st19{fill:url(#SVGID_20_);}
	.st20{fill:url(#SVGID_21_);}
	.st21{fill:url(#SVGID_22_);}
	.st22{fill:url(#SVGID_23_);}
	.st23{fill:url(#SVGID_24_);}
	.st24{fill:url(#SVGID_25_);}
	.st25{fill:url(#SVGID_26_);}
	.st26{fill:url(#SVGID_27_);}
	.st27{fill:url(#SVGID_28_);}
	.st28{fill:url(#SVGID_29_);}
	.st29{fill:url(#SVGID_30_);}
	.st30{fill:url(#SVGID_31_);}
	.st31{fill:url(#SVGID_32_);}
	.st32{fill:url(#SVGID_33_);}
	.st33{fill:url(#SVGID_34_);}
	.st34{fill:url(#SVGID_35_);}
	.st35{fill:url(#SVGID_36_);}
	.st36{fill:url(#SVGID_37_);}
	.st37{fill:url(#SVGID_38_);}
	.st38{fill:url(#SVGID_39_);}
	.st39{fill:url(#SVGID_40_);}
	.st40{fill:url(#SVGID_41_);}
	.st41{fill:url(#SVGID_42_);}
	.st42{fill:url(#SVGID_43_);}
	.st43{fill:url(#SVGID_44_);}
	.st44{fill:url(#SVGID_45_);}
	.st45{fill:url(#SVGID_46_);}
	.st46{fill:url(#SVGID_47_);}
	.st47{fill:url(#SVGID_48_);}
	.st48{fill:url(#SVGID_49_);}
	.st49{fill:url(#SVGID_50_);}
	.st50{fill:url(#SVGID_51_);}
	.st51{fill:url(#SVGID_52_);}
	.st52{fill:url(#SVGID_53_);}
	.st53{fill:url(#SVGID_54_);}
	.st54{fill:url(#SVGID_55_);}
	.st55{fill:url(#SVGID_56_);}
	.st56{fill:url(#SVGID_57_);}
	.st57{fill:url(#SVGID_58_);}
	.st58{fill:url(#SVGID_59_);}
	.st59{fill:url(#SVGID_60_);}
	.st60{fill:url(#SVGID_61_);}
	.st61{fill:url(#SVGID_62_);}
	.st62{fill:url(#SVGID_63_);}
	.st63{fill:url(#SVGID_64_);}
	.st64{fill:url(#SVGID_65_);}
	.st65{fill:url(#SVGID_66_);}
</style>
<g>
	
		<linearGradient id="SVGID_1_" gradientUnits="userSpaceOnUse" x1="128.0495" y1="89.4752" x2="132.1395" y2="88.0287" gradientTransform="matrix(1 0 0 -1 0 312)">
		<stop  offset="2.296278e-02" style="stop-color:#FEFF9B"/>
		<stop  offset="1" style="stop-color:#00A99D"/>
	</linearGradient>
	<path class="st0" d="M130.1,226.5c0.9,0,1.6-0.7,1.6-1.6v-3.3c0-0.9-0.7-1.6-1.6-1.6c-0.9,0-1.6,0.7-1.6,1.6v3.3
		C128.5,225.8,129.2,226.5,130.1,226.5z"/>
	
		<linearGradient id="SVGID_2_" gradientUnits="userSpaceOnUse" x1="128.2887" y1="77.1406" x2="131.8674" y2="75.875" gradientTransform="matrix(1 0 0 -1 0 312)">
		<stop  offset="2.296278e-02" style="stop-color:#FEFF9B"/>
		<stop  offset="1" style="stop-color:#00A99D"/>
	</linearGradient>
	<path class="st1" d="M130.1,237.9c0.9,0,1.6-0.7,1.6-1.6v-1.6c0-0.9-0.7-1.6-1.6-1.6c-0.9,0-1.6,0.7-1.6,1.6v1.6
		C128.5,237.2,129.2,237.9,130.1,237.9z"/>
	
		<linearGradient id="SVGID_3_" gradientUnits="userSpaceOnUse" x1="128.2996" y1="65.7873" x2="131.8783" y2="64.5216" gradientTransform="matrix(1 0 0 -1 0 312)">
		<stop  offset="2.296278e-02" style="stop-color:#FEFF9B"/>
		<stop  offset="1" style="stop-color:#00A99D"/>
	</linearGradient>
	<path class="st2" d="M130.1,249.3c0.9,0,1.6-0.7,1.6-1.6V246c0-0.9-0.7-1.6-1.6-1.6c-0.9,0-1.6,0.7-1.6,1.6v1.6
		C128.5,248.6,129.2,249.3,130.1,249.3z"/>
	
		<linearGradient id="SVGID_4_" gradientUnits="userSpaceOnUse" x1="113.6447" y1="46.2208" x2="117.2235" y2="44.9551" gradientTransform="matrix(1 0 0 -1 0 312)">
		<stop  offset="2.296278e-02" style="stop-color:#FEFF9B"/>
		<stop  offset="1" style="stop-color:#00A99D"/>
	</linearGradient>
	<path class="st3" d="M115.4,268.8c0.9,0,1.6-0.7,1.6-1.6v-1.6c0-0.9-0.7-1.6-1.6-1.6c-0.9,0-1.6,0.7-1.6,1.6v1.6
		C113.8,268.1,114.5,268.8,115.4,268.8z"/>
	
		<linearGradient id="SVGID_5_" gradientUnits="userSpaceOnUse" x1="134.5088" y1="45.2941" x2="137.0651" y2="44.39" gradientTransform="matrix(1 0 0 -1 0 312)">
		<stop  offset="2.296278e-02" style="stop-color:#FEFF9B"/>
		<stop  offset="1" style="stop-color:#00A99D"/>
	</linearGradient>
	<path class="st4" d="M135.8,269.6c0.4,0,0.8-0.4,0.8-0.8v-3.3c0-0.4-0.4-0.8-0.8-0.8c-0.4,0-0.8,0.4-0.8,0.8v3.3
		C135,269.3,135.3,269.6,135.8,269.6z"/>
	
		<linearGradient id="SVGID_6_" gradientUnits="userSpaceOnUse" x1="128.0529" y1="45.574" x2="132.1429" y2="44.1275" gradientTransform="matrix(1 0 0 -1 0 312)">
		<stop  offset="2.296278e-02" style="stop-color:#FEFF9B"/>
		<stop  offset="1" style="stop-color:#00A99D"/>
	</linearGradient>
	<path class="st5" d="M130.1,270.4c0.9,0,1.6-0.7,1.6-1.6v-3.3c0-0.9-0.7-1.6-1.6-1.6c-0.9,0-1.6,0.7-1.6,1.6v3.3
		C128.5,269.7,129.2,270.4,130.1,270.4z"/>
	
		<linearGradient id="SVGID_7_" gradientUnits="userSpaceOnUse" x1="123.113" y1="28.9984" x2="125.6693" y2="28.0944" gradientTransform="matrix(1 0 0 -1 0 312)">
		<stop  offset="2.296278e-02" style="stop-color:#FEFF9B"/>
		<stop  offset="1" style="stop-color:#00A99D"/>
	</linearGradient>
	<path class="st6" d="M124.4,285.9c0.4,0,0.8-0.4,0.8-0.8v-3.3c0-0.4-0.4-0.8-0.8-0.8c-0.4,0-0.8,0.4-0.8,0.8v3.3
		C123.6,285.5,123.9,285.9,124.4,285.9z"/>
	
		<linearGradient id="SVGID_8_" gradientUnits="userSpaceOnUse" x1="134.5149" y1="29.0481" x2="137.0712" y2="28.1441" gradientTransform="matrix(1 0 0 -1 0 312)">
		<stop  offset="2.296278e-02" style="stop-color:#FEFF9B"/>
		<stop  offset="1" style="stop-color:#00A99D"/>
	</linearGradient>
	<path class="st7" d="M135.8,285.9c0.4,0,0.8-0.4,0.8-0.8v-1.2V283v-0.9v-0.4c0-0.4-0.4-0.8-0.8-0.8c-0.4,0-0.8,0.4-0.8,0.8v0.9v0.9
		v0.9v0.6C135,285.5,135.3,285.9,135.8,285.9z"/>
	
		<linearGradient id="SVGID_9_" gradientUnits="userSpaceOnUse" x1="113.6547" y1="38.1173" x2="117.2335" y2="36.8516" gradientTransform="matrix(1 0 0 -1 0 312)">
		<stop  offset="2.296278e-02" style="stop-color:#FEFF9B"/>
		<stop  offset="1" style="stop-color:#00A99D"/>
	</linearGradient>
	<path class="st8" d="M115.4,276.9c0.9,0,1.6-0.7,1.6-1.6v-1.6c0-0.9-0.7-1.6-1.6-1.6c-0.9,0-1.6,0.7-1.6,1.6v1.6
		C113.8,276.2,114.5,276.9,115.4,276.9z"/>
	
		<linearGradient id="SVGID_10_" gradientUnits="userSpaceOnUse" x1="113.9248" y1="29.1204" x2="116.9879" y2="28.0371" gradientTransform="matrix(1 0 0 -1 0 312)">
		<stop  offset="2.296278e-02" style="stop-color:#FEFF9B"/>
		<stop  offset="1" style="stop-color:#00A99D"/>
	</linearGradient>
	<path class="st9" d="M115.4,285.1c0.4,0,0.8-0.2,1.2-0.5c0.3-0.3,0.5-0.7,0.5-1.2s-0.2-0.8-0.5-1.2c-0.6-0.6-1.7-0.6-2.3,0
		c-0.3,0.3-0.5,0.7-0.5,1.2c0,0.4,0.2,0.8,0.5,1.2C114.6,284.9,115,285.1,115.4,285.1z"/>
	
		<linearGradient id="SVGID_11_" gradientUnits="userSpaceOnUse" x1="143.2016" y1="29.1286" x2="146.2648" y2="28.0454" gradientTransform="matrix(1 0 0 -1 0 312)">
		<stop  offset="2.296278e-02" style="stop-color:#FEFF9B"/>
		<stop  offset="1" style="stop-color:#00A99D"/>
	</linearGradient>
	<path class="st10" d="M144.7,285.1c0.4,0,0.8-0.2,1.2-0.5c0.3-0.3,0.5-0.7,0.5-1.2c0-0.4-0.2-0.8-0.5-1.2c-0.6-0.6-1.7-0.6-2.3,0
		c-0.3,0.3-0.5,0.7-0.5,1.2c0,0.4,0.2,0.8,0.5,1.2C143.9,284.9,144.3,285.1,144.7,285.1z"/>
	
		<linearGradient id="SVGID_12_" gradientUnits="userSpaceOnUse" x1="142.9315" y1="38.1255" x2="146.5102" y2="36.8598" gradientTransform="matrix(1 0 0 -1 0 312)">
		<stop  offset="2.296278e-02" style="stop-color:#FEFF9B"/>
		<stop  offset="1" style="stop-color:#00A99D"/>
	</linearGradient>
	<path class="st11" d="M144.7,276.9c0.9,0,1.6-0.7,1.6-1.6v-1.6c0-0.9-0.7-1.6-1.6-1.6s-1.6,0.7-1.6,1.6v1.6
		C143.1,276.2,143.8,276.9,144.7,276.9z"/>
	
		<linearGradient id="SVGID_13_" gradientUnits="userSpaceOnUse" x1="142.9215" y1="46.229" x2="146.5002" y2="44.9634" gradientTransform="matrix(1 0 0 -1 0 312)">
		<stop  offset="2.296278e-02" style="stop-color:#FEFF9B"/>
		<stop  offset="1" style="stop-color:#00A99D"/>
	</linearGradient>
	<path class="st12" d="M144.7,268.8c0.9,0,1.6-0.7,1.6-1.6v-1.6c0-0.9-0.7-1.6-1.6-1.6s-1.6,0.7-1.6,1.6v1.6
		C143.1,268.1,143.8,268.8,144.7,268.8z"/>
	
		<linearGradient id="SVGID_14_" gradientUnits="userSpaceOnUse" x1="194.9566" y1="42.9553" x2="198.5353" y2="41.6897" gradientTransform="matrix(1 0 0 -1 0 312)">
		<stop  offset="2.296278e-02" style="stop-color:#FEFF9B"/>
		<stop  offset="1" style="stop-color:#00A99D"/>
	</linearGradient>
	<path class="st13" d="M196.8,272.1c0.9,0,1.6-0.7,1.6-1.6v-1.6c0-0.9-0.7-1.6-1.6-1.6s-1.6,0.7-1.6,1.6v1.6
		C195.1,271.3,195.9,272.1,196.8,272.1z"/>
	
		<linearGradient id="SVGID_15_" gradientUnits="userSpaceOnUse" x1="193.2943" y1="57.3504" x2="195.3394" y2="56.6272" gradientTransform="matrix(1 0 0 -1 0 312)">
		<stop  offset="2.296278e-02" style="stop-color:#FEFF9B"/>
		<stop  offset="1" style="stop-color:#00A99D"/>
	</linearGradient>
	<path class="st14" d="M194.3,256.6c0.4,0,0.8-0.4,0.8-0.8v-1.6c0-0.4-0.4-0.8-0.8-0.8c-0.4,0-0.8,0.4-0.8,0.8v1.6
		C193.5,256.3,193.9,256.6,194.3,256.6z"/>
	
		<linearGradient id="SVGID_16_" gradientUnits="userSpaceOnUse" x1="59.9397" y1="57.3624" x2="61.9848" y2="56.6392" gradientTransform="matrix(1 0 0 -1 0 312)">
		<stop  offset="2.296278e-02" style="stop-color:#FEFF9B"/>
		<stop  offset="1" style="stop-color:#00A99D"/>
	</linearGradient>
	<path class="st15" d="M61,256.6c0.4,0,0.8-0.4,0.8-0.8v-1.6c0-0.4-0.4-0.8-0.8-0.8s-0.8,0.4-0.8,0.8v1.6
		C60.2,256.3,60.5,256.6,61,256.6z"/>
	
		<linearGradient id="SVGID_17_" gradientUnits="userSpaceOnUse" x1="198.1756" y1="57.357" x2="200.2207" y2="56.6339" gradientTransform="matrix(1 0 0 -1 0 312)">
		<stop  offset="2.296278e-02" style="stop-color:#FEFF9B"/>
		<stop  offset="1" style="stop-color:#00A99D"/>
	</linearGradient>
	<path class="st16" d="M199.2,256.6c0.4,0,0.8-0.4,0.8-0.8v-1.6c0-0.4-0.4-0.8-0.8-0.8c-0.4,0-0.8,0.4-0.8,0.8v1.6
		C198.4,256.3,198.8,256.6,199.2,256.6z"/>
	
		<linearGradient id="SVGID_18_" gradientUnits="userSpaceOnUse" x1="64.8122" y1="57.3441" x2="66.8573" y2="56.6209" gradientTransform="matrix(1 0 0 -1 0 312)">
		<stop  offset="2.296278e-02" style="stop-color:#FEFF9B"/>
		<stop  offset="1" style="stop-color:#00A99D"/>
	</linearGradient>
	<path class="st17" d="M65.8,256.6c0.4,0,0.8-0.4,0.8-0.8v-1.6c0-0.4-0.4-0.8-0.8-0.8s-0.8,0.4-0.8,0.8v1.6
		C65,256.3,65.4,256.6,65.8,256.6z"/>
	
		<linearGradient id="SVGID_19_" gradientUnits="userSpaceOnUse" x1="61.5936" y1="42.9439" x2="65.1725" y2="41.6782" gradientTransform="matrix(1 0 0 -1 0 312)">
		<stop  offset="2.296278e-02" style="stop-color:#FEFF9B"/>
		<stop  offset="1" style="stop-color:#00A99D"/>
	</linearGradient>
	<path class="st18" d="M63.4,272.1c0.9,0,1.6-0.7,1.6-1.6v-1.6c0-0.9-0.7-1.6-1.6-1.6s-1.6,0.7-1.6,1.6v1.6
		C61.8,271.3,62.5,272.1,63.4,272.1z"/>
	
		<linearGradient id="SVGID_20_" gradientUnits="userSpaceOnUse" x1="89.7529" y1="202.7202" x2="771.0336" y2="-38.2205" gradientTransform="matrix(1 0 0 -1 0 312)">
		<stop  offset="2.296278e-02" style="stop-color:#FEFF9B"/>
		<stop  offset="1" style="stop-color:#00A99D"/>
	</linearGradient>
	<path class="st19" d="M788.7,286.7h-14.6v-4.9c0.4,0,0.8-0.4,0.8-0.8s-0.4-0.8-0.8-0.8v-14.6c0.4,0,0.8-0.4,0.8-0.8
		s-0.4-0.8-0.8-0.8v-1.6c0.4,0,0.8-0.4,0.8-0.8s-0.4-0.8-0.8-0.8c0-0.9-0.7-1.6-1.6-1.6h-6.3c-2.9-0.6-7.1-2.1-8.3-3.7v-1.2
		c0-0.4-0.4-0.8-0.8-0.8s-0.8,0.4-0.8,0.8h-9.8c0-0.4-0.4-0.8-0.8-0.8s-0.8,0.4-0.8,0.8v1.2c-1.2,1.6-5.4,3.1-8.3,3.7h-8v-1.6
		c0-0.4-0.4-0.8-0.8-0.8c-0.4,0-0.8,0.4-0.8,0.8v1.6h-1.6v-5.5c1.8-0.1,2.2-0.3,2.4-0.4l1.6-0.8c0.6-0.3,1-1,0.9-1.7
		s-0.6-1.2-1.3-1.4c-2-0.4-7.5-2.2-8.5-5.4c-0.2-0.7-0.8-1.1-1.5-1.1s-1.3,0.4-1.5,1.1c-1.1,3.3-6.5,5-8.5,5.4
		c-0.7,0.1-1.2,0.7-1.3,1.4s0.3,1.4,0.9,1.7l1.6,0.8c0.2,0.1,0.5,0.3,2.4,0.4v5.5H711v-1.6c0-0.4-0.4-0.8-0.8-0.8
		c-0.4,0-0.8,0.4-0.8,0.8v1.6h-32.5v-6.6c2.3-0.1,6.1-0.4,7.2-0.9l1.6-0.8c0.6-0.3,1-1,0.9-1.7s-0.7-1.2-1.4-1.3
		c-3.9-0.6-10.4-2.5-11.6-5.2v-1.3c0-0.9-0.7-1.6-1.6-1.6c-0.9,0-1.6,0.7-1.6,1.6h-22.8c0-0.9-0.7-1.6-1.6-1.6s-1.6,0.7-1.6,1.6v1.3
		c-1.2,2.7-7.7,4.6-11.6,5.2c-0.7,0.1-1.3,0.6-1.4,1.3c-0.1,0.7,0.2,1.4,0.9,1.7l1.6,0.8c1.1,0.6,5,0.8,7.2,0.9v6.2l-25-12.8
		l-31.9-10.1c1.4-0.2,2.7-0.4,3.6-0.7l6.7-2.2c0.7-0.2,1.2-0.9,1.1-1.7c-0.1-0.8-0.7-1.4-1.4-1.5l-13-1.6c-0.1,0-0.1,0-0.2,0h-3.3
		v-1.8c1.9-0.2,4.1-0.5,5.2-0.9l6.7-2.2c0.8-0.3,1.2-1.1,1.1-1.9c-0.2-0.8-0.9-1.3-1.8-1.3c0,0-1,0.1-2.4,0.1
		c-3.6,0-11.9-0.6-13.5-6.1l1-1c0.6-0.6,0.6-1.7,0-2.3s-1.7-0.6-2.3,0l-1.1,1.1h-43.5l-21-12.1c-1.9-1.1-4.7-1.8-7.5-1.8
		c-2,0-3.8,0.3-5.3,0.9l-14.2,5.9c-1.5,0.6-3.5,1.2-5.5,1.7c-0.1-0.5-0.5-0.9-1.1-1.1c0,0-0.2-0.1-0.4-0.1l1.5-16.1
		c0.1-0.8-0.4-1.5-1.1-1.7c0,0-0.2-0.1-0.4-0.1l1.5-16.1c0.1-0.8-0.4-1.5-1.1-1.7c0,0-0.2-0.1-0.4-0.1l1.5-16.1
		c0.1-0.8-0.4-1.5-1.1-1.7c0,0-0.2-0.1-0.4-0.1l1.5-16.1c0.1-0.8-0.4-1.5-1.1-1.7c0,0-0.2-0.1-0.4-0.1l1.5-16.1
		c0.1-0.8-0.4-1.5-1.1-1.7c0,0-0.2-0.1-0.4-0.1l1.5-16.1c0.1-0.8-0.4-1.5-1.1-1.7c0,0-0.2-0.1-0.4-0.1l1.5-16.1
		c0.1-0.8-0.4-1.5-1.1-1.7c-0.1,0-2-0.6-4.1-1.1l1.1-3.3c0.2-0.5,0.1-1-0.2-1.5c-0.3-0.4-0.8-0.7-1.3-0.7h-4.1v-3.3v-3.3
		c0-0.4-0.4-0.8-0.8-0.8s-0.8,0.4-0.8,0.8v1.6h-1.5l0.9-11.4h0.5c0.4,0,0.8-0.4,0.8-0.8c0-0.4-0.4-0.8-0.8-0.8h-0.4l0.4-4.7
		c0-0.5-0.1-0.9-0.4-1.2s-0.7-0.5-1.2-0.5H457c0.9,0,1.6-0.7,1.6-1.6c0-0.9-0.7-1.6-1.6-1.6V34.6c0-0.9-0.7-1.6-1.6-1.6
		s-1.6,0.7-1.6,1.6V46c-0.9,0-1.6,0.7-1.6,1.6c0,0.9,0.7,1.6,1.6,1.6h-3.3c-0.5,0-0.9,0.2-1.2,0.5c-0.3,0.3-0.5,0.8-0.4,1.2l0.4,4.7
		h-0.4c-0.4,0-0.8,0.4-0.8,0.8c0,0.4,0.4,0.8,0.8,0.8h0.5l0.9,11.4h-1.5V67c0-0.4-0.4-0.8-0.8-0.8s-0.8,0.4-0.8,0.8v3.3v3.3h-4.1
		c-0.5,0-1,0.3-1.3,0.7c-0.3,0.4-0.4,1-0.2,1.5l1.1,3.3c-2.2,0.5-4,1.1-4.1,1.1c-0.7,0.2-1.2,0.9-1.1,1.7L439,98
		c-0.2,0.1-0.3,0.1-0.4,0.1c-0.7,0.2-1.2,0.9-1.1,1.7l1.5,16.1c-0.2,0.1-0.3,0.1-0.4,0.1c-0.7,0.2-1.2,0.9-1.1,1.7l1.5,16.1
		c-0.2,0.1-0.3,0.1-0.4,0.1c-0.7,0.2-1.2,0.9-1.1,1.7l1.5,16.1c-0.2,0.1-0.3,0.1-0.4,0.1c-0.7,0.2-1.2,0.9-1.1,1.7l1.5,16.1
		c-0.2,0.1-0.3,0.1-0.4,0.1c-0.7,0.2-1.2,0.9-1.1,1.7l1.5,16.1c-0.2,0.1-0.3,0.1-0.4,0.1c-0.7,0.2-1.2,0.9-1.1,1.7l1.5,16.1
		c-0.2,0.1-0.3,0.1-0.4,0.1c-0.7,0.2-1.2,0.9-1.1,1.7l0.2,1.9l-4.6,0.2c-3.7,0.2-9.6,1.6-13,3.1l-7.7,3.4c-1.7,0.8-4.2,1.2-6.7,1.2
		c-1.9,0-3.7-0.3-5.1-0.8l-5.7-2c-3.5-1.2-9.6-1.1-13,0.3l-71.7,26.1c-3.4,1.3-9,2.8-12.6,3.3l-13.2,1.1c-0.3-0.4-0.8-0.7-1.3-0.7
		v-0.5c0.1,0,0.3-0.1,0.4-0.1l3.3-1.1c0.7-0.2,1.1-0.8,1.1-1.5s-0.4-1.3-1.1-1.5l-2.8-0.9c0.4-0.3,0.6-0.7,0.6-1.2
		c0-0.7-0.3-1.3-0.9-1.6c-3.4-1.6-12.4-6.3-15.2-9.9v-2.7c0-0.9-0.7-1.6-1.6-1.6s-1.6,0.7-1.6,1.6v2.7c-2.8,3.6-11.9,8.4-15.2,9.9
		c-0.6,0.3-1,0.9-0.9,1.6c0,0.5,0.3,0.9,0.6,1.2l-2.8,0.9c-0.7,0.2-1.1,0.8-1.1,1.5s0.4,1.3,1.1,1.5l3.3,1.1c0.1,0,0.3,0.1,0.4,0.1
		v0.5c-0.9,0-1.6,0.7-1.6,1.6h-1.6c-0.8,0-1.5,0.6-1.6,1.4l-0.2,1l-11.5,1c-3.7,0.5-9.5,1.9-13,3.2l-10.1,3.6
		c-0.3-0.2-0.6-0.3-1-0.3h-4.9v-4.9c0-0.5-0.2-1-0.7-1.3l-6.5-4.9c-0.6-0.4-1.4-0.4-2,0l-6.5,4.9c-0.4,0.3-0.7,0.8-0.7,1.3v1.6h-8.1
		c0-0.9-0.7-1.6-1.6-1.6c-0.9,0-1.6,0.7-1.6,1.6h-13c0-0.9-0.7-1.6-1.6-1.6s-1.6,0.7-1.6,1.6h-9.8v-1.6c0-0.9-0.7-1.6-1.6-1.6h-9.8
		c-0.9,0-1.6,0.7-1.6,1.6v-19.5c0.4,0,0.8-0.4,0.8-0.8c0-0.4-0.4-0.8-0.8-0.8V220c0.4,0,0.8-0.4,0.8-0.8c0-0.4-0.4-0.8-0.8-0.8v-4.9
		l0,0c0-0.1,0-0.1,0-0.2c0,0,0,0,0-0.1v-0.1V213c0,0,0,0,0-0.1v-0.1c0,0,0,0,0-0.1v-0.1c0,0,0,0,0-0.1c0,0,0-0.1-0.1-0.1l0,0
		l-0.1-0.1l0,0l-0.1-0.1l0,0l-6-6v-5.8c0-0.4-0.4-0.8-0.8-0.8s-0.8,0.4-0.8,0.8v4.9c-0.4,0-0.8,0.2-1.1,0.5l-6.5,6.5l0,0l-0.1,0.1
		l0,0l-0.1,0.1l0,0c0,0,0,0.1-0.1,0.1c0,0,0,0,0,0.1v0.1c0,0,0,0,0,0.1v0.1c0,0,0,0,0,0.1v0.1v0.1c0,0,0,0,0,0.1s0,0.1,0,0.2l0,0
		v4.9c-0.4,0-0.8,0.4-0.8,0.8c0,0.4,0.4,0.8,0.8,0.8v9.8c-0.4,0-0.8,0.4-0.8,0.8c0,0.4,0.4,0.8,0.8,0.8V251c0-0.9-0.7-1.6-1.6-1.6
		h-9.8c-0.9,0-1.6,0.7-1.6,1.6v1.6h-9.8c0-0.9-0.7-1.6-1.6-1.6s-1.6,0.7-1.6,1.6h-13c0-0.9-0.7-1.6-1.6-1.6s-1.6,0.7-1.6,1.6h-8.1
		V251c0-0.5-0.2-1-0.7-1.3l-6.5-4.9c-0.6-0.4-1.4-0.4-2,0l-6.5,4.9c-0.4,0.3-0.7,0.8-0.7,1.3v4.9h-4.9c-0.9,0-1.6,0.7-1.6,1.6v29.3
		H29.3c-1.8,0-3.3,1.5-3.3,3.3s1.5,3.3,3.3,3.3h27.6h13h40.7h9.8h19.5h9.8h26h14.6h13h27.6h66.7h60.2h13H387h19.5h42.3h30.9h43.9
		h4.9H605h183.8c1.8,0,3.3-1.5,3.3-3.3S790.5,286.7,788.7,286.7z M52,265.6h3.3v13H52V265.6z M63.4,248.1l3.8,2.8h-7.6L63.4,248.1z
		 M115.4,260.7h3.3v17.9h-6.5v-17.9H115.4z M144.7,260.7h3.3v17.5v0.4h-1.1h-5.4v-17.9H144.7z M196.8,248.1l3.8,2.8H193L196.8,248.1
		z M221.4,254.1c3.4-1.2,9.1-2.6,12.7-3.1l10.7-0.9l0,0c0,0.3,0.1,0.5,0.3,0.6l-2.5,16.4H239v-1.6c0-0.4-0.4-0.8-0.8-0.8
		s-0.8,0.4-0.8,0.8v1.6h-3.3v-1.6c0-0.4-0.4-0.8-0.8-0.8s-0.8,0.4-0.8,0.8v1.6h-3.3v-1.6c0-0.4-0.4-0.8-0.8-0.8
		c-0.4,0-0.8,0.4-0.8,0.8v1.6c-0.7,0-1.4,0.5-1.6,1.2l-1.3,5.3h-3.6V272c0-0.4-0.4-0.8-0.8-0.8c-0.4,0-0.8,0.4-0.8,0.8v1.6h-3.3V272
		c0-0.4-0.4-0.8-0.8-0.8c-0.4,0-0.8,0.4-0.8,0.8v1.6c-0.7,0-1.4,0.5-1.6,1.2l-1.3,5.3h-0.4v-1.6v-21L221.4,254.1z M252.1,247.8
		c0-0.1,0-0.1,0-0.2h1.9h9.5h1.6v0.7v0.9c0,0.9,0.7,1.6,1.6,1.6s1.6-0.7,1.6-1.6V248v-0.4h4.7h8.3c0,0.9,0.7,1.6,1.6,1.6H274
		c-0.4,0-0.8,0.4-0.8,0.8v17.1h-1.6v-5.7c0-3.1-2.2-5.7-4.9-5.7c-1.2,0-2.4,0.6-3.3,1.5v-6.3c0-0.9-0.7-1.6-1.6-1.6h-2.4h-0.8H254
		h-3.6c0.5,0,1-0.2,1.3-0.6C251.9,248.4,252,248.2,252.1,247.8z M262.3,235.9l-3.3-0.8c-0.1,0-0.3-0.1-0.4-0.1
		c2.9-1.7,6.1-3.8,8.2-6c2.1,2.1,5.2,4.2,8.2,6c-0.1,0-0.3,0-0.4,0.1l-3.3,0.8c-0.7,0.2-2.1,0.3-2.8,0.3h-3.3
		C264.3,236.3,263,236.1,262.3,235.9z M394.3,215.8l5.7,2c3.6,1.3,9.6,1,13-0.5l7.7-3.4c3.3-1.5,8.9-2.8,12.4-3l4.7-0.2l1.1,12.6
		h-0.3c-0.8,0-1.5,0.6-1.6,1.5l-3.2,32.6c-5.4-3.1-10-7.4-12.6-13.3v-3.7v-0.8c0-0.9-0.7-1.6-1.6-1.6s-1.6,0.7-1.6,1.6h-58.5
		c0-0.9-0.7-1.6-1.6-1.6s-1.6,0.7-1.6,1.6v0.8v3.7c-9.4,21.2-45.2,21.5-45.5,21.5c-0.7,0-1.3,0.5-1.6,1.2c-0.2,0.7,0.1,1.4,0.7,1.8
		c0.2,0.1,2.9,1.9,7.7,2.9c-0.2,0.1-0.3,0.4-0.3,0.6v1.6H314v-1.6c0-0.4-0.4-0.8-0.8-0.8s-0.8,0.4-0.8,0.8v1.6h-3.6l-1.3-5.3
		c-0.2-0.7-0.8-1.2-1.6-1.2v-1.6c0-0.4-0.4-0.8-0.8-0.8s-0.8,0.4-0.8,0.8v1.6H301v-1.6c0-0.4-0.4-0.8-0.8-0.8s-0.8,0.4-0.8,0.8v1.6
		H296v-1.6c0-0.4-0.4-0.8-0.8-0.8s-0.8,0.4-0.8,0.8v1.6h-3.5l-2.5-16.4c0.2-0.1,0.3-0.4,0.3-0.6c0-0.4-0.2-0.7-0.5-0.8l-0.3-1.9
		c-0.1-0.4-0.3-0.7-0.5-1l10.4-0.9c3.7-0.5,9.5-2,12.9-3.4l71.7-26.1C385.5,214.8,391.1,214.7,394.3,215.8z M440.8,83
		c1.6-0.5,4.4-1.2,6.4-1.2c2.1,0,4.9,0.7,6.5,1.2v0.4c0,0.9,0.7,1.6,1.6,1.6s1.6-0.7,1.6-1.6V83c1.6-0.5,4.4-1.2,6.5-1.2
		c2,0,4.8,0.7,6.4,1.2l-1.3,14.2c-1.6-0.4-3.5-0.7-5.1-0.7c-2.9,0-6.7,1.1-8.1,1.5c-1.4-0.4-5.3-1.5-8.1-1.5c-1.6,0-3.5,0.3-5.1,0.7
		L440.8,83z M504.8,201.2l18.6,10.7h-39.7l-1.1-1.1c-0.6-0.6-1.7-0.6-2.3,0c-0.6,0.6-0.6,1.7,0,2.3l1,1c-1.1,3.8-5.4,5.2-9.1,5.8
		l1.1-11.6c2.3-0.5,4.5-1.2,6.2-1.9l14.2-5.9c1.3-0.5,2.9-0.8,4.6-0.8C500.7,199.7,503.1,200.2,504.8,201.2z M570,217.6
		c0.2,0,0.4-0.1,0.6-0.2c1.7,2.7,4.8,4.5,9,5.4c-1.9,0.3-4.3,0.5-5.5,0.5h-27.4h-1.8h-1.7h-63.4c-1.2,0-3.7-0.2-5.5-0.5
		c5.3-1.1,8.8-3.8,10.1-7.6h2v1.6c0,0.4,0.4,0.8,0.8,0.8s0.8-0.4,0.8-0.8v-1.6h3.3v1.6c0,0.4,0.4,0.8,0.8,0.8s0.8-0.4,0.8-0.8v-1.6
		h3.3v1.6c0,0.4,0.4,0.8,0.8,0.8s0.8-0.4,0.8-0.8v-1.6h3.3v1.6c0,0.4,0.4,0.8,0.8,0.8c0.4,0,0.8-0.4,0.8-0.8v-1.6h3.3v1.6
		c0,0.4,0.4,0.8,0.8,0.8s0.8-0.4,0.8-0.8v-1.6h3.3v1.6c0,0.4,0.4,0.8,0.8,0.8s0.8-0.4,0.8-0.8v-1.6h3.3v1.6c0,0.4,0.4,0.8,0.8,0.8
		s0.8-0.4,0.8-0.8v-1.6h3.3v1.6c0,0.4,0.4,0.8,0.8,0.8s0.8-0.4,0.8-0.8v-1.6h3.3v1.6c0,0.4,0.4,0.8,0.8,0.8c0.4,0,0.8-0.4,0.8-0.8
		v-1.6h2.1h1.1v0.6v1c0,0.4,0.4,0.8,0.8,0.8s0.8-0.4,0.8-0.8l0,0v-0.9v-0.6h0.5h2.7v1.6v0.1c0,0.4,0.4,0.8,0.8,0.8
		c0.2,0,0.3-0.1,0.5-0.1c0.2-0.1,0.4-0.4,0.4-0.7v-1.6h3.3v1.6c0,0.4,0.4,0.8,0.8,0.8s0.8-0.4,0.8-0.8v-1.6h3.3v1.6
		c0,0.4,0.4,0.8,0.8,0.8c0.4,0,0.8-0.4,0.8-0.8v-1.6h3.3v1.6c0,0.4,0.4,0.8,0.8,0.8c0.4,0,0.8-0.4,0.8-0.8v-1.6h3.3v1.6
		c0,0.4,0.4,0.8,0.8,0.8s0.8-0.4,0.8-0.8v-1.6h3.3v1.6c0,0.4,0.4,0.8,0.8,0.8c0.4,0,0.8-0.4,0.8-0.8v-1.6h3.3v1.6
		c0,0.4,0.4,0.8,0.8,0.8c0.4,0,0.8-0.4,0.8-0.8v-1.6h3.3v1.6C569.2,217.2,569.6,217.6,570,217.6z M652.4,265.6h1.8h24v12.3v0.9v0.9
		v0.6h-10.6c-0.4,0-0.8,0.4-0.8,0.8v0.8h-4.9v-6.5c0-1.9-2.1-2.4-3.3-2.4s-3.2,0.6-3.2,2.4v6.5h-3.3c0-0.9-0.7-1.6-1.6-1.6h-0.8
		h-0.8H644v-14.6h6.6L652.4,265.6L652.4,265.6z M742.4,260.7c1.9-0.8,3.8-1.8,4.9-3.2h0.8c0,0.4,0.4,0.8,0.8,0.8
		c0.4,0,0.8-0.4,0.8-0.8h1.6c0,0.4,0.4,0.8,0.8,0.8c0.4,0,0.8-0.4,0.8-0.8h1.6c0,0.4,0.4,0.8,0.8,0.8c0.2,0,0.4-0.1,0.5-0.2
		c1.1,1.1,2.7,2,4.3,2.6c-0.3,0-0.5,0-0.8,0H743C743,260.7,742.7,260.7,742.4,260.7z M106.5,284.3c-0.4,0-0.8,0.4-0.8,0.8v1.6h-6.5
		v-1.6c0-0.4-0.4-0.8-0.8-0.8s-0.8,0.4-0.8,0.8v1.6h-6.5v-1.6c0-0.4-0.4-0.8-0.8-0.8s-0.8,0.4-0.8,0.8v1.6H83v-1.6
		c0-0.4-0.4-0.8-0.8-0.8s-0.8,0.4-0.8,0.8v1.6h-6.5v-1.6v-1.6H78h8.1h8.1h8.1h6.5v3.3h-1.6v-1.6C107.3,284.6,107,284.3,106.5,284.3z
		 M82.1,262.3c1.3,0,2.4,1.1,2.4,2.4v2.4h-1.6v-1.6c0-0.4-0.4-0.8-0.8-0.8s-0.8,0.4-0.8,0.8v1.6h-1.6v-2.4
		C79.7,263.4,80.8,262.3,82.1,262.3z M90.2,262.3c1.3,0,2.4,1.1,2.4,2.4v2.4H91v-1.6c0-0.4-0.4-0.8-0.8-0.8s-0.8,0.4-0.8,0.8v1.6
		h-1.6v-2.4C87.8,263.4,88.9,262.3,90.2,262.3z M98.4,262.3c1.3,0,2.4,1.1,2.4,2.4v2.4h-1.6v-1.6c0-0.4-0.4-0.8-0.8-0.8
		s-0.8,0.4-0.8,0.8v1.6H96v-2.4C95.9,263.4,97,262.3,98.4,262.3z M106.5,262.3c1.3,0,2.4,1.1,2.4,2.4v2.4h-1.6v-1.6
		c0-0.4-0.4-0.8-0.8-0.8s-0.8,0.4-0.8,0.8v1.6h-1.6v-2.4C104.1,263.4,105.2,262.3,106.5,262.3z M130.1,262.3h8.1v14.6h-1.6v-3.3
		c0-0.4-0.4-0.8-0.8-0.8c-0.4,0-0.8,0.4-0.8,0.8v3.3h-3.3v-3.3c0-0.9-0.7-1.6-1.6-1.6c-0.9,0-1.6,0.7-1.6,1.6v3.3h-3.3v-3.3v-4.9
		v-3.3v-3.3h4.9V262.3z M144.7,280.2h2.5h0.8v6.5h-6.5v-4.5v-0.9v-0.9v-0.3h0.8L144.7,280.2L144.7,280.2z M161.8,262.3
		c1.3,0,2.4,1.1,2.4,2.4v2.4h-1.6v-1.6c0-0.4-0.4-0.8-0.8-0.8c-0.4,0-0.8,0.4-0.8,0.8v1.6h-1.6v-2.4
		C159.4,263.4,160.5,262.3,161.8,262.3z M169.9,262.3c1.3,0,2.4,1.1,2.4,2.4v2.4h-1.6v-1.6c0-0.4-0.4-0.8-0.8-0.8
		c-0.4,0-0.8,0.4-0.8,0.8v1.6h-1.6v-2.4C167.5,263.4,168.6,262.3,169.9,262.3z M178.1,262.3c1.3,0,2.4,1.1,2.4,2.4v2v0.4h-1.3h-0.4
		v-1.6c0-0.4-0.4-0.8-0.8-0.8c-0.4,0-0.8,0.4-0.8,0.8v1.6h-1.6v-2.4C175.6,263.4,176.7,262.3,178.1,262.3z M186.2,262.3
		c1.1,0,2,0.7,2.3,1.6c0.1,0.3,0.1,0.5,0.1,0.8l0,0v0.9v1.6H187v-1v-0.6c0-0.1,0-0.2,0-0.2c-0.1-0.3-0.4-0.6-0.8-0.6l0,0
		c-0.2,0-0.4,0.1-0.5,0.2c-0.2,0.1-0.3,0.4-0.3,0.6v0.3v0.9v0.4h-1.2h-0.4v-0.7v-0.9v-0.9C183.8,263.4,184.8,262.3,186.2,262.3z
		 M226,276.9h22.8v3.3h-3.3v-1.6c0-0.4-0.4-0.8-0.8-0.8s-0.8,0.4-0.8,0.8v1.6h-3.3v-1.6c0-0.4-0.4-0.8-0.8-0.8
		c-0.4,0-0.8,0.4-0.8,0.8v1.6h-3.3v-1.6c0-0.4-0.4-0.8-0.8-0.8c-0.4,0-0.8,0.4-0.8,0.8v1.6h-3.3v-1.6c0-0.4-0.4-0.8-0.8-0.8
		s-0.8,0.4-0.8,0.8v1.6H226v-1.6c0-0.4-0.4-0.8-0.8-0.8c-0.4,0-0.8,0.4-0.8,0.8v1.6h-3.3v-1.6c0-0.4-0.4-0.8-0.8-0.8
		c-0.4,0-0.8,0.4-0.8,0.8v1.6h-4.4l0.8-3.3H226z M243.9,270.4h4.9v3.3h-3.3v-1.6c0-0.4-0.4-0.8-0.8-0.8s-0.8,0.4-0.8,0.8v1.6h-3.3
		v-1.6c0-0.4-0.4-0.8-0.8-0.8c-0.4,0-0.8,0.4-0.8,0.8v1.6h-3.3v-1.6c0-0.4-0.4-0.8-0.8-0.8c-0.4,0-0.8,0.4-0.8,0.8v1.6h-3.3v-1.6
		c0-0.4-0.4-0.8-0.8-0.8s-0.8,0.4-0.8,0.8v1.6H228l0.8-3.3H243.9z M304.5,270.4l0.8,3.3h-1.2v-1.6c0-0.4-0.4-0.8-0.8-0.8
		s-0.8,0.4-0.8,0.8v1.6h-3.3v-1.6c0-0.4-0.4-0.8-0.8-0.8s-0.8,0.4-0.8,0.8v1.6h-3.3v-1.6c0-0.4-0.4-0.8-0.8-0.8s-0.8,0.4-0.8,0.8
		v1.6h-3.3v-1.6c0-0.4-0.4-0.8-0.8-0.8s-0.8,0.4-0.8,0.8v1.6h-1.6v-3.3h3.3l0,0H304.5z M317.5,276.9l0.8,3.3h-4.4v-1.6
		c0-0.4-0.4-0.8-0.8-0.8s-0.8,0.4-0.8,0.8v1.6H309v-1.6c0-0.4-0.4-0.8-0.8-0.8s-0.8,0.4-0.8,0.8v1.6h-3.3v-1.6
		c0-0.4-0.4-0.8-0.8-0.8s-0.8,0.4-0.8,0.8v1.6h-3.3v-1.6c0-0.4-0.4-0.8-0.8-0.8s-0.8,0.4-0.8,0.8v1.6h-3.3v-1.6
		c0-0.4-0.4-0.8-0.8-0.8s-0.8,0.4-0.8,0.8v1.6h-3.3v-1.6c0-0.4-0.4-0.8-0.8-0.8s-0.8,0.4-0.8,0.8V277h19.5L317.5,276.9L317.5,276.9z
		 M318.6,271.7c0.6,0.1,1.1,0.2,1.7,0.2v3.2v-0.2c-0.2-0.7-0.8-1.2-1.6-1.2v-1.6C318.7,271.9,318.7,271.8,318.6,271.7z M598.5,262.3
		h13l0,0c-0.2,0-0.4,0.1-0.6,0.2c-0.1,0.1-0.2,0.4-0.2,0.6s0.1,0.4,0.2,0.6c0.1,0.2,0.4,0.2,0.6,0.2h-27.6v-1.6L598.5,262.3
		L598.5,262.3z M594.4,256.6c-0.4,0-0.8,0.4-0.8,0.8v-1.6h3.3v3.3h-1.6v-1.6C595.2,257,594.9,256.6,594.4,256.6z M594.8,250.4
		c1.3-0.7,2.7-1.6,3.7-2.8c1,1.2,2.3,2.1,3.7,2.8C600,250.5,596.9,250.5,594.8,250.4z M602.5,256.6c-0.4,0-0.8,0.4-0.8,0.8v1.6h-1.6
		v-3.3h3.3v1.6C603.3,257,603,256.6,602.5,256.6z M658.6,274.5c0,0,1.6,0,1.6,0.8v6.5H657v-6.5C657,274.6,658.6,274.5,658.6,274.5z
		 M666.8,283.4v3.3h-14.6v-3.3H666.8z M682.4,281.8h1.8h1.8h1.9v1v0.9v0.9v2.1h-9.8h-9.8v-4.9h9.8H682.4z M408.2,286.7v-1.6h3.3h8.1
		v1.6h-8.1H408.2z M372.4,286.7v-3.3h1.6h8.1h13h8.1h1.6v3.3H387H372.4z M357.8,286.7h-18.2l-0.4-1.6h30v1.6H357.8z M289.5,286.7
		v-3.3h24.4h6.5h3.3h4.9h1.6h5.2l0.4,1.6l0.4,1.6h-19.1h-3.3h-16.3L289.5,286.7L289.5,286.7z M250.4,283.4v-3.3v-3.3v-3.3v-3.3h9.8
		v3.3v3.3v3.3v3.3v3.3h-1.6c0.4,0,0.8-0.4,0.8-0.8s-0.4-0.8-0.8-0.8h-6.5c-0.4,0-0.8,0.4-0.8,0.8s0.4,0.8,0.8,0.8h-1.6L250.4,283.4
		L250.4,283.4z M266.7,270.4h4.9v3.3v3.3v3.3v3.3v3.3h-9.8v-3.3v-3.3V277v-3.3v-3.3H266.7z M283,270.4v3.3v3.3v3.3v3.3v3.3h-1.6
		c0.4,0,0.8-0.4,0.8-0.8s-0.4-0.8-0.8-0.8h-6.5c-0.4,0-0.8,0.4-0.8,0.8s0.4,0.8,0.8,0.8h-1.6v-3.3v-3.3V277v-3.3v-3.3H283z
		 M436.8,260.7l0.2-1.7l2.8-29.2h9.3c0.7,2.8,3.3,4.9,6.3,4.9c1.7,0,3.2-0.6,4.4-1.7c0.4-0.4,0.8-0.8,1.1-1.3
		c0.1-0.1,0.1-0.2,0.2-0.3c0.3-0.5,0.5-1,0.6-1.5h9.3v0.3l0.2,1.6l0.1,1.1l0.2,1.7l0.2,1.7l0.1,0.9l3.1,31.8h-3.1h-4.4h-3.9h-7.9
		H454h-3.3h-1.6h-1.6h-1.6H444h-3.3h-1.6H436l0.6-6.3L436.8,260.7z M440.1,226.5h0.6l0,0h8.1c0,0.3,0,0.5,0.1,0.8
		c0,0.3-0.1,0.5-0.1,0.8h-8.9L440.1,226.5z M637.5,280.2h-24.4v-14.6h13h11.4V280.2z M605,286.7h-16.3v-4.9h22.8v4.9H605z
		 M539.9,286.7h-1.6h-1.6H535h-1.6h-4.9h-3.3h-1.6h-3.3h-1.6h-1.6h-1.6h-1.6h-3.3H509h-1.6h-1.6h-1.6h-6.5H496h-1.6h-1.6h-1.6v-1.6
		h1.6h1.6h1.6h1.6h1.6h1.6h3.3h1.6h1.6h1.6h1.6h3.3h1.6h1.6h1.6h1.6h4.9h3.3h4.9h1.6h1.6h1.6h1.6h3.3h1.6h1.6h1.6h1.6h1.6h1.6h1.6
		h1.6h1.6h1.6v1.6h-1.6h-1.6h-3.3h-3.3h-1.6H546h-1.6h-1.6H539.9z M476.5,280.2h-1.6h-3.3H457h-3.3h-4.9h-1.6H444h-1.6h-3.3h-4.9
		h-1.6h-3.3h-4.9h-1.6v-4.9h3.3h3.3h3.3h3.3h3.3h3.3h3.3h1.6h1.6h4.9h3.3h14.6h3.3h1.6h1.6h3.3h1.6h1.6h1.6h1.6v1.6v1.6v1.6h-1.6
		h-1.6H483h-1.6h-3.3L476.5,280.2L476.5,280.2z M370.8,281.8h-1.6v-4.9c0-0.9,0.8-1.6,1.6-2c1-0.6,1.7-1.6,1.7-2.9v9.8H370.8z
		 M487.9,239.5h1.6h3.3v1.6h-6.5v-1.6H487.9z M499.3,239.5h1.6h3.3v1.6h-6.5v-1.6H499.3z M510.6,239.5h1.6h3.3v1.6H509v-1.6H510.6z
		 M522,239.5h1.6h6.5h1.6h1.6v1.6h-13v-1.6H522z M541.5,239.5h1.6h1.6v1.6h-6.5v-1.6H541.5z M552.9,239.5h1.6h1.6v1.6h-6.5v-1.6
		H552.9z M564.3,239.5h1.6h1.6v1.6H561v-1.6H564.3z M572.4,280.2v-3.3v-1.6h3.3v1.6h-1.6c-0.4,0-0.8,0.4-0.8,0.8s0.4,0.8,0.8,0.8
		h1.6v1.6h-3.3V280.2z M572.4,272.1v-1.6h1.6c-0.4,0-0.8,0.4-0.8,0.8s0.4,0.8,0.8,0.8h1.6v1.6h-3.3v-1.6H572.4z M572.4,265.6V264
		h1.6c-0.4,0-0.8,0.4-0.8,0.8s0.4,0.8,0.8,0.8h1.6v1.6H574h-1.6V265.6z M572.4,259.5v-2.1h1.6c-0.4,0-0.8,0.4-0.8,0.8
		s0.4,0.8,0.8,0.8h1.6v1.6H574h-1.6V259.5z M572.4,250.9h1.6c-0.4,0-0.8,0.4-0.8,0.8c0,0.4,0.4,0.8,0.8,0.8h1.6v1.6h-3.3v-3.2H572.4
		z M572.4,244.4h1.6c-0.4,0-0.8,0.4-0.8,0.8c0,0.4,0.4,0.8,0.8,0.8h1.6v1.6h-3.3v-3.2H572.4z M577.3,273.7h1.6v6.5h-1.6V273.7z
		 M574.1,239.5h1.6v1.6h-3.3v-1.6H574.1z M567.6,247.7h-6.5v-3.3h3.3c-0.4,0-0.8,0.4-0.8,0.8c0,0.4,0.4,0.8,0.8,0.8h1.6
		c0.4,0,0.8-0.4,0.8-0.8c0-0.4-0.4-0.8-0.8-0.8h1.6L567.6,247.7L567.6,247.7z M567.6,254.2h-6.5v-3.3h3.3c-0.4,0-0.8,0.4-0.8,0.8
		c0,0.4,0.4,0.8,0.8,0.8h1.6c0.4,0,0.8-0.4,0.8-0.8c0-0.4-0.4-0.8-0.8-0.8h1.6L567.6,254.2L567.6,254.2z M567.6,260.7h-6.5v-2.4
		v-0.9h0.9h0.8h1.6c-0.4,0-0.8,0.4-0.8,0.8s0.4,0.8,0.8,0.8h1.6c0.4,0,0.8-0.4,0.8-0.8s-0.4-0.8-0.8-0.8h1.6L567.6,260.7
		L567.6,260.7z M567.6,265.6v1.6h-4.9h-1.6v-0.8v-0.8V264h3.3c-0.4,0-0.8,0.4-0.8,0.8s0.4,0.8,0.8,0.8h1.6c0.4,0,0.8-0.4,0.8-0.8
		s-0.4-0.8-0.8-0.8h1.6L567.6,265.6L567.6,265.6z M567.6,272.1v1.6H566h-4.9v-1.6v-0.8v-0.8h1.6h1.6c-0.4,0-0.8,0.4-0.8,0.8
		s0.4,0.8,0.8,0.8h1.6c0.4,0,0.8-0.4,0.8-0.8s-0.4-0.8-0.8-0.8h1.6v1.6H567.6z M567.6,276.9v3.3h-3.3H561v-3.3v-1.6h3.3h3.3V276.9z
		 M567.6,286.7h-3.3v-2.4c0-0.4-0.4-0.8-0.8-0.8h4.1V286.7z M543.2,281.8c0-0.5-0.3-1-0.7-1.3c-0.3-0.2-0.6-0.3-1-0.3
		c-0.9,0-1.6,0.7-1.6,1.6v1.6h-1.6v-3.3h3.3h1.6h1.6v1.6v1.6h-1.6V281.8z M526.9,280.2c-0.9,0-1.6,0.7-1.6,1.6v1.6h-4.9v-3.3
		L526.9,280.2l6.5-0.1v3.3h-4.9v-1.6C528.5,280.9,527.8,280.2,526.9,280.2z M512.3,280.2c-0.9,0-1.6,0.7-1.6,1.6v1.6H509v-3.3
		L512.3,280.2l3.3-0.1v3.3H514v-1.6C513.9,280.9,513.2,280.2,512.3,280.2z M476.5,273.7h-1.6h-3.3H457h-3.3h-4.9h-1.6h-4.9H439h-6.5
		h-3.3h-6.5v-1.6h6.5h3.3h1.6h4.9h3.3h4.9h1.6h4.9h3.3h14.6h3.3h1.6h1.6h1.6h1.6h1.6h1.6h1.6h1.6v1.6h-1.6h-1.6H483h-1.6h-3.3H476.5
		z M403.3,262.3h-8.1h-13H374h-1.7c0-0.6,0.1-1.1,0.1-1.6H405c0,0.5,0,1.1,0.1,1.6H403.3z M377.3,268.8c0-0.9,0.7-1.6,1.6-1.6h1.6
		v4.9h-3.3L377.3,268.8L377.3,268.8z M385.4,268.8c0-0.9,0.7-1.6,1.6-1.6h6.5v4.9h-8.1V268.8z M398.4,268.8c0-0.9,0.7-1.6,1.6-1.6
		h1.6v4.9h-3.3L398.4,268.8L398.4,268.8z M478.1,259.1h1.6c0.4,0,0.8-0.4,0.8-0.8s-0.4-0.8-0.8-0.8h1.6v3.3H478L478.1,259.1
		L478.1,259.1z M478.1,252.5h1.6c0.4,0,0.8-0.4,0.8-0.8c0-0.4-0.4-0.8-0.8-0.8h1.6v3.3H478L478.1,252.5L478.1,252.5z M478.1,246h1.6
		c0.4,0,0.8-0.4,0.8-0.8c0-0.4-0.4-0.8-0.8-0.8h1.6v3.3H478L478.1,246L478.1,246z M483,241.2h1.6v1.6v1.6v3.3v1.6v1.6v3.3v1.6v1.6
		v3.3v1.6v1.6v3.3v1.6H483v-1.6v-3.3v-1.6v-1.6v-3.3v-1.6v-1.6v-3.3v-1.6v-1.6v-3.3v-1.6V241.2z M492.8,247.7h-6.5v-3.3h1.6
		c-0.4,0-0.8,0.4-0.8,0.8c0,0.4,0.4,0.8,0.8,0.8h1.6c0.4,0,0.8-0.4,0.8-0.8c0-0.4-0.4-0.8-0.8-0.8h3.3V247.7z M492.8,254.2h-6.5
		v-3.3h1.6c-0.4,0-0.8,0.4-0.8,0.8c0,0.4,0.4,0.8,0.8,0.8h1.6c0.4,0,0.8-0.4,0.8-0.8c0-0.4-0.4-0.8-0.8-0.8h3.3V254.2z M492.8,260.7
		h-6.5v-3.3h1.6c-0.4,0-0.8,0.4-0.8,0.8s0.4,0.8,0.8,0.8h1.6c0.4,0,0.8-0.4,0.8-0.8s-0.4-0.8-0.8-0.8h3.3V260.7z M492.8,267.2h-6.5
		v-3.3h1.6c-0.4,0-0.8,0.4-0.8,0.8s0.4,0.8,0.8,0.8h1.6c0.4,0,0.8-0.4,0.8-0.8s-0.4-0.8-0.8-0.8h3.3V267.2z M492.8,273.7h-1.6v-3.3
		h1.6V273.7z M492.8,280.2h-1.6v-3.3h1.6V280.2z M478.1,265.6h1.6c0.4,0,0.8-0.4,0.8-0.8s-0.4-0.8-0.8-0.8h1.6v3.3H478L478.1,265.6
		L478.1,265.6z M494.4,281.8v-1.6v-3.3v-1.6v-1.6v-3.3v-1.6v-1.6v-3.3v-1.6v-1.6v-3.3v-1.6v-1.6v-3.3v-1.6v-1.6v-3.3v-1.6v-1.6h1.6
		v1.6v1.6v3.3v1.6v1.6v3.3v1.6v1.6v3.3v1.6v1.6v3.3v1.6v1.6v3.3v1.6v1.6v3.3v1.6v1.6h-1.6V281.8z M505.8,241.2h1.6v1.6v1.6v3.3v1.6
		v1.6v3.3v1.6v1.6v3.3v1.6v1.6v3.3v1.6v1.6v0.4l-1.6,0.2v-0.6v-1.6v-1.6v-3.3v-1.6v-1.6v-3.3v-1.6v-1.6v-3.3v-1.6v-1.6v-3.3v-1.6
		V241.2z M517.2,241.2h1.6v1.6v1.6v3.3v1.6v1.6v3.3v1.6v1.6v3.3v1.6v1.6v3.3v1.6v1.6h-1.6v-1.6v-1.6v-3.3v-1.6v-1.6v-3.3v-1.6v-1.6
		v-3.3v-1.6v-1.6v-3.3v-1.6V241.2z M535,241.2h1.6v1.6v1.6v3.3v1.6v1.6v3.3v1.6v1.6v3.3v1.6v1.6v3.3v1.6v1.6H535v-1.6v-1.6v-3.3
		v-1.6v-1.6v-3.3v-1.6v-1.6v-3.3v-1.6v-1.6v-3.3v-1.6V241.2z M546.4,241.2h1.6v1.6v1.6v3.3v1.6v1.6v3.3v1.6v1.6v1.6v1.6v1.6v1.6v1.6
		v1.6v1.6v1.6v0.6l-1.6-0.2v-0.4v-1.6V267v-1.6v-1.6v-1.6v-1.6V259v-1.6v-1.6v-1.6v-3.3v-1.6v-1.6v-3.3v-1.6V241.2z M556.2,247.7
		h-6.5v-3.3h3.3c-0.4,0-0.8,0.4-0.8,0.8c0,0.4,0.4,0.8,0.8,0.8h1.6c0.4,0,0.8-0.4,0.8-0.8c0-0.4-0.4-0.8-0.8-0.8h1.6L556.2,247.7
		L556.2,247.7z M556.2,254.2h-6.5v-3.3h3.3c-0.4,0-0.8,0.4-0.8,0.8c0,0.4,0.4,0.8,0.8,0.8h1.6c0.4,0,0.8-0.4,0.8-0.8
		c0-0.4-0.4-0.8-0.8-0.8h1.6L556.2,254.2L556.2,254.2z M556.2,265.6v1.6h-1.6h-4.9v-1.6V264h3.3c-0.4,0-0.8,0.4-0.8,0.8
		s0.4,0.8,0.8,0.8h1.6c0.4,0,0.8-0.4,0.8-0.8s-0.4-0.8-0.8-0.8h1.6L556.2,265.6L556.2,265.6z M556.2,280.2h-3.3h-3.3v-2.6
		c0.1,0,0.2-0.1,0.4-0.1l1.5-0.5l1.3-0.5l3.3-1.1v1.5L556.2,280.2L556.2,280.2z M504.1,280.2h-6.5v-3.3h1.6c-0.4,0-0.8,0.4-0.8,0.8
		s0.4,0.8,0.8,0.8h1.6c0.4,0,0.8-0.4,0.8-0.8s-0.4-0.8-0.8-0.8h1.4l1.5,0.5c0.1,0,0.2,0.1,0.4,0.1V280.2z M497.6,263.9h1.6
		c-0.4,0-0.8,0.4-0.8,0.8s0.4,0.8,0.8,0.8h1.6c0.4,0,0.8-0.4,0.8-0.8s-0.4-0.8-0.8-0.8h3.3v3.3h-6.5L497.6,263.9L497.6,263.9z
		 M497.6,257.4h1.6c-0.4,0-0.8,0.4-0.8,0.8s0.4,0.8,0.8,0.8h1.6c0.4,0,0.8-0.4,0.8-0.8s-0.4-0.8-0.8-0.8h3.3v3.3h-6.5L497.6,257.4
		L497.6,257.4z M497.6,250.9h1.6c-0.4,0-0.8,0.4-0.8,0.8c0,0.4,0.4,0.8,0.8,0.8h1.6c0.4,0,0.8-0.4,0.8-0.8c0-0.4-0.4-0.8-0.8-0.8
		h3.3v3.3h-6.5L497.6,250.9L497.6,250.9z M497.6,244.4h1.6c-0.4,0-0.8,0.4-0.8,0.8c0,0.4,0.4,0.8,0.8,0.8h1.6c0.4,0,0.8-0.4,0.8-0.8
		c0-0.4-0.4-0.8-0.8-0.8h3.3v3.3h-6.5L497.6,244.4L497.6,244.4z M509,270.4h1.6c-0.1,0-0.1,0-0.2,0l-1.4,0.2L509,270.4L509,270.4z
		 M509,263.9h1.6c-0.4,0-0.8,0.4-0.8,0.8s0.4,0.8,0.8,0.8h1.6c0.4,0,0.8-0.4,0.8-0.8s-0.4-0.8-0.8-0.8h3.3v3.3H509V263.9z
		 M509,257.4h1.6c-0.4,0-0.8,0.4-0.8,0.8s0.4,0.8,0.8,0.8h1.6c0.4,0,0.8-0.4,0.8-0.8s-0.4-0.8-0.8-0.8h3.3v3.3H509V257.4z
		 M509,250.9h1.6c-0.4,0-0.8,0.4-0.8,0.8c0,0.4,0.4,0.8,0.8,0.8h1.6c0.4,0,0.8-0.4,0.8-0.8c0-0.4-0.4-0.8-0.8-0.8h3.3v3.3H509V250.9
		z M509,244.4h1.6c-0.4,0-0.8,0.4-0.8,0.8c0,0.4,0.4,0.8,0.8,0.8h1.6c0.4,0,0.8-0.4,0.8-0.8c0-0.4-0.4-0.8-0.8-0.8h3.3v3.3H509
		V244.4z M520.4,263.9h1.6c-0.4,0-0.8,0.4-0.8,0.8s0.4,0.8,0.8,0.8h1.6c0.4,0,0.8-0.4,0.8-0.8s-0.4-0.8-0.8-0.8h6.5
		c-0.4,0-0.8,0.4-0.8,0.8s0.4,0.8,0.8,0.8h1.6c0.4,0,0.8-0.4,0.8-0.8s-0.4-0.8-0.8-0.8h1.6v3.3h-13v-3.3H520.4z M520.4,257.4h1.6
		c-0.4,0-0.8,0.4-0.8,0.8s0.4,0.8,0.8,0.8h1.6c0.4,0,0.8-0.4,0.8-0.8s-0.4-0.8-0.8-0.8h6.5c-0.4,0-0.8,0.4-0.8,0.8s0.4,0.8,0.8,0.8
		h1.6c0.4,0,0.8-0.4,0.8-0.8s-0.4-0.8-0.8-0.8h1.6v3.3h-13v-3.3H520.4z M520.4,250.9h1.6c-0.4,0-0.8,0.4-0.8,0.8
		c0,0.4,0.4,0.8,0.8,0.8h1.6c0.4,0,0.8-0.4,0.8-0.8c0-0.4-0.4-0.8-0.8-0.8h6.5c-0.4,0-0.8,0.4-0.8,0.8c0,0.4,0.4,0.8,0.8,0.8h1.6
		c0.4,0,0.8-0.4,0.8-0.8c0-0.4-0.4-0.8-0.8-0.8h1.6v3.3h-13v-3.3H520.4z M520.4,244.4h1.6c-0.4,0-0.8,0.4-0.8,0.8
		c0,0.4,0.4,0.8,0.8,0.8h1.6c0.4,0,0.8-0.4,0.8-0.8c0-0.4-0.4-0.8-0.8-0.8h6.5c-0.4,0-0.8,0.4-0.8,0.8c0,0.4,0.4,0.8,0.8,0.8h1.6
		c0.4,0,0.8-0.4,0.8-0.8c0-0.4-0.4-0.8-0.8-0.8h1.6v3.3h-13v-3.3H520.4z M538.3,263.9h3.3c-0.4,0-0.8,0.4-0.8,0.8s0.4,0.8,0.8,0.8
		h1.6c0.4,0,0.8-0.4,0.8-0.8s-0.4-0.8-0.8-0.8h1.6v1.6v1.6h-1.6h-4.9L538.3,263.9L538.3,263.9z M538.3,257.4h3.3
		c-0.4,0-0.8,0.4-0.8,0.8s0.4,0.8,0.8,0.8h1.6c0.4,0,0.8-0.4,0.8-0.8s-0.4-0.8-0.8-0.8h1.6v1.6v1.6h-1.6h-4.9L538.3,257.4
		L538.3,257.4z M538.3,250.9h3.3c-0.4,0-0.8,0.4-0.8,0.8c0,0.4,0.4,0.8,0.8,0.8h1.6c0.4,0,0.8-0.4,0.8-0.8c0-0.4-0.4-0.8-0.8-0.8
		h1.6v3.3h-6.5L538.3,250.9L538.3,250.9z M538.3,244.4h3.3c-0.4,0-0.8,0.4-0.8,0.8c0,0.4,0.4,0.8,0.8,0.8h1.6c0.4,0,0.8-0.4,0.8-0.8
		c0-0.4-0.4-0.8-0.8-0.8h1.6v3.3h-6.5L538.3,244.4L538.3,244.4z M551.3,270.4h1.6c-0.4,0-0.8,0.4-0.8,0.8c0,0.1,0,0.2,0.1,0.3
		l-2.3-0.3h-0.2v-0.8H551.3z M521.2,274.5c0.4,0,0.8-0.4,0.8-0.8h3.3c0,0.4,0.4,0.8,0.8,0.8c0.4,0,0.8-0.4,0.8-0.8h3.3
		c0,0.4,0.4,0.8,0.8,0.8s0.8-0.4,0.8-0.8h1.6h1.6c0,0.4,0.4,0.8,0.8,0.8s0.8-0.4,0.8-0.8h1.6h1.6c0,0.4,0.4,0.8,0.8,0.8
		s0.8-0.4,0.8-0.8h1.5h0.1l1.6,0.2l1.6,0.2l1.6,0.2l0.8,0.1c-0.2,0.1-0.5,0.1-0.8,0.2c-0.5,0.1-1,0.2-1.6,0.3
		c-0.5,0.1-1.1,0.1-1.6,0.2c-0.6,0.1-1.1,0.1-1.6,0.1c-0.6,0-1.2,0.1-1.6,0.1h-3.3h-1.6H535h-1.6h-13h-1.6h-1.6h-1.6h-3.3
		c-0.8,0-2-0.1-3.3-0.2c-0.5-0.1-1.1-0.1-1.6-0.2c-0.6-0.1-1.2-0.2-1.6-0.3c-0.3-0.1-0.6-0.1-0.8-0.2l0.8-0.1l1.6-0.2l1.6-0.2
		l1.6-0.2c0,0.4,0.4,0.8,0.8,0.8c0.4,0,0.8-0.4,0.8-0.8h3.3c0,0.4,0.4,0.8,0.8,0.8s0.8-0.4,0.8-0.8h1.6h1.6
		C520.4,274.1,520.8,274.5,521.2,274.5z M544.8,270.6l-1.4-0.2c-0.1,0-0.1,0-0.2,0h1.6L544.8,270.6L544.8,270.6z M504.1,271.2
		l-2.5,0.3c0-0.1,0.1-0.2,0.1-0.3c0-0.4-0.4-0.8-0.8-0.8h3.3L504.1,271.2L504.1,271.2z M499.3,270.4c-0.4,0-0.8,0.4-0.8,0.8
		c0,0.3,0.1,0.5,0.3,0.7l-1.1,0.1v-1.6H499.3z M556.2,272.1l-1.1-0.1c0.2-0.1,0.3-0.4,0.3-0.7c0-0.4-0.4-0.8-0.8-0.8h1.6V272.1z
		 M552.9,260.7h-3.3l0,0v-1.6v-1.6h3.3c-0.4,0-0.8,0.4-0.8,0.8c0,0.2,0.1,0.4,0.2,0.5c0.1,0.2,0.4,0.3,0.6,0.3h1.6
		c0.4,0,0.8-0.4,0.8-0.8c0-0.1,0-0.3-0.1-0.4c-0.1-0.2-0.4-0.4-0.7-0.4h1.6l0,0v3.2H552.9z M505.8,281.8v-1.6h1.6v1.6v1.6h-1.6
		V281.8z M517.2,280.2h1.6v3.3h-1.6V280.2z M535,280.2h1.6v3.3H535V280.2z M546.4,281.8v-1.6h1.6v1.6v1.6h-1.6V281.8z M557.8,281.8
		v-1.6v-3.3v-1.6v-1.6v-1.6v-1.6v-1.6v-1.6v-1.6v-1.6v-1.6v-1.6v-0.4v-1.3v-1.6v-0.8v-0.9v-1.6V251v-1.6v-1.6v-3.3v-1.6v-1.6h1.6
		v1.6v1.6v3.3v1.6v1.6v3.3v1.2v0.5v1.6v2.1v1.2v1.6v1.6v1.6v1.6v1.6v1.6v1.6v1.6v1.6v1.6v3.3v1.6v1.6h-1.6V281.8z M481.4,241.2h-3.3
		v-1.6h1.6h1.6L481.4,241.2L481.4,241.2z M406.6,257.4h-4.9v-4.9c0-0.4-0.4-0.8-0.8-0.8s-0.8,0.4-0.8,0.8v4.9h-3.3v-4.9
		c0-0.4-0.4-0.8-0.8-0.8s-0.8,0.4-0.8,0.8v4.9h-3.3v-4.9c0-0.4-0.4-0.8-0.8-0.8s-0.8,0.4-0.8,0.8v4.9H387v-4.9
		c0-0.4-0.4-0.8-0.8-0.8s-0.8,0.4-0.8,0.8v4.9h-3.3v-4.9c0-0.4-0.4-0.8-0.8-0.8s-0.8,0.4-0.8,0.8v4.9h-3.3v-4.9
		c0-0.4-0.4-0.8-0.8-0.8s-0.8,0.4-0.8,0.8v4.9h-4.9V246h35.8L406.6,257.4L406.6,257.4z M330.1,275.3h4.9v4.9h-1.6v-1.6
		c0-0.4-0.4-0.8-0.8-0.8s-0.8,0.4-0.8,0.8v1.6h-1.6v-4.9H330.1z M339.9,276.9c0-0.9,0.7-1.6,1.6-1.6h3.3v6.5h-4.9V276.9z
		 M349.6,276.9c0-0.9,0.7-1.6,1.6-1.6h3.3v6.5h-4.9V276.9z M359.4,276.9c0-0.9,0.7-1.6,1.6-1.6h3.3v6.5h-4.9V276.9z M377.3,273.7
		h3.3v8.1h-3.3V273.7z M385.4,273.7h8.1v8.1h-8.1V273.7z M398.4,273.7h3.3v8.1h-3.3V273.7z M406.6,281.8v-7c0.5,0.3,1,0.5,1.6,0.5
		h1.6v6.5H406.6z M414.7,276.9c0-0.9,0.7-1.6,1.6-1.6h3.3v6.5h-4.9V276.9z M569.2,286.7v-1.6v-1.6v-1.6v-1.6V277v-1.6v-1.6v-1.6
		v-1.6V269v-1.6v-1.6v-1.6v-1.6V261v-3.3v-1.6v-1.6v-3.3v-1.6V248v-3.3v-1.6v-1.6h1.6v1.6v1.6v3.3v1.6v1.6v3.3v1.6v1.6v0.9v2.4v1.6
		v1.6v1.6v0.8v0.8v1.6v1.6v0.8v0.8v1.6v1.6v1.6v3.3v1.6v1.6v1.6v1.6L569.2,286.7L569.2,286.7z M572.4,283.4h1.6
		c-0.4,0-0.8,0.4-0.8,0.8s0.4,0.8,0.8,0.8h1.6v1.6h-3.3v-3.2H572.4z M577.3,285.1v-1.6v-1.6h1.6v4.9h-1.6V285.1z M627.7,286.7h-14.6
		v-4.9h14.6V286.7z M611.5,280.2h-22.8v-9.8c0-0.9-0.7-1.6-1.6-1.6h-3.3c-0.9,0-1.6-0.7-1.6-1.6v-1.6h29.3L611.5,280.2L611.5,280.2z
		 M579,258.6c-0.5-0.2-1.1-0.3-1.6-0.5v-21.8h1.6V258.6z M476.5,253.6l-1.6-16.8v-0.5h1.6V253.6z M470,226.5h0.6l0.2,1.6h-8.9
		c0-0.3,0-0.5-0.1-0.8c0-0.3,0.1-0.5,0.1-0.8H470z M458.2,224.9c0.3,0.5,0.4,1,0.4,1.6s-0.2,1.1-0.4,1.6c-0.6,1-1.6,1.6-2.8,1.6
		s-2.3-0.7-2.8-1.6c-0.3-0.5-0.4-1-0.4-1.6s0.2-1.1,0.4-1.6c0.6-1,1.6-1.6,2.8-1.6S457.6,223.9,458.2,224.9z M432.7,268.8H431v-6.5
		c0-0.4-0.4-0.8-0.8-0.8s-0.8,0.4-0.8,0.8v6.5h-3.3V259c0-0.4-0.4-0.8-0.8-0.8s-0.8,0.4-0.8,0.8v9.8h-3.3v-13c0-0.4-0.4-0.8-0.8-0.8
		s-0.8,0.4-0.8,0.8v13l0,0h-3.3l0,0v-16.3c0-0.4-0.4-0.8-0.8-0.8s-0.8,0.4-0.8,0.8v16.3l0,0h-2.3l0,0c-0.3-0.9-0.6-1.9-0.9-3.1
		v-13.2c0-0.4-0.4-0.8-0.8-0.8s-0.8,0.4-0.8,0.8v5.1c-0.8-4.7-1.2-9.3-1.5-11.6h10.2c3.2,6.8,8.8,11.6,15,14.9L432.7,268.8z
		 M358.8,246h10.3v10.6c-0.2,0-0.4,0.1-0.6,0.2c-0.3,0.3-0.3,0.8,0,1.1l0.6,0.6v0.5c0,1.7-0.1,3.4-0.3,4.9c-0.3,2.5-0.8,4.5-1.3,4.9
		v-4.9v-11.4c0-0.4-0.4-0.8-0.8-0.8s-0.8,0.4-0.8,0.8v16.3h-3.3v-16.3c0-0.4-0.4-0.8-0.8-0.8s-0.8,0.4-0.8,0.8v16.3h-3.3v-13
		c0-0.4-0.4-0.8-0.8-0.8s-0.8,0.4-0.8,0.8v13h-3.3V259c0-0.4-0.4-0.8-0.8-0.8s-0.8,0.4-0.8,0.8v9.8H348v-6.5c0-0.4-0.4-0.8-0.8-0.8
		s-0.8,0.4-0.8,0.8v6.5h-3.3v-4.9c0-0.4-0.4-0.8-0.8-0.8s-0.8,0.4-0.8,0.8v4.9h-3.3v-3.3c0-0.4-0.4-0.8-0.8-0.8s-0.8,0.4-0.8,0.8
		v3.3h-3.3v-1.6c0-0.4-0.4-0.8-0.8-0.8s-0.8,0.4-0.8,0.8v1.6h-1.6h-1.6c0-0.4-0.4-0.8-0.8-0.8s-0.8,0.4-0.8,0.8h-3.3
		c-2,0-3.7-0.2-5.3-0.5C329.9,267,351.1,262.4,358.8,246z M328.5,272.1v6.5c0-0.4-0.4-0.8-0.8-0.8s-0.8,0.4-0.8,0.8v1.6h-3.3v-1.6
		v-6.5H328.5z M422.8,285.1v-3.3h1.6h4.9h3.3h1.6h4.9h3.3h1.6h3.3h1.6h4.9h1.6h1.6h4.9h9.8h3.3h1.6h1.6h3.3h1.6h1.6h1.6h1.6v1.6v3.3
		h-1.6h-1.6H483v-3.3c0-0.4-0.4-0.8-0.8-0.8s-0.8,0.4-0.8,0.8v3.3h-1.6h-1.6h-1.6v-3.3c0-0.4-0.4-0.8-0.8-0.8s-0.8,0.4-0.8,0.8v3.3
		h-3.3H470v-3.3c0-0.4-0.4-0.8-0.8-0.8s-0.8,0.4-0.8,0.8v3.3h-4.9v-3.3v-0.1c0-0.4-0.4-0.7-0.8-0.7s-0.8,0.4-0.8,0.8v3.3h-1.6H457
		v-1.6v-1.6c0-0.4-0.4-0.8-0.8-0.8s-0.8,0.4-0.8,0.8v1.6v1.6h-4.9v-1.6v-1.6c0-0.4-0.4-0.8-0.8-0.8s-0.8,0.4-0.8,0.8v1.6v1.6H444
		v-1.6v-1.6c0-0.4-0.4-0.8-0.8-0.8s-0.8,0.4-0.8,0.8v1.6v1.6h-4.9v-1.6v-1.6c0-0.4-0.4-0.8-0.8-0.8s-0.8,0.4-0.8,0.8v1.6v1.6H431
		v-1.6v-1.6c0-0.4-0.4-0.8-0.8-0.8c-0.2,0-0.4,0.1-0.5,0.2c-0.2,0.1-0.3,0.4-0.3,0.7v1.6v1.6h-6.5v-1.7H422.8z M648.9,283.4v3.3
		h-9.8h-9.8v-4.9h9.8h9.8V283.4z M637.5,263.9h-24.4v-1.6h24.4V263.9z M417.9,242.8h-58.5v-1.6h58.5V242.8z M285.1,250.9l2.5,16.3
		h-3v-1.6c0-0.4-0.4-0.8-0.8-0.8s-0.8,0.4-0.8,0.8v1.6h-3.3v-1.6c0-0.4-0.4-0.8-0.8-0.8s-0.8,0.4-0.8,0.8v1.6h-3.3v-16.3
		L285.1,250.9L285.1,250.9z M269.9,267.2h-1.6v-1.6c0-0.6-0.3-1.1-0.8-1.4c0-0.1,0-0.1,0-0.2c0-0.2-0.1-0.4-0.2-0.6
		s-0.4-0.2-0.6-0.2v-1.6c0-1.5,0.5-2.9,1.2-3.8c1.2,0.6,2.1,2.1,2.1,3.8v5.6H269.9z M258.6,267.2h-3.3v-1.6c0-0.4-0.4-0.8-0.8-0.8
		s-0.8,0.4-0.8,0.8v1.6h-3.3v-1.6c0-0.4-0.4-0.8-0.8-0.8s-0.8,0.4-0.8,0.8v1.6h-3l2.5-16.3h10.2L258.6,267.2L258.6,267.2z
		 M213,283.4h35.8v3.3h-17.9h-19.5h-3.3h-1.6h-1.6h-3.3h-4.4l0.8-3.3h3.6h3.3h1.6h1.6h3.3H213z M122,278.6h8.1h8.1v3v0.9v0.9v3.4
		h-6.5v-1.1v-0.9v-0.9v-2.1c0-0.9-0.7-1.6-1.6-1.6c-0.9,0-1.6,0.7-1.6,1.6v3.2v0.9v0.8h-2.3h-2.5H122V278.6z M191.9,262.3v-0.7
		l4.9-2.4l2.2,1.1l1,0.5l1,0.5l0.7,0.3v0.7v1.6h-3.3v-1.6v-0.1c0-0.3-0.1-0.5-0.3-0.8s-0.4-0.5-0.7-0.6c-0.2-0.1-0.4-0.1-0.6-0.1
		c-0.6,0-1.2,0.3-1.4,0.8c-0.1,0.2-0.2,0.5-0.2,0.8v0.2v0.9v0.6h-1.7H192v-0.3v-0.9L191.9,262.3L191.9,262.3z M191.9,286.7v-6.5h3.3
		v1.4l-1.3,5.1H191.9z M186.2,284.3c-0.4,0-0.8,0.4-0.8,0.8v1.6h-6.5v-1.6c0-0.4-0.4-0.8-0.8-0.8c-0.4,0-0.8,0.4-0.8,0.8v1.6h-1.6
		h-4.9v-1.6c0-0.4-0.4-0.8-0.8-0.8c-0.4,0-0.8,0.4-0.8,0.8v1.6h-6.5v-1.6c0-0.4-0.4-0.8-0.8-0.8c-0.4,0-0.8,0.4-0.8,0.8v1.6h-6.5
		v-1.6v-1.6h3.3h8.1h8.1h8.1h6.5v3.3H187v-1.6C187,284.6,186.6,284.3,186.2,284.3z M161.8,272.9c0.4,0,0.8-0.4,0.8-0.8v-1.6h1.6v2
		v0.9v0.9v7.6H161v-3.3c0,0.4,0.4,0.8,0.8,0.8c0.4,0,0.8-0.4,0.8-0.8V277c0-0.4-0.4-0.8-0.8-0.8c-0.4,0-0.8,0.4-0.8,0.8v-1.6v-0.9
		v-0.9v-1.5C161,272.5,161.3,272.9,161.8,272.9z M186.2,276.1c-0.4,0-0.8,0.4-0.8,0.8V272c0,0.4,0.4,0.8,0.8,0.8
		c0.4,0,0.8-0.4,0.8-0.8v-1.6h1.6v11.4h-3.3v-3.3c0,0.4,0.4,0.8,0.8,0.8c0.4,0,0.8-0.4,0.8-0.8v-1.6
		C187,276.5,186.6,276.1,186.2,276.1z M191.9,265.6h4.9h4.9v13c0-0.4-0.4-0.8-0.8-0.8c-0.4,0-0.8,0.4-0.8,0.8h-1.6V277
		c0-0.9-0.7-1.6-1.6-1.6s-1.6,0.7-1.6,1.6v1.6H192L191.9,265.6L191.9,265.6z M169.1,278.6c0,0.4,0.4,0.8,0.8,0.8
		c0.4,0,0.8-0.4,0.8-0.8V277c0-0.4-0.4-0.8-0.8-0.8c-0.4,0-0.8,0.4-0.8,0.8v-4.5v-0.4c0,0.1,0,0.3,0.1,0.4c0.1,0.3,0.4,0.4,0.7,0.4
		c0.4,0,0.8-0.4,0.8-0.8v-0.2V271v-0.6h1.6l0,0v0.9v10.5H169L169.1,278.6L169.1,278.6z M178.1,276.1c-0.4,0-0.8,0.4-0.8,0.8V272
		c0,0.4,0.4,0.8,0.8,0.8c0.4,0,0.8-0.4,0.8-0.8v-1.6h1.6v11.4h-3.3v-3.3c0,0.4,0.4,0.8,0.8,0.8c0.4,0,0.8-0.4,0.8-0.8v-1.6
		C178.9,276.5,178.5,276.1,178.1,276.1z M156.1,275.3v0.9v0.9v4.8h-1.6v-3.3v-1v-0.7v-0.2v-0.9V272v-1.6v-1.6h1.6V275.3z
		 M208.1,278.6h-1.6v-13h1.6V278.6z M154.5,267.2v-1.6v-3.1c0.9,0.3,1.6,1.2,1.6,2.3v2.4L154.5,267.2L154.5,267.2z M118.7,286.7
		h-6.5v-6.5h6.5V286.7z M74.8,278.6V277v-4.9v-1.6v-1.6h1.6v13h-1.6V278.6z M81.3,278.6c0,0.4,0.4,0.8,0.8,0.8s0.8-0.4,0.8-0.8V277
		c0-0.4-0.4-0.8-0.8-0.8s-0.8,0.4-0.8,0.8v-4.9c0,0.4,0.4,0.8,0.8,0.8s0.8-0.4,0.8-0.8v-1.6h1.6v11.4h-3.3L81.3,278.6L81.3,278.6z
		 M89.4,278.6c0,0.4,0.4,0.8,0.8,0.8s0.8-0.4,0.8-0.8V277c0-0.4-0.4-0.8-0.8-0.8s-0.8,0.4-0.8,0.8v-4.9c0,0.4,0.4,0.8,0.8,0.8
		s0.8-0.4,0.8-0.8v-1.6h1.6v11.4h-3.3L89.4,278.6L89.4,278.6z M97.6,278.6c0,0.4,0.4,0.8,0.8,0.8s0.8-0.4,0.8-0.8V277
		c0-0.4-0.4-0.8-0.8-0.8s-0.8,0.4-0.8,0.8v-4.9c0,0.4,0.4,0.8,0.8,0.8s0.8-0.4,0.8-0.8v-1.6h1.6v11.4h-3.3L97.6,278.6L97.6,278.6z
		 M105.7,278.6c0,0.4,0.4,0.8,0.8,0.8s0.8-0.4,0.8-0.8V277c0-0.4-0.4-0.8-0.8-0.8s-0.8,0.4-0.8,0.8v-4.9c0,0.4,0.4,0.8,0.8,0.8
		s0.8-0.4,0.8-0.8v-1.6h1.6v11.4h-3.3L105.7,278.6L105.7,278.6z M74.8,267.2v-1.6v-3.1c0.9,0.3,1.6,1.2,1.6,2.3v2.4L74.8,267.2
		L74.8,267.2z M694.4,286.7v-0.6v-4.3h9.8v4.9h-8.6H694.4z M735.1,281.8v4.9h-24.4v-4.9H735.1z M764.4,280.2H753v-4.9
		c0-0.9-0.7-1.6-1.6-1.6c-0.9,0-1.6,0.7-1.6,1.6v4.9h-11.4v-6.5h3.3h9.8h9.8h3.3v6.5H764.4z M764.4,286.7h-26v-4.9h13h13V286.7z
		 M759.5,265.6v3.3c0-0.4-0.4-0.8-0.8-0.8c-0.4,0-0.8,0.4-0.8,0.8v1.6h-1.6v-4.1c0-0.4-0.4-0.8-0.8-0.8H759.5z M748.1,267.2h6.5v1.6
		c0-0.4-0.4-0.8-0.8-0.8c-0.4,0-0.8,0.4-0.8,0.8v1.6h-1.6v-1.6c0-0.4-0.4-0.8-0.8-0.8s-0.8,0.4-0.8,0.8v1.6h-1.6v-3.2H748.1z
		 M747.3,265.6c-0.4,0-0.8,0.4-0.8,0.8v4.1h-1.6v-1.6c0-0.4-0.4-0.8-0.8-0.8s-0.8,0.4-0.8,0.8v-3.3H747.3z M740,270.4h-3.3h-1.6
		c-0.4,0-0.8,0.4-0.8,0.8s0.4,0.8,0.8,0.8v8.1h-24.4v-14.6H740V270.4z M704.2,280.2h-21.4H681h-1.3v-0.6v-0.9v-13.1h11.4h13
		L704.2,280.2L704.2,280.2z M608.2,259.1v-1.6c0-0.4-0.4-0.8-0.8-0.8c-0.4,0-0.8,0.4-0.8,0.8v1.6H605v-5.5c1.8-0.1,2.2-0.3,2.4-0.4
		l1.6-0.8c0.6-0.3,1-1,0.9-1.7s-0.6-1.2-1.3-1.4c-2-0.4-7.5-2.2-8.5-5.4c-0.2-0.7-0.8-1.1-1.5-1.1s-1.3,0.4-1.5,1.1
		c-1.1,3.3-6.5,5-8.5,5.4c-0.7,0.1-1.2,0.7-1.3,1.4s0.3,1.4,0.9,1.7l1.6,0.8c0.2,0.1,0.5,0.3,2.4,0.4v5.5h-1.6v-1.6
		c0-0.4-0.4-0.8-0.8-0.8s-0.8,0.4-0.8,0.8v1.6h-6.5v-22l32.9,10.4l22.7,11.6H608.2z M579,233h-4.1h-2.7h-2.7h-94.6
		c-0.1,0-0.2,0-0.4,0l-0.2-1.6h0.5c0,0.4,0.4,0.8,0.8,0.8s0.8-0.4,0.8-0.8h3.3c0,0.4,0.4,0.8,0.8,0.8s0.8-0.4,0.8-0.8h3.3
		c0,0.4,0.4,0.8,0.8,0.8s0.8-0.4,0.8-0.8h3.3c0,0.4,0.4,0.8,0.8,0.8s0.8-0.4,0.8-0.8h3.3c0,0.4,0.4,0.8,0.8,0.8s0.8-0.4,0.8-0.8h3.3
		c0,0.4,0.4,0.8,0.8,0.8s0.8-0.4,0.8-0.8h3.3c0,0.4,0.4,0.8,0.8,0.8s0.8-0.4,0.8-0.8h3.3c0,0.4,0.4,0.8,0.8,0.8s0.8-0.4,0.8-0.8h3.3
		c0,0.4,0.4,0.8,0.8,0.8c0.4,0,0.8-0.4,0.8-0.8h3.3c0,0.4,0.4,0.8,0.8,0.8c0.4,0,0.8-0.4,0.8-0.8h3.3c0,0.4,0.4,0.8,0.8,0.8
		s0.8-0.4,0.8-0.8h3.3c0,0.4,0.4,0.8,0.8,0.8s0.8-0.4,0.8-0.8h3.3c0,0.4,0.4,0.8,0.8,0.8c0.4,0,0.8-0.4,0.8-0.8h3.3
		c0,0.4,0.4,0.8,0.8,0.8c0.4,0,0.8-0.4,0.8-0.8h3.3c0,0.4,0.4,0.8,0.8,0.8s0.8-0.4,0.8-0.8h3.3c0,0.4,0.4,0.8,0.8,0.8
		s0.8-0.4,0.8-0.8h3.3c0,0.4,0.4,0.8,0.8,0.8s0.8-0.4,0.8-0.8h3.3c0,0.4,0.4,0.8,0.8,0.8c0.4,0,0.8-0.4,0.8-0.8h3.3
		c0,0.4,0.4,0.8,0.8,0.8c0.4,0,0.8-0.4,0.8-0.8l0,0h2.7h0.6c0,0.1,0,0.1,0,0.2c0.1,0.4,0.4,0.6,0.8,0.6c0.2,0,0.4-0.1,0.5-0.2
		c0.2-0.1,0.3-0.4,0.3-0.6h0.5h2.8c0,0.4,0.4,0.8,0.8,0.8s0.8-0.4,0.8-0.8h3.3c0,0.4,0.4,0.8,0.8,0.8s0.8-0.4,0.8-0.8h1.5l5.8,0.7
		C584.7,232.6,580.6,233,579,233z M476.5,228.2H474l-0.2-2.2c0.9,0.1,1.8,0.3,2.7,0.3V228.2z M440.9,101.3c0.5-0.1,1-0.4,1.3-0.8
		c1.6-0.4,3.6-0.8,5.1-0.8c2.1,0,4.9,0.7,6.5,1.2v0.4c0,0.9,0.7,1.6,1.6,1.6s1.6-0.7,1.6-1.6v-0.4c1.6-0.5,4.4-1.2,6.5-1.2
		c1.5,0,3.5,0.4,5.1,0.8c0.3,0.4,0.7,0.8,1.3,0.8l-1.2,13.7c-1.6-0.4-3.5-0.7-5.1-0.7c-2.9,0-6.7,1.1-8.1,1.5
		c-1.4-0.4-5.3-1.5-8.1-1.5c-1.6,0-3.5,0.3-5.1,0.7L440.9,101.3z M440.9,119.2c0.5-0.1,1-0.4,1.3-0.8c1.6-0.4,3.6-0.8,5.1-0.8
		c2.1,0,4.9,0.7,6.5,1.2v0.4c0,0.9,0.7,1.6,1.6,1.6s1.6-0.7,1.6-1.6v-0.4c1.6-0.5,4.4-1.2,6.5-1.2c1.5,0,3.5,0.4,5.1,0.8
		c0.3,0.4,0.7,0.8,1.3,0.8l-1.2,13.7c-1.6-0.4-3.5-0.7-5.1-0.7c-2.9,0-6.7,1.1-8.1,1.5c-1.4-0.4-5.3-1.5-8.1-1.5
		c-1.6,0-3.5,0.3-5.1,0.7L440.9,119.2z M440.9,137.1c0.5-0.1,1-0.4,1.3-0.8c1.6-0.4,3.6-0.8,5.1-0.8c2.1,0,4.9,0.7,6.5,1.2v0.4
		c0,0.9,0.7,1.6,1.6,1.6s1.6-0.7,1.6-1.6v-0.4c1.6-0.5,4.4-1.2,6.5-1.2c1.5,0,3.5,0.4,5.1,0.8c0.3,0.4,0.7,0.8,1.3,0.8l-1.2,13.7
		c-1.6-0.4-3.5-0.7-5.1-0.7c-2.9,0-6.7,1.1-8.1,1.5c-1.4-0.4-5.3-1.5-8.1-1.5c-1.6,0-3.5,0.3-5.1,0.7L440.9,137.1z M440.9,155
		c0.5-0.1,1-0.4,1.3-0.8c1.6-0.4,3.6-0.8,5.1-0.8c2.1,0,4.9,0.7,6.5,1.2v0.4c0,0.9,0.7,1.6,1.6,1.6s1.6-0.7,1.6-1.6v-0.4
		c1.6-0.5,4.4-1.2,6.5-1.2c1.5,0,3.5,0.4,5.1,0.8c0.3,0.4,0.7,0.8,1.3,0.8l-1.2,13.7c-1.6-0.4-3.5-0.7-5.1-0.7
		c-2.9,0-6.7,1.1-8.1,1.5c-1.4-0.4-5.3-1.5-8.1-1.5c-1.6,0-3.5,0.3-5.1,0.7L440.9,155z M440.9,172.9c0.5-0.1,1-0.4,1.3-0.8
		c1.6-0.4,3.6-0.8,5.1-0.8c2.1,0,4.9,0.7,6.5,1.2v0.4c0,0.9,0.7,1.6,1.6,1.6s1.6-0.7,1.6-1.6v-0.4c1.6-0.5,4.4-1.2,6.5-1.2
		c1.5,0,3.5,0.4,5.1,0.8c0.3,0.4,0.7,0.8,1.3,0.8l-1.2,13.7c-1.6-0.4-3.5-0.7-5.1-0.7c-2.9,0-6.7,1.1-8.1,1.5
		c-1.4-0.4-5.3-1.5-8.1-1.5c-1.6,0-3.5,0.3-5.1,0.7L440.9,172.9z M440.9,190.7c0.5-0.1,1-0.4,1.3-0.8c1.6-0.4,3.6-0.8,5.1-0.8
		c2.1,0,4.9,0.7,6.5,1.2v0.4c0,0.9,0.7,1.6,1.6,1.6s1.6-0.7,1.6-1.6v-0.4c1.6-0.5,4.4-1.2,6.5-1.2c1.5,0,3.5,0.4,5.1,0.8
		c0.3,0.4,0.7,0.8,1.3,0.8l-1.2,13.7c-1.6-0.4-3.5-0.7-5.1-0.7c-2.9,0-6.7,1.1-8.1,1.5c-1.4-0.4-5.3-1.5-8.1-1.5
		c-1.6,0-3.5,0.3-5.1,0.7L440.9,190.7z M440.9,208.6c0.5-0.1,1-0.4,1.3-0.8c1.6-0.4,3.6-0.8,5.1-0.8c2.1,0,4.9,0.7,6.5,1.2v0.1v0.3
		c0,0.2,0,0.3,0.1,0.5c0.1,0.3,0.3,0.6,0.5,0.8c0.3,0.2,0.6,0.4,1,0.4c0.5,0,0.9-0.2,1.2-0.5c0.2-0.2,0.4-0.5,0.4-0.8
		c0-0.1,0-0.2,0-0.3v-0.4c0.1,0,0.2-0.1,0.3-0.1c1.6-0.5,4.2-1.1,6.2-1.1c1.2,0,2.7,0.3,4.1,0.6c0.4,0.1,0.7,0.2,1,0.2
		c0.1,0.2,0.2,0.3,0.3,0.4c0.2,0.2,0.6,0.4,0.9,0.4v0.3l-1,11.2l-0.1,1.6l-0.1,1.1v0.5h-3.7h-3c-0.3,0-0.5,0.1-0.8,0.2
		c-1.1-2-3.3-3.4-5.7-3.4c-2.5,0-4.6,1.4-5.7,3.4c-0.2-0.1-0.5-0.2-0.8-0.2h-6.6l-1.2-12.7l-0.1-0.8l-0.1-0.8L440.9,208.6z
		 M254.1,238.9l1.8-0.6c0.5-0.2,1.7-0.2,2.2-0.1l3.3,0.8c1,0.2,2.6,0.4,3.6,0.4h3.3c1,0,2.6-0.2,3.6-0.4l3.3-0.8
		c0.5-0.1,1.7-0.1,2.2,0.1l1.8,0.6c0.2,0.1,0.3,0.1,0.5,0.1c-0.2,0.6,0,1.2,0.4,1.6l-1.7-0.6c-1.2-0.4-2.8-0.5-4-0.2l-3.3,0.8
		c-0.7,0.2-2.1,0.3-2.8,0.3H265c-0.8,0-2.1-0.2-2.8-0.3l-3.3-0.8c-1.2-0.3-2.9-0.2-4,0.2l-1.7,0.6c0.4-0.4,0.6-1,0.4-1.6
		C253.8,239,254,239,254.1,238.9z M208.1,259.1v4.9h-1.6v-4.6v-0.3h0.8H208.1z M201.6,252.5v6.8v0.5l-0.5-0.3l-4-2
		c-0.2-0.1-0.5-0.1-0.7,0l-4.5,2.3v-7.2L201.6,252.5L201.6,252.5z M188.6,261.5c-0.7-0.5-1.5-0.8-2.4-0.8c-2.2,0-4.1,1.8-4.1,4.1
		c0-2.2-1.8-4.1-4.1-4.1s-4.1,1.8-4.1,4.1c0-2.2-1.8-4.1-4.1-4.1s-4.1,1.8-4.1,4.1c0-2.2-1.8-4.1-4.1-4.1c-2.2,0-4.1,1.8-4.1,4.1
		c0-2-1.4-3.6-3.3-4v-0.1h7.3h8.1h8.1h8.1h2.4v0.8H188.6z M127.2,255.7l2.9-1.4l2.9,1.4c0.1,0.1,0.2,0.1,0.4,0.1h3.3h1.6v4.9h-1.6
		v-1.6c0-0.4-0.4-0.8-0.8-0.8c-0.4,0-0.8,0.4-0.8,0.8v1.6h-3.3v-1.6c0-0.9-0.7-1.6-1.6-1.6c-0.9,0-1.6,0.7-1.6,1.6v1.6h-3.3v-1.6
		v-3.3h1.6C127,255.8,127.1,255.8,127.2,255.7z M108.9,261.5c-0.7-0.5-1.5-0.8-2.4-0.8c-2.2,0-4.1,1.8-4.1,4.1
		c0-2.2-1.8-4.1-4.1-4.1c-2.2,0-4.1,1.8-4.1,4.1c0-2.2-1.8-4.1-4.1-4.1c-2.2,0-4.1,1.8-4.1,4.1c0-2.2-1.8-4.1-4.1-4.1
		c-2.2,0-4.1,1.8-4.1,4.1c0-2-1.4-3.6-3.3-4v-0.1h7.3h8.1H98h8.1h2.4v0.8H108.9z M68.3,252.5v7.2l-4.5-2.3c-0.2-0.1-0.5-0.1-0.7,0
		l-4.5,2.3v-7.2L68.3,252.5L68.3,252.5z M58.5,262.3v-0.7l4.9-2.4l4.9,2.4v0.7v1.6H65v-1.6c0-0.9-0.7-1.6-1.6-1.6s-1.6,0.7-1.6,1.6
		v1.6h-3.3V262.3z M63.4,265.6h4.9v13H65V277c0-0.9-0.7-1.6-1.6-1.6s-1.6,0.7-1.6,1.6v1.6h-3.3v-13H63.4z M58.5,280.2h4.9h4.9v6.5
		h-9.8V280.2z M770.9,270.4c0-0.9-0.7-1.6-1.6-1.6s-1.6-0.7-1.6-1.6v-1.6h3.3v4.8H770.9z M770.9,263.9h-1.6v-1.6h1.6V263.9z
		 M714.7,256.6c-0.4,0-0.8,0.4-0.8,0.8v-1.6h3.3v3.3h-1.6v-1.6C715.6,257,715.2,256.6,714.7,256.6z M718.8,247.6
		c1,1.2,2.3,2.1,3.7,2.8c-2.1,0-5.2,0-7.4,0C716.5,249.7,717.8,248.8,718.8,247.6z M722.9,256.6c-0.4,0-0.8,0.4-0.8,0.8v1.6h-1.6
		v-3.3h3.3v1.6C723.7,257,723.3,256.6,722.9,256.6z M718.8,262.3h17.5l1.3,0.6c0.6,0.3,1.4,0.5,2.4,0.7v0.3h-27.6v-1.6H718.8z
		 M704.2,263.9h-24.4v-1.6h24.4V263.9z M678.2,262.3L678.2,262.3c-0.2,0-0.4,0.1-0.6,0.2c-0.2,0.1-0.2,0.4-0.2,0.6s0.1,0.4,0.2,0.6
		c0.1,0.2,0.4,0.2,0.6,0.2H651h-1.8h-1.8h-1.8V263v-0.7h0.4h1.8h27.1H678.2z M639.7,249.2c2.8-1,5.6-2.5,6.9-4.8h0.6
		c0,0.4,0.4,0.8,0.8,0.8c0.4,0,0.8-0.4,0.8-0.8h1.6c0,0.4,0.4,0.8,0.8,0.8s0.8-0.4,0.8-0.8h1.6c0,0.4,0.4,0.8,0.8,0.8
		s0.8-0.4,0.8-0.8h1.6c0,0.4,0.4,0.8,0.8,0.8s0.8-0.4,0.8-0.8h1.6c0,0.4,0.4,0.8,0.8,0.8s0.8-0.4,0.8-0.8h1.6c0,0.4,0.4,0.8,0.8,0.8
		c0.4,0,0.8-0.4,0.8-0.8h1.6c0,0.4,0.4,0.8,0.8,0.8c0.4,0,0.8-0.4,0.8-0.8h1.6c0,0.4,0.4,0.8,0.8,0.8c0.1,0,0.2,0,0.3-0.1
		c1.5,1.8,4,3.1,6.4,4c-1,0.1-2,0.1-2.7,0.1h-32.5C641.7,249.3,640.7,249.3,639.7,249.2z M666.8,257.4c0-0.4-0.4-0.8-0.8-0.8
		c-0.4,0-0.8,0.4-0.8,0.8v1.6h-1.6v-1.6c0-0.4-0.4-0.8-0.8-0.8s-0.8,0.4-0.8,0.8v1.6h-1.6v-1.6c0-0.4-0.4-0.8-0.8-0.8
		s-0.8,0.4-0.8,0.8v1.6H657v-1.6c0-0.4-0.4-0.8-0.8-0.8s-0.8,0.4-0.8,0.8v1.6h-1.6v-1.6c0-0.4-0.4-0.8-0.8-0.8
		c-0.4,0-0.8,0.4-0.8,0.8v1.6h-1.6v-3.3h16.3v1.7H666.8z M644,255.8h4.9v3.3h-1.6v-1.6c0-0.4-0.4-0.8-0.8-0.8s-0.8,0.4-0.8,0.8v1.6
		H644V255.8z M671.7,259.1v-1.6c0-0.4-0.4-0.8-0.8-0.8c-0.4,0-0.8,0.4-0.8,0.8v1.6h-1.6v-3.3h4.9v3.3H671.7z M574.1,228.2h-14.7
		h-2.7h-2.6h-74.3v-1.6h3.3c0,0.4,0.4,0.8,0.8,0.8s0.8-0.4,0.8-0.8h3.3c0,0.4,0.4,0.8,0.8,0.8s0.8-0.4,0.8-0.8h3.3
		c0,0.4,0.4,0.8,0.8,0.8s0.8-0.4,0.8-0.8h3.3c0,0.4,0.4,0.8,0.8,0.8s0.8-0.4,0.8-0.8h3.3c0,0.4,0.4,0.8,0.8,0.8
		c0.4,0,0.8-0.4,0.8-0.8h3.3c0,0.4,0.4,0.8,0.8,0.8c0.4,0,0.8-0.4,0.8-0.8h3.3c0,0.4,0.4,0.8,0.8,0.8s0.8-0.4,0.8-0.8h3.3
		c0,0.4,0.4,0.8,0.8,0.8s0.8-0.4,0.8-0.8h3.3c0,0.4,0.4,0.8,0.8,0.8s0.8-0.4,0.8-0.8h3.3c0,0.4,0.4,0.8,0.8,0.8
		c0.4,0,0.8-0.4,0.8-0.8h3.3c0,0.4,0.4,0.8,0.8,0.8s0.8-0.4,0.8-0.8h3.3c0,0.4,0.4,0.8,0.8,0.8s0.8-0.4,0.8-0.8h3.3
		c0,0.4,0.4,0.8,0.8,0.8s0.8-0.4,0.8-0.8h3.3c0,0.4,0.4,0.8,0.8,0.8s0.8-0.4,0.8-0.8h1.9h1.4c0,0.4,0.4,0.8,0.8,0.8
		c0.3,0,0.6-0.2,0.7-0.5c0-0.1,0.1-0.2,0.1-0.3h1.4h1.9c0,0.4,0.4,0.8,0.8,0.8s0.8-0.4,0.8-0.8h3.3c0,0.4,0.4,0.8,0.8,0.8
		s0.8-0.4,0.8-0.8h3.3c0,0.4,0.4,0.8,0.8,0.8s0.8-0.4,0.8-0.8h3.3c0,0.4,0.4,0.8,0.8,0.8s0.8-0.4,0.8-0.8h1.6v1.6H574.1z
		 M452.2,52.5h3.1h3.1L457,68.8h-3.5L452.2,52.5z M450.5,72h1.6h6.5h1.6v1.6h-9.8L450.5,72L450.5,72z M446,78.5l-0.5-1.6h3.4h9.8
		v1.6h-11.4H446z M162.6,255.8h16.3h9.8v3.3h-34.2v-3.3H162.6z M141.5,252.5h6.5v6.5h-1.6v-1.6c0-0.9-0.7-1.6-1.6-1.6
		s-1.6,0.7-1.6,1.6v1.6h-1.6v-4.9L141.5,252.5L141.5,252.5z M133.3,218.4v-3.3h1.6v3.3H133.3z M130.1,209.3l2.6,2.6h-5.2
		L130.1,209.3z M125.2,215.1h1.6v3.3h-1.6V215.1z M125.2,220h2.4c0.4,0,0.8-0.4,0.8-0.8v-0.8v-3.3h3.3v3.3v0.8
		c0,0.4,0.4,0.8,0.8,0.8h0.8v9.8h-1.6c0-0.4-0.2-0.8-0.5-1.2c-0.6-0.6-1.7-0.6-2.3,0c-0.3,0.3-0.5,0.7-0.5,1.2h-3.3V220H125.2z
		 M130.1,231.4h3.3v22.7l-2.9-1.4c-0.2-0.1-0.5-0.1-0.7,0l-3.1,1.5h-1.4v-22.8H130.1z M112.2,252.5h6.5v1.6v4.9h-1.6v-1.6
		c0-0.9-0.7-1.6-1.6-1.6c-0.9,0-1.6,0.7-1.6,1.6v1.6h-1.6L112.2,252.5L112.2,252.5z M81.3,255.8h16.3H109v3.3H74.8v-3.3H81.3z
		 M52,259.1h3.3v4.9H52V259.1z M52,280.2h3.3v6.5H52V280.2z"/>
	
		<linearGradient id="SVGID_21_" gradientUnits="userSpaceOnUse" x1="623.3129" y1="42.8365" x2="630.6288" y2="40.2491" gradientTransform="matrix(1 0 0 -1 0 312)">
		<stop  offset="2.296278e-02" style="stop-color:#FEFF9B"/>
		<stop  offset="1" style="stop-color:#00A99D"/>
	</linearGradient>
	<path class="st20" d="M624.5,267.2v4.9h-1.6c-0.4,0-0.8,0.4-0.8,0.8s0.4,0.8,0.8,0.8h3.3h3.3c0.4,0,0.8-0.4,0.8-0.8
		s-0.4-0.8-0.8-0.8h-1.6v-4.9c0-0.9-0.7-1.6-1.6-1.6S624.5,266.3,624.5,267.2z"/>
	
		<linearGradient id="SVGID_22_" gradientUnits="userSpaceOnUse" x1="654.9827" y1="43.6667" x2="662.2977" y2="41.0797" gradientTransform="matrix(1 0 0 -1 0 312)">
		<stop  offset="2.296278e-02" style="stop-color:#FEFF9B"/>
		<stop  offset="1" style="stop-color:#00A99D"/>
	</linearGradient>
	<path class="st21" d="M655.4,270.4h4.8h1.7l0,0c0.3,0,0.6-0.2,0.7-0.5c0-0.1,0-0.2,0-0.3c0-0.4-0.4-0.8-0.8-0.8h-1.4h-1.8H657h-1.6
		c-0.4,0-0.8,0.4-0.8,0.8C654.6,270.1,654.9,270.4,655.4,270.4z"/>
	
		<linearGradient id="SVGID_23_" gradientUnits="userSpaceOnUse" x1="688.36" y1="42.8198" x2="695.676" y2="40.2324" gradientTransform="matrix(1 0 0 -1 0 312)">
		<stop  offset="2.296278e-02" style="stop-color:#FEFF9B"/>
		<stop  offset="1" style="stop-color:#00A99D"/>
	</linearGradient>
	<path class="st22" d="M689.5,267.2v4.9h-1.6c-0.4,0-0.8,0.4-0.8,0.8s0.4,0.8,0.8,0.8h3.3h3.3c0.4,0,0.8-0.4,0.8-0.8
		s-0.4-0.8-0.8-0.8h-1.6v-4.9c0-0.9-0.7-1.6-1.6-1.6C690.3,265.6,689.5,266.3,689.5,267.2z"/>
	
		<linearGradient id="SVGID_24_" gradientUnits="userSpaceOnUse" x1="632.4286" y1="28.1502" x2="634.4738" y2="27.427" gradientTransform="matrix(1 0 0 -1 0 312)">
		<stop  offset="2.296278e-02" style="stop-color:#FEFF9B"/>
		<stop  offset="1" style="stop-color:#00A99D"/>
	</linearGradient>
	<path class="st23" d="M633.4,282.6c-0.4,0-0.8,0.4-0.8,0.8v1.6c0,0.4,0.4,0.8,0.8,0.8c0.4,0,0.8-0.4,0.8-0.8v-1.6
		C634.2,283,633.9,282.6,633.4,282.6z"/>
	
		<linearGradient id="SVGID_25_" gradientUnits="userSpaceOnUse" x1="682.8162" y1="28.0692" x2="684.8613" y2="27.3461" gradientTransform="matrix(1 0 0 -1 0 312)">
		<stop  offset="2.296278e-02" style="stop-color:#FEFF9B"/>
		<stop  offset="1" style="stop-color:#00A99D"/>
	</linearGradient>
	<path class="st24" d="M683.8,285.9c0.4,0,0.8-0.4,0.8-0.8v-1.6c0-0.3-0.1-0.5-0.4-0.7c0,0-0.1-0.1-0.2-0.1c-0.1,0-0.2-0.1-0.3-0.1
		c-0.4,0-0.8,0.4-0.8,0.8v1.6C683,285.5,683.4,285.9,683.8,285.9z"/>
	
		<linearGradient id="SVGID_26_" gradientUnits="userSpaceOnUse" x1="645.4028" y1="28.0527" x2="647.4479" y2="27.3294" gradientTransform="matrix(1 0 0 -1 0 312)">
		<stop  offset="2.296278e-02" style="stop-color:#FEFF9B"/>
		<stop  offset="1" style="stop-color:#00A99D"/>
	</linearGradient>
	<path class="st25" d="M646.4,285.9c0.4,0,0.8-0.4,0.8-0.8v-1.6c0-0.4-0.4-0.8-0.8-0.8s-0.8,0.4-0.8,0.8v1.6
		C645.6,285.5,646,285.9,646.4,285.9z"/>
	
		<linearGradient id="SVGID_27_" gradientUnits="userSpaceOnUse" x1="669.8341" y1="28.1501" x2="671.8792" y2="27.4269" gradientTransform="matrix(1 0 0 -1 0 312)">
		<stop  offset="2.296278e-02" style="stop-color:#FEFF9B"/>
		<stop  offset="1" style="stop-color:#00A99D"/>
	</linearGradient>
	<path class="st26" d="M670.8,282.6c-0.4,0-0.8,0.4-0.8,0.8v1.6c0,0.4,0.4,0.8,0.8,0.8c0.4,0,0.8-0.4,0.8-0.8v-1.6
		C671.7,283,671.3,282.6,670.8,282.6z"/>
	
		<linearGradient id="SVGID_28_" gradientUnits="userSpaceOnUse" x1="638.8998" y1="28.0537" x2="640.9449" y2="27.3305" gradientTransform="matrix(1 0 0 -1 0 312)">
		<stop  offset="2.296278e-02" style="stop-color:#FEFF9B"/>
		<stop  offset="1" style="stop-color:#00A99D"/>
	</linearGradient>
	<path class="st27" d="M639.1,285.1c0,0.4,0.4,0.8,0.8,0.8c0.4,0,0.8-0.4,0.8-0.8v-1.6c0-0.4-0.4-0.8-0.8-0.8
		c-0.4,0-0.8,0.4-0.8,0.8V285.1z"/>
	
		<linearGradient id="SVGID_29_" gradientUnits="userSpaceOnUse" x1="676.3388" y1="28.1485" x2="678.3839" y2="27.4253" gradientTransform="matrix(1 0 0 -1 0 312)">
		<stop  offset="2.296278e-02" style="stop-color:#FEFF9B"/>
		<stop  offset="1" style="stop-color:#00A99D"/>
	</linearGradient>
	<path class="st28" d="M677.3,282.6c-0.4,0-0.8,0.4-0.8,0.8v1.6c0,0.4,0.4,0.8,0.8,0.8c0.4,0,0.8-0.4,0.8-0.8v-1.6
		C678.2,283,677.8,282.6,677.3,282.6z"/>
	
		<linearGradient id="SVGID_30_" gradientUnits="userSpaceOnUse" x1="746.2758" y1="28.1622" x2="748.3209" y2="27.439" gradientTransform="matrix(1 0 0 -1 0 312)">
		<stop  offset="2.296278e-02" style="stop-color:#FEFF9B"/>
		<stop  offset="1" style="stop-color:#00A99D"/>
	</linearGradient>
	<path class="st29" d="M747.3,282.6c-0.4,0-0.8,0.4-0.8,0.8v1.6c0,0.4,0.4,0.8,0.8,0.8c0.4,0,0.8-0.4,0.8-0.8v-1.6
		C748.1,283,747.7,282.6,747.3,282.6z"/>
	
		<linearGradient id="SVGID_31_" gradientUnits="userSpaceOnUse" x1="739.7711" y1="28.1639" x2="741.8162" y2="27.4407" gradientTransform="matrix(1 0 0 -1 0 312)">
		<stop  offset="2.296278e-02" style="stop-color:#FEFF9B"/>
		<stop  offset="1" style="stop-color:#00A99D"/>
	</linearGradient>
	<path class="st30" d="M740.8,282.6c-0.4,0-0.8,0.4-0.8,0.8v1.6c0,0.4,0.4,0.8,0.8,0.8c0.4,0,0.8-0.4,0.8-0.8v-1.6
		C741.6,283,741.2,282.6,740.8,282.6z"/>
	
		<linearGradient id="SVGID_32_" gradientUnits="userSpaceOnUse" x1="754.3724" y1="28.0634" x2="756.4175" y2="27.3402" gradientTransform="matrix(1 0 0 -1 0 312)">
		<stop  offset="2.296278e-02" style="stop-color:#FEFF9B"/>
		<stop  offset="1" style="stop-color:#00A99D"/>
	</linearGradient>
	<path class="st31" d="M755.4,285.9c0.4,0,0.8-0.4,0.8-0.8v-1.6c0-0.4-0.4-0.8-0.8-0.8c-0.4,0-0.8,0.4-0.8,0.8v1.6
		C754.6,285.5,755,285.9,755.4,285.9z"/>
	
		<linearGradient id="SVGID_33_" gradientUnits="userSpaceOnUse" x1="760.8771" y1="28.0617" x2="762.9222" y2="27.3385" gradientTransform="matrix(1 0 0 -1 0 312)">
		<stop  offset="2.296278e-02" style="stop-color:#FEFF9B"/>
		<stop  offset="1" style="stop-color:#00A99D"/>
	</linearGradient>
	<path class="st32" d="M761.9,285.9c0.4,0,0.8-0.4,0.8-0.8v-1.6c0-0.4-0.4-0.8-0.8-0.8s-0.8,0.4-0.8,0.8v1.6
		C761.1,285.5,761.5,285.9,761.9,285.9z"/>
	
		<linearGradient id="SVGID_34_" gradientUnits="userSpaceOnUse" x1="563.6212" y1="34.723" x2="566.6006" y2="33.6693" gradientTransform="matrix(1 0 0 -1 0 312)">
		<stop  offset="2.296278e-02" style="stop-color:#FEFF9B"/>
		<stop  offset="1" style="stop-color:#00A99D"/>
	</linearGradient>
	<path class="st33" d="M563.5,277.8c0,0.4,0.4,0.8,0.8,0.8h1.6c0.4,0,0.8-0.4,0.8-0.8s-0.4-0.8-0.8-0.8h-1.6
		C563.9,276.9,563.5,277.3,563.5,277.8z"/>
	
		<linearGradient id="SVGID_35_" gradientUnits="userSpaceOnUse" x1="552.2777" y1="34.8384" x2="555.2571" y2="33.7847" gradientTransform="matrix(1 0 0 -1 0 312)">
		<stop  offset="2.296278e-02" style="stop-color:#FEFF9B"/>
		<stop  offset="1" style="stop-color:#00A99D"/>
	</linearGradient>
	<path class="st34" d="M554.6,276.9H553c-0.4,0-0.8,0.4-0.8,0.8s0.4,0.8,0.8,0.8h1.6c0.4,0,0.8-0.4,0.8-0.8
		C555.4,277.3,555,276.9,554.6,276.9z"/>
	
		<linearGradient id="SVGID_36_" gradientUnits="userSpaceOnUse" x1="449.4793" y1="50.102" x2="461.2185" y2="45.9504" gradientTransform="matrix(1 0 0 -1 0 312)">
		<stop  offset="2.296278e-02" style="stop-color:#FEFF9B"/>
		<stop  offset="1" style="stop-color:#00A99D"/>
	</linearGradient>
	<path class="st35" d="M450.5,265.6h1.6h8.2c0.4,0,0.7-0.1,1-0.3c0.4-0.3,0.6-0.8,0.6-1.3c0-0.9-0.7-1.6-1.6-1.6h-9.8
		c-0.6,0-1.2,0.4-1.5,0.9c-0.1,0.2-0.2,0.5-0.2,0.7c0,0.4,0.1,0.7,0.4,1C449.5,265.3,450,265.6,450.5,265.6z"/>
	
		<linearGradient id="SVGID_37_" gradientUnits="userSpaceOnUse" x1="449.482" y1="71.291" x2="461.2174" y2="67.1406" gradientTransform="matrix(1 0 0 -1 0 312)">
		<stop  offset="2.296278e-02" style="stop-color:#FEFF9B"/>
		<stop  offset="1" style="stop-color:#00A99D"/>
	</linearGradient>
	<path class="st36" d="M450.5,244.4h9.8c0.9,0,1.6-0.7,1.6-1.6c0-0.9-0.7-1.6-1.6-1.6h-9.8c-0.9,0-1.6,0.7-1.6,1.6
		C448.8,243.7,449.6,244.4,450.5,244.4z"/>
	
		<linearGradient id="SVGID_38_" gradientUnits="userSpaceOnUse" x1="445.3821" y1="68.7548" x2="447.4272" y2="68.0315" gradientTransform="matrix(1 0 0 -1 0 312)">
		<stop  offset="2.296278e-02" style="stop-color:#FEFF9B"/>
		<stop  offset="1" style="stop-color:#00A99D"/>
	</linearGradient>
	<path class="st37" d="M446.4,245.2c0.4,0,0.8-0.4,0.8-0.8v-1.6c0-0.4-0.4-0.8-0.8-0.8s-0.8,0.4-0.8,0.8v1.6
		C445.6,244.9,446,245.2,446.4,245.2z"/>
	
		<linearGradient id="SVGID_39_" gradientUnits="userSpaceOnUse" x1="451.6899" y1="76.1877" x2="459.0058" y2="73.6003" gradientTransform="matrix(1 0 0 -1 0 312)">
		<stop  offset="2.296278e-02" style="stop-color:#FEFF9B"/>
		<stop  offset="1" style="stop-color:#00A99D"/>
	</linearGradient>
	<path class="st38" d="M452.1,237.9h6.5c0.4,0,0.8-0.4,0.8-0.8c0-0.4-0.4-0.8-0.8-0.8h-6.5c-0.4,0-0.8,0.4-0.8,0.8
		C451.3,237.5,451.6,237.9,452.1,237.9z"/>
	
		<linearGradient id="SVGID_40_" gradientUnits="userSpaceOnUse" x1="451.691" y1="64.8066" x2="459.0069" y2="62.2192" gradientTransform="matrix(1 0 0 -1 0 312)">
		<stop  offset="2.296278e-02" style="stop-color:#FEFF9B"/>
		<stop  offset="1" style="stop-color:#00A99D"/>
	</linearGradient>
	<path class="st39" d="M458.6,247.7h-6.5c-0.4,0-0.8,0.4-0.8,0.8c0,0.4,0.4,0.8,0.8,0.8h6.5c0.4,0,0.8-0.4,0.8-0.8
		C459.4,248,459.1,247.7,458.6,247.7z"/>
	
		<linearGradient id="SVGID_41_" gradientUnits="userSpaceOnUse" x1="451.7177" y1="59.9914" x2="459.0335" y2="57.404" gradientTransform="matrix(1 0 0 -1 0 312)">
		<stop  offset="2.296278e-02" style="stop-color:#FEFF9B"/>
		<stop  offset="1" style="stop-color:#00A99D"/>
	</linearGradient>
	<path class="st40" d="M458.6,252.5h-6.5c-0.4,0-0.8,0.4-0.8,0.8c0,0.4,0.4,0.8,0.8,0.8h6.5c0.4,0,0.8-0.4,0.8-0.8
		S459.1,252.5,458.6,252.5z"/>
	
		<linearGradient id="SVGID_42_" gradientUnits="userSpaceOnUse" x1="451.7074" y1="55.095" x2="459.0233" y2="52.5077" gradientTransform="matrix(1 0 0 -1 0 312)">
		<stop  offset="2.296278e-02" style="stop-color:#FEFF9B"/>
		<stop  offset="1" style="stop-color:#00A99D"/>
	</linearGradient>
	<path class="st41" d="M458.6,257.4h-6.5c-0.4,0-0.8,0.4-0.8,0.8s0.4,0.8,0.8,0.8h6.5c0.4,0,0.8-0.4,0.8-0.8
		S459.1,257.4,458.6,257.4z"/>
	
		<linearGradient id="SVGID_43_" gradientUnits="userSpaceOnUse" x1="463.2705" y1="68.7516" x2="465.3156" y2="68.0283" gradientTransform="matrix(1 0 0 -1 0 312)">
		<stop  offset="2.296278e-02" style="stop-color:#FEFF9B"/>
		<stop  offset="1" style="stop-color:#00A99D"/>
	</linearGradient>
	<path class="st42" d="M464.3,245.2c0.4,0,0.8-0.4,0.8-0.8v-1.6c0-0.4-0.4-0.8-0.8-0.8s-0.8,0.4-0.8,0.8v1.6
		C463.5,244.9,463.8,245.2,464.3,245.2z"/>
	
		<linearGradient id="SVGID_44_" gradientUnits="userSpaceOnUse" x1="445.3933" y1="49.2681" x2="447.4372" y2="48.5452" gradientTransform="matrix(1 0 0 -1 0 312)">
		<stop  offset="2.296278e-02" style="stop-color:#FEFF9B"/>
		<stop  offset="1" style="stop-color:#00A99D"/>
	</linearGradient>
	<path class="st43" d="M446.4,264.7c0.3,0,0.5-0.1,0.7-0.3c0.1-0.1,0.2-0.3,0.2-0.5v-1.2v-0.4c0-0.4-0.4-0.8-0.8-0.8
		s-0.8,0.4-0.8,0.8l0,0v1.6c0,0,0,0,0,0.1C445.6,264.4,446,264.7,446.4,264.7z"/>
	
		<linearGradient id="SVGID_45_" gradientUnits="userSpaceOnUse" x1="463.2755" y1="49.2498" x2="465.3206" y2="48.5265" gradientTransform="matrix(1 0 0 -1 0 312)">
		<stop  offset="2.296278e-02" style="stop-color:#FEFF9B"/>
		<stop  offset="1" style="stop-color:#00A99D"/>
	</linearGradient>
	<path class="st44" d="M464.3,264.7c0.4,0,0.8-0.4,0.8-0.8v-1.6c0-0.4-0.4-0.8-0.8-0.8s-0.8,0.4-0.8,0.8v1.6
		C463.5,264.4,463.8,264.7,464.3,264.7z"/>
	
		<linearGradient id="SVGID_46_" gradientUnits="userSpaceOnUse" x1="251.6487" y1="40.4004" x2="258.9647" y2="37.813" gradientTransform="matrix(1 0 0 -1 0 312)">
		<stop  offset="2.296278e-02" style="stop-color:#FEFF9B"/>
		<stop  offset="1" style="stop-color:#00A99D"/>
	</linearGradient>
	<path class="st45" d="M252.1,273.7h6.5c0.4,0,0.8-0.4,0.8-0.8s-0.4-0.8-0.8-0.8h-6.5c-0.4,0-0.8,0.4-0.8,0.8
		C251.2,273.3,251.6,273.7,252.1,273.7z"/>
	
		<linearGradient id="SVGID_47_" gradientUnits="userSpaceOnUse" x1="267.6431" y1="38.0152" x2="270.6225" y2="36.9615" gradientTransform="matrix(1 0 0 -1 0 312)">
		<stop  offset="2.296278e-02" style="stop-color:#FEFF9B"/>
		<stop  offset="1" style="stop-color:#00A99D"/>
	</linearGradient>
	<path class="st46" d="M268.3,275.3h1.6c0.4,0,0.8-0.4,0.8-0.8s-0.4-0.8-0.8-0.8h-1.6c-0.4,0-0.8,0.4-0.8,0.8
		S267.9,275.3,268.3,275.3z"/>
	
		<linearGradient id="SVGID_48_" gradientUnits="userSpaceOnUse" x1="267.6431" y1="31.5152" x2="270.6225" y2="30.4615" gradientTransform="matrix(1 0 0 -1 0 312)">
		<stop  offset="2.296278e-02" style="stop-color:#FEFF9B"/>
		<stop  offset="1" style="stop-color:#00A99D"/>
	</linearGradient>
	<path class="st47" d="M268.3,281.8h1.6c0.4,0,0.8-0.4,0.8-0.8s-0.4-0.8-0.8-0.8h-1.6c-0.4,0-0.8,0.4-0.8,0.8
		S267.9,281.8,268.3,281.8z"/>
	
		<linearGradient id="SVGID_49_" gradientUnits="userSpaceOnUse" x1="262.7474" y1="34.7137" x2="265.7268" y2="33.6601" gradientTransform="matrix(1 0 0 -1 0 312)">
		<stop  offset="2.296278e-02" style="stop-color:#FEFF9B"/>
		<stop  offset="1" style="stop-color:#00A99D"/>
	</linearGradient>
	<path class="st48" d="M263.4,278.6h1.6c0.4,0,0.8-0.4,0.8-0.8s-0.4-0.8-0.8-0.8h-1.6c-0.4,0-0.8,0.4-0.8,0.8S263,278.6,263.4,278.6
		z"/>
	
		<linearGradient id="SVGID_50_" gradientUnits="userSpaceOnUse" x1="262.7491" y1="28.2131" x2="265.7285" y2="27.1594" gradientTransform="matrix(1 0 0 -1 0 312)">
		<stop  offset="2.296278e-02" style="stop-color:#FEFF9B"/>
		<stop  offset="1" style="stop-color:#00A99D"/>
	</linearGradient>
	<path class="st49" d="M263.4,285.1h1.6c0.4,0,0.8-0.4,0.8-0.8s-0.4-0.8-0.8-0.8h-1.6c-0.4,0-0.8,0.4-0.8,0.8S263,285.1,263.4,285.1
		z"/>
	
		<linearGradient id="SVGID_51_" gradientUnits="userSpaceOnUse" x1="262.6794" y1="37.7781" x2="264.2154" y2="37.2348" gradientTransform="matrix(1 0 0 -1 0 312)">
		<stop  offset="2.296278e-02" style="stop-color:#FEFF9B"/>
		<stop  offset="1" style="stop-color:#00A99D"/>
	</linearGradient>
	<path class="st50" d="M263.4,275.3c0.2,0,0.4-0.1,0.6-0.2c0.1-0.1,0.2-0.4,0.2-0.6s-0.1-0.4-0.2-0.6c-0.3-0.3-0.8-0.3-1.2,0
		c-0.1,0.1-0.2,0.4-0.2,0.6s0.1,0.4,0.2,0.6C263,275.2,263.2,275.3,263.4,275.3z"/>
	
		<linearGradient id="SVGID_52_" gradientUnits="userSpaceOnUse" x1="269.1697" y1="34.4789" x2="270.7044" y2="33.9361" gradientTransform="matrix(1 0 0 -1 0 312)">
		<stop  offset="2.296278e-02" style="stop-color:#FEFF9B"/>
		<stop  offset="1" style="stop-color:#00A99D"/>
	</linearGradient>
	<path class="st51" d="M269.4,277.2c-0.2,0.1-0.2,0.4-0.2,0.6s0.1,0.4,0.2,0.6s0.4,0.2,0.6,0.2s0.4-0.1,0.6-0.2
		c0.1-0.1,0.2-0.4,0.2-0.6s-0.1-0.4-0.2-0.6C270.2,276.9,269.7,276.9,269.4,277.2z"/>
	
		<linearGradient id="SVGID_53_" gradientUnits="userSpaceOnUse" x1="269.1784" y1="27.997" x2="270.7114" y2="27.4548" gradientTransform="matrix(1 0 0 -1 0 312)">
		<stop  offset="2.296278e-02" style="stop-color:#FEFF9B"/>
		<stop  offset="1" style="stop-color:#00A99D"/>
	</linearGradient>
	<path class="st52" d="M269.4,283.7c-0.1,0.2-0.2,0.4-0.2,0.6s0.1,0.4,0.2,0.6c0.1,0.1,0.4,0.2,0.6,0.2s0.4-0.1,0.6-0.2
		s0.2-0.4,0.2-0.6s-0.1-0.4-0.2-0.6C270.2,283.4,269.7,283.4,269.4,283.7z"/>
	
		<linearGradient id="SVGID_54_" gradientUnits="userSpaceOnUse" x1="262.6811" y1="31.2775" x2="264.217" y2="30.7343" gradientTransform="matrix(1 0 0 -1 0 312)">
		<stop  offset="2.296278e-02" style="stop-color:#FEFF9B"/>
		<stop  offset="1" style="stop-color:#00A99D"/>
	</linearGradient>
	<path class="st53" d="M263.4,281.8c0.2,0,0.4-0.1,0.6-0.2c0.1-0.1,0.2-0.4,0.2-0.6s-0.1-0.4-0.2-0.6c-0.3-0.3-0.8-0.3-1.2,0
		c-0.1,0.1-0.2,0.4-0.2,0.6s0.1,0.4,0.2,0.6C263,281.7,263.2,281.8,263.4,281.8z"/>
	
		<linearGradient id="SVGID_55_" gradientUnits="userSpaceOnUse" x1="274.4155" y1="40.3854" x2="281.7315" y2="37.798" gradientTransform="matrix(1 0 0 -1 0 312)">
		<stop  offset="2.296278e-02" style="stop-color:#FEFF9B"/>
		<stop  offset="1" style="stop-color:#00A99D"/>
	</linearGradient>
	<path class="st54" d="M274.8,273.7h6.5c0.4,0,0.8-0.4,0.8-0.8s-0.4-0.8-0.8-0.8h-6.5c-0.4,0-0.8,0.4-0.8,0.8
		C274,273.3,274.4,273.7,274.8,273.7z"/>
	
		<linearGradient id="SVGID_56_" gradientUnits="userSpaceOnUse" x1="274.4273" y1="37.1759" x2="281.7433" y2="34.5886" gradientTransform="matrix(1 0 0 -1 0 312)">
		<stop  offset="2.296278e-02" style="stop-color:#FEFF9B"/>
		<stop  offset="1" style="stop-color:#00A99D"/>
	</linearGradient>
	<path class="st55" d="M274.8,276.9h6.5c0.4,0,0.8-0.4,0.8-0.8s-0.4-0.8-0.8-0.8h-6.5c-0.4,0-0.8,0.4-0.8,0.8
		C274,276.6,274.4,276.9,274.8,276.9z"/>
	
		<linearGradient id="SVGID_57_" gradientUnits="userSpaceOnUse" x1="274.4155" y1="33.8854" x2="281.7315" y2="31.298" gradientTransform="matrix(1 0 0 -1 0 312)">
		<stop  offset="2.296278e-02" style="stop-color:#FEFF9B"/>
		<stop  offset="1" style="stop-color:#00A99D"/>
	</linearGradient>
	<path class="st56" d="M274.8,280.2h6.5c0.4,0,0.8-0.4,0.8-0.8s-0.4-0.8-0.8-0.8h-6.5c-0.4,0-0.8,0.4-0.8,0.8
		C274,279.8,274.4,280.2,274.8,280.2z"/>
	
		<linearGradient id="SVGID_58_" gradientUnits="userSpaceOnUse" x1="274.4306" y1="30.68" x2="281.7466" y2="28.0927" gradientTransform="matrix(1 0 0 -1 0 312)">
		<stop  offset="2.296278e-02" style="stop-color:#FEFF9B"/>
		<stop  offset="1" style="stop-color:#00A99D"/>
	</linearGradient>
	<path class="st57" d="M274.8,283.4h6.5c0.4,0,0.8-0.4,0.8-0.8s-0.4-0.8-0.8-0.8h-6.5c-0.4,0-0.8,0.4-0.8,0.8
		S274.4,283.4,274.8,283.4z"/>
	
		<linearGradient id="SVGID_59_" gradientUnits="userSpaceOnUse" x1="251.6633" y1="37.1888" x2="258.9792" y2="34.6015" gradientTransform="matrix(1 0 0 -1 0 312)">
		<stop  offset="2.296278e-02" style="stop-color:#FEFF9B"/>
		<stop  offset="1" style="stop-color:#00A99D"/>
	</linearGradient>
	<path class="st58" d="M252.1,276.9h6.5c0.4,0,0.8-0.4,0.8-0.8s-0.4-0.8-0.8-0.8h-6.5c-0.4,0-0.8,0.4-0.8,0.8
		C251.2,276.6,251.6,276.9,252.1,276.9z"/>
	
		<linearGradient id="SVGID_60_" gradientUnits="userSpaceOnUse" x1="251.6504" y1="33.8998" x2="258.9664" y2="31.3124" gradientTransform="matrix(1 0 0 -1 0 312)">
		<stop  offset="2.296278e-02" style="stop-color:#FEFF9B"/>
		<stop  offset="1" style="stop-color:#00A99D"/>
	</linearGradient>
	<path class="st59" d="M252.1,280.2h6.5c0.4,0,0.8-0.4,0.8-0.8s-0.4-0.8-0.8-0.8h-6.5c-0.4,0-0.8,0.4-0.8,0.8
		C251.2,279.8,251.6,280.2,252.1,280.2z"/>
	
		<linearGradient id="SVGID_61_" gradientUnits="userSpaceOnUse" x1="251.6675" y1="30.6956" x2="258.9835" y2="28.1083" gradientTransform="matrix(1 0 0 -1 0 312)">
		<stop  offset="2.296278e-02" style="stop-color:#FEFF9B"/>
		<stop  offset="1" style="stop-color:#00A99D"/>
	</linearGradient>
	<path class="st60" d="M252.1,283.4h6.5c0.4,0,0.8-0.4,0.8-0.8s-0.4-0.8-0.8-0.8h-6.5c-0.4,0-0.8,0.4-0.8,0.8
		S251.6,283.4,252.1,283.4z"/>
	
		<linearGradient id="SVGID_62_" gradientUnits="userSpaceOnUse" x1="293.3645" y1="122.4742" x2="304.7578" y2="118.4449" gradientTransform="matrix(1 0 0 -1 0 312)">
		<stop  offset="2.296278e-02" style="stop-color:#FEFF9B"/>
		<stop  offset="1" style="stop-color:#00A99D"/>
	</linearGradient>
	<path class="st61" d="M294.8,196.5c0.1,0.4,0.4,0.7,0.8,0.7h7.3c0.4,0,0.8-0.3,0.8-0.7l0.9-7.4c0.1-0.9-0.2-1.7-0.7-2.4
		c-0.6-0.6-1.4-1-2.2-1h-4.9c-0.9,0-1.7,0.3-2.2,1c-0.6,0.6-0.8,1.5-0.7,2.4L294.8,196.5z"/>
	
		<linearGradient id="SVGID_63_" gradientUnits="userSpaceOnUse" x1="265.7562" y1="131.5404" x2="273.8629" y2="128.6734" gradientTransform="matrix(1 0 0 -1 0 312)">
		<stop  offset="2.296278e-02" style="stop-color:#FEFF9B"/>
		<stop  offset="1" style="stop-color:#00A99D"/>
	</linearGradient>
	<path class="st62" d="M266.7,185.2c0.1,0.4,0.4,0.7,0.8,0.7h4.9c0.4,0,0.8-0.3,0.8-0.7l0.6-4.9c0.1-0.7-0.1-1.3-0.6-1.8
		c-0.4-0.5-1-0.7-1.7-0.7h-3.3c-0.7,0-1.3,0.3-1.7,0.7c-0.4,0.5-0.6,1.1-0.6,1.8L266.7,185.2z"/>
	
		<linearGradient id="SVGID_64_" gradientUnits="userSpaceOnUse" x1="239.679" y1="107.7691" x2="251.0723" y2="103.7398" gradientTransform="matrix(1 0 0 -1 0 312)">
		<stop  offset="2.296278e-02" style="stop-color:#FEFF9B"/>
		<stop  offset="1" style="stop-color:#00A99D"/>
	</linearGradient>
	<path class="st63" d="M241.1,211.2c0.1,0.4,0.4,0.7,0.8,0.7h7.3c0.4,0,0.8-0.3,0.8-0.7l0.9-7.4c0.1-0.9-0.2-1.7-0.7-2.4
		c-0.6-0.6-1.4-1-2.2-1h-4.9c-0.9,0-1.7,0.3-2.2,1c-0.6,0.6-0.8,1.5-0.7,2.4L241.1,211.2z"/>
	
		<linearGradient id="SVGID_65_" gradientUnits="userSpaceOnUse" x1="311.3174" y1="144.6187" x2="319.424" y2="141.7518" gradientTransform="matrix(1 0 0 -1 0 312)">
		<stop  offset="2.296278e-02" style="stop-color:#FEFF9B"/>
		<stop  offset="1" style="stop-color:#00A99D"/>
	</linearGradient>
	<path class="st64" d="M312.2,172.1c0.1,0.4,0.4,0.7,0.8,0.7h4.9c0.4,0,0.8-0.3,0.8-0.7l0.6-4.9c0.1-0.7-0.1-1.3-0.6-1.8
		c-0.4-0.5-1-0.7-1.7-0.7h-3.3c-0.7,0-1.3,0.3-1.7,0.7c-0.4,0.5-0.6,1.1-0.6,1.8L312.2,172.1z"/>
	
		<linearGradient id="SVGID_66_" gradientUnits="userSpaceOnUse" x1="333.9947" y1="109.3635" x2="345.3881" y2="105.3342" gradientTransform="matrix(1 0 0 -1 0 312)">
		<stop  offset="2.296278e-02" style="stop-color:#FEFF9B"/>
		<stop  offset="1" style="stop-color:#00A99D"/>
	</linearGradient>
	<path class="st65" d="M335.4,209.6c0.1,0.4,0.4,0.7,0.8,0.7h7.3c0.4,0,0.8-0.3,0.8-0.7l0.9-7.4c0.1-0.9-0.2-1.7-0.7-2.4
		c-0.6-0.6-1.4-1-2.2-1h-4.9c-0.9,0-1.7,0.3-2.2,1c-0.6,0.6-0.8,1.5-0.7,2.4L335.4,209.6z"/>
</g>
</svg>
