<?xml version="1.0" encoding="utf-8"?>
<!-- Generator: Adobe Illustrator 22.1.0, SVG Export Plug-In . SVG Version: 6.00 Build 0)  -->
<svg version="1.1" id="圖層_1" xmlns="http://www.w3.org/2000/svg" xmlns:xlink="http://www.w3.org/1999/xlink" x="0px" y="0px"
	 viewBox="0 0 820 312" style="enable-background:new 0 0 820 312;" xml:space="preserve">
<style type="text/css">
	.st0{fill:url(#SVGID_1_);}
	.st1{fill:url(#SVGID_2_);}
	.st2{fill:url(#SVGID_3_);}
	.st3{fill:url(#SVGID_4_);}
	.st4{fill:url(#SVGID_5_);}
	.st5{fill:url(#SVGID_6_);}
	.st6{fill:url(#SVGID_7_);}
	.st7{fill:url(#SVGID_8_);}
	.st8{fill:url(#SVGID_9_);}
	.st9{fill:url(#SVGID_10_);}
	.st10{fill:url(#SVGID_11_);}
	.st11{fill:url(#SVGID_12_);}
	.st12{fill:url(#SVGID_13_);}
	.st13{fill:url(#SVGID_14_);}
	.st14{fill:url(#SVGID_15_);}
	.st15{fill:url(#SVGID_16_);}
	.st16{fill:url(#SVGID_17_);}
	.st17{fill:url(#SVGID_18_);}
	.st18{fill:url(#SVGID_19_);}
	.st19{fill:url(#SVGID_20_);}
	.st20{fill:url(#SVGID_21_);}
	.st21{fill:url(#SVGID_22_);}
	.st22{fill:url(#SVGID_23_);}
	.st23{fill:url(#SVGID_24_);}
	.st24{fill:url(#SVGID_25_);}
	.st25{fill:url(#SVGID_26_);}
	.st26{fill:url(#SVGID_27_);}
	.st27{fill:url(#SVGID_28_);}
	.st28{fill:url(#SVGID_29_);}
	.st29{fill:url(#SVGID_30_);}
	.st30{fill:url(#SVGID_31_);}
	.st31{fill:url(#SVGID_32_);}
	.st32{fill:url(#SVGID_33_);}
	.st33{fill:url(#SVGID_34_);}
	.st34{fill:url(#SVGID_35_);}
	.st35{fill:url(#SVGID_36_);}
	.st36{fill:url(#SVGID_37_);}
	.st37{fill:url(#SVGID_38_);}
	.st38{fill:url(#SVGID_39_);}
	.st39{fill:url(#SVGID_40_);}
	.st40{fill:url(#SVGID_41_);}
	.st41{fill:url(#SVGID_42_);}
	.st42{fill:url(#SVGID_43_);}
	.st43{fill:url(#SVGID_44_);}
	.st44{fill:url(#SVGID_45_);}
	.st45{fill:url(#SVGID_46_);}
	.st46{fill:url(#SVGID_47_);}
	.st47{fill:url(#SVGID_48_);}
	.st48{fill:url(#SVGID_49_);}
	.st49{fill:url(#SVGID_50_);}
	.st50{fill:url(#SVGID_51_);}
	.st51{fill:url(#SVGID_52_);}
	.st52{fill:url(#SVGID_53_);}
	.st53{fill:url(#SVGID_54_);}
	.st54{fill:url(#SVGID_55_);}
	.st55{fill:url(#SVGID_56_);}
	.st56{fill:url(#SVGID_57_);}
	.st57{fill:url(#SVGID_58_);}
	.st58{fill:url(#SVGID_59_);}
	.st59{fill:url(#SVGID_60_);}
	.st60{fill:url(#SVGID_61_);}
	.st61{fill:url(#SVGID_62_);}
	.st62{fill:url(#SVGID_63_);}
	.st63{fill:url(#SVGID_64_);}
	.st64{fill:url(#SVGID_65_);}
	.st65{fill:url(#SVGID_66_);}
</style>
<g>
	<linearGradient id="SVGID_1_" gradientUnits="userSpaceOnUse" x1="104.3325" y1="196.1658" x2="685.9928" y2="523.3497">
		<stop  offset="2.296276e-02" style="stop-color:#EBCCFF"/>
		<stop  offset="1" style="stop-color:#FF5558"/>
	</linearGradient>
	<path class="st0" d="M133.9,216c0.9,0,1.6-0.7,1.6-1.6v-3.2c0-0.9-0.7-1.6-1.6-1.6s-1.6,0.7-1.6,1.6v3.2
		C132.3,215.3,133,216,133.9,216z"/>
	<linearGradient id="SVGID_2_" gradientUnits="userSpaceOnUse" x1="99.1741" y1="205.3362" x2="680.8344" y2="532.5201">
		<stop  offset="2.296276e-02" style="stop-color:#EBCCFF"/>
		<stop  offset="1" style="stop-color:#FF5558"/>
	</linearGradient>
	<path class="st1" d="M133.9,227.3c0.9,0,1.6-0.7,1.6-1.6v-1.6c0-0.9-0.7-1.6-1.6-1.6s-1.6,0.7-1.6,1.6v1.6
		C132.3,226.6,133,227.3,133.9,227.3z"/>
	<linearGradient id="SVGID_3_" gradientUnits="userSpaceOnUse" x1="94.3596" y1="213.8953" x2="676.0199" y2="541.0792">
		<stop  offset="2.296276e-02" style="stop-color:#EBCCFF"/>
		<stop  offset="1" style="stop-color:#FF5558"/>
	</linearGradient>
	<path class="st2" d="M133.9,238.5c0.9,0,1.6-0.7,1.6-1.6v-1.6c0-0.9-0.7-1.6-1.6-1.6s-1.6,0.7-1.6,1.6v1.6
		C132.3,237.8,133,238.5,133.9,238.5z"/>
	<linearGradient id="SVGID_4_" gradientUnits="userSpaceOnUse" x1="82.6243" y1="234.7581" x2="664.2846" y2="561.942">
		<stop  offset="2.296276e-02" style="stop-color:#EBCCFF"/>
		<stop  offset="1" style="stop-color:#FF5558"/>
	</linearGradient>
	<path class="st3" d="M119.4,257.9c0.9,0,1.6-0.7,1.6-1.6v-1.6c0-0.9-0.7-1.6-1.6-1.6c-0.9,0-1.6,0.7-1.6,1.6v1.6
		C117.8,257.1,118.5,257.9,119.4,257.9z"/>
	<linearGradient id="SVGID_5_" gradientUnits="userSpaceOnUse" x1="87.1164" y1="226.7722" x2="668.7767" y2="553.9561">
		<stop  offset="2.296276e-02" style="stop-color:#EBCCFF"/>
		<stop  offset="1" style="stop-color:#FF5558"/>
	</linearGradient>
	<path class="st4" d="M139.5,258.7c0.4,0,0.8-0.4,0.8-0.8v-3.2c0-0.4-0.4-0.8-0.8-0.8c-0.4,0-0.8,0.4-0.8,0.8v3.2
		C138.7,258.3,139.1,258.7,139.5,258.7z"/>
	<linearGradient id="SVGID_6_" gradientUnits="userSpaceOnUse" x1="85.7623" y1="229.1794" x2="667.4226" y2="556.3633">
		<stop  offset="2.296276e-02" style="stop-color:#EBCCFF"/>
		<stop  offset="1" style="stop-color:#FF5558"/>
	</linearGradient>
	<path class="st5" d="M133.9,259.5c0.9,0,1.6-0.7,1.6-1.6v-3.2c0-0.9-0.7-1.6-1.6-1.6s-1.6,0.7-1.6,1.6v3.2
		C132.3,258.8,133,259.5,133.9,259.5z"/>
	<linearGradient id="SVGID_7_" gradientUnits="userSpaceOnUse" x1="77.5304" y1="243.8139" x2="659.1907" y2="570.9979">
		<stop  offset="2.296276e-02" style="stop-color:#EBCCFF"/>
		<stop  offset="1" style="stop-color:#FF5558"/>
	</linearGradient>
	<path class="st6" d="M128.3,274.8c0.4,0,0.8-0.4,0.8-0.8v-3.2c0-0.4-0.4-0.8-0.8-0.8c-0.4,0-0.8,0.4-0.8,0.8v3.2
		C127.5,274.4,127.8,274.8,128.3,274.8z"/>
	<linearGradient id="SVGID_8_" gradientUnits="userSpaceOnUse" x1="80.2385" y1="238.9995" x2="661.8988" y2="566.1833">
		<stop  offset="2.296276e-02" style="stop-color:#EBCCFF"/>
		<stop  offset="1" style="stop-color:#FF5558"/>
	</linearGradient>
	<path class="st7" d="M139.5,274.8c0.4,0,0.8-0.4,0.8-0.8v-1.2v-0.9v-0.9v-0.4c0-0.4-0.4-0.8-0.8-0.8c-0.4,0-0.8,0.4-0.8,0.8v0.9
		v0.9v0.9v0.6C138.7,274.4,139.1,274.8,139.5,274.8z"/>
	<linearGradient id="SVGID_9_" gradientUnits="userSpaceOnUse" x1="79.1853" y1="240.8717" x2="660.8456" y2="568.0557">
		<stop  offset="2.296276e-02" style="stop-color:#EBCCFF"/>
		<stop  offset="1" style="stop-color:#FF5558"/>
	</linearGradient>
	<path class="st8" d="M119.4,265.9c0.9,0,1.6-0.7,1.6-1.6v-1.6c0-0.9-0.7-1.6-1.6-1.6c-0.9,0-1.6,0.7-1.6,1.6v1.6
		C117.8,265.2,118.5,265.9,119.4,265.9z"/>
	<linearGradient id="SVGID_10_" gradientUnits="userSpaceOnUse" x1="75.4029" y1="247.596" x2="657.0632" y2="574.78">
		<stop  offset="2.296276e-02" style="stop-color:#EBCCFF"/>
		<stop  offset="1" style="stop-color:#FF5558"/>
	</linearGradient>
	<path class="st9" d="M119.4,274c0.4,0,0.8-0.2,1.1-0.5c0.3-0.3,0.5-0.7,0.5-1.1s-0.2-0.8-0.5-1.1c-0.6-0.6-1.7-0.6-2.3,0
		c-0.3,0.3-0.5,0.7-0.5,1.1c0,0.4,0.2,0.8,0.5,1.1C118.6,273.8,119,274,119.4,274z"/>
	<linearGradient id="SVGID_11_" gradientUnits="userSpaceOnUse" x1="82.3666" y1="235.2161" x2="664.027" y2="562.4">
		<stop  offset="2.296276e-02" style="stop-color:#EBCCFF"/>
		<stop  offset="1" style="stop-color:#FF5558"/>
	</linearGradient>
	<path class="st10" d="M148.4,274c0.4,0,0.8-0.2,1.1-0.5c0.3-0.3,0.5-0.7,0.5-1.1c0-0.4-0.2-0.8-0.5-1.1c-0.6-0.6-1.7-0.6-2.3,0
		c-0.3,0.3-0.5,0.7-0.5,1.1c0,0.4,0.2,0.8,0.5,1.1C147.5,273.8,148,274,148.4,274z"/>
	<linearGradient id="SVGID_12_" gradientUnits="userSpaceOnUse" x1="86.1492" y1="228.4916" x2="667.8094" y2="555.6755">
		<stop  offset="2.296276e-02" style="stop-color:#EBCCFF"/>
		<stop  offset="1" style="stop-color:#FF5558"/>
	</linearGradient>
	<path class="st11" d="M148.4,265.9c0.9,0,1.6-0.7,1.6-1.6v-1.6c0-0.9-0.7-1.6-1.6-1.6s-1.6,0.7-1.6,1.6v1.6
		C146.8,265.2,147.5,265.9,148.4,265.9z"/>
	<linearGradient id="SVGID_13_" gradientUnits="userSpaceOnUse" x1="89.5881" y1="222.378" x2="671.2484" y2="549.562">
		<stop  offset="2.296276e-02" style="stop-color:#EBCCFF"/>
		<stop  offset="1" style="stop-color:#FF5558"/>
	</linearGradient>
	<path class="st12" d="M148.4,257.9c0.9,0,1.6-0.7,1.6-1.6v-1.6c0-0.9-0.7-1.6-1.6-1.6s-1.6,0.7-1.6,1.6v1.6
		C146.8,257.1,147.5,257.9,148.4,257.9z"/>
	<linearGradient id="SVGID_14_" gradientUnits="userSpaceOnUse" x1="100.5926" y1="202.8143" x2="682.2529" y2="529.9983">
		<stop  offset="2.296276e-02" style="stop-color:#EBCCFF"/>
		<stop  offset="1" style="stop-color:#FF5558"/>
	</linearGradient>
	<path class="st13" d="M199.9,261.1c0.9,0,1.6-0.7,1.6-1.6v-1.6c0-0.9-0.7-1.6-1.6-1.6s-1.6,0.7-1.6,1.6v1.6
		C198.3,260.4,199,261.1,199.9,261.1z"/>
	<linearGradient id="SVGID_15_" gradientUnits="userSpaceOnUse" x1="106.2024" y1="192.8415" x2="687.8627" y2="520.0254">
		<stop  offset="2.296276e-02" style="stop-color:#EBCCFF"/>
		<stop  offset="1" style="stop-color:#FF5558"/>
	</linearGradient>
	<path class="st14" d="M197.5,245.8c0.4,0,0.8-0.4,0.8-0.8v-1.6c0-0.4-0.4-0.8-0.8-0.8s-0.8,0.4-0.8,0.8v1.6
		C196.7,245.4,197,245.8,197.5,245.8z"/>
	<linearGradient id="SVGID_16_" gradientUnits="userSpaceOnUse" x1="74.4783" y1="249.2398" x2="656.1386" y2="576.4237">
		<stop  offset="2.296276e-02" style="stop-color:#EBCCFF"/>
		<stop  offset="1" style="stop-color:#FF5558"/>
	</linearGradient>
	<path class="st15" d="M65.5,245.8c0.4,0,0.8-0.4,0.8-0.8v-1.6c0-0.4-0.4-0.8-0.8-0.8s-0.8,0.4-0.8,0.8v1.6
		C64.7,245.4,65,245.8,65.5,245.8z"/>
	<linearGradient id="SVGID_17_" gradientUnits="userSpaceOnUse" x1="107.363" y1="190.7781" x2="689.0233" y2="517.962">
		<stop  offset="2.296276e-02" style="stop-color:#EBCCFF"/>
		<stop  offset="1" style="stop-color:#FF5558"/>
	</linearGradient>
	<path class="st16" d="M202.3,245.8c0.4,0,0.8-0.4,0.8-0.8v-1.6c0-0.4-0.4-0.8-0.8-0.8c-0.4,0-0.8,0.4-0.8,0.8v1.6
		C201.5,245.4,201.9,245.8,202.3,245.8z"/>
	<linearGradient id="SVGID_18_" gradientUnits="userSpaceOnUse" x1="75.639" y1="247.1764" x2="657.2993" y2="574.3604">
		<stop  offset="2.296276e-02" style="stop-color:#EBCCFF"/>
		<stop  offset="1" style="stop-color:#FF5558"/>
	</linearGradient>
	<path class="st17" d="M70.3,245.8c0.4,0,0.8-0.4,0.8-0.8v-1.6c0-0.4-0.4-0.8-0.8-0.8c-0.4,0-0.8,0.4-0.8,0.8v1.6
		C69.5,245.4,69.9,245.8,70.3,245.8z"/>
	<linearGradient id="SVGID_19_" gradientUnits="userSpaceOnUse" x1="68.8686" y1="259.2127" x2="650.5289" y2="586.3966">
		<stop  offset="2.296276e-02" style="stop-color:#EBCCFF"/>
		<stop  offset="1" style="stop-color:#FF5558"/>
	</linearGradient>
	<path class="st18" d="M67.9,261.1c0.9,0,1.6-0.7,1.6-1.6v-1.6c0-0.9-0.7-1.6-1.6-1.6c-0.9,0-1.6,0.7-1.6,1.6v1.6
		C66.3,260.4,67,261.1,67.9,261.1z"/>
	<linearGradient id="SVGID_20_" gradientUnits="userSpaceOnUse" x1="156.4244" y1="103.5579" x2="738.0847" y2="430.7418">
		<stop  offset="2.296276e-02" style="stop-color:#EBCCFF"/>
		<stop  offset="1" style="stop-color:#FF5558"/>
	</linearGradient>
	<path class="st19" d="M785.8,275.6h-14.5v-4.8c0.4,0,0.8-0.4,0.8-0.8c0-0.4-0.4-0.8-0.8-0.8v-14.5c0.4,0,0.8-0.4,0.8-0.8
		c0-0.4-0.4-0.8-0.8-0.8v-1.6c0.4,0,0.8-0.4,0.8-0.8s-0.4-0.8-0.8-0.8c0-0.9-0.7-1.6-1.6-1.6h-6.3c-2.9-0.6-7-2.1-8.2-3.7v-1.2
		c0-0.4-0.4-0.8-0.8-0.8s-0.8,0.4-0.8,0.8h-9.7c0-0.4-0.4-0.8-0.8-0.8s-0.8,0.4-0.8,0.8v1.2c-1.2,1.6-5.4,3.1-8.2,3.7h-7.9v-1.6
		c0-0.4-0.4-0.8-0.8-0.8c-0.4,0-0.8,0.4-0.8,0.8v1.6H723v-5.4c1.8-0.1,2.1-0.3,2.3-0.4l1.6-0.8c0.6-0.3,1-1,0.9-1.7
		c-0.1-0.7-0.6-1.2-1.3-1.4c-2-0.4-7.4-2.2-8.4-5.4c-0.2-0.7-0.8-1.1-1.5-1.1s-1.3,0.4-1.5,1.1c-1.1,3.2-6.5,5-8.4,5.4
		c-0.7,0.1-1.2,0.7-1.3,1.4c-0.1,0.7,0.3,1.3,0.9,1.7l1.6,0.8c0.2,0.1,0.5,0.3,2.3,0.4v5.4h-1.6v-1.6c0-0.4-0.4-0.8-0.8-0.8
		s-0.8,0.4-0.8,0.8v1.6h-32.2v-6.5c2.2-0.1,6.1-0.4,7.2-0.9l1.6-0.8c0.6-0.3,1-1,0.9-1.7c-0.1-0.7-0.7-1.2-1.4-1.3
		c-3.9-0.6-10.3-2.4-11.5-5.1v-1.3c0-0.9-0.7-1.6-1.6-1.6c-0.9,0-1.6,0.7-1.6,1.6h-22.5c0-0.9-0.7-1.6-1.6-1.6
		c-0.9,0-1.6,0.7-1.6,1.6v1.3c-1.2,2.7-7.6,4.6-11.5,5.1c-0.7,0.1-1.2,0.6-1.4,1.3c-0.1,0.7,0.2,1.4,0.9,1.7l1.6,0.8
		c1.1,0.5,4.9,0.8,7.2,0.9v6.1l-24.8-12.6l-31.5-9.9c1.4-0.2,2.7-0.4,3.5-0.7l6.6-2.2c0.7-0.2,1.2-0.9,1.1-1.7
		c-0.1-0.7-0.7-1.3-1.4-1.4l-12.9-1.6c-0.1,0-0.1,0-0.2,0h-3.2v-1.8c1.9-0.2,4-0.5,5.2-0.9l6.6-2.2c0.8-0.3,1.2-1.1,1.1-1.9
		c-0.2-0.8-0.9-1.3-1.7-1.3c0,0-1,0.1-2.4,0.1c-3.6,0-11.8-0.6-13.4-6l1-1c0.6-0.6,0.6-1.6,0-2.3c-0.6-0.6-1.6-0.6-2.3,0l-1.1,1.1
		h-43l-20.8-12c-1.9-1.1-4.6-1.7-7.4-1.7c-2,0-3.8,0.3-5.2,0.9l-14,5.8c-1.5,0.6-3.5,1.2-5.5,1.7c-0.1-0.5-0.5-0.9-1-1.1
		c0,0-0.2-0.1-0.4-0.1l1.4-15.9c0.1-0.7-0.4-1.4-1.1-1.7c0,0-0.2-0.1-0.4-0.1l1.4-15.9c0.1-0.7-0.4-1.4-1.1-1.7c0,0-0.2-0.1-0.4-0.1
		l1.4-15.9c0.1-0.7-0.4-1.4-1.1-1.7c0,0-0.2-0.1-0.4-0.1l1.4-15.9c0.1-0.7-0.4-1.4-1.1-1.7c0,0-0.2-0.1-0.4-0.1l1.4-15.9
		c0.1-0.7-0.4-1.4-1.1-1.7c0,0-0.2-0.1-0.4-0.1l1.4-15.9c0.1-0.7-0.4-1.4-1.1-1.7c0,0-0.2-0.1-0.4-0.1l1.4-15.9
		c0.1-0.7-0.4-1.4-1.1-1.7c-0.1,0-1.9-0.6-4.1-1.1l1.1-3.3c0.2-0.5,0.1-1-0.2-1.5c-0.3-0.4-0.8-0.7-1.3-0.7h-4v-3.2v-3.2
		c0-0.4-0.4-0.8-0.8-0.8s-0.8,0.4-0.8,0.8v1.6h-1.5l0.9-11.3h0.5c0.4,0,0.8-0.4,0.8-0.8c0-0.4-0.4-0.8-0.8-0.8h-0.4l0.4-4.7
		c0-0.4-0.1-0.9-0.4-1.2c-0.3-0.3-0.7-0.5-1.2-0.5h-3.2c0.9,0,1.6-0.7,1.6-1.6c0-0.9-0.7-1.6-1.6-1.6V26.1c0-0.9-0.7-1.6-1.6-1.6
		c-0.9,0-1.6,0.7-1.6,1.6v11.3c-0.9,0-1.6,0.7-1.6,1.6c0,0.9,0.7,1.6,1.6,1.6H451c-0.4,0-0.9,0.2-1.2,0.5c-0.3,0.3-0.5,0.8-0.4,1.2
		l0.4,4.7h-0.4c-0.4,0-0.8,0.4-0.8,0.8c0,0.4,0.4,0.8,0.8,0.8h0.5l0.9,11.3h-1.5v-1.6c0-0.4-0.4-0.8-0.8-0.8c-0.4,0-0.8,0.4-0.8,0.8
		v3.2v3.2h-4c-0.5,0-1,0.2-1.3,0.7c-0.3,0.4-0.4,1-0.2,1.5l1.1,3.3c-2.2,0.5-4,1.1-4.1,1.1c-0.7,0.2-1.2,0.9-1.1,1.7l1.4,15.9
		c-0.2,0.1-0.3,0.1-0.4,0.1c-0.7,0.2-1.2,0.9-1.1,1.7l1.4,15.9c-0.2,0.1-0.3,0.1-0.4,0.1c-0.7,0.2-1.2,0.9-1.1,1.7l1.4,15.9
		c-0.2,0.1-0.3,0.1-0.4,0.1c-0.7,0.2-1.2,0.9-1.1,1.7l1.4,15.9c-0.2,0.1-0.3,0.1-0.4,0.1c-0.7,0.2-1.2,0.9-1.1,1.7l1.4,15.9
		c-0.2,0.1-0.3,0.1-0.4,0.1c-0.7,0.2-1.2,0.9-1.1,1.7l1.4,15.9c-0.2,0.1-0.3,0.1-0.4,0.1c-0.7,0.2-1.2,0.9-1.1,1.7l1.4,15.9
		c-0.2,0.1-0.3,0.1-0.4,0.1c-0.7,0.2-1.2,0.9-1.1,1.7l0.2,1.9l-4.6,0.2c-3.7,0.2-9.5,1.6-12.9,3.1l-7.6,3.4
		c-1.7,0.8-4.1,1.2-6.6,1.2c-1.9,0-3.7-0.3-5-0.7l-5.6-2c-3.5-1.2-9.5-1.1-12.9,0.2L312,230c-3.3,1.3-8.9,2.8-12.4,3.3l-13.1,1.1
		c-0.3-0.4-0.8-0.7-1.3-0.7v-0.5c0.1,0,0.3-0.1,0.4-0.1l3.3-1.1c0.7-0.2,1.1-0.8,1.1-1.5c0-0.7-0.4-1.3-1.1-1.5l-2.8-0.9
		c0.4-0.3,0.6-0.7,0.6-1.2c0-0.7-0.3-1.3-0.9-1.5c-3.3-1.5-12.3-6.2-15.1-9.8v-2.7c0-0.9-0.7-1.6-1.6-1.6s-1.6,0.7-1.6,1.6v2.7
		c-2.8,3.6-11.8,8.3-15.1,9.8c-0.6,0.3-1,0.9-0.9,1.5c0,0.5,0.3,0.9,0.6,1.2l-2.8,0.9c-0.7,0.2-1.1,0.8-1.1,1.5
		c0,0.7,0.4,1.3,1.1,1.5l3.3,1.1c0.1,0,0.3,0.1,0.4,0.1v0.5c-0.9,0-1.6,0.7-1.6,1.6h-1.6c-0.8,0-1.5,0.6-1.6,1.4l-0.1,1l-11.4,1
		c-3.6,0.5-9.4,1.9-12.9,3.1l-10,3.5c-0.3-0.2-0.6-0.3-0.9-0.3h-4.8v-4.8c0-0.5-0.2-1-0.6-1.3l-6.4-4.8c-0.6-0.4-1.4-0.4-1.9,0
		l-6.4,4.8c-0.4,0.3-0.6,0.8-0.6,1.3v1.6h-8c0-0.9-0.7-1.6-1.6-1.6s-1.6,0.7-1.6,1.6h-12.9c0-0.9-0.7-1.6-1.6-1.6
		c-0.9,0-1.6,0.7-1.6,1.6h-9.7v-1.6c0-0.9-0.7-1.6-1.6-1.6h-9.7c-0.9,0-1.6,0.7-1.6,1.6v-19.3c0.4,0,0.8-0.4,0.8-0.8
		s-0.4-0.8-0.8-0.8v-9.7c0.4,0,0.8-0.4,0.8-0.8c0-0.4-0.4-0.8-0.8-0.8v-4.8v0c0-0.1,0-0.1,0-0.2c0,0,0,0,0-0.1c0,0,0-0.1,0-0.1
		c0,0,0-0.1,0-0.1c0,0,0,0,0-0.1c0,0,0-0.1,0-0.1c0,0,0,0,0-0.1c0,0,0-0.1,0-0.1c0,0,0,0,0-0.1c0,0,0-0.1-0.1-0.1c0,0,0,0,0,0
		c0,0-0.1-0.1-0.1-0.1c0,0,0,0,0,0c0,0-0.1-0.1-0.1-0.1l0,0l-6-6v-5.8c0-0.4-0.4-0.8-0.8-0.8s-0.8,0.4-0.8,0.8v4.8
		c-0.4,0-0.8,0.2-1.1,0.5l-6.4,6.4l0,0c0,0-0.1,0.1-0.1,0.1c0,0,0,0,0,0c0,0-0.1,0.1-0.1,0.1c0,0,0,0,0,0c0,0,0,0.1-0.1,0.1
		c0,0,0,0,0,0.1c0,0,0,0.1,0,0.1c0,0,0,0,0,0.1c0,0,0,0.1,0,0.1c0,0,0,0,0,0.1c0,0,0,0.1,0,0.1c0,0,0,0.1,0,0.1c0,0,0,0,0,0.1
		c0,0.1,0,0.1,0,0.2v0v4.8c-0.4,0-0.8,0.4-0.8,0.8c0,0.4,0.4,0.8,0.8,0.8v9.7c-0.4,0-0.8,0.4-0.8,0.8s0.4,0.8,0.8,0.8v19.3
		c0-0.9-0.7-1.6-1.6-1.6h-9.7c-0.9,0-1.6,0.7-1.6,1.6v1.6h-9.7c0-0.9-0.7-1.6-1.6-1.6c-0.9,0-1.6,0.7-1.6,1.6H87.2
		c0-0.9-0.7-1.6-1.6-1.6c-0.9,0-1.6,0.7-1.6,1.6h-8v-1.6c0-0.5-0.2-1-0.6-1.3l-6.4-4.8c-0.6-0.4-1.4-0.4-1.9,0l-6.4,4.8
		c-0.4,0.3-0.6,0.8-0.6,1.3v4.8H55c-0.9,0-1.6,0.7-1.6,1.6v29H34.1c-1.8,0-3.2,1.4-3.2,3.2s1.4,3.2,3.2,3.2h27.4h12.9h40.2h9.7h19.3
		h9.7H179h14.5h12.9h27.4h66h59.6h12.9h16.1h19.3h41.8H480h43.5h4.8h75.7h181.9c1.8,0,3.2-1.4,3.2-3.2S787.6,275.6,785.8,275.6z
		 M56.6,254.6h3.2v12.9h-3.2V254.6z M67.9,237.3l3.8,2.8h-7.5L67.9,237.3z M119.4,249.8h3.2v17.7h-6.4v-17.7H119.4z M148.4,249.8
		h3.2v17.3v0.4h-1.1h-5.3v-17.7H148.4z M199.9,237.3l3.8,2.8h-7.5L199.9,237.3z M224.3,243.3c3.4-1.2,9-2.6,12.5-3.1l10.6-0.9
		c0,0,0,0,0,0c0,0.3,0.1,0.5,0.3,0.6l-2.5,16.3h-3.4v-1.6c0-0.4-0.4-0.8-0.8-0.8s-0.8,0.4-0.8,0.8v1.6h-3.2v-1.6
		c0-0.4-0.4-0.8-0.8-0.8c-0.4,0-0.8,0.4-0.8,0.8v1.6h-3.2v-1.6c0-0.4-0.4-0.8-0.8-0.8c-0.4,0-0.8,0.4-0.8,0.8v1.6
		c-0.7,0-1.4,0.5-1.6,1.2l-1.3,5.2H224v-1.6c0-0.4-0.4-0.8-0.8-0.8c-0.4,0-0.8,0.4-0.8,0.8v1.6h-3.2v-1.6c0-0.4-0.4-0.8-0.8-0.8
		c-0.4,0-0.8,0.4-0.8,0.8v1.6c-0.7,0-1.4,0.5-1.6,1.2l-1.3,5.2h-0.4v-1.6v-20.8L224.3,243.3z M254.6,237.1c0-0.1,0-0.1,0-0.2h1.9
		h9.4h1.5v0.7v0.9c0,0.9,0.7,1.6,1.6,1.6s1.6-0.7,1.6-1.6v-1.2v-0.4h4.7h8.2c0,0.9,0.7,1.6,1.6,1.6h-8.9c-0.4,0-0.8,0.4-0.8,0.8
		v16.9h-1.6v-5.6c0-3.1-2.2-5.6-4.8-5.6c-1.2,0-2.4,0.5-3.2,1.4v-6.3c0-0.9-0.7-1.6-1.6-1.6h-2.4H261h-4.5H253c0.5,0,1-0.2,1.3-0.6
		C254.4,237.7,254.6,237.4,254.6,237.1z M264.7,225.3l-3.3-0.8c-0.1,0-0.2-0.1-0.4-0.1c2.9-1.7,6-3.8,8.1-5.9c2,2.1,5.2,4.2,8.1,5.9
		c-0.1,0-0.3,0-0.4,0.1l-3.3,0.8c-0.7,0.2-2,0.3-2.8,0.3h-3.2C266.7,225.7,265.4,225.5,264.7,225.3z M395.4,205.4l5.6,2
		c3.5,1.3,9.5,1,12.9-0.5l7.6-3.4c3.3-1.5,8.8-2.8,12.3-2.9l4.6-0.2l1.1,12.5h-0.3c-0.8,0-1.5,0.6-1.6,1.5l-3.1,32.3
		c-5.3-3.1-9.9-7.3-12.5-13.2v-3.7v-0.8c0-0.9-0.7-1.6-1.6-1.6c-0.9,0-1.6,0.7-1.6,1.6h-57.9c0-0.9-0.7-1.6-1.6-1.6
		s-1.6,0.7-1.6,1.6v0.8v3.7c-9.3,21-44.7,21.3-45.1,21.3c-0.7,0-1.3,0.5-1.5,1.1c-0.2,0.7,0.1,1.4,0.6,1.8c0.2,0.1,2.9,1.9,7.6,2.9
		c-0.2,0.1-0.3,0.4-0.3,0.6v1.6h-3.2v-1.6c0-0.4-0.4-0.8-0.8-0.8c-0.4,0-0.8,0.4-0.8,0.8v1.6h-3.6l-1.3-5.2
		c-0.2-0.7-0.8-1.2-1.6-1.2v-1.6c0-0.4-0.4-0.8-0.8-0.8s-0.8,0.4-0.8,0.8v1.6h-3.2v-1.6c0-0.4-0.4-0.8-0.8-0.8s-0.8,0.4-0.8,0.8v1.6
		h-3.2v-1.6c0-0.4-0.4-0.8-0.8-0.8c-0.4,0-0.8,0.4-0.8,0.8v1.6H293l-2.5-16.3c0.2-0.1,0.3-0.4,0.3-0.6c0-0.3-0.2-0.6-0.5-0.8
		l-0.3-1.9c-0.1-0.4-0.3-0.7-0.5-1l10.3-0.9c3.6-0.5,9.4-2,12.8-3.4l71-25.8C386.7,204.4,392.3,204.3,395.4,205.4z M441.4,73.9
		c1.6-0.5,4.3-1.2,6.3-1.2c2,0,4.9,0.7,6.4,1.2v0.4c0,0.9,0.7,1.6,1.6,1.6c0.9,0,1.6-0.7,1.6-1.6v-0.4c1.5-0.4,4.4-1.2,6.4-1.2
		c2,0,4.8,0.7,6.3,1.2l-1.3,14c-1.6-0.4-3.5-0.7-5-0.7c-2.8,0-6.7,1.1-8,1.5c-1.4-0.4-5.2-1.5-8-1.5c-1.6,0-3.5,0.3-5,0.7
		L441.4,73.9z M504.8,190.9l18.4,10.6h-39.3l-1.1-1.1c-0.6-0.6-1.6-0.6-2.3,0c-0.6,0.6-0.6,1.6,0,2.3l1,1c-1.1,3.7-5.3,5.2-9,5.7
		l1-11.4c2.3-0.5,4.5-1.2,6.2-1.9l14-5.8c1.2-0.5,2.9-0.8,4.6-0.8C500.7,189.4,503.1,190,504.8,190.9z M569.3,207.2
		c0.2,0,0.4-0.1,0.6-0.2c1.7,2.6,4.7,4.5,8.9,5.3c-1.8,0.3-4.3,0.5-5.5,0.5h-27.1h-1.8h-1.7H480c-1.2,0-3.6-0.2-5.5-0.5
		c5.3-1.1,8.8-3.7,10-7.5h2v1.6c0,0.4,0.4,0.8,0.8,0.8c0.4,0,0.8-0.4,0.8-0.8v-1.6h3.2v1.6c0,0.4,0.4,0.8,0.8,0.8
		c0.4,0,0.8-0.4,0.8-0.8v-1.6h3.2v1.6c0,0.4,0.4,0.8,0.8,0.8s0.8-0.4,0.8-0.8v-1.6h3.2v1.6c0,0.4,0.4,0.8,0.8,0.8s0.8-0.4,0.8-0.8
		v-1.6h3.2v1.6c0,0.4,0.4,0.8,0.8,0.8c0.4,0,0.8-0.4,0.8-0.8v-1.6h3.2v1.6c0,0.4,0.4,0.8,0.8,0.8s0.8-0.4,0.8-0.8v-1.6h3.2v1.6
		c0,0.4,0.4,0.8,0.8,0.8s0.8-0.4,0.8-0.8v-1.6h3.2v1.6c0,0.4,0.4,0.8,0.8,0.8c0.4,0,0.8-0.4,0.8-0.8v-1.6h3.2v1.6
		c0,0.4,0.4,0.8,0.8,0.8s0.8-0.4,0.8-0.8v-1.6h2.1h1.1v0.6v1c0,0.4,0.4,0.8,0.8,0.8s0.8-0.4,0.8-0.8v0v-0.9v-0.6h0.5h2.7v1.6v0.1
		c0,0.4,0.4,0.8,0.8,0.8c0.2,0,0.3-0.1,0.4-0.1c0.2-0.1,0.4-0.4,0.4-0.7v-1.6h3.2v1.6c0,0.4,0.4,0.8,0.8,0.8s0.8-0.4,0.8-0.8v-1.6
		h3.2v1.6c0,0.4,0.4,0.8,0.8,0.8s0.8-0.4,0.8-0.8v-1.6h3.2v1.6c0,0.4,0.4,0.8,0.8,0.8s0.8-0.4,0.8-0.8v-1.6h3.2v1.6
		c0,0.4,0.4,0.8,0.8,0.8s0.8-0.4,0.8-0.8v-1.6h3.2v1.6c0,0.4,0.4,0.8,0.8,0.8s0.8-0.4,0.8-0.8v-1.6h3.2v1.6c0,0.4,0.4,0.8,0.8,0.8
		s0.8-0.4,0.8-0.8v-1.6h3.2v1.6C568.5,206.8,568.8,207.2,569.3,207.2z M650.8,254.6h1.8h23.7v12.1v0.9v0.9v0.6h-10.5
		c-0.4,0-0.8,0.4-0.8,0.8v0.8h-4.8v-6.4c0-1.9-2.1-2.4-3.2-2.4c-1.2,0-3.2,0.6-3.2,2.4v6.4h-3.2c0-0.9-0.7-1.6-1.6-1.6h-0.8h-0.8
		h-4.8v-14.5h6.5H650.8z M739.9,249.8c1.9-0.8,3.7-1.8,4.8-3.2h0.7c0,0.4,0.4,0.8,0.8,0.8s0.8-0.4,0.8-0.8h1.6
		c0,0.4,0.4,0.8,0.8,0.8c0.4,0,0.8-0.4,0.8-0.8h1.6c0,0.4,0.4,0.8,0.8,0.8c0.2,0,0.4-0.1,0.5-0.2c1.1,1.1,2.7,1.9,4.3,2.6
		c-0.3,0-0.5,0-0.8,0h-16.1C740.5,249.8,740.2,249.8,739.9,249.8z M110.6,273.2c-0.4,0-0.8,0.4-0.8,0.8v1.6h-6.4V274
		c0-0.4-0.4-0.8-0.8-0.8c-0.4,0-0.8,0.4-0.8,0.8v1.6h-6.4V274c0-0.4-0.4-0.8-0.8-0.8c-0.4,0-0.8,0.4-0.8,0.8v1.6h-6.4V274
		c0-0.4-0.4-0.8-0.8-0.8c-0.4,0-0.8,0.4-0.8,0.8v1.6h-6.4V274v-1.6h3.2h8h8h8h6.4v3.2h-1.6V274C111.4,273.5,111,273.2,110.6,273.2z
		 M86.4,251.4c1.3,0,2.4,1.1,2.4,2.4v2.4h-1.6v-1.6c0-0.4-0.4-0.8-0.8-0.8c-0.4,0-0.8,0.4-0.8,0.8v1.6H84v-2.4
		C84,252.5,85.1,251.4,86.4,251.4z M94.5,251.4c1.3,0,2.4,1.1,2.4,2.4v2.4h-1.6v-1.6c0-0.4-0.4-0.8-0.8-0.8c-0.4,0-0.8,0.4-0.8,0.8
		v1.6H92v-2.4C92,252.5,93.1,251.4,94.5,251.4z M102.5,251.4c1.3,0,2.4,1.1,2.4,2.4v2.4h-1.6v-1.6c0-0.4-0.4-0.8-0.8-0.8
		c-0.4,0-0.8,0.4-0.8,0.8v1.6h-1.6v-2.4C100.1,252.5,101.2,251.4,102.5,251.4z M110.6,251.4c1.3,0,2.4,1.1,2.4,2.4v2.4h-1.6v-1.6
		c0-0.4-0.4-0.8-0.8-0.8c-0.4,0-0.8,0.4-0.8,0.8v1.6h-1.6v-2.4C108.1,252.5,109.2,251.4,110.6,251.4z M133.9,251.4h8v14.5h-1.6v-3.2
		c0-0.4-0.4-0.8-0.8-0.8c-0.4,0-0.8,0.4-0.8,0.8v3.2h-3.2v-3.2c0-0.9-0.7-1.6-1.6-1.6s-1.6,0.7-1.6,1.6v3.2h-3.2v-3.2v-4.8v-3.2
		v-3.2H133.9z M148.4,269.1h2.4h0.8v6.4h-6.4v-4.5v-0.9v-0.9v-0.3h0.8H148.4z M165.3,251.4c1.3,0,2.4,1.1,2.4,2.4v2.4h-1.6v-1.6
		c0-0.4-0.4-0.8-0.8-0.8c-0.4,0-0.8,0.4-0.8,0.8v1.6h-1.6v-2.4C162.9,252.5,163.9,251.4,165.3,251.4z M173.3,251.4
		c1.3,0,2.4,1.1,2.4,2.4v2.4h-1.6v-1.6c0-0.4-0.4-0.8-0.8-0.8c-0.4,0-0.8,0.4-0.8,0.8v1.6h-1.6v-2.4
		C170.9,252.5,172,251.4,173.3,251.4z M181.4,251.4c1.3,0,2.4,1.1,2.4,2.4v2v0.4h-1.2h-0.4v-1.6c0-0.4-0.4-0.8-0.8-0.8
		c-0.4,0-0.8,0.4-0.8,0.8v1.6H179v-2.4C179,252.5,180,251.4,181.4,251.4z M189.4,251.4c1,0,1.9,0.7,2.3,1.6c0.1,0.3,0.1,0.5,0.1,0.8
		v0v0.9v1.6h-1.6v-1v-0.6c0-0.1,0-0.2,0-0.2c-0.1-0.3-0.4-0.6-0.8-0.6c0,0,0,0,0,0c-0.2,0-0.3,0.1-0.5,0.2c-0.2,0.1-0.3,0.4-0.3,0.6
		v0.3v0.9v0.4h-1.2H187v-0.7v-0.9v-0.8C187,252.5,188.1,251.4,189.4,251.4z M228.9,265.9h22.5v3.2h-3.2v-1.6c0-0.4-0.4-0.8-0.8-0.8
		c-0.4,0-0.8,0.4-0.8,0.8v1.6h-3.2v-1.6c0-0.4-0.4-0.8-0.8-0.8c-0.4,0-0.8,0.4-0.8,0.8v1.6h-3.2v-1.6c0-0.4-0.4-0.8-0.8-0.8
		c-0.4,0-0.8,0.4-0.8,0.8v1.6h-3.2v-1.6c0-0.4-0.4-0.8-0.8-0.8c-0.4,0-0.8,0.4-0.8,0.8v1.6h-3.2v-1.6c0-0.4-0.4-0.8-0.8-0.8
		s-0.8,0.4-0.8,0.8v1.6H224v-1.6c0-0.4-0.4-0.8-0.8-0.8c-0.4,0-0.8,0.4-0.8,0.8v1.6H218l0.8-3.2H228.9z M246.6,259.5h4.8v3.2h-3.2
		v-1.6c0-0.4-0.4-0.8-0.8-0.8c-0.4,0-0.8,0.4-0.8,0.8v1.6h-3.2v-1.6c0-0.4-0.4-0.8-0.8-0.8c-0.4,0-0.8,0.4-0.8,0.8v1.6h-3.2v-1.6
		c0-0.4-0.4-0.8-0.8-0.8c-0.4,0-0.8,0.4-0.8,0.8v1.6h-3.2v-1.6c0-0.4-0.4-0.8-0.8-0.8c-0.4,0-0.8,0.4-0.8,0.8v1.6h-1.2l0.8-3.2
		H246.6z M306.5,259.5l0.8,3.2h-1.2v-1.6c0-0.4-0.4-0.8-0.8-0.8c-0.4,0-0.8,0.4-0.8,0.8v1.6h-3.2v-1.6c0-0.4-0.4-0.8-0.8-0.8
		c-0.4,0-0.8,0.4-0.8,0.8v1.6h-3.2v-1.6c0-0.4-0.4-0.8-0.8-0.8c-0.4,0-0.8,0.4-0.8,0.8v1.6h-3.2v-1.6c0-0.4-0.4-0.8-0.8-0.8
		s-0.8,0.4-0.8,0.8v1.6h-1.6v-3.2h3.2h0H306.5z M319.3,265.9l0.8,3.2h-4.4v-1.6c0-0.4-0.4-0.8-0.8-0.8c-0.4,0-0.8,0.4-0.8,0.8v1.6
		h-3.2v-1.6c0-0.4-0.4-0.8-0.8-0.8s-0.8,0.4-0.8,0.8v1.6h-3.2v-1.6c0-0.4-0.4-0.8-0.8-0.8c-0.4,0-0.8,0.4-0.8,0.8v1.6h-3.2v-1.6
		c0-0.4-0.4-0.8-0.8-0.8c-0.4,0-0.8,0.4-0.8,0.8v1.6h-3.2v-1.6c0-0.4-0.4-0.8-0.8-0.8c-0.4,0-0.8,0.4-0.8,0.8v1.6h-3.2v-1.6
		c0-0.4-0.4-0.8-0.8-0.8s-0.8,0.4-0.8,0.8v-1.6h19.3H319.3z M320.5,260.7c0.5,0.1,1.1,0.2,1.7,0.2v3.2l0-0.2
		c-0.2-0.7-0.8-1.2-1.6-1.2v-1.6C320.6,260.9,320.6,260.8,320.5,260.7z M597.5,251.4h12.9v0c-0.2,0-0.4,0.1-0.6,0.2
		c-0.1,0.1-0.2,0.4-0.2,0.6s0.1,0.4,0.2,0.6c0.1,0.2,0.4,0.2,0.6,0.2H583v-1.6H597.5z M593.4,245.8c-0.4,0-0.8,0.4-0.8,0.8V245h3.2
		v3.2h-1.6v-1.6C594.2,246.1,593.9,245.8,593.4,245.8z M593.8,239.6c1.3-0.7,2.6-1.6,3.6-2.8c1,1.2,2.3,2.1,3.6,2.8
		C599,239.7,595.9,239.7,593.8,239.6z M601.5,245.8c-0.4,0-0.8,0.4-0.8,0.8v1.6h-1.6V245h3.2v1.6
		C602.3,246.1,601.9,245.8,601.5,245.8z M657,263.5c0,0,1.6,0,1.6,0.8v6.4h-3.2v-6.4C655.4,263.6,657,263.5,657,263.5z M665.1,272.3
		v3.2h-14.5v-3.2H665.1z M680.6,270.7h1.8h1.8h1.9v1v0.9v0.9v2.1h-9.7h-9.7v-4.8h9.7H680.6z M409.1,275.6V274h3.2h8v1.6h-8H409.1z
		 M373.7,275.6v-3.2h1.6h8h12.9h8h1.6v3.2h-17.7H373.7z M359.2,275.6h-18.1l-0.4-1.6h29.7v1.6H359.2z M291.6,275.6v-3.2h24.1h6.4
		h3.2h4.8h1.6h5.2l0.4,1.6l0.4,1.6H319h-3.2h-16.1H291.6z M253,272.3v-3.2v-3.2v-3.2v-3.2h9.7v3.2v3.2v3.2v3.2v3.2H261
		c0.4,0,0.8-0.4,0.8-0.8s-0.4-0.8-0.8-0.8h-6.4c-0.4,0-0.8,0.4-0.8,0.8s0.4,0.8,0.8,0.8H253V272.3z M269.1,259.5h4.8v3.2v3.2v3.2
		v3.2v3.2h-9.7v-3.2v-3.2v-3.2v-3.2v-3.2H269.1z M285.2,259.5v3.2v3.2v3.2v3.2v3.2h-1.6c0.4,0,0.8-0.4,0.8-0.8s-0.4-0.8-0.8-0.8
		h-6.4c-0.4,0-0.8,0.4-0.8,0.8s0.4,0.8,0.8,0.8h-1.6v-3.2v-3.2v-3.2v-3.2v-3.2H285.2z M437.4,249.9l0.2-1.7l2.8-28.9h9.2
		c0.7,2.8,3.2,4.8,6.2,4.8c1.7,0,3.2-0.6,4.3-1.7c0.4-0.4,0.8-0.8,1.1-1.3c0.1-0.1,0.1-0.2,0.2-0.3c0.3-0.5,0.5-1,0.6-1.5h9.2l0,0.3
		l0.2,1.6l0.1,1.1l0.2,1.6l0.2,1.6l0.1,0.9l3.1,31.5h-3.1h-4.4h-3.9h-7.8h-1.6H451h-1.6h-1.6h-1.6h-1.6h-3.2h-1.6h-3.1l0.6-6.2
		L437.4,249.9z M440.7,216h0.6c0,0,0,0,0,0h8c0,0.3,0,0.5,0.1,0.8c0,0.3-0.1,0.5-0.1,0.8h-8.8L440.7,216z M636.1,269.1h-24.1v-14.5
		h12.9h11.3V269.1z M603.9,275.6h-16.1v-4.8h22.5v4.8H603.9z M539.5,275.6h-1.6h-1.6h-1.6h-1.6h-4.8H525h-1.6h-3.2h-1.6H517h-1.6
		h-1.6h-3.2h-1.6h-1.6h-1.6h-1.6h-6.4h-1.6h-1.6h-1.6h-1.6V274h1.6h1.6h1.6h1.6h1.6h1.6h3.2h1.6h1.6h1.6h1.6h3.2h1.6h1.6h1.6h1.6
		h4.8h3.2h4.8h1.6h1.6h1.6h1.6h3.2h1.6h1.6h1.6h1.6h1.6h1.6h1.6h1.6h1.6h1.6v1.6h-1.6h-1.6h-3.2h-3.2h-1.6h-1.6h-1.6h-1.6H539.5z
		 M476.7,269.1h-1.6h-3.2h-14.5h-3.2h-4.8h-1.6h-3.2h-1.6h-3.2h-4.8h-1.6h-3.2h-4.8h-1.6v-4.8h3.2h3.2h3.2h3.2h3.2h3.2h3.2h1.6h1.6
		h4.8h3.2h14.5h3.2h1.6h1.6h3.2h1.6h1.6h1.6h1.6v1.6v1.6v1.6h-1.6h-1.6h-1.6h-1.6h-3.2H476.7z M372.1,270.7h-1.6v-4.8
		c0-0.9,0.8-1.6,1.5-2c1-0.5,1.7-1.6,1.7-2.8v9.7H372.1z M488,228.9h1.6h3.2v1.6h-6.4v-1.6H488z M499.3,228.9h1.6h3.2v1.6h-6.4v-1.6
		H499.3z M510.5,228.9h1.6h3.2v1.6h-6.4v-1.6H510.5z M521.8,228.9h1.6h6.4h1.6h1.6v1.6h-12.9v-1.6H521.8z M541.1,228.9h1.6h1.6v1.6
		h-6.4v-1.6H541.1z M552.4,228.9h1.6h1.6v1.6h-6.4v-1.6H552.4z M563.7,228.9h1.6h1.6v1.6h-6.4v-1.6H563.7z M571.7,269.1v-3.2v-1.6
		h3.2v1.6h-1.6c-0.4,0-0.8,0.4-0.8,0.8c0,0.4,0.4,0.8,0.8,0.8h1.6v1.6H571.7z M571.7,261.1v-1.6h1.6c-0.4,0-0.8,0.4-0.8,0.8
		s0.4,0.8,0.8,0.8h1.6v1.6h-3.2V261.1z M571.7,254.6V253h1.6c-0.4,0-0.8,0.4-0.8,0.8c0,0.4,0.4,0.8,0.8,0.8h1.6v1.6h-1.6h-1.6V254.6
		z M571.7,248.6v-2h1.6c-0.4,0-0.8,0.4-0.8,0.8s0.4,0.8,0.8,0.8h1.6v1.6h-1.6h-1.6V248.6z M571.7,240.2h1.6c-0.4,0-0.8,0.4-0.8,0.8
		c0,0.4,0.4,0.8,0.8,0.8h1.6v1.6h-3.2V240.2z M571.7,233.7h1.6c-0.4,0-0.8,0.4-0.8,0.8c0,0.4,0.4,0.8,0.8,0.8h1.6v1.6h-3.2V233.7z
		 M576.5,262.7h1.6v6.4h-1.6V262.7z M573.3,228.9h1.6v1.6h-3.2v-1.6H573.3z M566.9,236.9h-6.4v-3.2h3.2c-0.4,0-0.8,0.4-0.8,0.8
		c0,0.4,0.4,0.8,0.8,0.8h1.6c0.4,0,0.8-0.4,0.8-0.8c0-0.4-0.4-0.8-0.8-0.8h1.6V236.9z M566.9,243.4h-6.4v-3.2h3.2
		c-0.4,0-0.8,0.4-0.8,0.8c0,0.4,0.4,0.8,0.8,0.8h1.6c0.4,0,0.8-0.4,0.8-0.8c0-0.4-0.4-0.8-0.8-0.8h1.6V243.4z M566.9,249.8h-6.4
		v-2.3v-0.9h0.9h0.7h1.6c-0.4,0-0.8,0.4-0.8,0.8s0.4,0.8,0.8,0.8h1.6c0.4,0,0.8-0.4,0.8-0.8s-0.4-0.8-0.8-0.8h1.6V249.8z
		 M566.9,254.6v1.6H562h-1.6v-0.8v-0.8V253h3.2c-0.4,0-0.8,0.4-0.8,0.8c0,0.4,0.4,0.8,0.8,0.8h1.6c0.4,0,0.8-0.4,0.8-0.8
		c0-0.4-0.4-0.8-0.8-0.8h1.6V254.6z M566.9,261.1v1.6h-1.6h-4.8v-1.6v-0.8v-0.8h1.6h1.6c-0.4,0-0.8,0.4-0.8,0.8s0.4,0.8,0.8,0.8h1.6
		c0.4,0,0.8-0.4,0.8-0.8s-0.4-0.8-0.8-0.8h1.6V261.1z M566.9,265.9v3.2h-3.2h-3.2v-3.2v-1.6h3.2h3.2V265.9z M566.9,275.6h-3.2v-2.4
		c0-0.4-0.4-0.8-0.8-0.8h4V275.6z M542.7,270.7c0-0.5-0.3-1-0.6-1.3c-0.3-0.2-0.6-0.3-1-0.3c-0.9,0-1.6,0.7-1.6,1.6v1.6h-1.6v-3.2
		h3.2h1.6h1.6v1.6v1.6h-1.6V270.7z M526.6,269.1c-0.9,0-1.6,0.7-1.6,1.6v1.6h-4.8v-3.2H526.6h6.4v3.2h-4.8v-1.6
		C528.2,269.8,527.5,269.1,526.6,269.1z M512.1,269.1c-0.9,0-1.6,0.7-1.6,1.6v1.6h-1.6v-3.2H512.1h3.2v3.2h-1.6v-1.6
		C513.8,269.8,513,269.1,512.1,269.1z M476.7,262.7h-1.6h-3.2h-14.5h-3.2h-4.8h-1.6h-4.8h-3.2h-6.4h-3.2h-6.4v-1.6h6.4h3.2h1.6h4.8
		h3.2h4.8h1.6h4.8h3.2h14.5h3.2h1.6h1.6h1.6h1.6h1.6h1.6h1.6h1.6v1.6h-1.6h-1.6h-1.6h-1.6h-3.2H476.7z M404.3,251.4h-8h-12.9h-8
		h-1.7c0-0.5,0.1-1.1,0.1-1.6h32.2c0,0.5,0,1.1,0.1,1.6H404.3z M378.6,257.9c0-0.9,0.7-1.6,1.6-1.6h1.6v4.8h-3.2V257.9z
		 M386.6,257.9c0-0.9,0.7-1.6,1.6-1.6h6.4v4.8h-8V257.9z M399.5,257.9c0-0.9,0.7-1.6,1.6-1.6h1.6v4.8h-3.2V257.9z M478.3,248.2h1.6
		c0.4,0,0.8-0.4,0.8-0.8s-0.4-0.8-0.8-0.8h1.6v3.2h-3.2V248.2z M478.3,241.8h1.6c0.4,0,0.8-0.4,0.8-0.8c0-0.4-0.4-0.8-0.8-0.8h1.6
		v3.2h-3.2V241.8z M478.3,235.3h1.6c0.4,0,0.8-0.4,0.8-0.8c0-0.4-0.4-0.8-0.8-0.8h1.6v3.2h-3.2V235.3z M483.2,230.5h1.6v1.6v1.6v3.2
		v1.6v1.6v3.2v1.6v1.6v3.2v1.6v1.6v3.2v1.6h-1.6v-1.6V253v-1.6v-1.6v-3.2V245v-1.6v-3.2v-1.6v-1.6v-3.2v-1.6V230.5z M492.8,236.9
		h-6.4v-3.2h1.6c-0.4,0-0.8,0.4-0.8,0.8c0,0.4,0.4,0.8,0.8,0.8h1.6c0.4,0,0.8-0.4,0.8-0.8c0-0.4-0.4-0.8-0.8-0.8h3.2V236.9z
		 M492.8,243.4h-6.4v-3.2h1.6c-0.4,0-0.8,0.4-0.8,0.8c0,0.4,0.4,0.8,0.8,0.8h1.6c0.4,0,0.8-0.4,0.8-0.8c0-0.4-0.4-0.8-0.8-0.8h3.2
		V243.4z M492.8,249.8h-6.4v-3.2h1.6c-0.4,0-0.8,0.4-0.8,0.8s0.4,0.8,0.8,0.8h1.6c0.4,0,0.8-0.4,0.8-0.8s-0.4-0.8-0.8-0.8h3.2V249.8
		z M492.8,256.3h-6.4V253h1.6c-0.4,0-0.8,0.4-0.8,0.8c0,0.4,0.4,0.8,0.8,0.8h1.6c0.4,0,0.8-0.4,0.8-0.8c0-0.4-0.4-0.8-0.8-0.8h3.2
		V256.3z M492.8,262.7h-1.6v-3.2h1.6V262.7z M492.8,269.1h-1.6v-3.2h1.6V269.1z M478.3,254.6h1.6c0.4,0,0.8-0.4,0.8-0.8
		c0-0.4-0.4-0.8-0.8-0.8h1.6v3.2h-3.2V254.6z M494.4,270.7v-1.6v-3.2v-1.6v-1.6v-3.2v-1.6v-1.6V253v-1.6v-1.6v-3.2V245v-1.6v-3.2
		v-1.6v-1.6v-3.2v-1.6v-1.6h1.6v1.6v1.6v3.2v1.6v1.6v3.2v1.6v1.6v3.2v1.6v1.6v3.2v1.6v1.6v3.2v1.6v1.6v3.2v1.6v1.6h-1.6V270.7z
		 M505.7,230.5h1.6v1.6v1.6v3.2v1.6v1.6v3.2v1.6v1.6v3.2v1.6v1.6v3.2v1.6v1.6v0.4l-1.6,0.2v-0.6v-1.6v-1.6V253v-1.6v-1.6v-3.2V245
		v-1.6v-3.2v-1.6v-1.6v-3.2v-1.6V230.5z M517,230.5h1.6v1.6v1.6v3.2v1.6v1.6v3.2v1.6v1.6v3.2v1.6v1.6v3.2v1.6v1.6H517v-1.6v-1.6V253
		v-1.6v-1.6v-3.2V245v-1.6v-3.2v-1.6v-1.6v-3.2v-1.6V230.5z M534.7,230.5h1.6v1.6v1.6v3.2v1.6v1.6v3.2v1.6v1.6v3.2v1.6v1.6v3.2v1.6
		v1.6h-1.6v-1.6v-1.6V253v-1.6v-1.6v-3.2V245v-1.6v-3.2v-1.6v-1.6v-3.2v-1.6V230.5z M545.9,230.5h1.6v1.6v1.6v3.2v1.6v1.6v3.2v1.6
		v1.6v1.6v1.6v1.6v1.6v1.6v1.6v1.6v1.6v0.6l-1.6-0.2v-0.4v-1.6v-1.6v-1.6V253v-1.6v-1.6v-1.6v-1.6V245v-1.6v-3.2v-1.6v-1.6v-3.2
		v-1.6V230.5z M555.6,236.9h-6.4v-3.2h3.2c-0.4,0-0.8,0.4-0.8,0.8c0,0.4,0.4,0.8,0.8,0.8h1.6c0.4,0,0.8-0.4,0.8-0.8
		c0-0.4-0.4-0.8-0.8-0.8h1.6V236.9z M555.6,243.4h-6.4v-3.2h3.2c-0.4,0-0.8,0.4-0.8,0.8c0,0.4,0.4,0.8,0.8,0.8h1.6
		c0.4,0,0.8-0.4,0.8-0.8c0-0.4-0.4-0.8-0.8-0.8h1.6V243.4z M555.6,254.6v1.6H554h-4.8v-1.6V253h3.2c-0.4,0-0.8,0.4-0.8,0.8
		c0,0.4,0.4,0.8,0.8,0.8h1.6c0.4,0,0.8-0.4,0.8-0.8c0-0.4-0.4-0.8-0.8-0.8h1.6V254.6z M555.6,269.1h-3.2h-3.2v-2.6
		c0.1,0,0.2-0.1,0.4-0.1l1.5-0.5l1.3-0.4l3.2-1.1v1.5V269.1z M504.1,269.1h-6.4v-3.2h1.6c-0.4,0-0.8,0.4-0.8,0.8
		c0,0.4,0.4,0.8,0.8,0.8h1.6c0.4,0,0.8-0.4,0.8-0.8c0-0.4-0.4-0.8-0.8-0.8h1.3l1.5,0.5c0.1,0,0.2,0.1,0.3,0.1V269.1z M497.7,253h1.6
		c-0.4,0-0.8,0.4-0.8,0.8c0,0.4,0.4,0.8,0.8,0.8h1.6c0.4,0,0.8-0.4,0.8-0.8c0-0.4-0.4-0.8-0.8-0.8h3.2v3.2h-6.4V253z M497.7,246.6
		h1.6c-0.4,0-0.8,0.4-0.8,0.8s0.4,0.8,0.8,0.8h1.6c0.4,0,0.8-0.4,0.8-0.8s-0.4-0.8-0.8-0.8h3.2v3.2h-6.4V246.6z M497.7,240.2h1.6
		c-0.4,0-0.8,0.4-0.8,0.8c0,0.4,0.4,0.8,0.8,0.8h1.6c0.4,0,0.8-0.4,0.8-0.8c0-0.4-0.4-0.8-0.8-0.8h3.2v3.2h-6.4V240.2z M497.7,233.7
		h1.6c-0.4,0-0.8,0.4-0.8,0.8c0,0.4,0.4,0.8,0.8,0.8h1.6c0.4,0,0.8-0.4,0.8-0.8c0-0.4-0.4-0.8-0.8-0.8h3.2v3.2h-6.4V233.7z
		 M508.9,259.5h1.6c-0.1,0-0.1,0-0.2,0l-1.4,0.2V259.5z M508.9,253h1.6c-0.4,0-0.8,0.4-0.8,0.8c0,0.4,0.4,0.8,0.8,0.8h1.6
		c0.4,0,0.8-0.4,0.8-0.8c0-0.4-0.4-0.8-0.8-0.8h3.2v3.2h-6.4V253z M508.9,246.6h1.6c-0.4,0-0.8,0.4-0.8,0.8s0.4,0.8,0.8,0.8h1.6
		c0.4,0,0.8-0.4,0.8-0.8s-0.4-0.8-0.8-0.8h3.2v3.2h-6.4V246.6z M508.9,240.2h1.6c-0.4,0-0.8,0.4-0.8,0.8c0,0.4,0.4,0.8,0.8,0.8h1.6
		c0.4,0,0.8-0.4,0.8-0.8c0-0.4-0.4-0.8-0.8-0.8h3.2v3.2h-6.4V240.2z M508.9,233.7h1.6c-0.4,0-0.8,0.4-0.8,0.8c0,0.4,0.4,0.8,0.8,0.8
		h1.6c0.4,0,0.8-0.4,0.8-0.8c0-0.4-0.4-0.8-0.8-0.8h3.2v3.2h-6.4V233.7z M520.2,253h1.6c-0.4,0-0.8,0.4-0.8,0.8
		c0,0.4,0.4,0.8,0.8,0.8h1.6c0.4,0,0.8-0.4,0.8-0.8c0-0.4-0.4-0.8-0.8-0.8h6.4c-0.4,0-0.8,0.4-0.8,0.8c0,0.4,0.4,0.8,0.8,0.8h1.6
		c0.4,0,0.8-0.4,0.8-0.8c0-0.4-0.4-0.8-0.8-0.8h1.6v3.2h-12.9V253z M520.2,246.6h1.6c-0.4,0-0.8,0.4-0.8,0.8s0.4,0.8,0.8,0.8h1.6
		c0.4,0,0.8-0.4,0.8-0.8s-0.4-0.8-0.8-0.8h6.4c-0.4,0-0.8,0.4-0.8,0.8s0.4,0.8,0.8,0.8h1.6c0.4,0,0.8-0.4,0.8-0.8s-0.4-0.8-0.8-0.8
		h1.6v3.2h-12.9V246.6z M520.2,240.2h1.6c-0.4,0-0.8,0.4-0.8,0.8c0,0.4,0.4,0.8,0.8,0.8h1.6c0.4,0,0.8-0.4,0.8-0.8
		c0-0.4-0.4-0.8-0.8-0.8h6.4c-0.4,0-0.8,0.4-0.8,0.8c0,0.4,0.4,0.8,0.8,0.8h1.6c0.4,0,0.8-0.4,0.8-0.8c0-0.4-0.4-0.8-0.8-0.8h1.6
		v3.2h-12.9V240.2z M520.2,233.7h1.6c-0.4,0-0.8,0.4-0.8,0.8c0,0.4,0.4,0.8,0.8,0.8h1.6c0.4,0,0.8-0.4,0.8-0.8
		c0-0.4-0.4-0.8-0.8-0.8h6.4c-0.4,0-0.8,0.4-0.8,0.8c0,0.4,0.4,0.8,0.8,0.8h1.6c0.4,0,0.8-0.4,0.8-0.8c0-0.4-0.4-0.8-0.8-0.8h1.6
		v3.2h-12.9V233.7z M537.9,253h3.2c-0.4,0-0.8,0.4-0.8,0.8c0,0.4,0.4,0.8,0.8,0.8h1.6c0.4,0,0.8-0.4,0.8-0.8c0-0.4-0.4-0.8-0.8-0.8
		h1.6v1.6v1.6h-1.6h-4.8V253z M537.9,246.6h3.2c-0.4,0-0.8,0.4-0.8,0.8s0.4,0.8,0.8,0.8h1.6c0.4,0,0.8-0.4,0.8-0.8s-0.4-0.8-0.8-0.8
		h1.6v1.6v1.6h-1.6h-4.8V246.6z M537.9,240.2h3.2c-0.4,0-0.8,0.4-0.8,0.8c0,0.4,0.4,0.8,0.8,0.8h1.6c0.4,0,0.8-0.4,0.8-0.8
		c0-0.4-0.4-0.8-0.8-0.8h1.6v3.2h-6.4V240.2z M537.9,233.7h3.2c-0.4,0-0.8,0.4-0.8,0.8c0,0.4,0.4,0.8,0.8,0.8h1.6
		c0.4,0,0.8-0.4,0.8-0.8c0-0.4-0.4-0.8-0.8-0.8h1.6v3.2h-6.4V233.7z M550.8,259.5h1.6c-0.4,0-0.8,0.4-0.8,0.8c0,0.1,0,0.2,0.1,0.3
		l-2.3-0.3l-0.2,0v-0.8H550.8z M521,263.5c0.4,0,0.8-0.4,0.8-0.8h3.2c0,0.4,0.4,0.8,0.8,0.8s0.8-0.4,0.8-0.8h3.2
		c0,0.4,0.4,0.8,0.8,0.8s0.8-0.4,0.8-0.8h1.6h1.6c0,0.4,0.4,0.8,0.8,0.8c0.4,0,0.8-0.4,0.8-0.8h1.6h1.6c0,0.4,0.4,0.8,0.8,0.8
		s0.8-0.4,0.8-0.8h1.5l0.1,0l1.6,0.2l1.6,0.2l1.6,0.2l0.8,0.1c-0.2,0.1-0.5,0.1-0.8,0.2c-0.5,0.1-1,0.2-1.6,0.3
		c-0.5,0.1-1.1,0.1-1.6,0.2c-0.6,0.1-1.1,0.1-1.6,0.1c-0.6,0-1.2,0.1-1.6,0.1h-3.2h-1.6h-1.6h-1.6h-12.9h-1.6H517h-1.6h-3.2
		c-0.7,0-2-0.1-3.2-0.2c-0.5-0.1-1.1-0.1-1.6-0.2c-0.6-0.1-1.1-0.2-1.6-0.3c-0.3-0.1-0.6-0.1-0.8-0.2l0.8-0.1l1.6-0.2l1.6-0.2
		l1.6-0.2c0,0.4,0.4,0.8,0.8,0.8c0.4,0,0.8-0.4,0.8-0.8h3.2c0,0.4,0.4,0.8,0.8,0.8s0.8-0.4,0.8-0.8h1.6h1.6
		C520.2,263.1,520.6,263.5,521,263.5z M544.3,259.7l-1.4-0.2c-0.1,0-0.1,0-0.2,0h1.6V259.7z M504.1,260.3l-2.5,0.3
		c0-0.1,0.1-0.2,0.1-0.3c0-0.4-0.4-0.8-0.8-0.8h3.2V260.3z M499.3,259.5c-0.4,0-0.8,0.4-0.8,0.8c0,0.3,0.1,0.5,0.3,0.7l-1.1,0.1
		v-1.6H499.3z M555.6,261.1l-1.1-0.1c0.2-0.1,0.3-0.4,0.3-0.7c0-0.4-0.4-0.8-0.8-0.8h1.6V261.1z M552.4,249.8h-3.2h0v-1.6v-1.6h3.2
		c-0.4,0-0.8,0.4-0.8,0.8c0,0.2,0.1,0.4,0.2,0.5c0.1,0.2,0.4,0.3,0.6,0.3h1.6c0.4,0,0.8-0.4,0.8-0.8c0-0.1,0-0.3-0.1-0.4
		c-0.1-0.2-0.4-0.4-0.7-0.4h1.6v0v3.2H552.4z M505.7,270.7v-1.6h1.6v1.6v1.6h-1.6V270.7z M517,269.1h1.6v3.2H517V269.1z
		 M534.7,269.1h1.6v3.2h-1.6V269.1z M545.9,270.7v-1.6h1.6v1.6v1.6h-1.6V270.7z M557.2,270.7v-1.6v-3.2v-1.6v-1.6v-1.6v-1.6v-1.6
		v-1.6v-1.6V253v-1.6v-1.6v-0.4v-1.3v-1.6v-0.8V245v-1.6v-3.2v-1.6v-1.6v-3.2v-1.6v-1.6h1.6v1.6v1.6v3.2v1.6v1.6v3.2v1.2v0.4v1.6v2
		v1.2v1.6v1.6v1.6v1.6v1.6v1.6v1.6v1.6v1.6v1.6v3.2v1.6v1.6h-1.6V270.7z M481.6,230.5h-3.2v-1.6h1.6h1.6V230.5z M407.5,246.6h-4.8
		v-4.8c0-0.4-0.4-0.8-0.8-0.8s-0.8,0.4-0.8,0.8v4.8h-3.2v-4.8c0-0.4-0.4-0.8-0.8-0.8c-0.4,0-0.8,0.4-0.8,0.8v4.8H393v-4.8
		c0-0.4-0.4-0.8-0.8-0.8c-0.4,0-0.8,0.4-0.8,0.8v4.8h-3.2v-4.8c0-0.4-0.4-0.8-0.8-0.8s-0.8,0.4-0.8,0.8v4.8h-3.2v-4.8
		c0-0.4-0.4-0.8-0.8-0.8s-0.8,0.4-0.8,0.8v4.8h-3.2v-4.8c0-0.4-0.4-0.8-0.8-0.8c-0.4,0-0.8,0.4-0.8,0.8v4.8h-4.8v-11.3h35.4V246.6z
		 M331.9,264.3h4.8v4.8h-1.6v-1.6c0-0.4-0.4-0.8-0.8-0.8c-0.4,0-0.8,0.4-0.8,0.8v1.6h-1.6V264.3z M341.5,265.9
		c0-0.9,0.7-1.6,1.6-1.6h3.2v6.4h-4.8V265.9z M351.2,265.9c0-0.9,0.7-1.6,1.6-1.6h3.2v6.4h-4.8V265.9z M360.8,265.9
		c0-0.9,0.7-1.6,1.6-1.6h3.2v6.4h-4.8V265.9z M378.6,262.7h3.2v8h-3.2V262.7z M386.6,262.7h8v8h-8V262.7z M399.5,262.7h3.2v8h-3.2
		V262.7z M407.5,270.7v-6.9c0.5,0.3,1,0.4,1.6,0.4h1.6v6.4H407.5z M415.6,265.9c0-0.9,0.7-1.6,1.6-1.6h3.2v6.4h-4.8V265.9z
		 M568.5,275.6V274v-1.6v-1.6v-1.6v-3.2v-1.6v-1.6v-1.6v-1.6v-1.6v-1.6v-1.6V253v-1.6v-1.6v-3.2V245v-1.6v-3.2v-1.6v-1.6v-3.2v-1.6
		v-1.6h1.6v1.6v1.6v3.2v1.6v1.6v3.2v1.6v1.6v0.9v2.3v1.6v1.6v1.6v0.8v0.8v1.6v1.6v0.8v0.8v1.6v1.6v1.6v3.2v1.6v1.6v1.6v1.6H568.5z
		 M571.7,272.3h1.6c-0.4,0-0.8,0.4-0.8,0.8s0.4,0.8,0.8,0.8h1.6v1.6h-3.2V272.3z M576.5,274v-1.6v-1.6h1.6v4.8h-1.6V274z
		 M626.4,275.6h-14.5v-4.8h14.5V275.6z M610.3,269.1h-22.5v-9.7c0-0.9-0.7-1.6-1.6-1.6H583c-0.9,0-1.6-0.7-1.6-1.6v-1.6h29V269.1z
		 M578.1,247.8c-0.5-0.1-1.1-0.3-1.6-0.5v-21.6h1.6V247.8z M476.7,242.8l-1.6-16.6v-0.5h1.6V242.8z M470.3,216h0.6l0.2,1.6h-8.8
		c0-0.3,0-0.5-0.1-0.8c0-0.3,0.1-0.5,0.1-0.8H470.3z M458.6,214.4c0.3,0.5,0.4,1,0.4,1.6s-0.2,1.1-0.4,1.6c-0.6,1-1.6,1.6-2.8,1.6
		s-2.2-0.6-2.8-1.6c-0.3-0.5-0.4-1-0.4-1.6s0.2-1.1,0.4-1.6c0.6-1,1.6-1.6,2.8-1.6S458,213.4,458.6,214.4z M433.4,257.9h-1.8v-6.4
		c0-0.4-0.4-0.8-0.8-0.8s-0.8,0.4-0.8,0.8v6.4h-3.2v-9.7c0-0.4-0.4-0.8-0.8-0.8c-0.4,0-0.8,0.4-0.8,0.8v9.7H422V245
		c0-0.4-0.4-0.8-0.8-0.8s-0.8,0.4-0.8,0.8v12.9v0l-3.2,0v0v-16.1c0-0.4-0.4-0.8-0.8-0.8s-0.8,0.4-0.8,0.8v16.1v0l-2.3,0c0,0,0,0,0,0
		c-0.3-0.9-0.6-1.9-0.9-3v-13.1c0-0.4-0.4-0.8-0.8-0.8c-0.4,0-0.8,0.4-0.8,0.8v5.1c-0.7-4.7-1.2-9.2-1.5-11.5h10.1
		c3.2,6.7,8.7,11.5,14.8,14.8L433.4,257.9z M360.3,235.3h10.2v10.5c-0.2,0-0.4,0.1-0.6,0.2c-0.3,0.3-0.3,0.8,0,1.1l0.6,0.6v0.5
		c0,1.6-0.1,3.3-0.3,4.8c-0.3,2.5-0.8,4.5-1.3,4.8V253v-11.3c0-0.4-0.4-0.8-0.8-0.8c-0.4,0-0.8,0.4-0.8,0.8v16.1h-3.2v-16.1
		c0-0.4-0.4-0.8-0.8-0.8c-0.4,0-0.8,0.4-0.8,0.8v16.1h-3.2V245c0-0.4-0.4-0.8-0.8-0.8s-0.8,0.4-0.8,0.8v12.9h-3.2v-9.7
		c0-0.4-0.4-0.8-0.8-0.8c-0.4,0-0.8,0.4-0.8,0.8v9.7h-3.2v-6.4c0-0.4-0.4-0.8-0.8-0.8s-0.8,0.4-0.8,0.8v6.4h-3.2V253
		c0-0.4-0.4-0.8-0.8-0.8s-0.8,0.4-0.8,0.8v4.8h-3.2v-3.2c0-0.4-0.4-0.8-0.8-0.8c-0.4,0-0.8,0.4-0.8,0.8v3.2h-3.2v-1.6
		c0-0.4-0.4-0.8-0.8-0.8c-0.4,0-0.8,0.4-0.8,0.8v1.6h-1.6h-1.6c0-0.4-0.4-0.8-0.8-0.8s-0.8,0.4-0.8,0.8h-3.2c-1.9,0-3.7-0.2-5.2-0.5
		C331.7,256.1,352.6,251.5,360.3,235.3z M330.3,261.1v6.4c0-0.4-0.4-0.8-0.8-0.8s-0.8,0.4-0.8,0.8v1.6h-3.2v-1.6v-6.4H330.3z
		 M423.6,274v-3.2h1.6h4.8h3.2h1.6h4.8h3.2h1.6h3.2h1.6h4.8h1.6h1.6h4.8h9.7h3.2h1.6h1.6h3.2h1.6h1.6h1.6h1.6v1.6v3.2h-1.6h-1.6
		h-1.6v-3.2c0-0.4-0.4-0.8-0.8-0.8c-0.4,0-0.8,0.4-0.8,0.8v3.2H480h-1.6h-1.6v-3.2c0-0.4-0.4-0.8-0.8-0.8c-0.4,0-0.8,0.4-0.8,0.8
		v3.2h-3.2h-1.6v-3.2c0-0.4-0.4-0.8-0.8-0.8c-0.4,0-0.8,0.4-0.8,0.8v3.2h-4.8v-3.2c0,0,0-0.1,0-0.1c0-0.4-0.4-0.7-0.8-0.7
		c-0.4,0-0.8,0.4-0.8,0.8v3.2h-1.6h-3.2V274v-1.6c0-0.4-0.4-0.8-0.8-0.8c-0.4,0-0.8,0.4-0.8,0.8v1.6v1.6H451V274v-1.6
		c0-0.4-0.4-0.8-0.8-0.8c-0.4,0-0.8,0.4-0.8,0.8v1.6v1.6h-4.8V274v-1.6c0-0.4-0.4-0.8-0.8-0.8c-0.4,0-0.8,0.4-0.8,0.8v1.6v1.6h-4.8
		V274v-1.6c0-0.4-0.4-0.8-0.8-0.8s-0.8,0.4-0.8,0.8v1.6v1.6h-4.8V274v-1.6c0-0.4-0.4-0.8-0.8-0.8c-0.2,0-0.3,0.1-0.5,0.2
		c-0.2,0.1-0.3,0.4-0.3,0.6v1.6v1.6h-6.4V274z M647.4,272.3v3.2h-9.7H628v-4.8h9.7h9.7V272.3z M636.1,253h-24.1v-1.6h24.1V253z
		 M418.8,232.1h-57.9v-1.6h57.9V232.1z M287.3,240.2l2.5,16.1h-3v-1.6c0-0.4-0.4-0.8-0.8-0.8c-0.4,0-0.8,0.4-0.8,0.8v1.6H282v-1.6
		c0-0.4-0.4-0.8-0.8-0.8c-0.4,0-0.8,0.4-0.8,0.8v1.6h-3.2v-16.1H287.3z M272.3,256.3h-1.6v-1.6c0-0.6-0.3-1.1-0.8-1.4
		c0-0.1,0-0.1,0-0.2c0-0.2-0.1-0.4-0.2-0.6c-0.1-0.2-0.4-0.2-0.6-0.2v-1.6c0-1.5,0.5-2.9,1.2-3.7c1.2,0.6,2,2,2,3.7V256.3z
		 M261,256.3h-3.2v-1.6c0-0.4-0.4-0.8-0.8-0.8c-0.4,0-0.8,0.4-0.8,0.8v1.6H253v-1.6c0-0.4-0.4-0.8-0.8-0.8c-0.4,0-0.8,0.4-0.8,0.8
		v1.6h-3l2.5-16.1H261V256.3z M216,272.3h35.4v3.2h-17.7h-19.3h-3.2h-1.6h-1.6h-3.2h-4.4l0.8-3.2h3.6h3.2h1.6h1.6h3.2H216z
		 M125.8,267.5h8h8v3v0.9v0.9v3.3h-6.4v-1.1v-0.9v-0.9v-2.1c0-0.9-0.7-1.6-1.6-1.6s-1.6,0.7-1.6,1.6v3.2v0.9v0.8H130h-2.4h-1.8
		V267.5z M195.1,251.4v-0.7l4.8-2.4l2.2,1.1l1,0.5l1,0.5l0.6,0.3v0.7v1.6h-3.2v-1.6c0,0,0-0.1,0-0.1c0-0.3-0.1-0.5-0.3-0.8
		c-0.2-0.3-0.4-0.5-0.7-0.6c-0.2-0.1-0.4-0.1-0.6-0.1c-0.6,0-1.1,0.3-1.4,0.8c-0.1,0.2-0.2,0.5-0.2,0.8v0.2v0.9v0.6h-1.7h-1.5v-0.3
		v-0.9V251.4z M195.1,275.6v-6.4h3.2v1.4l-1.3,5H195.1z M189.4,273.2c-0.4,0-0.8,0.4-0.8,0.8v1.6h-6.4V274c0-0.4-0.4-0.8-0.8-0.8
		c-0.4,0-0.8,0.4-0.8,0.8v1.6H179h-4.8V274c0-0.4-0.4-0.8-0.8-0.8c-0.4,0-0.8,0.4-0.8,0.8v1.6h-6.4V274c0-0.4-0.4-0.8-0.8-0.8
		c-0.4,0-0.8,0.4-0.8,0.8v1.6H158V274v-1.6h3.2h8h8h8h6.4v3.2h-1.6V274C190.2,273.5,189.9,273.2,189.4,273.2z M165.3,261.9
		c0.4,0,0.8-0.4,0.8-0.8v-1.6h1.6v2v0.9v0.9v7.6h-3.2v-3.2c0,0.4,0.4,0.8,0.8,0.8c0.4,0,0.8-0.4,0.8-0.8v-1.6c0-0.4-0.4-0.8-0.8-0.8
		c-0.4,0-0.8,0.4-0.8,0.8v-1.6v-0.9v-0.9v-1.5C164.5,261.5,164.8,261.9,165.3,261.9z M189.4,265.1c-0.4,0-0.8,0.4-0.8,0.8v-4.8
		c0,0.4,0.4,0.8,0.8,0.8c0.4,0,0.8-0.4,0.8-0.8v-1.6h1.6v11.3h-3.2v-3.2c0,0.4,0.4,0.8,0.8,0.8c0.4,0,0.8-0.4,0.8-0.8v-1.6
		C190.2,265.5,189.9,265.1,189.4,265.1z M195.1,254.6h4.8h4.8v12.9c0-0.4-0.4-0.8-0.8-0.8c-0.4,0-0.8,0.4-0.8,0.8h-1.6v-1.6
		c0-0.9-0.7-1.6-1.6-1.6s-1.6,0.7-1.6,1.6v1.6h-3.2V254.6z M172.5,267.5c0,0.4,0.4,0.8,0.8,0.8c0.4,0,0.8-0.4,0.8-0.8v-1.6
		c0-0.4-0.4-0.8-0.8-0.8c-0.4,0-0.8,0.4-0.8,0.8v-4.4v-0.4c0,0.1,0,0.3,0.1,0.4c0.1,0.3,0.4,0.4,0.7,0.4c0.4,0,0.8-0.4,0.8-0.8v-0.2
		v-0.9v-0.6h1.6v0v0.9v10.4h-3.2V267.5z M181.4,265.1c-0.4,0-0.8,0.4-0.8,0.8v-4.8c0,0.4,0.4,0.8,0.8,0.8c0.4,0,0.8-0.4,0.8-0.8
		v-1.6h1.6v11.3h-3.2v-3.2c0,0.4,0.4,0.8,0.8,0.8c0.4,0,0.8-0.4,0.8-0.8v-1.6C182.2,265.5,181.8,265.1,181.4,265.1z M159.6,264.3
		v0.9v0.9v4.7H158v-3.2v-0.9v-0.7v-0.2v-0.9v-3.8v-1.6v-1.6h1.6V264.3z M211.2,267.5h-1.6v-12.9h1.6V267.5z M158,256.3v-1.6v-3.1
		c0.9,0.3,1.6,1.2,1.6,2.3v2.4H158z M122.6,275.6h-6.4v-6.4h6.4V275.6z M79.2,267.5v-1.6v-4.8v-1.6v-1.6h1.6v12.9h-1.6V267.5z
		 M85.6,267.5c0,0.4,0.4,0.8,0.8,0.8c0.4,0,0.8-0.4,0.8-0.8v-1.6c0-0.4-0.4-0.8-0.8-0.8c-0.4,0-0.8,0.4-0.8,0.8v-4.8
		c0,0.4,0.4,0.8,0.8,0.8c0.4,0,0.8-0.4,0.8-0.8v-1.6h1.6v11.3h-3.2V267.5z M93.7,267.5c0,0.4,0.4,0.8,0.8,0.8c0.4,0,0.8-0.4,0.8-0.8
		v-1.6c0-0.4-0.4-0.8-0.8-0.8c-0.4,0-0.8,0.4-0.8,0.8v-4.8c0,0.4,0.4,0.8,0.8,0.8c0.4,0,0.8-0.4,0.8-0.8v-1.6h1.6v11.3h-3.2V267.5z
		 M101.7,267.5c0,0.4,0.4,0.8,0.8,0.8c0.4,0,0.8-0.4,0.8-0.8v-1.6c0-0.4-0.4-0.8-0.8-0.8c-0.4,0-0.8,0.4-0.8,0.8v-4.8
		c0,0.4,0.4,0.8,0.8,0.8c0.4,0,0.8-0.4,0.8-0.8v-1.6h1.6v11.3h-3.2V267.5z M109.7,267.5c0,0.4,0.4,0.8,0.8,0.8
		c0.4,0,0.8-0.4,0.8-0.8v-1.6c0-0.4-0.4-0.8-0.8-0.8c-0.4,0-0.8,0.4-0.8,0.8v-4.8c0,0.4,0.4,0.8,0.8,0.8c0.4,0,0.8-0.4,0.8-0.8v-1.6
		h1.6v11.3h-3.2V267.5z M79.2,256.3v-1.6v-3.1c0.9,0.3,1.6,1.2,1.6,2.3v2.4H79.2z M692.4,275.6V275v-4.2h9.7v4.8h-8.5H692.4z
		 M732.7,270.7v4.8h-24.1v-4.8H732.7z M761.6,269.1h-11.3v-4.8c0-0.9-0.7-1.6-1.6-1.6c-0.9,0-1.6,0.7-1.6,1.6v4.8h-11.3v-6.4h3.2
		h9.7h9.7h3.2V269.1z M761.6,275.6h-25.8v-4.8h12.9h12.9V275.6z M756.8,254.6v3.2c0-0.4-0.4-0.8-0.8-0.8c-0.4,0-0.8,0.4-0.8,0.8v1.6
		h-1.6v-4c0-0.4-0.4-0.8-0.8-0.8H756.8z M745.5,256.3h6.4v1.6c0-0.4-0.4-0.8-0.8-0.8s-0.8,0.4-0.8,0.8v1.6h-1.6v-1.6
		c0-0.4-0.4-0.8-0.8-0.8c-0.4,0-0.8,0.4-0.8,0.8v1.6h-1.6V256.3z M744.7,254.6c-0.4,0-0.8,0.4-0.8,0.8v4h-1.6v-1.6
		c0-0.4-0.4-0.8-0.8-0.8c-0.4,0-0.8,0.4-0.8,0.8v-3.2H744.7z M737.5,259.5h-3.2h-1.6c-0.4,0-0.8,0.4-0.8,0.8s0.4,0.8,0.8,0.8v8
		h-24.1v-14.5h29V259.5z M702.1,269.1H681h-1.8h-1.3v-0.6v-0.9v-12.9h11.3h12.9V269.1z M607.1,248.2v-1.6c0-0.4-0.4-0.8-0.8-0.8
		s-0.8,0.4-0.8,0.8v1.6h-1.6v-5.4c1.8-0.1,2.1-0.3,2.3-0.4l1.6-0.8c0.6-0.3,1-1,0.9-1.7c-0.1-0.7-0.6-1.2-1.3-1.4
		c-2-0.4-7.4-2.2-8.4-5.4c-0.2-0.7-0.8-1.1-1.5-1.1c-0.7,0-1.3,0.4-1.5,1.1c-1.1,3.2-6.5,5-8.4,5.4c-0.7,0.1-1.2,0.7-1.3,1.4
		c-0.1,0.7,0.3,1.3,0.9,1.7l1.6,0.8c0.2,0.1,0.5,0.3,2.3,0.4v5.4h-1.6v-1.6c0-0.4-0.4-0.8-0.8-0.8c-0.4,0-0.8,0.4-0.8,0.8v1.6h-6.4
		v-21.8l32.6,10.3l22.5,11.5H607.1z M578.1,222.4h-4.1h-2.7h-2.7h-93.6c-0.1,0-0.2,0-0.4,0l-0.2-1.6h0.5c0,0.4,0.4,0.8,0.8,0.8
		c0.4,0,0.8-0.4,0.8-0.8h3.2c0,0.4,0.4,0.8,0.8,0.8c0.4,0,0.8-0.4,0.8-0.8h3.2c0,0.4,0.4,0.8,0.8,0.8s0.8-0.4,0.8-0.8h3.2
		c0,0.4,0.4,0.8,0.8,0.8c0.4,0,0.8-0.4,0.8-0.8h3.2c0,0.4,0.4,0.8,0.8,0.8c0.4,0,0.8-0.4,0.8-0.8h3.2c0,0.4,0.4,0.8,0.8,0.8
		c0.4,0,0.8-0.4,0.8-0.8h3.2c0,0.4,0.4,0.8,0.8,0.8c0.4,0,0.8-0.4,0.8-0.8h3.2c0,0.4,0.4,0.8,0.8,0.8s0.8-0.4,0.8-0.8h3.2
		c0,0.4,0.4,0.8,0.8,0.8s0.8-0.4,0.8-0.8h3.2c0,0.4,0.4,0.8,0.8,0.8c0.4,0,0.8-0.4,0.8-0.8h3.2c0,0.4,0.4,0.8,0.8,0.8
		s0.8-0.4,0.8-0.8h3.2c0,0.4,0.4,0.8,0.8,0.8s0.8-0.4,0.8-0.8h3.2c0,0.4,0.4,0.8,0.8,0.8s0.8-0.4,0.8-0.8h3.2c0,0.4,0.4,0.8,0.8,0.8
		s0.8-0.4,0.8-0.8h3.2c0,0.4,0.4,0.8,0.8,0.8s0.8-0.4,0.8-0.8h3.2c0,0.4,0.4,0.8,0.8,0.8s0.8-0.4,0.8-0.8h3.2c0,0.4,0.4,0.8,0.8,0.8
		s0.8-0.4,0.8-0.8h3.2c0,0.4,0.4,0.8,0.8,0.8c0.4,0,0.8-0.4,0.8-0.8h3.2c0,0.4,0.4,0.8,0.8,0.8c0.4,0,0.8-0.4,0.8-0.8c0,0,0,0,0,0
		h2.7h0.6c0,0.1,0,0.1,0,0.2c0.1,0.4,0.4,0.6,0.8,0.6c0.2,0,0.4-0.1,0.5-0.2c0.2-0.1,0.3-0.4,0.3-0.6h0.5h2.7c0,0.4,0.4,0.8,0.8,0.8
		s0.8-0.4,0.8-0.8h3.2c0,0.4,0.4,0.8,0.8,0.8s0.8-0.4,0.8-0.8h1.5l5.7,0.7C583.9,222,579.8,222.4,578.1,222.4z M476.7,217.6h-2.4
		l-0.2-2.2c0.9,0.1,1.8,0.2,2.6,0.3V217.6z M441.5,92.1c0.5-0.1,1-0.4,1.2-0.8c1.5-0.4,3.5-0.8,5-0.8c2,0,4.9,0.7,6.4,1.2v0.4
		c0,0.9,0.7,1.6,1.6,1.6c0.9,0,1.6-0.7,1.6-1.6v-0.4c1.5-0.4,4.4-1.2,6.4-1.2c1.5,0,3.5,0.4,5,0.8c0.3,0.4,0.7,0.7,1.2,0.8
		l-1.2,13.6c-1.6-0.4-3.5-0.7-5-0.7c-2.8,0-6.7,1.1-8,1.5c-1.4-0.4-5.2-1.5-8-1.5c-1.6,0-3.5,0.3-5,0.7L441.5,92.1z M441.5,109.8
		c0.5-0.1,1-0.4,1.2-0.8c1.5-0.4,3.5-0.8,5-0.8c2,0,4.9,0.7,6.4,1.2v0.4c0,0.9,0.7,1.6,1.6,1.6c0.9,0,1.6-0.7,1.6-1.6v-0.4
		c1.5-0.4,4.4-1.2,6.4-1.2c1.5,0,3.5,0.4,5,0.8c0.3,0.4,0.7,0.7,1.2,0.8l-1.2,13.6c-1.6-0.4-3.5-0.7-5-0.7c-2.8,0-6.7,1.1-8,1.5
		c-1.4-0.4-5.2-1.5-8-1.5c-1.6,0-3.5,0.3-5,0.7L441.5,109.8z M441.5,127.5c0.5-0.1,1-0.4,1.2-0.8c1.5-0.4,3.5-0.8,5-0.8
		c2,0,4.9,0.7,6.4,1.2v0.4c0,0.9,0.7,1.6,1.6,1.6c0.9,0,1.6-0.7,1.6-1.6v-0.4c1.5-0.4,4.4-1.2,6.4-1.2c1.5,0,3.5,0.4,5,0.8
		c0.3,0.4,0.7,0.7,1.2,0.8l-1.2,13.6c-1.6-0.4-3.5-0.7-5-0.7c-2.8,0-6.7,1.1-8,1.5c-1.4-0.4-5.2-1.5-8-1.5c-1.6,0-3.5,0.3-5,0.7
		L441.5,127.5z M441.5,145.2c0.5-0.1,1-0.4,1.2-0.8c1.5-0.4,3.5-0.8,5-0.8c2,0,4.9,0.7,6.4,1.2v0.4c0,0.9,0.7,1.6,1.6,1.6
		c0.9,0,1.6-0.7,1.6-1.6v-0.4c1.5-0.4,4.4-1.2,6.4-1.2c1.5,0,3.5,0.4,5,0.8c0.3,0.4,0.7,0.7,1.2,0.8l-1.2,13.6
		c-1.6-0.4-3.5-0.7-5-0.7c-2.8,0-6.7,1.1-8,1.5c-1.4-0.4-5.2-1.5-8-1.5c-1.6,0-3.5,0.3-5,0.7L441.5,145.2z M441.5,162.9
		c0.5-0.1,1-0.4,1.2-0.8c1.5-0.4,3.5-0.8,5-0.8c2,0,4.9,0.7,6.4,1.2v0.4c0,0.9,0.7,1.6,1.6,1.6c0.9,0,1.6-0.7,1.6-1.6v-0.4
		c1.5-0.4,4.4-1.2,6.4-1.2c1.5,0,3.5,0.4,5,0.8c0.3,0.4,0.7,0.7,1.2,0.8l-1.2,13.6c-1.6-0.4-3.5-0.7-5-0.7c-2.8,0-6.7,1.1-8,1.5
		c-1.4-0.4-5.2-1.5-8-1.5c-1.6,0-3.5,0.3-5,0.7L441.5,162.9z M441.5,180.6c0.5-0.1,1-0.4,1.2-0.8c1.5-0.4,3.5-0.8,5-0.8
		c2,0,4.9,0.7,6.4,1.2v0.4c0,0.9,0.7,1.6,1.6,1.6c0.9,0,1.6-0.7,1.6-1.6v-0.4c1.5-0.4,4.4-1.2,6.4-1.2c1.5,0,3.5,0.4,5,0.8
		c0.3,0.4,0.7,0.7,1.2,0.8l-1.2,13.6c-1.6-0.4-3.5-0.7-5-0.7c-2.8,0-6.7,1.1-8,1.5c-1.4-0.4-5.2-1.5-8-1.5c-1.6,0-3.5,0.3-5,0.7
		L441.5,180.6z M441.5,198.3c0.5-0.1,1-0.4,1.2-0.8c1.5-0.4,3.5-0.8,5-0.8c2,0,4.9,0.7,6.4,1.2v0.1v0.3c0,0.2,0,0.3,0.1,0.5
		c0.1,0.3,0.3,0.6,0.5,0.8c0.3,0.2,0.6,0.4,1,0.4c0.4,0,0.9-0.2,1.1-0.5c0.2-0.2,0.4-0.5,0.4-0.8c0-0.1,0-0.2,0-0.3v-0.4
		c0.1,0,0.2-0.1,0.3-0.1c1.6-0.5,4.2-1.1,6.1-1.1c1.2,0,2.7,0.3,4,0.6c0.4,0.1,0.7,0.2,1,0.2c0.1,0.1,0.2,0.3,0.3,0.4
		c0.2,0.2,0.6,0.4,0.9,0.4l0,0.3l-1,11.1l-0.1,1.6l-0.1,1l0,0.5h-3.6h-3c-0.3,0-0.5,0.1-0.8,0.2c-1.1-2-3.2-3.4-5.7-3.4
		c-2.5,0-4.6,1.4-5.7,3.4c-0.2-0.1-0.5-0.2-0.8-0.2h-6.6l-1.1-12.6l-0.1-0.8l-0.1-0.8L441.5,198.3z M256.6,228.3l1.8-0.6
		c0.5-0.2,1.7-0.2,2.2-0.1l3.3,0.8c1,0.2,2.5,0.4,3.6,0.4h3.2c1,0,2.6-0.2,3.6-0.4l3.3-0.8c0.5-0.1,1.7-0.1,2.2,0.1l1.8,0.6
		c0.2,0.1,0.3,0.1,0.5,0.1c-0.2,0.6,0,1.2,0.4,1.6l-1.7-0.6c-1.1-0.4-2.8-0.4-4-0.2l-3.3,0.8c-0.7,0.2-2,0.3-2.8,0.3h-3.2
		c-0.8,0-2.1-0.2-2.8-0.3l-3.3-0.8c-1.2-0.3-2.8-0.2-4,0.2l-1.7,0.6c0.4-0.4,0.6-1,0.4-1.6C256.3,228.4,256.5,228.4,256.6,228.3z
		 M211.2,248.2v4.8h-1.6v-4.6v-0.3h0.7H211.2z M204.7,241.8v6.7v0.5l-0.5-0.3l-3.9-2c-0.2-0.1-0.5-0.1-0.7,0l-4.5,2.2v-7.1H204.7z
		 M191.8,250.6c-0.7-0.5-1.5-0.8-2.4-0.8c-2.2,0-4,1.8-4,4c0-2.2-1.8-4-4-4c-2.2,0-4,1.8-4,4c0-2.2-1.8-4-4-4c-2.2,0-4,1.8-4,4
		c0-2.2-1.8-4-4-4s-4,1.8-4,4c0-1.9-1.4-3.6-3.2-3.9v-0.1h7.2h8h8h8h2.4V250.6z M131,244.9l2.9-1.4l2.9,1.4c0.1,0.1,0.2,0.1,0.4,0.1
		h3.2h1.6v4.8h-1.6v-1.6c0-0.4-0.4-0.8-0.8-0.8c-0.4,0-0.8,0.4-0.8,0.8v1.6h-3.2v-1.6c0-0.9-0.7-1.6-1.6-1.6s-1.6,0.7-1.6,1.6v1.6
		h-3.2v-1.6V245h1.6C130.8,245,130.9,245,131,244.9z M113,250.6c-0.7-0.5-1.5-0.8-2.4-0.8c-2.2,0-4,1.8-4,4c0-2.2-1.8-4-4-4
		c-2.2,0-4,1.8-4,4c0-2.2-1.8-4-4-4c-2.2,0-4,1.8-4,4c0-2.2-1.8-4-4-4c-2.2,0-4,1.8-4,4c0-1.9-1.4-3.6-3.2-3.9v-0.1h7.2h8h8h8h2.4
		V250.6z M72.7,241.8v7.1l-4.5-2.2c-0.2-0.1-0.5-0.1-0.7,0l-4.5,2.2v-7.1H72.7z M63.1,251.4v-0.7l4.8-2.4l4.8,2.4v0.7v1.6h-3.2v-1.6
		c0-0.9-0.7-1.6-1.6-1.6c-0.9,0-1.6,0.7-1.6,1.6v1.6h-3.2V251.4z M67.9,254.6h4.8v12.9h-3.2v-1.6c0-0.9-0.7-1.6-1.6-1.6
		c-0.9,0-1.6,0.7-1.6,1.6v1.6h-3.2v-12.9H67.9z M63.1,269.1h4.8h4.8v6.4h-9.7V269.1z M768.1,259.5c0-0.9-0.7-1.6-1.6-1.6
		c-0.9,0-1.6-0.7-1.6-1.6v-1.6h3.2V259.5z M768.1,253h-1.6v-1.6h1.6V253z M712.5,245.8c-0.4,0-0.8,0.4-0.8,0.8V245h3.2v3.2h-1.6
		v-1.6C713.3,246.1,713,245.8,712.5,245.8z M716.6,236.8c1,1.2,2.3,2.1,3.6,2.8c-2.1,0-5.2,0-7.3,0
		C714.2,238.9,715.6,238,716.6,236.8z M720.6,245.8c-0.4,0-0.8,0.4-0.8,0.8v1.6h-1.6V245h3.2v1.6C721.4,246.1,721,245.8,720.6,245.8
		z M716.6,251.4h17.3l1.3,0.6c0.6,0.3,1.4,0.5,2.3,0.7v0.3h-27.4v-1.6H716.6z M702.1,253h-24.1v-1.6h24.1V253z M676.3,251.4
		L676.3,251.4c-0.2,0-0.4,0.1-0.6,0.2c-0.2,0.1-0.2,0.4-0.2,0.6s0.1,0.4,0.2,0.6c0.1,0.2,0.4,0.2,0.6,0.2h-26.9h-1.8h-1.8h-1.8v-0.9
		v-0.7h0.4h1.8h26.8H676.3z M638.3,238.4c2.7-1,5.6-2.5,6.9-4.7h0.6c0,0.4,0.4,0.8,0.8,0.8s0.8-0.4,0.8-0.8h1.6
		c0,0.4,0.4,0.8,0.8,0.8c0.4,0,0.8-0.4,0.8-0.8h1.6c0,0.4,0.4,0.8,0.8,0.8s0.8-0.4,0.8-0.8h1.6c0,0.4,0.4,0.8,0.8,0.8
		s0.8-0.4,0.8-0.8h1.6c0,0.4,0.4,0.8,0.8,0.8s0.8-0.4,0.8-0.8h1.6c0,0.4,0.4,0.8,0.8,0.8c0.4,0,0.8-0.4,0.8-0.8h1.6
		c0,0.4,0.4,0.8,0.8,0.8c0.4,0,0.8-0.4,0.8-0.8h1.6c0,0.4,0.4,0.8,0.8,0.8c0.1,0,0.2,0,0.3-0.1c1.5,1.8,3.9,3.1,6.4,4
		c-1,0.1-2,0.1-2.6,0.1h-32.2C640.2,238.5,639.3,238.5,638.3,238.4z M665.1,246.6c0-0.4-0.4-0.8-0.8-0.8c-0.4,0-0.8,0.4-0.8,0.8v1.6
		h-1.6v-1.6c0-0.4-0.4-0.8-0.8-0.8s-0.8,0.4-0.8,0.8v1.6h-1.6v-1.6c0-0.4-0.4-0.8-0.8-0.8c-0.4,0-0.8,0.4-0.8,0.8v1.6h-1.6v-1.6
		c0-0.4-0.4-0.8-0.8-0.8s-0.8,0.4-0.8,0.8v1.6h-1.6v-1.6c0-0.4-0.4-0.8-0.8-0.8c-0.4,0-0.8,0.4-0.8,0.8v1.6H649V245h16.1V246.6z
		 M642.5,245h4.8v3.2h-1.6v-1.6c0-0.4-0.4-0.8-0.8-0.8s-0.8,0.4-0.8,0.8v1.6h-1.6V245z M669.9,248.2v-1.6c0-0.4-0.4-0.8-0.8-0.8
		s-0.8,0.4-0.8,0.8v1.6h-1.6V245h4.8v3.2H669.9z M573.3,217.6h-14.5h-2.7h-2.6H480V216h3.2c0,0.4,0.4,0.8,0.8,0.8
		c0.4,0,0.8-0.4,0.8-0.8h3.2c0,0.4,0.4,0.8,0.8,0.8s0.8-0.4,0.8-0.8h3.2c0,0.4,0.4,0.8,0.8,0.8s0.8-0.4,0.8-0.8h3.2
		c0,0.4,0.4,0.8,0.8,0.8c0.4,0,0.8-0.4,0.8-0.8h3.2c0,0.4,0.4,0.8,0.8,0.8c0.4,0,0.8-0.4,0.8-0.8h3.2c0,0.4,0.4,0.8,0.8,0.8
		c0.4,0,0.8-0.4,0.8-0.8h3.2c0,0.4,0.4,0.8,0.8,0.8c0.4,0,0.8-0.4,0.8-0.8h3.2c0,0.4,0.4,0.8,0.8,0.8s0.8-0.4,0.8-0.8h3.2
		c0,0.4,0.4,0.8,0.8,0.8s0.8-0.4,0.8-0.8h3.2c0,0.4,0.4,0.8,0.8,0.8c0.4,0,0.8-0.4,0.8-0.8h3.2c0,0.4,0.4,0.8,0.8,0.8
		s0.8-0.4,0.8-0.8h3.2c0,0.4,0.4,0.8,0.8,0.8s0.8-0.4,0.8-0.8h3.2c0,0.4,0.4,0.8,0.8,0.8s0.8-0.4,0.8-0.8h3.2c0,0.4,0.4,0.8,0.8,0.8
		s0.8-0.4,0.8-0.8h1.8h1.4c0,0.4,0.4,0.8,0.8,0.8c0.3,0,0.6-0.2,0.7-0.5c0-0.1,0.1-0.2,0.1-0.3h1.4h1.8c0,0.4,0.4,0.8,0.8,0.8
		s0.8-0.4,0.8-0.8h3.2c0,0.4,0.4,0.8,0.8,0.8s0.8-0.4,0.8-0.8h3.2c0,0.4,0.4,0.8,0.8,0.8c0.4,0,0.8-0.4,0.8-0.8h3.2
		c0,0.4,0.4,0.8,0.8,0.8s0.8-0.4,0.8-0.8h1.6V217.6z M452.7,43.8h3.1h3.1l-1.3,16.1h-3.5L452.7,43.8z M451,63.1h1.6h6.4h1.6v1.6H451
		V63.1z M446.5,69.5l-0.5-1.6h3.4h9.7v1.6h-11.3H446.5z M166.1,245h16.1h9.7v3.2H158V245H166.1z M145.2,241.8h6.4v6.4H150v-1.6
		c0-0.9-0.7-1.6-1.6-1.6s-1.6,0.7-1.6,1.6v1.6h-1.6v-4.8V241.8z M137.1,208v-3.2h1.6v3.2H137.1z M133.9,199l2.6,2.6h-5.1L133.9,199z
		 M129.1,204.7h1.6v3.2h-1.6V204.7z M129.1,209.6h2.4c0.4,0,0.8-0.4,0.8-0.8V208v-3.2h3.2v3.2v0.8c0,0.4,0.4,0.8,0.8,0.8h0.8v9.7
		h-1.6c0-0.4-0.2-0.8-0.5-1.1c-0.6-0.6-1.7-0.6-2.3,0c-0.3,0.3-0.5,0.7-0.5,1.1h-3.2V209.6z M133.9,220.8h3.2v22.4l-2.9-1.4
		c-0.2-0.1-0.5-0.1-0.7,0l-3,1.5h-1.4v-22.5H133.9z M116.2,241.8h6.4v1.6v4.8H121v-1.6c0-0.9-0.7-1.6-1.6-1.6
		c-0.9,0-1.6,0.7-1.6,1.6v1.6h-1.6V241.8z M85.6,245h16.1H113v3.2H79.2V245H85.6z M56.6,248.2h3.2v4.8h-3.2V248.2z M56.6,269.1h3.2
		v6.4h-3.2V269.1z"/>
	<linearGradient id="SVGID_21_" gradientUnits="userSpaceOnUse" x1="202.3671" y1="21.8819" x2="784.0274" y2="349.0659">
		<stop  offset="2.296276e-02" style="stop-color:#EBCCFF"/>
		<stop  offset="1" style="stop-color:#FF5558"/>
	</linearGradient>
	<path class="st20" d="M623.2,256.3v4.8h-1.6c-0.4,0-0.8,0.4-0.8,0.8c0,0.4,0.4,0.8,0.8,0.8h3.2h3.2c0.4,0,0.8-0.4,0.8-0.8
		c0-0.4-0.4-0.8-0.8-0.8h-1.6v-4.8c0-0.9-0.7-1.6-1.6-1.6C623.9,254.6,623.2,255.4,623.2,256.3z"/>
	<linearGradient id="SVGID_22_" gradientUnits="userSpaceOnUse" x1="210.4662" y1="7.4836" x2="792.1265" y2="334.6675">
		<stop  offset="2.296276e-02" style="stop-color:#EBCCFF"/>
		<stop  offset="1" style="stop-color:#FF5558"/>
	</linearGradient>
	<path class="st21" d="M653.8,259.5h4.7h1.7c0,0,0,0,0,0c0.3,0,0.6-0.2,0.7-0.5c0-0.1,0-0.2,0-0.3c0-0.4-0.4-0.8-0.8-0.8h-1.3h-1.8
		h-1.8h-1.6c-0.4,0-0.8,0.4-0.8,0.8C653,259.1,653.3,259.5,653.8,259.5z"/>
	<linearGradient id="SVGID_23_" gradientUnits="userSpaceOnUse" x1="217.8423" y1="-5.6294" x2="799.5026" y2="321.5545">
		<stop  offset="2.296276e-02" style="stop-color:#EBCCFF"/>
		<stop  offset="1" style="stop-color:#FF5558"/>
	</linearGradient>
	<path class="st22" d="M687.6,256.3v4.8H686c-0.4,0-0.8,0.4-0.8,0.8c0,0.4,0.4,0.8,0.8,0.8h3.2h3.2c0.4,0,0.8-0.4,0.8-0.8
		c0-0.4-0.4-0.8-0.8-0.8h-1.6v-4.8c0-0.9-0.7-1.6-1.6-1.6C688.3,254.6,687.6,255.4,687.6,256.3z"/>
	<linearGradient id="SVGID_24_" gradientUnits="userSpaceOnUse" x1="198.2795" y1="29.1488" x2="779.9398" y2="356.3327">
		<stop  offset="2.296276e-02" style="stop-color:#EBCCFF"/>
		<stop  offset="1" style="stop-color:#FF5558"/>
	</linearGradient>
	<path class="st23" d="M632.1,271.5c-0.4,0-0.8,0.4-0.8,0.8v1.6c0,0.4,0.4,0.8,0.8,0.8s0.8-0.4,0.8-0.8v-1.6
		C632.9,271.9,632.5,271.5,632.1,271.5z"/>
	<linearGradient id="SVGID_25_" gradientUnits="userSpaceOnUse" x1="210.2726" y1="7.8277" x2="791.9329" y2="335.0117">
		<stop  offset="2.296276e-02" style="stop-color:#EBCCFF"/>
		<stop  offset="1" style="stop-color:#FF5558"/>
	</linearGradient>
	<path class="st24" d="M682,274.8c0.4,0,0.8-0.4,0.8-0.8v-1.6c0-0.3-0.1-0.5-0.4-0.7c0,0-0.1-0.1-0.2-0.1c-0.1,0-0.2-0.1-0.3-0.1
		c-0.4,0-0.8,0.4-0.8,0.8v1.6C681.2,274.4,681.5,274.8,682,274.8z"/>
	<linearGradient id="SVGID_26_" gradientUnits="userSpaceOnUse" x1="201.3745" y1="23.6465" x2="783.0349" y2="350.8305">
		<stop  offset="2.296276e-02" style="stop-color:#EBCCFF"/>
		<stop  offset="1" style="stop-color:#FF5558"/>
	</linearGradient>
	<path class="st25" d="M644.9,274.8c0.4,0,0.8-0.4,0.8-0.8v-1.6c0-0.4-0.4-0.8-0.8-0.8s-0.8,0.4-0.8,0.8v1.6
		C644.1,274.4,644.5,274.8,644.9,274.8z"/>
	<linearGradient id="SVGID_27_" gradientUnits="userSpaceOnUse" x1="207.1777" y1="13.3298" x2="788.838" y2="340.5137">
		<stop  offset="2.296276e-02" style="stop-color:#EBCCFF"/>
		<stop  offset="1" style="stop-color:#FF5558"/>
	</linearGradient>
	<path class="st26" d="M669.1,271.5c-0.4,0-0.8,0.4-0.8,0.8v1.6c0,0.4,0.4,0.8,0.8,0.8s0.8-0.4,0.8-0.8v-1.6
		C669.9,271.9,669.5,271.5,669.1,271.5z"/>
	<linearGradient id="SVGID_28_" gradientUnits="userSpaceOnUse" x1="199.827" y1="26.3977" x2="781.4873" y2="353.5816">
		<stop  offset="2.296276e-02" style="stop-color:#EBCCFF"/>
		<stop  offset="1" style="stop-color:#FF5558"/>
	</linearGradient>
	<path class="st27" d="M637.7,274c0,0.4,0.4,0.8,0.8,0.8s0.8-0.4,0.8-0.8v-1.6c0-0.4-0.4-0.8-0.8-0.8s-0.8,0.4-0.8,0.8V274z"/>
	<linearGradient id="SVGID_29_" gradientUnits="userSpaceOnUse" x1="208.7252" y1="10.5786" x2="790.3856" y2="337.7626">
		<stop  offset="2.296276e-02" style="stop-color:#EBCCFF"/>
		<stop  offset="1" style="stop-color:#FF5558"/>
	</linearGradient>
	<path class="st28" d="M675.5,271.5c-0.4,0-0.8,0.4-0.8,0.8v1.6c0,0.4,0.4,0.8,0.8,0.8c0.4,0,0.8-0.4,0.8-0.8v-1.6
		C676.3,271.9,676,271.5,675.5,271.5z"/>
	<linearGradient id="SVGID_30_" gradientUnits="userSpaceOnUse" x1="225.361" y1="-18.9961" x2="807.0213" y2="308.1878">
		<stop  offset="2.296276e-02" style="stop-color:#EBCCFF"/>
		<stop  offset="1" style="stop-color:#FF5558"/>
	</linearGradient>
	<path class="st29" d="M744.7,271.5c-0.4,0-0.8,0.4-0.8,0.8v1.6c0,0.4,0.4,0.8,0.8,0.8c0.4,0,0.8-0.4,0.8-0.8v-1.6
		C745.5,271.9,745.2,271.5,744.7,271.5z"/>
	<linearGradient id="SVGID_31_" gradientUnits="userSpaceOnUse" x1="223.8135" y1="-16.2449" x2="805.4738" y2="310.939">
		<stop  offset="2.296276e-02" style="stop-color:#EBCCFF"/>
		<stop  offset="1" style="stop-color:#FF5558"/>
	</linearGradient>
	<path class="st30" d="M738.3,271.5c-0.4,0-0.8,0.4-0.8,0.8v1.6c0,0.4,0.4,0.8,0.8,0.8s0.8-0.4,0.8-0.8v-1.6
		C739.1,271.9,738.7,271.5,738.3,271.5z"/>
	<linearGradient id="SVGID_32_" gradientUnits="userSpaceOnUse" x1="227.2954" y1="-22.435" x2="808.9557" y2="304.7489">
		<stop  offset="2.296276e-02" style="stop-color:#EBCCFF"/>
		<stop  offset="1" style="stop-color:#FF5558"/>
	</linearGradient>
	<path class="st31" d="M752.8,274.8c0.4,0,0.8-0.4,0.8-0.8v-1.6c0-0.4-0.4-0.8-0.8-0.8s-0.8,0.4-0.8,0.8v1.6
		C752,274.4,752.3,274.8,752.8,274.8z"/>
	<linearGradient id="SVGID_33_" gradientUnits="userSpaceOnUse" x1="228.8429" y1="-25.1861" x2="810.5032" y2="301.9978">
		<stop  offset="2.296276e-02" style="stop-color:#EBCCFF"/>
		<stop  offset="1" style="stop-color:#FF5558"/>
	</linearGradient>
	<path class="st32" d="M759.2,274.8c0.4,0,0.8-0.4,0.8-0.8v-1.6c0-0.4-0.4-0.8-0.8-0.8s-0.8,0.4-0.8,0.8v1.6
		C758.4,274.4,758.8,274.8,759.2,274.8z"/>
	<linearGradient id="SVGID_34_" gradientUnits="userSpaceOnUse" x1="184.7817" y1="53.1449" x2="766.442" y2="380.3288">
		<stop  offset="2.296276e-02" style="stop-color:#EBCCFF"/>
		<stop  offset="1" style="stop-color:#FF5558"/>
	</linearGradient>
	<path class="st33" d="M562.9,266.7c0,0.4,0.4,0.8,0.8,0.8h1.6c0.4,0,0.8-0.4,0.8-0.8c0-0.4-0.4-0.8-0.8-0.8h-1.6
		C563.2,265.9,562.9,266.3,562.9,266.7z"/>
	<linearGradient id="SVGID_35_" gradientUnits="userSpaceOnUse" x1="182.0736" y1="57.9593" x2="763.7339" y2="385.1433">
		<stop  offset="2.296276e-02" style="stop-color:#EBCCFF"/>
		<stop  offset="1" style="stop-color:#FF5558"/>
	</linearGradient>
	<path class="st34" d="M554,265.9h-1.6c-0.4,0-0.8,0.4-0.8,0.8c0,0.4,0.4,0.8,0.8,0.8h1.6c0.4,0,0.8-0.4,0.8-0.8
		C554.8,266.3,554.4,265.9,554,265.9z"/>
	<linearGradient id="SVGID_36_" gradientUnits="userSpaceOnUse" x1="164.5138" y1="89.1768" x2="746.1741" y2="416.3607">
		<stop  offset="2.296276e-02" style="stop-color:#EBCCFF"/>
		<stop  offset="1" style="stop-color:#FF5558"/>
	</linearGradient>
	<path class="st35" d="M451,254.6h1.6h8.1c0.4,0,0.7-0.1,1-0.3c0.4-0.3,0.6-0.8,0.6-1.3c0-0.9-0.7-1.6-1.6-1.6H451
		c-0.6,0-1.2,0.4-1.4,0.9c-0.1,0.2-0.2,0.5-0.2,0.7c0,0.4,0.1,0.7,0.3,1C450,254.4,450.5,254.6,451,254.6z"/>
	<linearGradient id="SVGID_37_" gradientUnits="userSpaceOnUse" x1="173.4548" y1="73.2816" x2="755.1151" y2="400.4656">
		<stop  offset="2.296276e-02" style="stop-color:#EBCCFF"/>
		<stop  offset="1" style="stop-color:#FF5558"/>
	</linearGradient>
	<path class="st36" d="M451,233.7h9.7c0.9,0,1.6-0.7,1.6-1.6c0-0.9-0.7-1.6-1.6-1.6H451c-0.9,0-1.6,0.7-1.6,1.6
		C449.4,233,450.1,233.7,451,233.7z"/>
	<linearGradient id="SVGID_38_" gradientUnits="userSpaceOnUse" x1="170.9831" y1="77.6758" x2="752.6434" y2="404.8597">
		<stop  offset="2.296276e-02" style="stop-color:#EBCCFF"/>
		<stop  offset="1" style="stop-color:#FF5558"/>
	</linearGradient>
	<path class="st37" d="M447,234.5c0.4,0,0.8-0.4,0.8-0.8v-1.6c0-0.4-0.4-0.8-0.8-0.8s-0.8,0.4-0.8,0.8v1.6
		C446.2,234.2,446.5,234.5,447,234.5z"/>
	<linearGradient id="SVGID_39_" gradientUnits="userSpaceOnUse" x1="175.862" y1="69.0021" x2="757.5223" y2="396.186">
		<stop  offset="2.296276e-02" style="stop-color:#EBCCFF"/>
		<stop  offset="1" style="stop-color:#FF5558"/>
	</linearGradient>
	<path class="st38" d="M452.6,227.3h6.4c0.4,0,0.8-0.4,0.8-0.8c0-0.4-0.4-0.8-0.8-0.8h-6.4c-0.4,0-0.8,0.4-0.8,0.8
		C451.8,226.9,452.1,227.3,452.6,227.3z"/>
	<linearGradient id="SVGID_40_" gradientUnits="userSpaceOnUse" x1="171.0475" y1="77.5612" x2="752.7078" y2="404.7451">
		<stop  offset="2.296276e-02" style="stop-color:#EBCCFF"/>
		<stop  offset="1" style="stop-color:#FF5558"/>
	</linearGradient>
	<path class="st39" d="M459,236.9h-6.4c-0.4,0-0.8,0.4-0.8,0.8s0.4,0.8,0.8,0.8h6.4c0.4,0,0.8-0.4,0.8-0.8S459.5,236.9,459,236.9z"
		/>
	<linearGradient id="SVGID_41_" gradientUnits="userSpaceOnUse" x1="168.9842" y1="81.2294" x2="750.6445" y2="408.4133">
		<stop  offset="2.296276e-02" style="stop-color:#EBCCFF"/>
		<stop  offset="1" style="stop-color:#FF5558"/>
	</linearGradient>
	<path class="st40" d="M459,241.8h-6.4c-0.4,0-0.8,0.4-0.8,0.8c0,0.4,0.4,0.8,0.8,0.8h6.4c0.4,0,0.8-0.4,0.8-0.8
		C459.8,242.1,459.5,241.8,459,241.8z"/>
	<linearGradient id="SVGID_42_" gradientUnits="userSpaceOnUse" x1="166.9208" y1="84.8976" x2="748.5811" y2="412.0815">
		<stop  offset="2.296276e-02" style="stop-color:#EBCCFF"/>
		<stop  offset="1" style="stop-color:#FF5558"/>
	</linearGradient>
	<path class="st41" d="M459,246.6h-6.4c-0.4,0-0.8,0.4-0.8,0.8s0.4,0.8,0.8,0.8h6.4c0.4,0,0.8-0.4,0.8-0.8S459.5,246.6,459,246.6z"
		/>
	<linearGradient id="SVGID_43_" gradientUnits="userSpaceOnUse" x1="175.2387" y1="70.1102" x2="756.899" y2="397.2941">
		<stop  offset="2.296276e-02" style="stop-color:#EBCCFF"/>
		<stop  offset="1" style="stop-color:#FF5558"/>
	</linearGradient>
	<path class="st42" d="M464.7,234.5c0.4,0,0.8-0.4,0.8-0.8v-1.6c0-0.4-0.4-0.8-0.8-0.8c-0.4,0-0.8,0.4-0.8,0.8v1.6
		C463.9,234.2,464.2,234.5,464.7,234.5z"/>
	<linearGradient id="SVGID_44_" gradientUnits="userSpaceOnUse" x1="162.7297" y1="92.3485" x2="744.39" y2="419.5324">
		<stop  offset="2.296276e-02" style="stop-color:#EBCCFF"/>
		<stop  offset="1" style="stop-color:#FF5558"/>
	</linearGradient>
	<path class="st43" d="M447,253.8c0.3,0,0.5-0.1,0.7-0.3c0.1-0.1,0.2-0.3,0.2-0.5v-1.2v-0.4c0-0.4-0.4-0.8-0.8-0.8
		c-0.4,0-0.8,0.3-0.8,0.8c0,0,0,0,0,0v1.6c0,0,0,0,0,0.1C446.2,253.5,446.5,253.8,447,253.8z"/>
	<linearGradient id="SVGID_45_" gradientUnits="userSpaceOnUse" x1="166.9853" y1="84.7829" x2="748.6456" y2="411.9669">
		<stop  offset="2.296276e-02" style="stop-color:#EBCCFF"/>
		<stop  offset="1" style="stop-color:#FF5558"/>
	</linearGradient>
	<path class="st44" d="M464.7,253.8c0.4,0,0.8-0.4,0.8-0.8v-1.6c0-0.4-0.4-0.8-0.8-0.8c-0.4,0-0.8,0.4-0.8,0.8v1.6
		C463.9,253.5,464.2,253.8,464.7,253.8z"/>
	<linearGradient id="SVGID_46_" gradientUnits="userSpaceOnUse" x1="113.1447" y1="180.4996" x2="694.805" y2="507.6835">
		<stop  offset="2.296276e-02" style="stop-color:#EBCCFF"/>
		<stop  offset="1" style="stop-color:#FF5558"/>
	</linearGradient>
	<path class="st45" d="M254.6,262.7h6.4c0.4,0,0.8-0.4,0.8-0.8c0-0.4-0.4-0.8-0.8-0.8h-6.4c-0.4,0-0.8,0.4-0.8,0.8
		C253.8,262.3,254.2,262.7,254.6,262.7z"/>
	<linearGradient id="SVGID_47_" gradientUnits="userSpaceOnUse" x1="115.7454" y1="175.8761" x2="697.4057" y2="503.0601">
		<stop  offset="2.296276e-02" style="stop-color:#EBCCFF"/>
		<stop  offset="1" style="stop-color:#FF5558"/>
	</linearGradient>
	<path class="st46" d="M270.7,264.3h1.6c0.4,0,0.8-0.4,0.8-0.8c0-0.4-0.4-0.8-0.8-0.8h-1.6c-0.4,0-0.8,0.4-0.8,0.8
		C269.9,263.9,270.3,264.3,270.7,264.3z"/>
	<linearGradient id="SVGID_48_" gradientUnits="userSpaceOnUse" x1="112.9942" y1="180.767" x2="694.6545" y2="507.951">
		<stop  offset="2.296276e-02" style="stop-color:#EBCCFF"/>
		<stop  offset="1" style="stop-color:#FF5558"/>
	</linearGradient>
	<path class="st47" d="M270.7,270.7h1.6c0.4,0,0.8-0.4,0.8-0.8c0-0.4-0.4-0.8-0.8-0.8h-1.6c-0.4,0-0.8,0.4-0.8,0.8
		C269.9,270.4,270.3,270.7,270.7,270.7z"/>
	<linearGradient id="SVGID_49_" gradientUnits="userSpaceOnUse" x1="113.2092" y1="180.3849" x2="694.8695" y2="507.5689">
		<stop  offset="2.296276e-02" style="stop-color:#EBCCFF"/>
		<stop  offset="1" style="stop-color:#FF5558"/>
	</linearGradient>
	<path class="st48" d="M265.9,267.5h1.6c0.4,0,0.8-0.4,0.8-0.8c0-0.4-0.4-0.8-0.8-0.8h-1.6c-0.4,0-0.8,0.4-0.8,0.8
		C265.1,267.2,265.4,267.5,265.9,267.5z"/>
	<linearGradient id="SVGID_50_" gradientUnits="userSpaceOnUse" x1="110.458" y1="185.2758" x2="692.1183" y2="512.4598">
		<stop  offset="2.296276e-02" style="stop-color:#EBCCFF"/>
		<stop  offset="1" style="stop-color:#FF5558"/>
	</linearGradient>
	<path class="st49" d="M265.9,274h1.6c0.4,0,0.8-0.4,0.8-0.8s-0.4-0.8-0.8-0.8h-1.6c-0.4,0-0.8,0.4-0.8,0.8S265.4,274,265.9,274z"/>
	<linearGradient id="SVGID_51_" gradientUnits="userSpaceOnUse" x1="114.3904" y1="178.2851" x2="696.0507" y2="505.469">
		<stop  offset="2.296276e-02" style="stop-color:#EBCCFF"/>
		<stop  offset="1" style="stop-color:#FF5558"/>
	</linearGradient>
	<path class="st50" d="M265.9,264.3c0.2,0,0.4-0.1,0.6-0.2c0.1-0.1,0.2-0.4,0.2-0.6s-0.1-0.4-0.2-0.6c-0.3-0.3-0.8-0.3-1.1,0
		c-0.1,0.1-0.2,0.4-0.2,0.6s0.1,0.4,0.2,0.6C265.5,264.2,265.7,264.3,265.9,264.3z"/>
	<linearGradient id="SVGID_52_" gradientUnits="userSpaceOnUse" x1="114.5631" y1="177.9779" x2="696.2234" y2="505.1618">
		<stop  offset="2.296276e-02" style="stop-color:#EBCCFF"/>
		<stop  offset="1" style="stop-color:#FF5558"/>
	</linearGradient>
	<path class="st51" d="M271.8,266.1c-0.2,0.1-0.2,0.4-0.2,0.6c0,0.2,0.1,0.4,0.2,0.6c0.1,0.2,0.4,0.2,0.6,0.2c0.2,0,0.4-0.1,0.6-0.2
		c0.1-0.1,0.2-0.4,0.2-0.6c0-0.2-0.1-0.4-0.2-0.6C272.6,265.8,272,265.8,271.8,266.1z"/>
	<linearGradient id="SVGID_53_" gradientUnits="userSpaceOnUse" x1="111.8114" y1="182.8699" x2="693.4717" y2="510.0539">
		<stop  offset="2.296276e-02" style="stop-color:#EBCCFF"/>
		<stop  offset="1" style="stop-color:#FF5558"/>
	</linearGradient>
	<path class="st52" d="M271.7,272.6c-0.1,0.2-0.2,0.4-0.2,0.6c0,0.2,0.1,0.4,0.2,0.6c0.1,0.1,0.4,0.2,0.6,0.2c0.2,0,0.4-0.1,0.6-0.2
		c0.2-0.1,0.2-0.4,0.2-0.6c0-0.2-0.1-0.4-0.2-0.6C272.6,272.3,272.1,272.3,271.7,272.6z"/>
	<linearGradient id="SVGID_54_" gradientUnits="userSpaceOnUse" x1="111.6395" y1="183.1754" x2="693.2999" y2="510.3593">
		<stop  offset="2.296276e-02" style="stop-color:#EBCCFF"/>
		<stop  offset="1" style="stop-color:#FF5558"/>
	</linearGradient>
	<path class="st53" d="M265.9,270.7c0.2,0,0.4-0.1,0.6-0.2c0.1-0.1,0.2-0.4,0.2-0.6c0-0.2-0.1-0.4-0.2-0.6c-0.3-0.3-0.8-0.3-1.1,0
		c-0.1,0.1-0.2,0.4-0.2,0.6c0,0.2,0.1,0.4,0.2,0.6C265.5,270.7,265.7,270.7,265.9,270.7z"/>
	<linearGradient id="SVGID_55_" gradientUnits="userSpaceOnUse" x1="118.561" y1="170.8706" x2="700.2213" y2="498.0545">
		<stop  offset="2.296276e-02" style="stop-color:#EBCCFF"/>
		<stop  offset="1" style="stop-color:#FF5558"/>
	</linearGradient>
	<path class="st54" d="M277.1,262.7h6.4c0.4,0,0.8-0.4,0.8-0.8c0-0.4-0.4-0.8-0.8-0.8h-6.4c-0.4,0-0.8,0.4-0.8,0.8
		C276.3,262.3,276.7,262.7,277.1,262.7z"/>
	<linearGradient id="SVGID_56_" gradientUnits="userSpaceOnUse" x1="117.1854" y1="173.3161" x2="698.8458" y2="500.5">
		<stop  offset="2.296276e-02" style="stop-color:#EBCCFF"/>
		<stop  offset="1" style="stop-color:#FF5558"/>
	</linearGradient>
	<path class="st55" d="M277.1,265.9h6.4c0.4,0,0.8-0.4,0.8-0.8s-0.4-0.8-0.8-0.8h-6.4c-0.4,0-0.8,0.4-0.8,0.8
		S276.7,265.9,277.1,265.9z"/>
	<linearGradient id="SVGID_57_" gradientUnits="userSpaceOnUse" x1="115.8099" y1="175.7615" x2="697.4702" y2="502.9454">
		<stop  offset="2.296276e-02" style="stop-color:#EBCCFF"/>
		<stop  offset="1" style="stop-color:#FF5558"/>
	</linearGradient>
	<path class="st56" d="M277.1,269.1h6.4c0.4,0,0.8-0.4,0.8-0.8c0-0.4-0.4-0.8-0.8-0.8h-6.4c-0.4,0-0.8,0.4-0.8,0.8
		C276.3,268.8,276.7,269.1,277.1,269.1z"/>
	<linearGradient id="SVGID_58_" gradientUnits="userSpaceOnUse" x1="114.4343" y1="178.207" x2="696.0946" y2="505.3909">
		<stop  offset="2.296276e-02" style="stop-color:#EBCCFF"/>
		<stop  offset="1" style="stop-color:#FF5558"/>
	</linearGradient>
	<path class="st57" d="M277.1,272.3h6.4c0.4,0,0.8-0.4,0.8-0.8c0-0.4-0.4-0.8-0.8-0.8h-6.4c-0.4,0-0.8,0.4-0.8,0.8
		C276.3,272,276.7,272.3,277.1,272.3z"/>
	<linearGradient id="SVGID_59_" gradientUnits="userSpaceOnUse" x1="111.7691" y1="182.945" x2="693.4294" y2="510.1289">
		<stop  offset="2.296276e-02" style="stop-color:#EBCCFF"/>
		<stop  offset="1" style="stop-color:#FF5558"/>
	</linearGradient>
	<path class="st58" d="M254.6,265.9h6.4c0.4,0,0.8-0.4,0.8-0.8s-0.4-0.8-0.8-0.8h-6.4c-0.4,0-0.8,0.4-0.8,0.8
		S254.2,265.9,254.6,265.9z"/>
	<linearGradient id="SVGID_60_" gradientUnits="userSpaceOnUse" x1="110.3936" y1="185.3905" x2="692.0539" y2="512.5744">
		<stop  offset="2.296276e-02" style="stop-color:#EBCCFF"/>
		<stop  offset="1" style="stop-color:#FF5558"/>
	</linearGradient>
	<path class="st59" d="M254.6,269.1h6.4c0.4,0,0.8-0.4,0.8-0.8c0-0.4-0.4-0.8-0.8-0.8h-6.4c-0.4,0-0.8,0.4-0.8,0.8
		C253.8,268.8,254.2,269.1,254.6,269.1z"/>
	<linearGradient id="SVGID_61_" gradientUnits="userSpaceOnUse" x1="109.018" y1="187.8359" x2="690.6783" y2="515.0198">
		<stop  offset="2.296276e-02" style="stop-color:#EBCCFF"/>
		<stop  offset="1" style="stop-color:#FF5558"/>
	</linearGradient>
	<path class="st60" d="M254.6,272.3h6.4c0.4,0,0.8-0.4,0.8-0.8c0-0.4-0.4-0.8-0.8-0.8h-6.4c-0.4,0-0.8,0.4-0.8,0.8
		C253.8,272,254.2,272.3,254.6,272.3z"/>
	<linearGradient id="SVGID_62_" gradientUnits="userSpaceOnUse" x1="157.907" y1="100.9222" x2="739.5673" y2="428.1061">
		<stop  offset="2.296276e-02" style="stop-color:#EBCCFF"/>
		<stop  offset="1" style="stop-color:#FF5558"/>
	</linearGradient>
	<path class="st61" d="M296.9,186.3c0.1,0.4,0.4,0.7,0.8,0.7h7.2c0.4,0,0.7-0.3,0.8-0.7l0.9-7.3c0.1-0.9-0.2-1.7-0.7-2.3
		c-0.6-0.6-1.3-1-2.2-1h-4.8c-0.9,0-1.7,0.3-2.2,1c-0.6,0.6-0.8,1.4-0.7,2.3L296.9,186.3z"/>
	<linearGradient id="SVGID_63_" gradientUnits="userSpaceOnUse" x1="155.0942" y1="105.9227" x2="736.7545" y2="433.1067">
		<stop  offset="2.296276e-02" style="stop-color:#EBCCFF"/>
		<stop  offset="1" style="stop-color:#FF5558"/>
	</linearGradient>
	<path class="st62" d="M269.1,175.1c0.1,0.4,0.4,0.7,0.8,0.7h4.8c0.4,0,0.7-0.3,0.8-0.7l0.6-4.9c0.1-0.7-0.1-1.3-0.5-1.8
		c-0.4-0.5-1-0.7-1.7-0.7h-3.2c-0.7,0-1.2,0.3-1.7,0.7c-0.4,0.5-0.6,1.1-0.5,1.8L269.1,175.1z"/>
	<linearGradient id="SVGID_64_" gradientUnits="userSpaceOnUse" x1="138.9499" y1="134.6236" x2="720.6102" y2="461.8076">
		<stop  offset="2.296276e-02" style="stop-color:#EBCCFF"/>
		<stop  offset="1" style="stop-color:#FF5558"/>
	</linearGradient>
	<path class="st63" d="M243.8,200.8c0.1,0.4,0.4,0.7,0.8,0.7h7.2c0.4,0,0.7-0.3,0.8-0.7l0.9-7.3c0.1-0.9-0.2-1.7-0.7-2.3
		c-0.6-0.6-1.3-1-2.2-1h-4.8c-0.9,0-1.7,0.3-2.2,1c-0.6,0.6-0.8,1.4-0.7,2.3L243.8,200.8z"/>
	<linearGradient id="SVGID_65_" gradientUnits="userSpaceOnUse" x1="171.429" y1="76.883" x2="753.0894" y2="404.0669">
		<stop  offset="2.296276e-02" style="stop-color:#EBCCFF"/>
		<stop  offset="1" style="stop-color:#FF5558"/>
	</linearGradient>
	<path class="st64" d="M314.2,162.2c0.1,0.4,0.4,0.7,0.8,0.7h4.8c0.4,0,0.7-0.3,0.8-0.7l0.6-4.9c0.1-0.7-0.1-1.3-0.5-1.8
		c-0.4-0.5-1-0.7-1.7-0.7h-3.2c-0.7,0-1.2,0.3-1.7,0.7c-0.4,0.5-0.6,1.1-0.5,1.8L314.2,162.2z"/>
	<linearGradient id="SVGID_66_" gradientUnits="userSpaceOnUse" x1="162.0767" y1="93.5094" x2="743.737" y2="420.6934">
		<stop  offset="2.296276e-02" style="stop-color:#EBCCFF"/>
		<stop  offset="1" style="stop-color:#FF5558"/>
	</linearGradient>
	<path class="st65" d="M337.1,199.2c0.1,0.4,0.4,0.7,0.8,0.7h7.2c0.4,0,0.7-0.3,0.8-0.7l0.9-7.3c0.1-0.9-0.2-1.7-0.7-2.3
		c-0.6-0.6-1.3-1-2.2-1h-4.8c-0.9,0-1.7,0.3-2.2,1c-0.6,0.6-0.8,1.4-0.7,2.3L337.1,199.2z"/>
</g>
</svg>
