<svg xmlns="http://www.w3.org/2000/svg" viewBox="0 0 124.08 118.23"><defs><style>.cls-1{fill:#00c300;}</style></defs><title>line</title><g id="圖層_2" data-name="圖層 2"><g id="TYPE_D" data-name="TYPE D"><path class="cls-1" d="M124.08,50.34C124.08,22.59,96.25,0,62,0S0,22.59,0,50.34C0,75.23,22.07,96.08,51.89,100c2,.43,4.76,1.34,5.46,3.06s.41,4,.2,5.61c0,0-.72,4.38-.88,5.31-.27,1.57-1.25,6.13,5.37,3.34s35.73-21,48.74-36h0C119.77,71.46,124.08,61.46,124.08,50.34ZM37.75,66.86H25.43a3.26,3.26,0,0,1-3.25-3.25V39a3.25,3.25,0,0,1,6.5,0v21.4h9.07a3.26,3.26,0,1,1,0,6.51ZM50.5,63.61a3.25,3.25,0,0,1-6.5,0V39a3.25,3.25,0,0,1,6.5,0Zm29.68,0A3.24,3.24,0,0,1,78,66.69a3.11,3.11,0,0,1-1,.17,3.27,3.27,0,0,1-2.6-1.3L61.69,48.36V63.61a3.26,3.26,0,0,1-6.51,0V39a3.27,3.27,0,0,1,3.26-3.25A3.29,3.29,0,0,1,61,37L73.67,54.21V39a3.26,3.26,0,0,1,6.51,0ZM100.13,48a3.26,3.26,0,0,1,0,6.51H91.05v5.81h9.08a3.26,3.26,0,0,1,0,6.51H87.8a3.26,3.26,0,0,1-3.26-3.25V51.29h0V39A3.26,3.26,0,0,1,87.8,35.7h12.33a3.26,3.26,0,0,1,0,6.51H91.05V48Z"/></g></g></svg>