<svg xmlns="http://www.w3.org/2000/svg" viewBox="3819 727.882 19.573 18.32"><path d="M3828.787 727.882c-5.406 0-9.787 3.508-9.787 7.836 0 3.859 3.482 7.065 8.066 7.716.108.015.217.029.325.042 1.561.325.208 2.279.719 2.678.588.46 5.043-2.519 7.749-5.021a8.4 8.4 0 0 0 1.064-1.062l.005-.006a2.1 2.1 0 0 0 .181-.226 6.7 6.7 0 0 0 1.461-4.121c.004-4.328-4.378-7.836-9.783-7.836zm-3.195 9.827a.511.511 0 0 1-.51.51h-1.974a.511.511 0 0 1-.51-.51v-3.786a.511.511 0 0 1 .51-.51h.043a.511.511 0 0 1 .51.51v3.233h1.421a.511.511 0 0 1 .51.51zm1.476 0a.511.511 0 0 1-.51.51h-.043a.511.511 0 0 1-.51-.51v-3.786a.511.511 0 0 1 .51-.51h.043a.511.511 0 0 1 .51.51zm4.624 0a.513.513 0 0 1-.147.358.355.355 0 0 1-.125.093.505.505 0 0 1-.238.06h-.043a.508.508 0 0 1-.193-.038.427.427 0 0 1-.2-.146.46.46 0 0 1-.037-.051l-1.858-2.539v2.263a.511.511 0 0 1-.51.51h-.041a.511.511 0 0 1-.51-.51v-3.786a.511.511 0 0 1 .51-.51h.043a.511.511 0 0 1 .443.258l1.845 2.474v-2.223a.511.511 0 0 1 .51-.51h.043a.511.511 0 0 1 .51.51v3.786zm3.648-3.734a.511.511 0 0 1-.51.51h-1.421v.808h1.421a.511.511 0 0 1 .51.51v.043a.511.511 0 0 1-.51.51h-1.421v.808h1.421a.511.511 0 0 1 .51.51v.043a.511.511 0 0 1-.51.51h-1.974a.511.511 0 0 1-.51-.51v-3.785a.511.511 0 0 1 .51-.51h1.974a.511.511 0 0 1 .51.51z" fill="#f5f5f5"/></svg>