<svg id="Capa_1" xmlns="http://www.w3.org/2000/svg" viewBox="0 0 512 512"><style>.st0{fill:#fff}</style><path class="st0" d="M256 0C114.8 0 0 114.8 0 256s114.8 256 256 256 256-114.8 256-256S397.2 0 256 0zm0 478.4c-122.6 0-222.4-99.8-222.4-222.4 0-122.6 99.8-222.4 222.4-222.4 122.6 0 222.4 99.8 222.4 222.4 0 122.6-99.8 222.4-222.4 222.4z"/><path class="st0" d="M357.7 239.2h-84.9v-84.9c0-9.3-7.5-16.8-16.8-16.8s-16.8 7.5-16.8 16.8v85h-84.9c-9.3 0-16.8 7.5-16.8 16.8s7.5 16.8 16.8 16.8h84.9v84.9c0 9.3 7.5 16.8 16.8 16.8s16.8-7.5 16.8-16.8v-84.9h84.9c9.3 0 16.8-7.5 16.8-16.8 0-9.4-7.5-16.9-16.8-16.9z"/></svg>