<svg xmlns="http://www.w3.org/2000/svg" viewBox="3724 727.882 19.573 19.573"><path data-name="Rectangle 693" fill="none" d="M3724 727.882h19.573v19.573H3724z"/><path data-name="Path 208" d="M3743.451 745.62l-4.037-4.038a8.376 8.376 0 0 0 1.713-5.138 8.511 8.511 0 0 0-8.564-8.562 8.511 8.511 0 0 0-8.563 8.563 8.511 8.511 0 0 0 8.563 8.563 8.376 8.376 0 0 0 5.137-1.712l4.037 4.037zm-17-9.175a6.057 6.057 0 0 1 6.112-6.116 6.057 6.057 0 0 1 6.117 6.116 6.057 6.057 0 0 1-6.117 6.117 6.057 6.057 0 0 1-6.116-6.117z" fill="#fff"/></svg>