<svg id="圖層_1" data-name="圖層 1" xmlns="http://www.w3.org/2000/svg" viewBox="0 0 1024 1024"><defs><style>.cls-1{fill:#939ea7;}.cls-2{fill:#fff;}</style></defs><title>facebook--secondary</title><path class="cls-1" d="M512,0C229.23,0,0,229.23,0,512c0,255.55,187.23,467.37,432,505.78V660H302V512H432V399.2C432,270.88,508.44,200,625.39,200c56,0,114.61,10,114.61,10V336H675.44c-63.6,0-83.44,39.47-83.44,80v96H734L711.3,660H592v357.78C836.77,979.37,1024,767.55,1024,512,1024,229.23,794.77,0,512,0Z"/><path class="cls-2" d="M591.69,660H711l22.7-148h-142V416c0-40.53,19.84-80,83.44-80h64.56V210s-58.61-10-114.61-10c-117,0-193.39,70.88-193.39,199.2V512h-130V660h130v357.78a515.82,515.82,0,0,0,80,6.22h0a515.92,515.92,0,0,0,80-6.22Z"/></svg>