<?xml version="1.0" encoding="utf-8"?>
<!-- Generator: Adobe Illustrator 24.0.1, SVG Export Plug-In . SVG Version: 6.00 Build 0)  -->
<svg version="1.1" id="圖層_1" xmlns="http://www.w3.org/2000/svg" xmlns:xlink="http://www.w3.org/1999/xlink" x="0px" y="0px"
	 viewBox="0 0 19.6 18.3" style="enable-background:new 0 0 19.6 18.3;" xml:space="preserve">
<style type="text/css">
	.st0{fill:#04B800;}
</style>
<path class="st0" d="M9.8,0C4.4,0,0,3.5,0,7.8c0,3.9,3.5,7.1,8.1,7.7c0.1,0,0.2,0,0.3,0c1.6,0.3,0.2,2.3,0.7,2.7
	c0.6,0.5,5-2.5,7.7-5c0.4-0.3,0.7-0.7,1.1-1.1l0,0c0.1-0.1,0.1-0.1,0.2-0.2c0.9-1.2,1.4-2.6,1.5-4.1C19.6,3.5,15.2,0,9.8,0L9.8,0z
	 M6.6,9.8c0,0.3-0.2,0.5-0.5,0.5h-2c-0.3,0-0.5-0.2-0.5-0.5V6c0-0.3,0.2-0.5,0.5-0.5h0c0.3,0,0.5,0.2,0.5,0.5v3.2h1.4
	C6.4,9.3,6.6,9.5,6.6,9.8L6.6,9.8z M8.1,9.8c0,0.3-0.2,0.5-0.5,0.5h0C7.2,10.3,7,10.1,7,9.8V6c0-0.3,0.2-0.5,0.5-0.5h0
	c0.3,0,0.5,0.2,0.5,0.5V9.8z M12.7,9.8c0,0.1-0.1,0.3-0.1,0.4c0,0-0.1,0.1-0.1,0.1c-0.1,0-0.2,0.1-0.2,0.1h0c-0.1,0-0.1,0-0.2,0
	c-0.1,0-0.1-0.1-0.2-0.1c0,0,0,0,0-0.1L9.9,7.6v2.3c0,0.3-0.2,0.5-0.5,0.5h0c-0.3,0-0.5-0.2-0.5-0.5V6c0-0.3,0.2-0.5,0.5-0.5h0
	c0.2,0,0.4,0.1,0.4,0.3l1.8,2.5V6c0-0.3,0.2-0.5,0.5-0.5h0c0.3,0,0.5,0.2,0.5,0.5L12.7,9.8L12.7,9.8z M16.3,6.1
	c0,0.3-0.2,0.5-0.5,0.5h-1.4v0.8h1.4c0.3,0,0.5,0.2,0.5,0.5v0c0,0.3-0.2,0.5-0.5,0.5h-1.4v0.8h1.4c0.3,0,0.5,0.2,0.5,0.5v0
	c0,0.3-0.2,0.5-0.5,0.5h-2c-0.3,0-0.5-0.2-0.5-0.5V6.1c0-0.3,0.2-0.5,0.5-0.5h2C16.1,5.5,16.3,5.8,16.3,6.1L16.3,6.1z"/>
</svg>
