<?xml version="1.0" encoding="utf-8"?>
<!-- Generator: Adobe Illustrator 22.1.0, SVG Export Plug-In . SVG Version: 6.00 Build 0)  -->
<svg version="1.1" id="圖層_1" xmlns="http://www.w3.org/2000/svg" xmlns:xlink="http://www.w3.org/1999/xlink" x="0px" y="0px"
	 viewBox="0 0 500 500" style="enable-background:new 0 0 500 500;" xml:space="preserve">
<style type="text/css">
	.st0{fill:#FFFFFF;}
	.st1{fill:#2BC701;}
</style>
<rect x="76" y="150.2" class="st0" width="358.5" height="170.1"/>
<path class="st1" d="M250.4,33C112.5,33,0.7,122.5,0.7,232.9c0,98.5,88.8,180.3,205.8,196.9c2.8,0.4,5.5,0.7,8.3,1.1
	c39.8,8.3,5.3,58.1,18.3,68.3c15,11.7,128.7-64.3,197.7-128.1c9.8-8.2,18.9-17.3,27.1-27.1l0.1-0.2c1.7-1.8,3.2-3.7,4.6-5.8
	c23.8-29.9,37-66.9,37.3-105.1C500.1,122.5,388.3,33,250.4,33L250.4,33z M168.9,283.7c0,7.2-5.8,13-13,13h-50.4c-7.2,0-13-5.8-13-13
	v-96.6c0-7.2,5.8-13,13-13h1.1c7.2,0,13,5.8,13,13v82.5h36.3c7.2,0,13,5.8,13,13L168.9,283.7z M206.6,283.7c0,7.2-5.8,13-13,13h-1.1
	c-7.2,0-13-5.8-13-13v-96.6c0-7.2,5.8-13,13-13h1.1c7.2,0,13,5.8,13,13V283.7z M324.5,283.7c0,3.4-1.4,6.7-3.7,9.1
	c-0.9,1-2,1.8-3.2,2.4c-1.9,1-4,1.5-6.1,1.5h-1.1c-1.7,0-3.4-0.3-4.9-1c-2-0.7-3.8-2-5.1-3.7c-0.3-0.4-0.7-0.8-0.9-1.3L252,226v57.7
	c0,7.2-5.8,13-13,13h-1c-7.2,0-13-5.8-13-13v-96.6c0-7.2,5.8-13,13-13h1.1c4.7,0,9,2.5,11.3,6.6l47.1,63.1v-56.7c0-7.2,5.8-13,13-13
	h1.1c7.2,0,13,5.8,13,13L324.5,283.7L324.5,283.7z M417.6,188.5c0,7.2-5.8,13-13,13h-36.3v20.6h36.3c7.2,0,13,5.8,13,13v1.1
	c0,7.2-5.8,13-13,13h-36.3v20.6h36.3c7.2,0,13,5.8,13,13v1.1c0,7.2-5.8,13-13,13h-50.4c-7.2,0-13-5.8-13-13v-96.6
	c0-7.2,5.8-13,13-13h50.4c7.2,0,13,5.8,13,13V188.5z"/>
</svg>
