<?xml version="1.0" encoding="utf-8"?>
<!-- Generator: Adobe Illustrator 22.1.0, SVG Export Plug-In . SVG Version: 6.00 Build 0)  -->
<svg version="1.1" id="圖層_1" xmlns="http://www.w3.org/2000/svg" xmlns:xlink="http://www.w3.org/1999/xlink" x="0px" y="0px"
	 viewBox="0 0 19.6 19.6" style="enable-background:new 0 0 19.6 19.6;" xml:space="preserve">
<style type="text/css">
	.st0{fill:none;}
</style>
<path class="st0" d="M0,0h19.6v19.6H0V0z"/>
<path d="M19.5,17.7l-4-4c1.1-1.5,1.7-3.3,1.7-5.1c0-4.7-3.8-8.5-8.5-8.6c0,0-0.1,0-0.1,0C3.9,0,0,3.8,0,8.5c0,0,0,0.1,0,0.1
	c0,4.7,3.8,8.5,8.5,8.6c0,0,0.1,0,0.1,0c1.9,0,3.7-0.6,5.1-1.7l4,4L19.5,17.7z M2.5,8.6c0-3.3,2.7-6.1,6-6.1c0,0,0.1,0,0.1,0
	c3.3,0,6.1,2.7,6.1,6c0,0,0,0.1,0,0.1c0,3.3-2.7,6.1-6,6.1c0,0-0.1,0-0.1,0c-3.3,0-6.1-2.7-6.1-6C2.4,8.6,2.4,8.6,2.5,8.6L2.5,8.6z"
	/>
</svg>
